<svg xmlns="http://www.w3.org/2000/svg" width="38" height="38" viewBox="0 0 38 38">
  <g id="contract" transform="translate(-1 -1)">
    <path id="Path_16949" data-name="Path 16949" d="M25,8.065v5.516H45.839V5H28.065V8.065Z" transform="translate(-9.29 -1.548)" fill="#c7417b"/>
    <path id="Path_16950" data-name="Path 16950" d="M18.52,1,13.258,6.262V22.2L5.851,29.605a.687.687,0,0,1-1.173-.486.694.694,0,0,1,.2-.486l5.748-5.748-.867-.867L4.012,27.767a1.91,1.91,0,0,0,.579,3.1L1.941,33.515a3.213,3.213,0,0,0,4.544,4.545l6.773-6.773V34.1H39V1Zm-.359,2.092V5.9H15.351ZM5.619,37.192a1.987,1.987,0,1,1-2.811-2.81l3.708-3.709,2.811,2.811Zm4.575-4.575L7.383,29.806,17.548,19.641l2.811,2.811Zm11-11.063L18.446,18.8a8.191,8.191,0,0,1,4.595-1.845A8.183,8.183,0,0,1,21.2,21.554ZM37.774,32.871H14.484V30.06l7.026-7.027a9.426,9.426,0,0,0,2.78-6.711V15.71h-.613a9.43,9.43,0,0,0-6.711,2.78l-2.482,2.483V7.129h4.9v-4.9H37.774Z" fill="#37224b"/>
    <path id="Path_16951" data-name="Path 16951" d="M47.774,47.129c-1.047,0-1.547-.889-1.912-1.538-.349-.62-.546-.913-.844-.913s-.5.293-.845.913c-.365.649-.865,1.538-1.913,1.538s-1.548-.889-1.914-1.538c-.349-.621-.547-.913-.846-.913s-.5.293-.845.913c-.365.65-.866,1.538-1.914,1.538H36a2.2,2.2,0,0,1-1.226-.371l-1.013-.675A7.925,7.925,0,0,1,30,47.129V45.9a6.334,6.334,0,0,0,2.589-.6l-.379-.253A2.21,2.21,0,0,1,33.435,41h.484a2.212,2.212,0,0,1,2.21,2.21v.127a2.181,2.181,0,0,1-.824,1.722c-.121.1-.257.2-.408.308l.557.371A.978.978,0,0,0,36,45.9h.742c.3,0,.5-.293.846-.913.365-.65.866-1.538,1.914-1.538s1.549.889,1.914,1.538c.349.621.547.913.845.913s.5-.293.845-.913c.365-.65.865-1.538,1.913-1.538s1.547.889,1.912,1.539c.349.62.546.913.843.913Zm-14.339-4.9a.984.984,0,0,0-.545,1.8l.908.606c.292-.191.543-.376.745-.536a.961.961,0,0,0,.36-.761V43.21a.985.985,0,0,0-.984-.984Z" transform="translate(-11.226 -15.484)" fill="#37224b"/>
    <path id="Path_16952" data-name="Path 16952" d="M52.032,34.419H43.452V31.968H41V24H52.032Z" transform="translate(-15.484 -8.903)" fill="#c7417b"/>
    <path id="Path_16953" data-name="Path 16953" d="M41,23H52.032v1.226H41Z" transform="translate(-15.484 -8.516)" fill="#37224b"/>
    <path id="Path_16954" data-name="Path 16954" d="M41,27H52.032v1.226H41Z" transform="translate(-15.484 -10.065)" fill="#37224b"/>
    <path id="Path_16955" data-name="Path 16955" d="M41,31H52.032v1.226H41Z" transform="translate(-15.484 -11.613)" fill="#37224b"/>
    <path id="Path_16956" data-name="Path 16956" d="M41,35h8.581v1.226H41Z" transform="translate(-15.484 -13.161)" fill="#37224b"/>
    <path id="Path_16957" data-name="Path 16957" d="M57,35h1.226v1.226H57Z" transform="translate(-21.677 -13.161)" fill="#37224b"/>
    <path id="Path_16958" data-name="Path 16958" d="M45,39h8.581v1.226H45Z" transform="translate(-17.032 -14.71)" fill="#37224b"/>
    <path id="Path_16959" data-name="Path 16959" d="M50.839,12.677a1.839,1.839,0,1,1,1.839-1.839A1.841,1.841,0,0,1,50.839,12.677Zm0-2.452a.613.613,0,1,0,.613.613A.614.614,0,0,0,50.839,10.226Z" transform="translate(-18.581 -3.097)" fill="#37224b"/>
    <path id="Path_16960" data-name="Path 16960" d="M42.839,12.677a1.839,1.839,0,1,1,1.839-1.839A1.841,1.841,0,0,1,42.839,12.677Zm0-2.452a.613.613,0,1,0,.613.613A.614.614,0,0,0,42.839,10.226Z" transform="translate(-15.484 -3.097)" fill="#37224b"/>
    <path id="Path_16961" data-name="Path 16961" d="M34.839,12.677a1.839,1.839,0,1,1,1.839-1.839A1.841,1.841,0,0,1,34.839,12.677Zm0-2.452a.613.613,0,1,0,.613.613A.614.614,0,0,0,34.839,10.226Z" transform="translate(-12.387 -3.097)" fill="#37224b"/>
    <path id="Path_16962" data-name="Path 16962" d="M25,21h1.226v1.226H25Z" transform="translate(-9.29 -7.742)" fill="#37224b"/>
    <path id="Path_16963" data-name="Path 16963" d="M25,25h1.226v1.226H25Z" transform="translate(-9.29 -9.29)" fill="#37224b"/>
  </g>
</svg>
