<svg id="Group_3856" data-name="Group 3856" xmlns="http://www.w3.org/2000/svg" xmlns:xlink="http://www.w3.org/1999/xlink" width="375" height="244.028" viewBox="0 0 375 244.028">
  <defs>
    <clipPath id="clip-path">
      <rect id="Rectangle_2402" data-name="Rectangle 2402" width="375" height="244.028" fill="none"/>
    </clipPath>
    <clipPath id="clip-path-3">
      <rect id="Rectangle_2390" data-name="Rectangle 2390" width="9.326" height="3.644" fill="#5a234a"/>
    </clipPath>
    <clipPath id="clip-path-4">
      <rect id="Rectangle_2391" data-name="Rectangle 2391" width="15.04" height="3.845" fill="#5a234a"/>
    </clipPath>
    <clipPath id="clip-path-5">
      <rect id="Rectangle_2392" data-name="Rectangle 2392" width="3.813" height="8.333" fill="none"/>
    </clipPath>
    <clipPath id="clip-path-6">
      <rect id="Rectangle_2394" data-name="Rectangle 2394" width="9.326" height="0.487" fill="#5a234a"/>
    </clipPath>
    <clipPath id="clip-path-7">
      <rect id="Rectangle_2395" data-name="Rectangle 2395" width="15.039" height="0.503" fill="#5a234a"/>
    </clipPath>
    <clipPath id="clip-path-8">
      <rect id="Rectangle_2396" data-name="Rectangle 2396" width="274.048" height="75.987" fill="none"/>
    </clipPath>
    <clipPath id="clip-path-9">
      <rect id="Rectangle_2399" data-name="Rectangle 2399" width="10.893" height="10.261" fill="none"/>
    </clipPath>
    <clipPath id="clip-path-10">
      <rect id="Rectangle_2400" data-name="Rectangle 2400" width="14.31" height="28.145" transform="translate(0 -4)" fill="none"/>
    </clipPath>
  </defs>
  <g id="Group_3855" data-name="Group 3855" clip-path="url(#clip-path)">
    <g id="Group_3854" data-name="Group 3854" transform="translate(0 0)">
      <g id="Group_3853" data-name="Group 3853" clip-path="url(#clip-path)">
        <path id="Path_17146" data-name="Path 17146" d="M42.223,1517.3c-21.311.728-32.991-4.425-42.136-16.685v54.869a33.275,33.275,0,0,0,7.938.958c18.975,0,34.356-15.986,34.356-35.7q0-1.74-.158-3.438" transform="translate(-0.078 -1347.594)" fill="#93517f" fill-rule="evenodd" opacity="0.634"/>
        <path id="Path_17147" data-name="Path 17147" d="M.086,1363.413c9.145,12.26,20.825,17.413,42.136,16.685-1.665-18.105-16.341-32.265-34.2-32.265a33.225,33.225,0,0,0-7.938.958Z" transform="translate(-0.077 -1210.389)" fill="rgba(147,81,127,0.33)" fill-rule="evenodd"/>
        <path id="Path_17148" data-name="Path 17148" d="M.086,1500.618v10.35c4.612,4.945,12.8,10.4,26.971,11.96,6.1.669,11.093.994,15.18,1.092q.141-1.618.144-3.278,0-1.74-.158-3.438c-21.311.728-32.991-4.425-42.136-16.685" transform="translate(-0.077 -1347.594)" fill="rgba(227,205,221,0.95)" fill-rule="evenodd" opacity="0.283"/>
        <path id="Path_17149" data-name="Path 17149" d="M.086,185.243c22.68-9.208,34.462-24.8,40.371-36.35H.086Z" transform="translate(-0.077 -133.71)" fill="#603968" fill-rule="evenodd"/>
        <path id="Path_17150" data-name="Path 17150" d="M.086,193.881c12.121-2.922,37.07-12.725,51.118-44.988H40.457c-5.91,11.547-17.691,27.142-40.371,36.35Z" transform="translate(-0.077 -133.71)" fill="#94688f" fill-rule="evenodd"/>
        <path id="Path_17151" data-name="Path 17151" d="M1221.94,747.275a30.484,30.484,0,1,1-38.838,18.709,30.483,30.483,0,0,1,38.838-18.709" transform="translate(-1060.913 -669.529)" fill="#b46d9f" fill-rule="evenodd" opacity="0.232"/>
        <path id="Path_17152" data-name="Path 17152" d="M1537.054,726.065l6.963,2.435,1.866-5.338-6.961-2.435Z" transform="translate(-1380.313 -647.231)" fill="#583864" fill-rule="evenodd"/>
        <path id="Path_17153" data-name="Path 17153" d="M1573.062,706.772l3.5,1.224-.711,2.03-3.5-1.225Z" transform="translate(-1412.012 -634.699)" fill="#583864" fill-rule="evenodd"/>
        <path id="Path_17154" data-name="Path 17154" d="M1258.39,789.2a26.185,26.185,0,1,1-33.362,16.071A26.185,26.185,0,0,1,1258.39,789.2" transform="translate(-1098.782 -707.397)" fill="rgba(47,23,70,0.94)" fill-rule="evenodd" opacity="0.704"/>
        <path id="Path_17155" data-name="Path 17155" d="M1529,836.034a.652.652,0,0,1,1.23.43l-1.807,5.164a.651.651,0,1,1-1.229-.43Z" transform="translate(-1371.429 -750.388)" fill="#b46d9f" fill-rule="evenodd" opacity="0.214"/>
        <path id="Path_17156" data-name="Path 17156" d="M1404.991,1190.56a.651.651,0,0,1,1.229.431l-1.806,5.164a.652.652,0,0,1-1.23-.431Z" transform="translate(-1260.062 -1068.762)" fill="#b46d9f" fill-rule="evenodd" opacity="0.214"/>
        <path id="Path_17157" data-name="Path 17157" d="M1434.1,828.078a.651.651,0,1,1,1.28-.242l1.019,5.376a.652.652,0,0,1-1.282.242Z" transform="translate(-1287.846 -742.942)" fill="#b46d9f" fill-rule="evenodd" opacity="0.214"/>
        <path id="Path_17158" data-name="Path 17158" d="M1503.967,1197.113a.651.651,0,1,1,1.279-.242l1.017,5.376a.651.651,0,1,1-1.279.242Z" transform="translate(-1350.59 -1074.345)" fill="#b46d9f" fill-rule="evenodd" opacity="0.214"/>
        <path id="Path_17159" data-name="Path 17159" d="M1334.155,876.6a.651.651,0,0,1,.987-.85l3.57,4.148a.652.652,0,0,1-.988.85Z" transform="translate(-1197.964 -786.243)" fill="#b46d9f" fill-rule="evenodd" opacity="0.214"/>
        <path id="Path_17160" data-name="Path 17160" d="M1579.174,1161.257a.651.651,0,1,1,.987-.85l3.57,4.147a.651.651,0,1,1-.988.85Z" transform="translate(-1417.997 -1041.872)" fill="#b46d9f" fill-rule="evenodd" opacity="0.214"/>
        <path id="Path_17161" data-name="Path 17161" d="M1631.979,1093.174a.652.652,0,0,1-.43,1.23l-5.165-1.807a.652.652,0,1,1,.431-1.23Z" transform="translate(-1460.143 -980.043)" fill="#b46d9f" fill-rule="evenodd" opacity="0.214"/>
        <path id="Path_17162" data-name="Path 17162" d="M1277.458,969.161a.651.651,0,1,1-.43,1.229l-5.164-1.806a.652.652,0,0,1,.43-1.23Z" transform="translate(-1141.774 -868.676)" fill="#b46d9f" fill-rule="evenodd" opacity="0.214"/>
        <path id="Path_17163" data-name="Path 17163" d="M1638.076,998.272a.652.652,0,0,1,.242,1.281l-5.376,1.017a.651.651,0,1,1-.242-1.279Z" transform="translate(-1465.731 -896.463)" fill="#b46d9f" fill-rule="evenodd" opacity="0.214"/>
        <path id="Path_17164" data-name="Path 17164" d="M1269.041,1068.141a.652.652,0,1,1,.244,1.281l-5.377,1.017a.651.651,0,0,1-.242-1.279Z" transform="translate(-1134.328 -959.208)" fill="#b46d9f" fill-rule="evenodd" opacity="0.214"/>
        <path id="Path_17165" data-name="Path 17165" d="M1600.383,898.336a.651.651,0,0,1,.849.988l-4.146,3.569a.652.652,0,0,1-.85-.988Z" transform="translate(-1433.257 -806.588)" fill="#b46d9f" fill-rule="evenodd" opacity="0.214"/>
        <path id="Path_17166" data-name="Path 17166" d="M1315.722,1143.361a.651.651,0,1,1,.849.987l-4.146,3.57a.652.652,0,0,1-.85-.988Z" transform="translate(-1177.625 -1026.626)" fill="#b46d9f" fill-rule="evenodd" opacity="0.214"/>
        <path id="Path_17167" data-name="Path 17167" d="M1452.219,1012.156a3.324,3.324,0,1,1-4.234,2.041,3.326,3.326,0,0,1,4.234-2.041" transform="translate(-1300.16 -908.774)" fill="#b46d9f" fill-rule="evenodd" opacity="0.214"/>
        <path id="Path_17168" data-name="Path 17168" d="M301.409,0H.087V7.457h312.6A72.5,72.5,0,0,0,301.409,0" transform="translate(-0.078 -0.002)" fill="#f0dbff" fill-rule="evenodd"/>
        <path id="Path_17169" data-name="Path 17169" d="M3459.806,511.514a5.971,5.971,0,0,1-1.024,2.464c-.7.7-2.371.743-2.09,1.115s.649-.093,1.579.93.789,2.091,1.208,2.231.373-.372.743-.93a3.993,3.993,0,0,1,2.184-1.673c1.07-.279.419-.837-.232-1.115-1.853-.795-1.849-4.137-2.369-3.022" transform="translate(-3104.169 -459.151)" fill="#93517f" fill-rule="evenodd"/>
        <path id="Path_17170" data-name="Path 17170" d="M3290.645,607.535a1.769,1.769,0,1,0-1.77-1.769,1.771,1.771,0,0,0,1.77,1.769" transform="translate(-2953.494 -542.406)" fill="#e4bfff" fill-rule="evenodd"/>
        <path id="Path_17171" data-name="Path 17171" d="M3222.425,759.3a2.749,2.749,0,0,1-.471,1.132c-.32.32-1.088.341-.96.512s.3-.043.728.427.362.961.553,1.025.171-.171.342-.428a1.835,1.835,0,0,1,1-.768c.491-.128.191-.385-.108-.513-.851-.365-.851-1.9-1.088-1.387" transform="translate(-2892.522 -681.778)" fill="#e4bfff" fill-rule="evenodd"/>
        <path id="Path_17172" data-name="Path 17172" d="M3358.72,447.64a.884.884,0,1,0-.884-.885.886.886,0,0,0,.884.885" transform="translate(-3015.423 -400.404)" fill="#e4bfff" fill-rule="evenodd"/>
        <path id="Path_17173" data-name="Path 17173" d="M3327.111,824.288a5.956,5.956,0,0,1-1.022,2.464c-.7.7-2.37.744-2.092,1.115s.651-.093,1.581.93.789,2.091,1.208,2.231.373-.372.743-.93a4,4,0,0,1,2.184-1.673c1.07-.279.419-.837-.233-1.115-1.853-.795-1.851-4.136-2.37-3.022" transform="translate(-2985.007 -740.03)" fill="#e4bfff" fill-rule="evenodd"/>
        <path id="Path_17174" data-name="Path 17174" d="M3213.377,910.055a.884.884,0,1,0-.884-.884.887.887,0,0,0,.884.884" transform="translate(-2884.901 -815.665)" fill="#e4bfff" fill-rule="evenodd"/>
        <path id="Path_17175" data-name="Path 17175" d="M2097.59,1332.121a5.992,5.992,0,0,1-1.022,2.464c-.7.7-2.373.744-2.092,1.116s.649-.093,1.579.929.79,2.092,1.208,2.231.373-.372.744-.93a4,4,0,0,1,2.184-1.673c1.07-.279.419-.837-.232-1.115-1.853-.794-1.849-4.136-2.368-3.022" transform="translate(-1886.865 -1203.077)" fill="#93517f" fill-rule="evenodd"/>
        <path id="Path_17176" data-name="Path 17176" d="M2528.8,1363.747a2.752,2.752,0,0,1-.471,1.132c-.32.32-1.088.341-.961.512s.3-.043.728.427.362.961.553,1.025.171-.172.342-.428a1.84,1.84,0,0,1,1-.769c.491-.127.191-.384-.107-.512-.851-.365-.851-1.9-1.088-1.387" transform="translate(-2269.629 -1224.587)" fill="#93517f" fill-rule="evenodd"/>
        <path id="Path_17177" data-name="Path 17177" d="M2504.076,1583.881a.883.883,0,1,0-.884-.884.885.885,0,0,0,.884.884" transform="translate(-2247.93 -1420.781)" fill="#93517f" fill-rule="evenodd"/>
        <path id="Path_17178" data-name="Path 17178" d="M2123.1,2144.213a1.769,1.769,0,1,0-1.767-1.77,1.775,1.775,0,0,0,1.767,1.77" transform="translate(-1905.009 -1922.382)" fill="#e4bfff" fill-rule="evenodd"/>
        <path id="Path_17179" data-name="Path 17179" d="M2619.483,2324.722a5.975,5.975,0,0,1-1.024,2.465c-.7.7-2.371.743-2.09,1.114s.649-.092,1.579.93.792,2.092,1.208,2.232.373-.373.743-.93a3.985,3.985,0,0,1,2.186-1.673c1.068-.281.418-.838-.233-1.116-1.855-.794-1.851-4.136-2.37-3.022" transform="translate(-2349.538 -2087.458)" fill="#e4bfff" fill-rule="evenodd"/>
        <path id="Path_17180" data-name="Path 17180" d="M2774.818,2109.6a2.74,2.74,0,0,1-.469,1.132c-.32.32-1.09.342-.96.513s.3-.044.726.425.362.96.554,1.024.169-.171.342-.425a1.827,1.827,0,0,1,1-.77c.491-.127.193-.384-.108-.511-.851-.366-.849-1.9-1.087-1.388" transform="translate(-2490.561 -1894.378)" fill="#e4bfff" fill-rule="evenodd"/>
        <path id="Path_17181" data-name="Path 17181" d="M2375.056,1727.587a5.965,5.965,0,0,1-1.022,2.465c-.7.7-2.371.743-2.092,1.116s.651-.094,1.581.928.79,2.092,1.208,2.232.371-.373.743-.93a4,4,0,0,1,2.184-1.673c1.07-.278.419-.837-.232-1.116-1.853-.794-1.851-4.136-2.37-3.022" transform="translate(-2130.037 -1551.215)" fill="#93517f" fill-rule="evenodd"/>
        <path id="Path_17182" data-name="Path 17182" d="M2920.259,1917.449a.884.884,0,1,0-.884-.884.887.887,0,0,0,.884.884" transform="translate(-2621.673 -1720.332)" fill="#93517f" fill-rule="evenodd" opacity="0.848"/>
        <path id="Path_17183" data-name="Path 17183" d="M2995.052,2019.553a1.767,1.767,0,1,0-1.767-1.767,1.772,1.772,0,0,0,1.767,1.767" transform="translate(-2688.046 -1810.436)" fill="#93517f" fill-rule="evenodd" opacity="0.848"/>
        <path id="Path_17184" data-name="Path 17184" d="M2200.208,1832.81a.884.884,0,1,0-.884-.884.888.888,0,0,0,.884.884" transform="translate(-1975.049 -1644.323)" fill="#93517f" fill-rule="evenodd"/>
        <path id="Path_17185" data-name="Path 17185" d="M2317.8,2002.244a2.73,2.73,0,0,1-.469,1.129c-.32.32-1.09.342-.96.513s.3-.042.726.428.362.96.555,1.024.169-.171.34-.428a1.828,1.828,0,0,1,1-.767c.491-.13.193-.386-.108-.513-.851-.364-.848-1.9-1.087-1.386" transform="translate(-2080.146 -1797.973)" fill="#93517f" fill-rule="evenodd" opacity="0.698"/>
        <path id="Path_17186" data-name="Path 17186" d="M2398.463,522.015h17.512a5.233,5.233,0,0,1,5.219,5.217V531.7a5.233,5.233,0,0,1-5.219,5.216h-7.547l-10.717,7.07,2.438-7.07h-1.686a5.232,5.232,0,0,1-5.217-5.216v-4.472a5.231,5.231,0,0,1,5.217-5.217" transform="translate(-2149.196 -468.783)" fill="#3e215a" fill-rule="evenodd" opacity="0.918"/>
        <path id="Path_17187" data-name="Path 17187" d="M2457.585,597.4a1.032,1.032,0,1,0-1.033-1.032,1.035,1.035,0,0,0,1.033,1.032" transform="translate(-2206.046 -534.623)" fill="#b46d9f" fill-rule="evenodd" opacity="0.841"/>
        <path id="Path_17188" data-name="Path 17188" d="M2522.373,597.4a1.032,1.032,0,1,0-1.031-1.032,1.035,1.035,0,0,0,1.031,1.032" transform="translate(-2264.229 -534.623)" fill="#b46d9f" fill-rule="evenodd" opacity="0.841"/>
        <path id="Path_17189" data-name="Path 17189" d="M2587.123,597.4a1.032,1.032,0,1,0-1.033-1.032,1.035,1.035,0,0,0,1.033,1.032" transform="translate(-2322.375 -534.623)" fill="#b46d9f" fill-rule="evenodd" opacity="0.841"/>
        <path id="Path_17190" data-name="Path 17190" d="M174.771,581.91a11.626,11.626,0,1,0-11.627-11.626,11.65,11.65,0,0,0,11.627,11.626" transform="translate(-146.507 -501.688)" fill="#b46d9f" fill-rule="evenodd" opacity="0.217"/>
        <path id="Path_17191" data-name="Path 17191" d="M270.12,491.255a.9.9,0,0,1-1.8,0v-3.109a.9.9,0,0,1,1.8,0Z" transform="translate(-240.955 -437.558)" fill="#93517f" fill-rule="evenodd" opacity="0.416"/>
        <path id="Path_17192" data-name="Path 17192" d="M270.12,813.962a.9.9,0,0,1-1.8,0v-3.11a.9.9,0,0,1,1.8,0Z" transform="translate(-240.955 -727.357)" fill="#93517f" fill-rule="evenodd" opacity="0.416"/>
        <path id="Path_17193" data-name="Path 17193" d="M415.327,665.635a.9.9,0,0,1,0-1.8h3.108a.9.9,0,0,1,0,1.8Z" transform="translate(-372.165 -596.138)" fill="#93517f" fill-rule="evenodd" opacity="0.416"/>
        <path id="Path_17194" data-name="Path 17194" d="M92.62,665.635a.9.9,0,1,1,0-1.8H95.73a.9.9,0,0,1,0,1.8Z" transform="translate(-82.366 -596.138)" fill="#93517f" fill-rule="evenodd" opacity="0.416"/>
        <path id="Path_17195" data-name="Path 17195" d="M396.206,578.777a.9.9,0,0,1-.9-1.561L398,575.661a.9.9,0,0,1,.9,1.561Z" transform="translate(-354.589 -516.85)" fill="#93517f" fill-rule="evenodd" opacity="0.416"/>
        <path id="Path_17196" data-name="Path 17196" d="M116.733,740.131a.9.9,0,1,1-.9-1.559l2.692-1.555a.9.9,0,1,1,.9,1.561Z" transform="translate(-103.616 -661.751)" fill="#93517f" fill-rule="evenodd" opacity="0.416"/>
        <path id="Path_17197" data-name="Path 17197" d="M343.057,514.945a.9.9,0,1,1-1.561-.9l1.555-2.693a.9.9,0,1,1,1.56.9Z" transform="translate(-306.563 -458.803)" fill="#93517f" fill-rule="evenodd" opacity="0.416"/>
        <path id="Path_17198" data-name="Path 17198" d="M181.7,794.418a.9.9,0,0,1-1.56-.9l1.555-2.693a.9.9,0,0,1,1.56.9Z" transform="translate(-161.663 -709.776)" fill="#93517f" fill-rule="evenodd" opacity="0.416"/>
        <path id="Path_17199" data-name="Path 17199" d="M395.3,738.572a.9.9,0,1,1,.9-1.559l2.692,1.553a.9.9,0,1,1-.9,1.561Z" transform="translate(-354.589 -661.747)" fill="#93517f" fill-rule="evenodd" opacity="0.416"/>
        <path id="Path_17200" data-name="Path 17200" d="M115.833,577.222a.9.9,0,1,1,.9-1.561l2.693,1.555a.9.9,0,1,1-.9,1.559Z" transform="translate(-103.616 -516.85)" fill="#93517f" fill-rule="evenodd" opacity="0.416"/>
        <path id="Path_17201" data-name="Path 17201" d="M341.5,791.722a.9.9,0,0,1,1.561-.9l1.554,2.691a.9.9,0,1,1-1.56.9Z" transform="translate(-306.563 -709.772)" fill="#93517f" fill-rule="evenodd" opacity="0.416"/>
        <path id="Path_17202" data-name="Path 17202" d="M180.141,512.25a.9.9,0,0,1,1.56-.9l1.555,2.693a.9.9,0,0,1-1.56.9Z" transform="translate(-161.663 -458.801)" fill="#93517f" fill-rule="evenodd" opacity="0.416"/>
        <path id="Path_17203" data-name="Path 17203" d="M189,594.528a10.01,10.01,0,1,0-10.01-10.01A10.03,10.03,0,0,0,189,594.528" transform="translate(-160.738 -515.922)" fill="#efe1fa" fill-rule="evenodd" opacity="0.137"/>
        <path id="Path_17204" data-name="Path 17204" d="M204.694,608.426a8.23,8.23,0,1,0-8.23-8.23,8.246,8.246,0,0,0,8.23,8.23" transform="translate(-176.43 -531.602)" fill="#94688f" fill-rule="evenodd" opacity="0.586"/>
        <path id="Path_17205" data-name="Path 17205" d="M658.122,721.656s2.518,4.8,2.694,5.887-.64,2.641-.8,3.371,1.306,2.209,1.622,2.734-.088,1.89-.743,2.036a3.627,3.627,0,0,1-.813.131,9.665,9.665,0,0,0,0,1.609c.087.38.076.5-.437.868s-.656.392-.484.944.356.736-.1,1.106-.5.388-.512,1.027.067,1.966-1.252,1.926-4.853-2.042-6.043-3.1-1.071-3.774-1.071-3.774-1.269-.16-1.6-.894-1.985-2.5-1.907-4.305,3.055-3.265,4-1.65.766,2.219.766,2.219,2.089-3.686,3.267-4.319a1.517,1.517,0,0,0,.319-2.694c-1.054-.8-.551-2.859,3.1-3.117" transform="translate(-580.73 -648.066)" fill="#f0bb8f" fill-rule="evenodd" opacity="0.986"/>
        <path id="Path_17206" data-name="Path 17206" d="M451.557,911.322s3.767-.885,5.329.044,4.925,3.722,3.523,9.617-2.385,5.681-3.2,7.668-2.414,5.554-4.337,5.54-5.135-3.618-5.743-4.913a49.151,49.151,0,0,1-1.591-4.689,48.017,48.017,0,0,0-1.814,8.747c-.368,4.176.535,10.288-1.43,13.49s-2.711,5.279-2.472,6.209a4.365,4.365,0,0,0,1.128,1.756s8.041.669,10.3,1.458,7.079,1.57,8.143,1.339,1.778-1.071,1.612-2.821a26.285,26.285,0,0,1,1.849-10.973c1.836-4.452,1.915-6.261,2.783-8.822s2.5-7.817,1.377-13.329-1.893-6.741-2.25-6.774-.173.6-.069,1.232a34.463,34.463,0,0,1,.728,4.94c.12,2.281-1.005-1.334-1.885-3.644s-4.191-7.947-6.19-8.463a5.676,5.676,0,0,0-5.787,2.389" transform="translate(-394.932 -816.121)" fill="#300055" fill-rule="evenodd"/>
        <path id="Path_17207" data-name="Path 17207" d="M582.493,1136.432a5.626,5.626,0,0,1-.884.968,12.042,12.042,0,0,0,5.063.883,20.889,20.889,0,0,0,6.94-1.458c.1-.349.2-.717.3-1.1a17.363,17.363,0,0,1-5.322,1.412,15.52,15.52,0,0,1-6.1-.7" transform="translate(-522.3 -1019.907)" fill="#7e51aa" fill-rule="evenodd"/>
        <path id="Path_17208" data-name="Path 17208" d="M601.045,1078.224a27.324,27.324,0,0,0-1.5,2.58,26.458,26.458,0,0,1-1.266,2.7,15.226,15.226,0,0,0,6.916.593,9.7,9.7,0,0,0,4-1.384,26.651,26.651,0,0,0,.448-3.063,10.486,10.486,0,0,1-2.089.582c-1.733.3-4.937-1.2-6.51-2.012" transform="translate(-537.273 -968.273)" fill="#7e51aa" fill-rule="evenodd"/>
        <path id="Path_17209" data-name="Path 17209" d="M218.148,930.226A46.725,46.725,0,0,0,212.9,933c-1.287.953-10.918,3.768-14.684,5.562s-3.68,2.628-3.725,3.121-3.766,8.151-4.807,12.678-2.24,9.946-2.24,9.946l-6.041,3.481c-.549.32-1.3.621-1.479,1.307a1.243,1.243,0,0,0,.26,1.139,1.657,1.657,0,0,0-.248,1.463c.243.89.886.867.886.867a1.079,1.079,0,0,0-.247.968.851.851,0,0,0,.71.6s-.7.677-.116,1.309,4.477-.282,4.477-.282a8.116,8.116,0,0,0,2.208-1.4c.962-.9,4.789-7.024,4.789-7.024s.7-2,1.051-3.286a79.607,79.607,0,0,1,3.774-9.143c1.46-2.918,4.779-8.717,4.779-8.717l9.884-2.09a49.159,49.159,0,0,0,1.591,4.689c.608,1.295,3.819,4.9,5.743,4.913s3.521-3.552,4.337-5.54,1.8-1.772,3.2-7.668-1.961-8.687-3.523-9.617-5.329-.044-5.329-.044" transform="translate(-161.523 -835.025)" fill="#f0bb8f" fill-rule="evenodd" opacity="0.851"/>
        <path id="Path_17210" data-name="Path 17210" d="M494.866,1047.827a.161.161,0,0,1-.185-.134.166.166,0,0,1,.132-.189c.025,0,8.665-1.581,9.26-1.654.481-.06.826,1.014,1.1,1.874a4.716,4.716,0,0,0,.317.868.168.168,0,0,1,.065.223.156.156,0,0,1-.216.067,2.525,2.525,0,0,1-.468-1.054c-.239-.747-.538-1.678-.761-1.651-.54.067-9.219,1.647-9.244,1.651" transform="translate(-444.235 -939.198)" fill="#dd9a69" fill-rule="evenodd"/>
        <path id="Path_17211" data-name="Path 17211" d="M200.93,1306.147a.145.145,0,0,1,.169-.117.148.148,0,0,1,.114.174,2.15,2.15,0,0,0,.083,1.116,1.511,1.511,0,0,1,.065.786,1.01,1.01,0,0,0,.193.888,3.586,3.586,0,0,0,.381.314,1.107,1.107,0,0,1,.587,1.173,1,1,0,0,0,.248.757,1.281,1.281,0,0,0,.786.43c.3.029.377.291.46.581.075.266.16.568.511.583a.147.147,0,0,1,.137.153.145.145,0,0,1-.149.141c-.557-.023-.673-.433-.774-.8-.053-.19-.1-.359-.211-.369a1.574,1.574,0,0,1-.973-.528,1.288,1.288,0,0,1-.321-.979.868.868,0,0,0-.471-.908,3.927,3.927,0,0,1-.406-.338,1.239,1.239,0,0,1-.282-1.13,1.3,1.3,0,0,0-.04-.634,2.458,2.458,0,0,1-.106-1.3" transform="translate(-180.401 -1172.847)" fill="#dd9a69" fill-rule="evenodd"/>
        <path id="Path_17212" data-name="Path 17212" d="M192.492,1362.732a.148.148,0,0,1,0-.3s1.724,0,2.121-.026a.148.148,0,0,1,.017.295c-.41.024-2.134.027-2.138.027" transform="translate(-172.733 -1223.479)" fill="#dd9a69" fill-rule="evenodd"/>
        <path id="Path_17213" data-name="Path 17213" d="M187.049,1344.365a.143.143,0,0,1-.161-.126.146.146,0,0,1,.12-.167c.005,0,1.868-.3,2.171-.354a.144.144,0,0,1,.165.121.147.147,0,0,1-.117.17c-.307.054-2.171.354-2.178.354" transform="translate(-167.828 -1206.692)" fill="#dd9a69" fill-rule="evenodd"/>
        <path id="Path_17214" data-name="Path 17214" d="M181.721,1322.925a.144.144,0,0,1-.156-.132.146.146,0,0,1,.128-.162s1.363-.137,1.533-.2a.143.143,0,0,1,.182.092.151.151,0,0,1-.09.187c-.2.071-1.594.212-1.6.212" transform="translate(-163.05 -1187.573)" fill="#dd9a69" fill-rule="evenodd"/>
        <path id="Path_17215" data-name="Path 17215" d="M602.648,809.476a13.372,13.372,0,0,0-1.054,3.6,2.272,2.272,0,0,1-1.847,2.3,3.728,3.728,0,0,1-1.447.03l-.806,4.213a4.53,4.53,0,0,1,1.483.124c2,.516,5.312,6.152,6.191,8.463s2,5.925,1.885,3.644a34.451,34.451,0,0,0-.728-4.94c-.038-.237-.09-.475-.119-.678a1.633,1.633,0,0,1-.021-.315,5.148,5.148,0,0,1,.9-3.21c1.132-1.463,3.634-1.387,3.634-1.387a18.867,18.867,0,0,1-3.62-2.265c-1.19-1.061-1.071-3.774-1.071-3.774s-1.269-.16-1.6-.894-1.985-2.5-1.907-4.306a1.851,1.851,0,0,1,.136-.606" transform="translate(-536.565 -726.93)" fill="#ecac7d" fill-rule="evenodd"/>
        <path id="Path_17216" data-name="Path 17216" d="M692.284,919.025a35.011,35.011,0,0,1,1.483,5.627c1.026,5.064-.264,9.911-1.151,12.653,0,0,7.73,8.727,9.409,9.708a3.559,3.559,0,0,0,3.274.141,45.728,45.728,0,0,0,3.927-5.412c3.137-4.66,7.677-16.124,8.009-16.26a1.8,1.8,0,0,0,1.472-1.224,25.609,25.609,0,0,0,1.064-6.176c-.018-1.157-.632-1.008-.632-1.008a2.71,2.71,0,0,0-.231-1.013c-.236-.517-.955-.089-.955-.089a2.836,2.836,0,0,0-.46-1.611c-.528-.834-1.472-.137-1.472-.137a2.552,2.552,0,0,0-.549-1.5c-.575-.755-.946-.645-1.45-.382s-1.7,3.122-1.7,3.122-.21-.8-.563-1.786a1.35,1.35,0,0,0-1.8-.911c-.467.287-.365.5-.087,1.437a12.793,12.793,0,0,1,.851,4c.008,1.735,1.146,3.823,1.472,4.679a5.317,5.317,0,0,1-.231,3.528c-2.216,4.632-4.143,6.92-8.416,9.493-.707.426-6.428-6.52-7.391-8.492-1.8-3.675-2.146-6.068-3.87-8.389" transform="translate(-621.689 -819.13)" fill="#f0bb8f" fill-rule="evenodd" opacity="0.716"/>
        <path id="Path_17217" data-name="Path 17217" d="M903.884,930.821a.16.16,0,0,1,.19-.126.165.165,0,0,1,.123.195c0,.01-.675,3.3-.88,3.68a.594.594,0,0,1-.409.283.814.814,0,0,1-.29,0,.892.892,0,0,1-.3-.108,1.378,1.378,0,0,1-.611-.989,7.381,7.381,0,0,1,.381-2.98.158.158,0,0,1,.2-.1.164.164,0,0,1,.1.208,7.07,7.07,0,0,0-.369,2.812,1.07,1.07,0,0,0,.452.767.593.593,0,0,0,.2.07.512.512,0,0,0,.179,0,.282.282,0,0,0,.193-.118c.177-.329.844-3.582.846-3.591" transform="translate(-809.707 -835.763)" fill="#dd9a69" fill-rule="evenodd"/>
        <path id="Path_17218" data-name="Path 17218" d="M921.267,948.172a.157.157,0,0,1,.2-.113.164.164,0,0,1,.111.2c0,.012-1.042,3.858-1.082,4.075a.312.312,0,0,1-.182.225.659.659,0,0,1-.226.061.974.974,0,0,1-.263-.014.992.992,0,0,1-.723-.558,4.1,4.1,0,0,1-.236-1.674.161.161,0,0,1,.169-.152.163.163,0,0,1,.149.175,3.756,3.756,0,0,0,.2,1.507.677.677,0,0,0,.493.38.643.643,0,0,0,.177.01.334.334,0,0,0,.115-.029c.008,0,.008.023.009.011h0c.041-.229,1.084-4.093,1.087-4.1" transform="translate(-825.157 -851.375)" fill="#dd9a69" fill-rule="evenodd"/>
        <path id="Path_17219" data-name="Path 17219" d="M937.3,958.977a.161.161,0,0,1,.194-.12.165.165,0,0,1,.116.2l-.85,3.471-.018.077-.07.033s-.794.377-1.237-.115a.167.167,0,0,1,.008-.232.155.155,0,0,1,.224.008c.227.252.641.13.8.069Z" transform="translate(-840.009 -861.074)" fill="#dd9a69" fill-rule="evenodd"/>
        <path id="Path_17220" data-name="Path 17220" d="M952.052,979.949a.161.161,0,0,1,.181-.139.166.166,0,0,1,.136.187s-.262,1.875-.992,1.979a.161.161,0,0,1-.18-.141.163.163,0,0,1,.136-.185c.489-.071.719-1.7.719-1.7" transform="translate(-854.198 -879.893)" fill="#dd9a69" fill-rule="evenodd"/>
        <path id="Path_17221" data-name="Path 17221" d="M906.7,967.511a.166.166,0,0,1,0-.232.156.156,0,0,1,.226,0,7.028,7.028,0,0,1,1.849,3.339.159.159,0,1,1-.317.031,6.705,6.705,0,0,0-1.758-3.138" transform="translate(-814.193 -868.597)" fill="#dd9a69" fill-rule="evenodd"/>
        <path id="Path_17222" data-name="Path 17222" d="M887.3,943.4a.167.167,0,0,1-.026-.229.157.157,0,0,1,.223-.027,7.066,7.066,0,0,1,1.841,2.341.166.166,0,0,1-.079.217.157.157,0,0,1-.211-.082A6.727,6.727,0,0,0,887.3,943.4" transform="translate(-796.762 -846.935)" fill="#dd9a69" fill-rule="evenodd"/>
        <path id="Path_17223" data-name="Path 17223" d="M364.574,1362.646c-1.063.232-5.886-.55-8.143-1.339s-10.3-1.458-10.3-1.458c-2.343,1.8-4.576,5.723-4.994,10.472s-.05,8.747-1.51,10.758-5.433,11-5.433,11,.338.413,4.734,2.391,9.741,4.131,9.741,4.131a13.954,13.954,0,0,0,2.58-2.9c1.728-2.315,5.407-11.3,5.407-11.3l24.111,3.946-.644.393.049.005,2.385-1.593c2.386-1.594,6.564-11.688,6.564-11.688a77.164,77.164,0,0,0-10.555-4.829c-4.356-1.41-9.708-3.074-10.757-3.773h0c-.129-.065-.252-.13-.365-.2a5.705,5.705,0,0,1-2.415-4.171,2.4,2.4,0,0,1-.456.147" transform="translate(-300.117 -1221.179)" fill="#300055" fill-rule="evenodd"/>
        <path id="Path_17224" data-name="Path 17224" d="M578.172,1381.05c-.406-.073-.812-.154-1.21-.24a7.91,7.91,0,0,0,5.139,8.247c5.749,2.332,19.591,5.918,19.63,5.928l.3-1.224c-.04-.009-13.826-3.581-19.488-5.877a6.648,6.648,0,0,1-4.374-6.833" transform="translate(-518.102 -1240.003)" fill="#7e51aa" fill-rule="evenodd"/>
        <path id="Path_17225" data-name="Path 17225" d="M555.668,1375.673c-.43-.107-.831-.217-1.187-.329-.242,1.387-.88,7.17,4.585,10.026,5.87,3.067,21.745,6.265,21.79,6.274l.235-1.237c-.045-.01-15.762-3.178-21.474-6.161-4.6-2.4-4.165-7.239-3.948-8.573" transform="translate(-497.799 -1235.094)" fill="#7e51aa" fill-rule="evenodd"/>
        <path id="Path_17226" data-name="Path 17226" d="M427.677,1546.755a9.668,9.668,0,0,1-1.558-1.829l-.113.063a4.1,4.1,0,0,1,.247,3.064c-.737,1.71-3.209,9.655-3.216,9.677l1.165.38c.007-.022,2.459-7.908,3.167-9.548a4.113,4.113,0,0,0,.309-1.806" transform="translate(-379.897 -1387.383)" fill="#7e51aa" fill-rule="evenodd"/>
        <path id="Path_17227" data-name="Path 17227" d="M454.443,1573.066c-.385-.219-.767-.458-1.138-.72a26.882,26.882,0,0,1-.492,2.672c-.45,1.945-2.566,8.456-2.572,8.475l1.159.4c.007-.018,2.151-6.619,2.606-8.583.215-.934.352-1.7.437-2.243" transform="translate(-404.327 -1412.007)" fill="#7e51aa" fill-rule="evenodd"/>
        <path id="Path_17228" data-name="Path 17228" d="M633.681,1521.145c-1.121-2.747-8.508-8.141-8.508-8.141S621,1523.1,618.61,1524.692l-.963.642a3.736,3.736,0,0,1-1.422.951c-.091.039-.181.084-.272.13l-.786.479c-3.584,2.529-6.747,9.325-8.144,11.9-1.533,2.83-9.889,10.3-9.889,10.3s-.3,2.531.245,3.573,4.366,2.307,6.037,1.555,2.228,1.116,2.228,1.116l.108-1.228c.108-1.229,2.139-3.35,5.892-6.8s18.964-16.805,20.685-19.039,2.473-4.392,1.352-7.137" transform="translate(-536.166 -1358.716)" fill="#f0bb8f" fill-rule="evenodd" opacity="0.712"/>
        <path id="Path_17229" data-name="Path 17229" d="M549.7,1866.814c-1.671.752-5.487-.513-6.037-1.555s-.245-3.573-.245-3.573l.364-.33s-.6-.562-1.128-.075-4.9,4.207-4.9,4.207a1.085,1.085,0,0,0-.5,1.069,5.5,5.5,0,0,0,1.2,2.3c.857,1.195,4.762,5.564,6.284,8.307s6.018,5.433,7.484,6.52a12.863,12.863,0,0,0,2.2,1.4,2.164,2.164,0,0,0,.966-.488,1.227,1.227,0,0,0,.032-1.73c-.469-.581-3.848-4.116-3.653-8.144s.57-5.6.156-6.794c-.009-.026-.018-.054-.028-.083a1.564,1.564,0,0,0-2.2-1.033" transform="translate(-482.454 -1671.3)" fill="#72499a" fill-rule="evenodd"/>
        <path id="Path_17230" data-name="Path 17230" d="M623.216,1986.5a16.5,16.5,0,0,1-.96-1.448,28.2,28.2,0,0,1-8.192-6.921s.158.924,3.3,4.024a33.852,33.852,0,0,0,5.857,4.344" transform="translate(-551.445 -1776.414)" fill="#7508c9" fill-rule="evenodd"/>
        <path id="Path_17231" data-name="Path 17231" d="M647.464,1811.241c1.233,1.468,3.891,4.324,6.771,5.52.293-.289.608-.594.942-.911-2.932-1.328-5.594-4.3-6.693-5.633-.336.342-.678.686-1.02,1.024" transform="translate(-581.439 -1625.621)" fill="#fff" fill-rule="evenodd"/>
        <path id="Path_17232" data-name="Path 17232" d="M608.961,1825.778c-2.879-1.2-5.537-4.052-6.771-5.52-1.954,1.935-3.9,3.724-4.693,4.437l-.364.33s-.3,2.531.245,3.573,4.366,2.307,6.037,1.555,2.228,1.116,2.228,1.116l.108-1.228c.079-.894,1.174-2.258,3.209-4.263" transform="translate(-536.165 -1634.638)" fill="#d1bae6" fill-rule="evenodd"/>
        <path id="Path_17233" data-name="Path 17233" d="M591.1,657.426a4.117,4.117,0,0,0-1.191-4.147c-1.983-2.083-6.068-3.952-8.472-3.97s-.983,2.055-.983,2.055-3.963-.081-5.329.864a1.284,1.284,0,0,0-.184,2.089c-2.973,1.5-4.571,5.848-2.124,11.36a2.959,2.959,0,0,1,.256,1.634l.583-1.143.3,1.555s.21-.215.506-.548a7.957,7.957,0,0,0,.388,2.242,5.919,5.919,0,0,1,.21,2.154,3.728,3.728,0,0,0,1.447-.03,2.273,2.273,0,0,0,1.847-2.3,13.379,13.379,0,0,1,1.054-3.6c.6-1.5,3.027-2.472,3.86-1.044.94,1.615.766,2.219.766,2.219s2.089-3.686,3.267-4.319a1.536,1.536,0,0,0,.811-2.155,1.913,1.913,0,0,0-.492-.54c-1.054-.8-.551-2.858,3.1-3.117,0,0,.152.289.381.739" transform="translate(-513.329 -583.096)" fill="#300055" fill-rule="evenodd"/>
        <path id="Path_17234" data-name="Path 17234" d="M541.943,1908.883c-1.06-1.207-3.118-4.026-4.094-5.379l-.094.08a1.085,1.085,0,0,0-.5,1.069,5.5,5.5,0,0,0,1.2,2.3c.857,1.195,4.762,5.564,6.284,8.307s6.018,5.433,7.484,6.52a12.853,12.853,0,0,0,2.2,1.4,2.164,2.164,0,0,0,.966-.488,1.146,1.146,0,0,0,.114-.114,40.037,40.037,0,0,1-8.177-6.175c-1.508-1.544-3.969-5.9-5.391-7.522" transform="translate(-482.455 -1709.395)" fill="#673c90" fill-rule="evenodd"/>
        <path id="Path_17235" data-name="Path 17235" d="M795.379,1631.825a.163.163,0,0,1-.18-.141.166.166,0,0,1,.14-.185,29.065,29.065,0,0,1,6.4-.117.163.163,0,0,1,.132.188.159.159,0,0,1-.182.136,28.68,28.68,0,0,0-6.308.119" transform="translate(-714.109 -1464.89)" fill="#e66161" fill-rule="evenodd"/>
        <path id="Path_17236" data-name="Path 17236" d="M749.927,883.58a12,12,0,0,1-1.9.193c-1.039.021-1.158-.02-.859.124a11.536,11.536,0,0,0,2.177.941c-.021-.058-.042-.122-.063-.19-.172-.553-.03-.581.484-.945.062-.045.117-.086.166-.124" transform="translate(-670.844 -793.478)" fill="#fff" fill-rule="evenodd"/>
        <path id="Path_17237" data-name="Path 17237" d="M745.448,783.155a.307.307,0,0,1,.365.239.315.315,0,0,1-.233.375,1.787,1.787,0,0,1-1.224-.235,2.351,2.351,0,0,1-.334-.314,1.606,1.606,0,0,0-1.485-.628.31.31,0,0,1-.334-.284.313.313,0,0,1,.276-.343,2.128,2.128,0,0,1,1.985.819,1.928,1.928,0,0,0,.243.236,1.092,1.092,0,0,0,.741.136" transform="translate(-666.516 -702.211)" fill="#12001f" fill-rule="evenodd"/>
        <path id="Path_17238" data-name="Path 17238" d="M759.14,796.127c.321.027.545.509.5,1.075s-.344,1-.665.974-.545-.509-.5-1.076.344-1,.666-.974" transform="translate(-681.123 -714.941)" fill="#300055" fill-rule="evenodd"/>
        <path id="Path_17239" data-name="Path 17239" d="M771.616,852.4a.164.164,0,0,1,0,.329,1.076,1.076,0,0,0-.464.07.158.158,0,0,1-.223-.033.168.168,0,0,1,.033-.23,1.207,1.207,0,0,1,.654-.136" transform="translate(-692.286 -765.477)" fill="#dd9a69" fill-rule="evenodd"/>
        <path id="Path_17240" data-name="Path 17240" d="M754.386,901.665a.166.166,0,0,1,.092.211.159.159,0,0,1-.2.1,3.079,3.079,0,0,1-1-.7.168.168,0,0,1,.006-.231.154.154,0,0,1,.224.006,2.655,2.655,0,0,0,.882.616" transform="translate(-676.42 -809.119)" fill="#dd9a69" fill-rule="evenodd"/>
        <path id="Path_17241" data-name="Path 17241" d="M663.665,809.1a.749.749,0,0,1,1.138.433c.278.905-.36,1.089-.24,1.623s.518,1.048.28,1.789-2.456-3.083-1.178-3.845" transform="translate(-595.633 -726.479)" fill="#dd9a69" fill-rule="evenodd"/>
        <path id="Path_17242" data-name="Path 17242" d="M670.67,863.783a20.869,20.869,0,0,0,1.108,9.937,4.585,4.585,0,0,1,.854-2.244c1.132-1.462,3.634-1.386,3.634-1.386a18.872,18.872,0,0,1-3.62-2.265c-1.19-1.061-1.071-3.774-1.071-3.774a3.37,3.37,0,0,1-.9-.268" transform="translate(-602.116 -775.699)" fill="#dda77f" fill-rule="evenodd"/>
        <path id="Path_17243" data-name="Path 17243" d="M254.813,1330.469a35.483,35.483,0,0,1,1.1-3.8,30.127,30.127,0,0,1-2.486,3.443,6.485,6.485,0,0,1-.54.448c.189,1.2.41,1.554,1.09,1.554s.638-.452.839-1.645" transform="translate(-227.096 -1191.383)" fill="#dd9a69" fill-rule="evenodd"/>
        <path id="Path_17244" data-name="Path 17244" d="M102.046,2043.4a15.041,15.041,0,0,0,6.655,4.693c.286-.4.6-.818.946-1.254a15.326,15.326,0,0,1-6.853-4.705c-.252.431-.5.853-.748,1.266" transform="translate(-91.64 -1833.89)" fill="#fff" fill-rule="evenodd"/>
        <path id="Path_17245" data-name="Path 17245" d="M16.276,2100.755a2.434,2.434,0,0,0-2.076.739c-1.119.987-4.313,3.372-4.393,3.948s1.678,2.383,2.955,4.687,3.435,5.1,4.313,7.976a6.611,6.611,0,0,0,3.274,3.948l5.99.163s2.558-.163,1.359-2.138-4.313-.493-4.313-2.877-.915-7.279-.514-8.594a7.227,7.227,0,0,0,.318-2.385s-7.073,3.5-6.912-5.466" transform="translate(-8.805 -1886.507)" fill="#72499a" fill-rule="evenodd"/>
        <path id="Path_17246" data-name="Path 17246" d="M90.6,2206.455c-1.02-.193-1.981-.281-2.132-1.364-5.127-1.017-6.211-6.838-6.211-6.838s1.119,5.015,3.435,6.907a6.143,6.143,0,0,0,4.908,1.294" transform="translate(-73.867 -1974.088)" fill="#7508c9" fill-rule="evenodd"/>
        <path id="Path_17247" data-name="Path 17247" d="M17.534,2161.935l-5.99-.163a6.611,6.611,0,0,1-3.274-3.948c-.878-2.878-3.035-5.674-4.313-7.976S.923,2145.738,1,2145.162a.543.543,0,0,1,.1-.2L0,2145.993s5.512,8.263,6.35,10.77,2.158,5.14,3.356,5.757a3.709,3.709,0,0,0,1.637.576l6.349.041a1.688,1.688,0,0,0,1.476-2.11c-.264.82-1.633.908-1.633.908" transform="translate(0 -1926.227)" fill="#673c90" fill-rule="evenodd"/>
        <path id="Path_17248" data-name="Path 17248" d="M742.913,1486.316c-1.062,2.977-2.817,7.553-4.309,9.778a28.553,28.553,0,0,1-4.448,4.879l5.788.948-.644.392.049.005,1.191-.8.231-.154.963-.642c2.386-1.594,6.564-11.688,6.564-11.688s-2.468-1.362-5.384-2.721" transform="translate(-659.291 -1334.75)" fill="#7e51aa" fill-rule="evenodd"/>
        <path id="Path_17249" data-name="Path 17249" d="M352.249,1636.9a132.821,132.821,0,0,1-15.925-6.648c-1.158,2.462-2.128,4.657-2.128,4.657a3.959,3.959,0,0,0,.851.526c.662.359,1.831.941,3.883,1.866,3.678,1.655,8.017,3.432,9.339,3.968l.4.163a13.952,13.952,0,0,0,2.58-2.9,14.337,14.337,0,0,0,1-1.635" transform="translate(-300.117 -1464.005)" fill="#7e51aa" fill-rule="evenodd"/>
        <path id="Path_17250" data-name="Path 17250" d="M451.159,1077.082c.479-2.959,1.534-3.809,1.534-3.809-1.938-.219-4.974-3.646-5.565-4.9a49.22,49.22,0,0,1-1.591-4.689,48.013,48.013,0,0,0-1.814,8.747c-.368,4.177.535,10.288-1.43,13.49s-2.711,5.279-2.472,6.209a4.364,4.364,0,0,0,1.128,1.756l.654.058c1.269.115,4.147.394,6.528.752,1.533-4.853,2.623-15.109,3.027-17.611" transform="translate(-394.932 -955.213)" fill="#0d0017" fill-rule="evenodd"/>
        <path id="Path_17251" data-name="Path 17251" d="M518.378,1159.1c.479-2.959,1.534-3.81,1.534-3.81a2.882,2.882,0,0,1-.894-.278,10.811,10.811,0,0,0-1.389,3.878c-.4,2.979-1.047,10.375-1.8,13.148-.491,1.82-.939,3.509-1.2,4.57.243.035.484.068.72.1,1.533-4.853,2.623-15.109,3.027-17.611" transform="translate(-462.152 -1037.229)" fill="#7e51aa" fill-rule="evenodd"/>
        <path id="Path_17252" data-name="Path 17252" d="M883.432,1025.161a5.254,5.254,0,0,0,2.347,1.5l2.273.729s.343.031.264.443a7.386,7.386,0,0,1-.6,1.419c-.121.225-.615.221-.615.221s-3.5-.848-4.129-1.459.459-2.856.459-2.856" transform="translate(-792.757 -920.621)" fill="#300055" fill-rule="evenodd"/>
        <path id="Path_17253" data-name="Path 17253" d="M268.872,1238.663a1.892,1.892,0,1,1-1.836,1.891,1.864,1.864,0,0,1,1.836-1.891" transform="translate(-239.805 -1112.351)" fill="#660cab" fill-rule="evenodd"/>
        <path id="Path_17254" data-name="Path 17254" d="M255.421,1240.859s-1.086-.233-1.287-.306-.541.729-.659,1.3a.864.864,0,0,0,.182.839l1.342.339a1.932,1.932,0,0,1-.166-.788,1.912,1.912,0,0,1,.59-1.389" transform="translate(-227.601 -1114.045)" fill="#300055" fill-rule="evenodd"/>
        <path id="Path_17255" data-name="Path 17255" d="M293.094,1251.34l1.454.495s.3.413.257.659-.367,1.773-.963,1.637-1.775-.45-1.775-.45a1.893,1.893,0,0,0,1.121-1.742,1.953,1.953,0,0,0-.094-.6" transform="translate(-262.283 -1123.735)" fill="#300055" fill-rule="evenodd"/>
        <path id="Path_17256" data-name="Path 17256" d="M146.38,1686.9c-1.323-.536-5.661-2.313-9.34-3.968-2.052-.925-3.223-1.507-3.883-1.866,0,0-2.91,7.067-3.868,9.535s-3.356,4.522-9.745,10.278c-1.01.911-6.012,9.958-10.163,17.008a15.327,15.327,0,0,0,6.853,4.706c.911-1.147,2.051-2.454,3.551-4.2,3.674-4.275,14.775-16.116,14.775-16.116a11.5,11.5,0,0,0,2.716-1.645c1.756-1.314,1.676-3.125,2.4-3.946s6.71-9.785,6.71-9.785" transform="translate(-98.226 -1509.642)" fill="#f0bb8f" fill-rule="evenodd" opacity="0.86"/>
        <path id="Path_17257" data-name="Path 17257" d="M63.892,2063.729c.005.007.011.016.016.024-.005-.008-.011-.018-.016-.024m-.64-1.646.64,1.646a5.576,5.576,0,0,1-.64-1.646m-.249-2.8.248,2.8a11.679,11.679,0,0,1-.248-2.8m5.348,5.989a4.53,4.53,0,0,1-3.319-.374l0,0a4.517,4.517,0,0,0,3.315.371m4.242-6.032a17.183,17.183,0,0,0-1.973,3.592c-.3.732-.527,1.37-.7,1.917a6.991,6.991,0,0,1-.951.361,5.033,5.033,0,0,1-5.122-.062,4.09,4.09,0,0,1-1.931-3.3,10.34,10.34,0,0,1-.014-2.328,1.963,1.963,0,0,1,1.107-.133c.828-1.249,1.839-2.9,2.935-4.737a15.042,15.042,0,0,0,6.655,4.693" transform="translate(-55.532 -1845.038)" fill="#d1bae6" fill-rule="evenodd"/>
        <path id="Path_17258" data-name="Path 17258" d="M594.723,1866.816c-1.671.752-5.487-.513-6.037-1.555s-.245-3.573-.245-3.573l.364-.33a.891.891,0,0,0-1.006-.168c-.555,1.894-1.021,4.343,1.65,5.5a6.765,6.765,0,0,0,5.651,0,2.082,2.082,0,0,0-.376.13" transform="translate(-527.473 -1671.302)" fill="#660cab" fill-rule="evenodd"/>
        <path id="Path_17259" data-name="Path 17259" d="M63,2100.753m.25,2.8c-.044-.187-.083-.383-.115-.588,0,0,0-.01,0-.014-.016-.1-.03-.2-.043-.3,0-.011,0-.019,0-.027-.013-.1-.024-.208-.034-.314,0-.008,0-.015,0-.024-.011-.11-.02-.223-.026-.338a.257.257,0,0,1,0-.031c-.008-.111-.013-.225-.017-.341,0-.012,0-.024,0-.037,0-.118-.005-.239-.007-.361a.079.079,0,0,1,0-.018c0-.133,0-.268,0-.4a1.962,1.962,0,0,0-1.106.133c-.2,2.011.04,4.638,1.946,5.632a5.032,5.032,0,0,0,5.122.063,5.525,5.525,0,0,1-3.222.115l-.145-.052a.173.173,0,0,1-.02-.008c-.046-.018-.091-.035-.136-.056l-.019-.008c-.045-.019-.091-.041-.136-.064l-.021-.01c-.049-.024-.1-.052-.145-.079l-.007,0c-.045-.027-.091-.054-.135-.084l-.021-.012c-.042-.027-.083-.057-.125-.087l-.02-.013c-.045-.034-.091-.069-.135-.1a.02.02,0,0,0-.005-.005c-.045-.037-.089-.073-.131-.114l-.016-.013c-.041-.037-.08-.076-.12-.117l-.016-.016c-.04-.041-.077-.084-.116-.128a.124.124,0,0,0-.013-.015c-.041-.047-.081-.1-.12-.148s-.081-.1-.117-.162a.154.154,0,0,1-.017-.024c-.033-.049-.067-.1-.1-.152a.111.111,0,0,0-.014-.024c-.034-.058-.069-.118-.1-.178,0,0,0-.005,0-.007-.034-.064-.069-.129-.1-.2l-.012-.024c-.03-.062-.059-.128-.088-.2,0-.006-.005-.014-.008-.02-.029-.071-.058-.141-.084-.215l-.008-.016c-.026-.077-.055-.156-.08-.238a.053.053,0,0,1,0-.014c-.027-.077-.05-.157-.071-.239a.185.185,0,0,1-.01-.034c-.021-.079-.042-.162-.061-.245a.23.23,0,0,1-.006-.024" transform="translate(-55.531 -1886.505)" fill="#660cab" fill-rule="evenodd"/>
        <path id="Path_17260" data-name="Path 17260" d="M765.083,799.621c.136,0,.226.166.2.36s-.161.348-.3.342-.226-.166-.2-.36.161-.347.3-.342" transform="translate(-686.792 -718.08)" fill="#fff" fill-rule="evenodd"/>
        <path id="Path_17261" data-name="Path 17261" d="M403.89,1423.783a4.1,4.1,0,0,0-.247-3.064l.113-.062a12.6,12.6,0,0,1-3.923-7.91,28.45,28.45,0,0,1,.2-6.2,17.767,17.767,0,0,0-1.477,5.711c-.236,2.668-.222,5.1-.424,7.075a29.486,29.486,0,0,0,4.622,4.663q.4.328.81.622c.127-.348.236-.633.323-.834" transform="translate(-357.535 -1263.114)" fill="#181140" fill-rule="evenodd"/>
        <path id="Path_17262" data-name="Path 17262" d="M451.48,1544.988a4.1,4.1,0,0,1,.247,3.064c-.087.2-.2.486-.323.834q.516.371,1.051.691c.156-.436.289-.786.388-1.016a4.112,4.112,0,0,0,.309-1.806,9.618,9.618,0,0,1-1.558-1.829Z" transform="translate(-405.371 -1387.382)" fill="#982ceb" fill-rule="evenodd"/>
        <path id="Path_17263" data-name="Path 17263" d="M462.41,1562.864a4.113,4.113,0,0,1-.309,1.806c-.1.229-.232.581-.388,1.016.466.281.94.534,1.415.763.284-1.241.421-2.144.479-2.618a11.613,11.613,0,0,1-1.2-.967" transform="translate(-414.63 -1403.492)" fill="#181140" fill-rule="evenodd"/>
        <path id="Path_17264" data-name="Path 17264" d="M476.072,1572.346c-.058.474-.2,1.377-.479,2.618q.572.273,1.144.5l.037-.158c.215-.934.352-1.7.437-2.243-.385-.219-.767-.456-1.138-.72" transform="translate(-427.095 -1412.007)" fill="#982ceb" fill-rule="evenodd"/>
        <path id="Path_17265" data-name="Path 17265" d="M487.28,1579.4c-.084.547-.222,1.309-.437,2.243-.012.05-.024.1-.037.158a23.534,23.534,0,0,0,6.172,1.5c.446-1.047.728-1.738.728-1.738a19.182,19.182,0,0,1-6.427-2.166" transform="translate(-437.164 -1418.345)" fill="#181140" fill-rule="evenodd"/>
        <path id="Path_17266" data-name="Path 17266" d="M613.427,753.145s-1.029-.82-3.823-.974a7.243,7.243,0,0,0-5.763,2.131c-1.221,1.181-3.787,4.162-4.225,5.368a7.063,7.063,0,0,0,.38,2.106,5.919,5.919,0,0,1,.21,2.154,3.728,3.728,0,0,0,1.447-.03,2.272,2.272,0,0,0,1.847-2.3,13.379,13.379,0,0,1,1.054-3.6c.6-1.5,3.027-2.472,3.86-1.044.94,1.615.766,2.219.766,2.219s2.089-3.686,3.267-4.319a1.625,1.625,0,0,0,.98-1.713" transform="translate(-538.47 -675.457)" fill="#12001f" fill-rule="evenodd"/>
        <path id="Path_17267" data-name="Path 17267" d="M598.221,655.883h-.029l-.014,0h-.013l-.066,0h-.053c-.273,0-.54.046-.586.228-.1.4.475,1.117.411,1.528s-2.518.36-3.7.475-1.721.63-1.808,1.027a.749.749,0,0,0,.636.86l.436.1s-2.857,1.605-3.218,3.03.924-.449,2.469-1.323,2.943-1.078,3.617-1.49-2.22-.68-1.4-1.116,1.71-.013,3.207-.27,1.944-1.118,1.208-1.8c-.041-.038-.078-.075-.114-.109.121.016.251.03.389.044,1.572.154,5.862,2.8,6.111,2.593s-1.273-1.412-3.418-2.593a10,10,0,0,0-4.067-1.184" transform="translate(-529.972 -588.993)" fill="#523172" fill-rule="evenodd"/>
        <path id="Path_17268" data-name="Path 17268" d="M272.566,1242.905a1.459,1.459,0,1,1-1.417,1.458,1.438,1.438,0,0,1,1.417-1.458" transform="translate(-243.499 -1116.161)" fill="#7e51aa" fill-rule="evenodd"/>
        <path id="Path_17269" data-name="Path 17269" d="M392.805,969.631a.334.334,0,0,1,.427.217.348.348,0,0,1-.211.44L380.485,974.7a.335.335,0,0,1-.428-.217.348.348,0,0,1,.211-.44Z" transform="translate(-341.285 -870.737)" fill="#ffbaba" fill-rule="evenodd"/>
        <path id="Path_17270" data-name="Path 17270" d="M348.808,1017.71a.335.335,0,0,1,.437.2.351.351,0,0,1-.191.449l-2.076.834a.334.334,0,0,1-.437-.2.352.352,0,0,1,.191-.45Z" transform="translate(-311.182 -913.908)" fill="#ffbaba" fill-rule="evenodd"/>
        <line id="Line_90" data-name="Line 90" x1="0.518" y2="3.038" transform="translate(61.853 89.15)" fill="none" stroke="#ffbaba" stroke-linecap="round" stroke-miterlimit="2.613" stroke-width="0.5"/>
        <path id="Path_17271" data-name="Path 17271" d="M780.464,829.692a7.834,7.834,0,0,1,1.012,1.317,2.987,2.987,0,0,1-.33,1.082" transform="translate(-700.877 -745.085)" fill="none" stroke="#ffbaba" stroke-linecap="round" stroke-miterlimit="2.613" stroke-width="0.24"/>
        <path id="Path_17272" data-name="Path 17272" d="M449.759,1098.194a.337.337,0,0,1,.421-.231.351.351,0,0,1,.224.433c0,.013-1.5,4.866-1.153,8.038a32.292,32.292,0,0,1,.158,5.589,11.685,11.685,0,0,1-.847,3.944c-.356.771-.863,1.634-1.364,2.492-.912,1.557-1.811,3.095-1.7,3.822a.343.343,0,0,1-.278.4.338.338,0,0,1-.386-.287c-.152-.98.811-2.625,1.786-4.29.492-.843.989-1.692,1.332-2.432a11,11,0,0,0,.782-3.694,31.659,31.659,0,0,0-.154-5.465c-.362-3.315,1.174-8.3,1.178-8.315" transform="translate(-399.459 -985.986)" fill="#6407ab" fill-rule="evenodd"/>
        <path id="Path_17273" data-name="Path 17273" d="M151.315,1712.116a.336.336,0,0,1,.416-.24.348.348,0,0,1,.233.428c0,.012-.737,2.147-1.708,4.438-.141.368-.842.417-.649-.2.96-2.264,1.706-4.416,1.708-4.427m-2.45,7.6a9.274,9.274,0,0,1-1.452,2.162c-.6.581-1.692,1.547-2.928,2.636-2.526,2.226-5.65,4.978-6.235,5.951h0c-.922,1.531-7.176,11.655-7.194,11.683a.332.332,0,0,1-.466.107.355.355,0,0,1-.1-.479c.018-.029,6.291-10.185,7.192-11.678.644-1.066,3.809-3.855,6.37-6.112,1.225-1.08,2.312-2.038,2.9-2.614a8.279,8.279,0,0,0,1.276-1.886c.253-.5.876-.371.638.229" transform="translate(-117.133 -1537.296)" fill="#fcb8b8" fill-rule="evenodd"/>
        <path id="Path_17274" data-name="Path 17274" d="M10.994,2106.942a35.873,35.873,0,0,1,4.118-3.641c0-.345.024-.68.057-1a3.237,3.237,0,0,0-.97.605,46.792,46.792,0,0,0-4.295,3.744.545.545,0,0,0-.1.2c-.045.319.478,1.017,1.167,1.969a2.268,2.268,0,0,1,.02-1.884" transform="translate(-8.804 -1887.922)" fill="#dbadff" fill-rule="evenodd"/>
        <path id="Path_17275" data-name="Path 17275" d="M544.017,1867.436c.4-1.215,2.075-2.489,2.8-3.178a1.633,1.633,0,0,1,.958-.53,11.187,11.187,0,0,1,.369-1.615.841.841,0,0,0-.121.094c-.48.446-4.172,3.585-4.809,4.127.22.306.495.683.8,1.1" transform="translate(-487.824 -1672.226)" fill="#dbadff" fill-rule="evenodd"/>
        <rect id="Rectangle_2384" data-name="Rectangle 2384" width="45.994" height="5.632" rx="2.816" transform="translate(153.34 164.159)" fill="none" stroke="#332145" stroke-miterlimit="10" stroke-width="5" opacity="0.516"/>
        <path id="Rectangle_2385" data-name="Rectangle 2385" d="M2.816,0H19.1a2.816,2.816,0,0,1,2.816,2.816v0A2.816,2.816,0,0,1,19.1,5.632H2.816A2.816,2.816,0,0,1,0,2.816v0A2.816,2.816,0,0,1,2.816,0Z" transform="translate(203.047 164.101)" fill="none" stroke="#332145" stroke-miterlimit="10" stroke-width="3.75" opacity="0.516"/>
        <path id="Rectangle_2386" data-name="Rectangle 2386" d="M2.816,0H19.1a2.816,2.816,0,0,1,2.816,2.816v0A2.816,2.816,0,0,1,19.1,5.632H2.816A2.816,2.816,0,0,1,0,2.816v0A2.816,2.816,0,0,1,2.816,0Z" transform="translate(192.552 88.038)" fill="none" stroke="#2b1a39" stroke-miterlimit="10" stroke-width="5" opacity="0.441"/>
        <path id="Rectangle_2387" data-name="Rectangle 2387" d="M2.816,0H19.1a2.816,2.816,0,0,1,2.816,2.816v0A2.816,2.816,0,0,1,19.1,5.632H2.816A2.816,2.816,0,0,1,0,2.816v0A2.816,2.816,0,0,1,2.816,0Z" transform="translate(218.474 88.038)" fill="none" stroke="#2b1a39" stroke-miterlimit="10" stroke-width="5" opacity="0.441"/>
        <path id="Rectangle_2388" data-name="Rectangle 2388" d="M2.816,0H19.1a2.816,2.816,0,0,1,2.816,2.816v0A2.816,2.816,0,0,1,19.1,5.632H2.816A2.816,2.816,0,0,1,0,2.816v0A2.816,2.816,0,0,1,2.816,0Z" transform="translate(284.302 138.701)" fill="none" stroke="#332145" stroke-miterlimit="10" stroke-width="5" opacity="0.516"/>
        <path id="Path_17276" data-name="Path 17276" d="M3438.327,716.029v1.505a1.681,1.681,0,0,1,1.717,1.154,8.613,8.613,0,0,1,.064,4.966,29.269,29.269,0,0,1-3.153,7.831,59.124,59.124,0,0,1-14.217,16.345l-.894-16.72,5.263-6.176h4.437a2.861,2.861,0,0,0,3.062-2.595v-3.522a1.374,1.374,0,0,1,.476-.323,7.624,7.624,0,0,1,3.244-.961v-1.505m0,0a9.657,9.657,0,0,0-4.136,1.165c-.742.365-1.36.881-1.36,1.608v3.538a1.2,1.2,0,0,1-1.286,1.09H3426.2l-6.158,7.226,1.094,20.455c20.683-15.21,25.545-35.081,17.191-35.081" transform="translate(-3071.285 -643.013)" fill="#8f3b76"/>
        <path id="Path_17277" data-name="Path 17277" d="M2940.984,716.029v1.505a7.625,7.625,0,0,1,3.244.961,1.38,1.38,0,0,1,.476.323v3.522a2.861,2.861,0,0,0,3.062,2.595h4.437l5.264,6.176-.894,16.72a59.124,59.124,0,0,1-14.217-16.345,29.269,29.269,0,0,1-3.153-7.831,8.613,8.613,0,0,1,.064-4.966,1.681,1.681,0,0,1,1.717-1.154v-1.505m0,0c-8.354,0-3.491,19.871,17.191,35.081l1.094-20.455-6.158-7.226h-5.345a1.2,1.2,0,0,1-1.286-1.09V718.8c0-.727-.617-1.242-1.36-1.608a9.655,9.655,0,0,0-4.136-1.165" transform="translate(-2637.594 -643.013)" fill="#8f3b76"/>
        <rect id="Rectangle_2389" data-name="Rectangle 2389" width="34.815" height="15.311" transform="translate(317.809 144.395)" fill="#401c35" opacity="0.705"/>
        <path id="Path_17278" data-name="Path 17278" d="M3192.97,1336.425h-24.157V1330.6a3.214,3.214,0,0,1,3.214-3.214h17.73a3.214,3.214,0,0,1,3.214,3.214Z" transform="translate(-2845.675 -1192.03)" fill="#8f3b76"/>
        <path id="Path_17279" data-name="Path 17279" d="M3228.56,1277.854h-15.039v-3.624a2,2,0,0,1,2-2h11.038a2,2,0,0,1,2,2Z" transform="translate(-2885.824 -1142.494)" fill="#8f3b76"/>
        <path id="Path_17280" data-name="Path 17280" d="M3250.406,1187.6l.469,1.574h-9.325l.465-1.574a10.847,10.847,0,0,0,0-6.284l-.465-1.574h9.325l-.469,1.574a11.074,11.074,0,0,0-.408,2.07,10.821,10.821,0,0,0,.408,4.214" transform="translate(-2910.994 -1059.439)" fill="#8f3b76"/>
        <g id="Group_3828" data-name="Group 3828" transform="translate(330.555 120.303)" opacity="0.3">
          <g id="Group_3827" data-name="Group 3827">
            <g id="Group_3826" data-name="Group 3826" clip-path="url(#clip-path-3)">
              <path id="Path_17281" data-name="Path 17281" d="M3250.875,1179.742l-.469,1.574a11.078,11.078,0,0,0-.408,2.07c-.509-2.879-8.448-3.644-8.448-3.644Z" transform="translate(-3241.55 -1179.742)" fill="#5a234a"/>
            </g>
          </g>
        </g>
        <path id="Path_17282" data-name="Path 17282" d="M3228.554,1124.587v3.109a2.2,2.2,0,0,1-.128.737,2.953,2.953,0,0,1-2.84,1.779h-9.1a2.771,2.771,0,0,1-2.969-2.516v-3.109Z" transform="translate(-2885.818 -1009.908)" fill="#8f3b76"/>
        <g id="Group_3831" data-name="Group 3831" transform="translate(327.696 114.679)" opacity="0.3">
          <g id="Group_3830" data-name="Group 3830">
            <g id="Group_3829" data-name="Group 3829" clip-path="url(#clip-path-4)">
              <path id="Path_17283" data-name="Path 17283" d="M3228.554,1124.587v3.109a2.2,2.2,0,0,1-.128.737c-4.016-3.128-14.215-3.221-14.911-3.224v-.622Z" transform="translate(-3213.514 -1124.587)" fill="#5a234a"/>
            </g>
          </g>
        </g>
        <path id="Path_17284" data-name="Path 17284" d="M3104.589,726.551l-4.311,15.953-4.784,17.706c-.715,2.65-3.5,4.528-6.7,4.528h-15.115c-3.2,0-5.967-1.865-6.7-4.5,0-.01,0-.016-.007-.026l-9.095-33.66a1.264,1.264,0,0,1,1.146-1.506,133.526,133.526,0,0,1,44.422,0,1.264,1.264,0,0,1,1.146,1.506" transform="translate(-2746.016 -649.438)" fill="#8f3b76"/>
        <g id="Group_3834" data-name="Group 3834" transform="translate(321.593 82.744)" opacity="0.6">
          <g id="Group_3833" data-name="Group 3833">
            <g id="Group_3832" data-name="Group 3832" clip-path="url(#clip-path-5)">
              <path id="Path_17285" data-name="Path 17285" d="M3157.374,815.4c.331,2.3-.211,4.246-1.21,4.349s-2.077-1.676-2.408-3.975.211-4.246,1.21-4.349,2.077,1.676,2.408,3.975" transform="translate(-3153.658 -811.425)" fill="#cbacbc"/>
            </g>
          </g>
        </g>
        <g id="Group_3837" data-name="Group 3837" transform="translate(320.962 93.066)" opacity="0.1">
          <g id="Group_3836" data-name="Group 3836">
            <g id="Group_3857" data-name="Group 3857">
              <path id="Path_17286" data-name="Path 17286" d="M3180.768,912.642l-4.784,17.706c-.715,2.65-3.5,4.528-6.7,4.528h-15.115c-3.2,0-5.967-1.865-6.7-4.5a43.276,43.276,0,0,0,33.3-17.732" transform="translate(-3147.467 -912.642)" fill="#5a234a"/>
            </g>
          </g>
        </g>
        <g id="Group_3840" data-name="Group 3840" transform="translate(330.555 129.294)" opacity="0.3">
          <g id="Group_3839" data-name="Group 3839">
            <g id="Group_3838" data-name="Group 3838" clip-path="url(#clip-path-6)">
              <path id="Path_17287" data-name="Path 17287" d="M3241.55,1268.347a19.476,19.476,0,0,1,2.318-.328c.779-.072,1.561-.1,2.343-.113a20.364,20.364,0,0,1,4.664.441c-.788.018-1.562.017-2.337.021l-2.322.019c-1.549.006-3.1.026-4.666-.039" transform="translate(-3241.55 -1267.906)" fill="#5a234a"/>
            </g>
          </g>
        </g>
        <g id="Group_3843" data-name="Group 3843" transform="translate(327.697 134.923)" opacity="0.3">
          <g id="Group_3842" data-name="Group 3842">
            <g id="Group_3841" data-name="Group 3841" clip-path="url(#clip-path-7)">
              <path id="Path_17288" data-name="Path 17288" d="M3213.521,1323.55a75.071,75.071,0,0,1,7.518-.432c1.256-.011,2.514,0,3.77.059a27.962,27.962,0,0,1,3.75.374c-1.258-.036-2.508-.008-3.759,0l-3.755.047c-2.5.02-5.01.043-7.525-.048" transform="translate(-3213.521 -1323.113)" fill="#5a234a"/>
            </g>
          </g>
        </g>
        <path id="Path_17289" data-name="Path 17289" d="M3165.394,581.506l1.557,9.5c.09.55-.78.8-1.108.323l-5.656-8.3a.889.889,0,0,1,.6-1.35l3.158-.919a1.117,1.117,0,0,1,1.451.753" transform="translate(-2837.795 -521.485)" fill="#8f3b76"/>
        <path id="Path_17290" data-name="Path 17290" d="M3279.937,508.6l-6.123,16.3a1.11,1.11,0,0,1-2.076-.2l-1.561-17.057a1.846,1.846,0,0,1,2.19-1.782l5.919.581a1.7,1.7,0,0,1,1.651,2.159" transform="translate(-2936.696 -454.269)" fill="#8f3b76"/>
        <path id="Path_17291" data-name="Path 17291" d="M3363.766,605.26l-7.3,5.9c-.423.342-1.093-.06-.853-.512l4.149-7.8a1.074,1.074,0,0,1,1.465-.336l2.431,1.46a.758.758,0,0,1,.112,1.283" transform="translate(-3013.376 -540.938)" fill="#8f3b76"/>
        <g id="Group_3846" data-name="Group 3846" transform="translate(99.883 160.809)" opacity="0.2">
          <g id="Group_3845" data-name="Group 3845">
            <g id="Group_3844" data-name="Group 3844" clip-path="url(#clip-path-8)">
              <path id="Path_17292" data-name="Path 17292" d="M1253.535,1576.97v14.671l-221.923,61.3H979.488v-14.111h51.658l.057-7.774.062-7.795h51.891V1607.7h51.658v-15.175h51.662v-15.569Z" transform="translate(-979.487 -1576.955)" fill="#12091a"/>
            </g>
          </g>
        </g>
        <path id="Path_17293" data-name="Path 17293" d="M2039.383,1869.147h-50.949c-.57,0-1.037-.338-1.037-.752s.467-.752,1.037-.752h50.949c.57,0,1.037.338,1.037.752s-.467.752-1.037.752" transform="translate(-1784.733 -1677.191)" fill="#863c70" opacity="0.45"/>
        <path id="Path_17294" data-name="Path 17294" d="M2547.016,1722.326h-50.948c-.571,0-1.037-.338-1.037-.752s.467-.752,1.037-.752h50.948c.57,0,1.037.338,1.037.752s-.467.752-1.037.752" transform="translate(-2240.601 -1545.342)" fill="#863c70" opacity="0.45"/>
        <path id="Path_17295" data-name="Path 17295" d="M3066.418,1567.7h-67.187c-.57,0-1.037-.338-1.037-.752s.467-.752,1.037-.752h67.187c.57,0,1.037.338,1.037.752s-.467.752-1.037.752" transform="translate(-2692.455 -1406.481)" fill="#863c70" opacity="0.45"/>
        <path id="Path_17296" data-name="Path 17296" d="M1532.384,2020.923h-50.949c-.57,0-1.037-.339-1.037-.752s.467-.752,1.037-.752h50.949c.57,0,1.037.338,1.037.752s-.467.752-1.037.752" transform="translate(-1329.435 -1813.49)" fill="#863c70" opacity="0.45"/>
        <path id="Path_17297" data-name="Path 17297" d="M1023.427,2173.573H972.478c-.57,0-1.037-.339-1.037-.752s.467-.752,1.037-.752h50.949c.57,0,1.037.338,1.037.752s-.467.752-1.037.752" transform="translate(-872.379 -1950.573)" fill="#acbfee"/>
        <path id="Path_17298" data-name="Path 17298" d="M2036.618,944.287l-.283-2.323,5.106-.328c26.518-1.7,48.824-14.7,56.829-33.114l6.534-15.031,3.066.7-6.534,15.031c-8.4,19.316-31.8,32.951-59.612,34.736Z" transform="translate(-1828.681 -802.378)" fill="#37224b"/>
        <path id="Path_17299" data-name="Path 17299" d="M2598.582,885.865l-1.4-11.065-10.369,8.715-2.434-1.523,15.313-12.871,2.086,16.531Z" transform="translate(-2320.842 -780.493)" fill="#37224b"/>
        <path id="Path_17300" data-name="Path 17300" d="M1036.533,523.749a1.583,1.583,0,0,1-.594,1.14H977.686a2.142,2.142,0,0,1-.341-1.14c0-2.12,3.4-3.838,7.585-3.838a13.667,13.667,0,0,1,3.661.478c.571-3.01,6.26-5.375,13.192-5.375,7.227,0,13.1,2.568,13.241,5.756a37.284,37.284,0,0,1,8.317-.859c7.287,0,13.192,1.718,13.192,3.838" transform="translate(-877.681 -462.496)" fill="#171f3e" opacity="0.489"/>
        <path id="Path_17301" data-name="Path 17301" d="M1929.556,229.919a1.9,1.9,0,0,1-.711,1.364h-69.718a2.564,2.564,0,0,1-.408-1.364c0-2.537,4.064-4.594,9.078-4.594a16.361,16.361,0,0,1,4.382.572c.683-3.6,7.492-6.433,15.788-6.433,8.65,0,15.678,3.073,15.847,6.889a44.618,44.618,0,0,1,9.954-1.028c8.721,0,15.788,2.056,15.788,4.594" transform="translate(-1669.177 -197.085)" fill="#dee5f8"/>
        <path id="Path_17302" data-name="Path 17302" d="M594.29,2146.346s-10.44-10.78-21.22-8.421-14.819,11.451-26.608,9.094-21.558-12.462-36.039-7.074-20.209,11.453-30.651,6.4-17.2-9.629-28-5.013-21.847,10.4-30.943,5.686-15.156-8.758-25.935-4.043-11.116,7.412-22.567,3.37-16.738,1.449-24.925,2.02-21.187-5.833-28.4-3.473-6.311,4.065-16.4,3.265-17.165-6.866-24.24-2.822-15.83,3.368-15.83,3.368-2.614,1.177-1.941,2.61,3.453,1.179,3.453,1.179l330-1.1s3.2-3.031.257-5.05" transform="translate(-233.911 -1919.609)" fill="#93517f" fill-rule="evenodd"/>
        <path id="Path_17303" data-name="Path 17303" d="M1411.8,2318.713h214.979a2.023,2.023,0,0,1,2.017,2.015v0a2.023,2.023,0,0,1-2.017,2.015H1411.8a2.022,2.022,0,0,1-2.015-2.015v0a2.022,2.022,0,0,1,2.015-2.015" transform="translate(-1266.02 -2082.263)" fill="#93517f" fill-rule="evenodd" opacity="0.848"/>
        <path id="Path_17304" data-name="Path 17304" d="M593.884,2318.713h75.081a2.022,2.022,0,0,1,2.016,2.015v0a2.022,2.022,0,0,1-2.016,2.015H593.884a2.022,2.022,0,0,1-2.016-2.015v0a2.022,2.022,0,0,1,2.016-2.015" transform="translate(-531.513 -2082.263)" fill="#f0dbff" fill-rule="evenodd"/>
        <path id="Path_17305" data-name="Path 17305" d="M315.377,2318.713H293.305a2.022,2.022,0,0,0-2.016,2.015v0a2.022,2.022,0,0,0,2.016,2.015h22.072a2.022,2.022,0,0,0,2.015-2.015v0a2.022,2.022,0,0,0-2.015-2.015" transform="translate(-261.585 -2082.263)" fill="#f0dbff" fill-rule="evenodd"/>
        <path id="Path_17306" data-name="Path 17306" d="M3142.617,1823.555l4.057.949-2.323,2.364-.933-.442Z" transform="translate(-2822.15 -1637.599)" fill="#e5a493"/>
        <path id="Path_17307" data-name="Path 17307" d="M3108.532,2037.581a5.423,5.423,0,0,0,4.163-.352l-.816-3.533-3.143.5Z" transform="translate(-2791.541 -1829.31)" fill="#e5a493"/>
        <path id="Path_17308" data-name="Path 17308" d="M3079.885,1946.113s-2.883-.314-3.749,1.2a2.018,2.018,0,0,0-.166.465l4.024,2.7Z" transform="translate(-2762.3 -1747.635)" fill="#e5a493"/>
        <path id="Path_17309" data-name="Path 17309" d="M3095.356,1880.8a6.264,6.264,0,0,0-2.712-.813,5.571,5.571,0,0,0-2.117,1.355l3.762,3.26Z" transform="translate(-2775.372 -1688.262)" fill="#e5a493"/>
        <path id="Path_17310" data-name="Path 17310" d="M3299.863,1786.366c-.482-1.051-3.229-11.288-3.831-12.716-.511-1.211-6.076-9.207-6.076-9.207-.532-.932-1.444-1.983-1.862-2.052a14.87,14.87,0,0,0-2.2-.258l-1.329,5.871c.362.122.565.866.565.866.715,2.191,1.743,4.693,1.694,4.746s-.776,1.011-.776,1.011l-10.289-2.531-6.029,24.534c4.4,4.161,18.009,6.678,18.009,6.678l6.526,12.4h15.693v-18.341c-5.181-6-9.848-10.456-10.1-11" transform="translate(-2936.302 -1585.441)" fill="#f0bb8f"/>
        <path id="Path_17311" data-name="Path 17311" d="M3287.306,1888.862s4.614-22.961,5.7-25.509l8.546,2.1c-.4.532.055,6.226,2.294,12.882.433,1.286.586,1.881.859,2.709,1.234,3.736-.736,4.491-3.035,5.311-4.746,1.693-9.106,3.169-11.442,3.987a22.43,22.43,0,0,1-2.922-1.483" transform="translate(-2952.084 -1677.339)" fill="#e5a493"/>
        <path id="Path_17312" data-name="Path 17312" d="M3418.845,1793.011c-.191,1.82-2.318,3.753-2.854,4.223-.1-.24-.134-.393-.213-.635,0,0-.343-.793-.565-.866a21.173,21.173,0,0,0,3.631-2.722" transform="translate(-3066.95 -1613.17)" fill="#e5a493"/>
        <path id="Path_17313" data-name="Path 17313" d="M3449.235,2106.435s-3.592,5.361-5.947,6.961l-.472-.9s-.141-.026-.4-.077a21.693,21.693,0,0,0,6.819-5.987" transform="translate(-3091.377 -1894.633)" fill="#e5a493"/>
        <path id="Path_17314" data-name="Path 17314" d="M3524.79,2000.975c.169.261.623.606,1.25,1.367a14.444,14.444,0,0,1-5.919,6.372c2.306-1.9,4.139-6.022,4.669-7.739" transform="translate(-3161.158 -1799.927)" fill="#e5a493"/>
        <path id="Path_17315" data-name="Path 17315" d="M3371.132,1753.778l3.391,1.7h.049a4.791,4.791,0,0,1-1.592.091,1.738,1.738,0,0,1-1.847-1.789" transform="translate(-3027.363 -1574.938)" fill="#ffefe9"/>
        <path id="Path_17316" data-name="Path 17316" d="M3211.736,1616.324a6.942,6.942,0,0,1-5.035-2.168,7.609,7.609,0,0,1,0-10.467,6.932,6.932,0,0,1,10.071,0,7.609,7.609,0,0,1,0,10.467,6.942,6.942,0,0,1-5.035,2.168m0-13.547a6.151,6.151,0,1,0,5.914,6.146,6.04,6.04,0,0,0-5.914-6.146" transform="translate(-2877.826 -1441.208)" fill="#442e28"/>
        <rect id="Rectangle_2397" data-name="Rectangle 2397" width="2.983" height="6.651" transform="translate(332.419 175.735)" fill="#442e28"/>
        <rect id="Rectangle_2398" data-name="Rectangle 2398" width="5.487" height="6.395" transform="translate(331.167 171.468)" fill="#864673"/>
        <path id="Path_17317" data-name="Path 17317" d="M3351.6,1792.072l-1.77-1.062,1.676-3.016,1.77,1.062Z" transform="translate(-3008.235 -1605.664)" fill="#442e28"/>
        <path id="Path_17318" data-name="Path 17318" d="M3351.989,1786.708l-3.256-1.954,1.092-1.965,3.256,1.954Z" transform="translate(-3007.248 -1602.99)" fill="#864673"/>
        <path id="Path_17319" data-name="Path 17319" d="M3166.952,1792.072l1.77-1.062-1.675-3.016-1.77,1.062Z" transform="translate(-2842.499 -1608.664)" fill="#442e28"/>
        <path id="Path_17320" data-name="Path 17320" d="M3146.14,1764.24l3.256-1.954-1.941-3.493-3.256,1.954Z" transform="translate(-2823.571 -1582.441)" fill="#864673"/>
        <path id="Path_17321" data-name="Path 17321" d="M3141.8,1810.672c0,9.754-7.608,17.661-16.992,17.661s-16.992-7.907-16.992-17.661,7.608-17.661,16.992-17.661,16.992,7.907,16.992,17.661" transform="translate(-2790.898 -1613.17)" fill="#3a254b"/>
        <path id="Path_17322" data-name="Path 17322" d="M3138.161,1982.265a13.737,13.737,0,0,1-3.038-.194,14.74,14.74,0,0,1-1.493-.348c-.246-.07-.491-.149-.733-.234-.122-.041-.241-.088-.362-.132s-.239-.094-.359-.142a15.052,15.052,0,0,1-5.106-3.49,15.738,15.738,0,0,1-3.359-5.307c-.095-.247-.182-.5-.263-.749s-.158-.506-.225-.762c-.136-.512-.249-1.03-.334-1.552a15.388,15.388,0,0,1-.186-3.158,18.55,18.55,0,0,0,.4,3.113q.166.764.4,1.508c.037.124.082.246.122.37s.086.245.129.367c.089.243.184.484.283.723a16.635,16.635,0,0,0,3.35,5.116,15.944,15.944,0,0,0,4.923,3.482,15.554,15.554,0,0,0,2.854.971,16.565,16.565,0,0,0,3,.419" transform="translate(-2804.251 -1768.695)" fill="#93517f" opacity="0.54"/>
        <path id="Path_17323" data-name="Path 17323" d="M3163.091,1835.636c0,8.188-6.386,14.826-14.265,14.826s-14.265-6.638-14.265-14.826,6.386-14.826,14.265-14.826,14.265,6.638,14.265,14.826" transform="translate(-2814.917 -1638.134)" fill="#8f3b76" opacity="0.877"/>
        <path id="Path_17324" data-name="Path 17324" d="M3168.747,1842.268a13.55,13.55,0,1,1-13.54-14.073,13.814,13.814,0,0,1,13.54,14.073" transform="translate(-2821.297 -1644.766)" fill="#3f2253" opacity="0.332"/>
        <path id="Path_17325" data-name="Path 17325" d="M3219.813,1902.139a7,7,0,1,1-7-7.274,7.14,7.14,0,0,1,7,7.274" transform="translate(-2878.904 -1704.637)" fill="#fff" opacity="0.397"/>
        <path id="Path_17326" data-name="Path 17326" d="M3271.176,1834.83h0a.379.379,0,0,1-.372-.386v-1.514a.372.372,0,1,1,.743,0v1.514a.379.379,0,0,1-.371.386" transform="translate(-2937.265 -1647.671)" fill="#864673"/>
        <path id="Path_17327" data-name="Path 17327" d="M3326.323,1851.973h0a.4.4,0,0,1-.136-.527l.729-1.311a.364.364,0,0,1,.507-.141.4.4,0,0,1,.136.527l-.728,1.311a.364.364,0,0,1-.508.141" transform="translate(-2986.956 -1663.295)" fill="#3a2849"/>
        <path id="Path_17328" data-name="Path 17328" d="M3366.694,1898.812h0a.394.394,0,0,1,.136-.527l1.262-.757a.364.364,0,0,1,.507.141.394.394,0,0,1-.136.527l-1.261.757a.364.364,0,0,1-.507-.141" transform="translate(-3023.333 -1705.982)" fill="#3a2849"/>
        <path id="Path_17329" data-name="Path 17329" d="M3381.471,1962.8h0a.379.379,0,0,1,.372-.386h1.457a.386.386,0,0,1,0,.772h-1.457a.379.379,0,0,1-.372-.386" transform="translate(-3036.647 -1764.295)" fill="#3a2849"/>
        <path id="Path_17330" data-name="Path 17330" d="M3366.694,2020.113h0a.364.364,0,0,1,.507-.141l1.261.757a.394.394,0,0,1,.136.527.364.364,0,0,1-.507.141l-1.262-.757a.394.394,0,0,1-.136-.527" transform="translate(-3023.333 -1815.939)" fill="#3a2849"/>
        <path id="Path_17331" data-name="Path 17331" d="M3326.323,2062.072h0a.364.364,0,0,1,.508.141l.728,1.311a.4.4,0,0,1-.136.527.364.364,0,0,1-.507-.141l-.729-1.311a.4.4,0,0,1,.136-.528" transform="translate(-2986.956 -1853.747)" fill="#3a2849"/>
        <path id="Path_17332" data-name="Path 17332" d="M3271.176,2077.43h0a.379.379,0,0,1,.371.386v1.514a.372.372,0,1,1-.743,0v-1.514a.379.379,0,0,1,.372-.386" transform="translate(-2937.265 -1865.585)" fill="#2f3335"/>
        <path id="Path_17333" data-name="Path 17333" d="M3209.614,2062.072h0a.4.4,0,0,1,.136.528l-.728,1.311a.364.364,0,0,1-.507.141.4.4,0,0,1-.136-.527l.729-1.311a.364.364,0,0,1,.508-.141" transform="translate(-2881.16 -1854.747)" fill="#3a2849"/>
        <path id="Path_17334" data-name="Path 17334" d="M3164.547,2020.113h0a.394.394,0,0,1-.136.527l-1.261.757a.364.364,0,0,1-.508-.141.394.394,0,0,1,.136-.527l1.262-.757a.364.364,0,0,1,.507.141" transform="translate(-2840.089 -1816.939)" fill="#3a2849"/>
        <path id="Path_17335" data-name="Path 17335" d="M3148.052,1962.8h0a.379.379,0,0,1-.371.386h-1.457a.386.386,0,0,1,0-.772h1.457a.379.379,0,0,1,.371.386" transform="translate(-2825.056 -1764.295)" fill="#3a2849"/>
        <path id="Path_17336" data-name="Path 17336" d="M3164.547,1898.812h0a.364.364,0,0,1-.507.141l-1.262-.757a.394.394,0,0,1-.136-.527.364.364,0,0,1,.508-.141l1.261.757a.394.394,0,0,1,.136.527" transform="translate(-2840.089 -1705.982)" fill="#3a2849"/>
        <path id="Path_17337" data-name="Path 17337" d="M3209.614,1851.973h0a.364.364,0,0,1-.508-.141l-.729-1.311a.4.4,0,0,1,.136-.527.364.364,0,0,1,.507.141l.728,1.311a.4.4,0,0,1-.136.527" transform="translate(-2881.16 -1663.295)" fill="#3a2849"/>
        <g id="Group_3849" data-name="Group 3849" transform="translate(330.944 190.058)" opacity="0.2">
          <g id="Group_3848" data-name="Group 3848">
            <g id="Group_3847" data-name="Group 3847" clip-path="url(#clip-path-9)">
              <path id="Path_17338" data-name="Path 17338" d="M3256.25,1893.2l-7.214,6.007a1.487,1.487,0,0,0-.66-.192,1.564,1.564,0,0,0-1.614,1.519,1.652,1.652,0,0,0,.091.627l-.946.891-.14.132-.292.275a.388.388,0,0,0-.025.532l.3.347a.354.354,0,0,0,.512.026l.292-.275.14-.132.95-.895a1.488,1.488,0,0,0,.578.15,1.563,1.563,0,0,0,1.614-1.519,1.21,1.21,0,0,0-.115-.625Z" transform="translate(-3245.356 -1893.2)" fill="#222"/>
            </g>
          </g>
        </g>
        <path id="Path_17339" data-name="Path 17339" d="M3262.429,1952.106a1.541,1.541,0,1,1-1.54-1.6,1.571,1.571,0,0,1,1.54,1.6" transform="translate(-2926.979 -1754.604)" fill="#2f3335"/>
        <path id="Path_17340" data-name="Path 17340" d="M3257.024,1888.973l-7.886,7.333-2.022,2.1-.134.139-.279.29a.389.389,0,0,0,0,.532l.318.331a.354.354,0,0,0,.512,0l.279-.29.134-.139,2.022-2.1Z" transform="translate(-2915.528 -1699.346)" fill="#2f3335"/>
        <path id="Path_17341" data-name="Path 17341" d="M3270.206,1961.224a.544.544,0,1,1-.543-.565.554.554,0,0,1,.543.565" transform="translate(-2935.752 -1763.722)" fill="#575a5b"/>
        <g id="Group_3852" data-name="Group 3852" transform="translate(320.37 186.429)" opacity="0.2">
          <g id="Group_3851" data-name="Group 3851">
            <g id="Group_3850" data-name="Group 3850" clip-path="url(#clip-path-10)">
              <path id="Path_17342" data-name="Path 17342" d="M3142.785,1842.268a14.211,14.211,0,0,1,13.193-14.05q-.382-.022-.77-.023a14.083,14.083,0,0,0,0,28.145q.387,0,.77-.023a14.211,14.211,0,0,1-13.193-14.05" transform="translate(-3141.668 -1831.195)" fill="#39162f"/>
            </g>
          </g>
        </g>
        <path id="Path_17343" data-name="Path 17343" d="M3076.883,1955.216a2.661,2.661,0,0,1-.808,2.176,2.28,2.28,0,0,1-2.73.348,8.137,8.137,0,0,1-1.646-2.421,3.147,3.147,0,0,1,.725-2.716,2.855,2.855,0,0,1,2.8-.09c.42.358,1.692,1.482,1.658,2.7" transform="translate(-2758.398 -1756.117)" fill="#fcbaa0"/>
        <path id="Path_17344" data-name="Path 17344" d="M3089.39,1969.214a3.282,3.282,0,0,0-1.2,3.2,3.341,3.341,0,0,1-.712-1.225,1.551,1.551,0,0,1,.491-1.571,2.576,2.576,0,0,1,1.42-.4" transform="translate(-2772.593 -1771.405)" fill="#ffefe9"/>
        <path id="Path_17345" data-name="Path 17345" d="M3096.057,2024.511a1.189,1.189,0,0,1-.307.189c-.518.213-1.606.462-2.07,0a4.514,4.514,0,0,1-1.213-2.014,5.16,5.16,0,0,1,.89-2.634,1.236,1.236,0,0,1,1.892-.029,3.657,3.657,0,0,1,1.226,2.053c.049.289.34,1.8-.418,2.439" transform="translate(-2777.113 -1816.648)" fill="#fcbaa0"/>
        <path id="Path_17346" data-name="Path 17346" d="M3103.564,2031.724a2.777,2.777,0,0,0,.272,1.863,2.106,2.106,0,0,0,1.208.746s-1.234.055-1.579-.682a2.3,2.3,0,0,1,.1-1.927" transform="translate(-2786.833 -1827.54)" fill="#ffefe9"/>
        <path id="Path_17347" data-name="Path 17347" d="M3083.619,1888.98a.916.916,0,0,0,.708-.416,6.629,6.629,0,0,0,.979-3.488c.081-2.663-3.192-1.384-3.938.641a2.524,2.524,0,0,0,.221,2.469,2.245,2.245,0,0,0,2.031.793" transform="translate(-2766.959 -1694.493)" fill="#fcbaa0"/>
        <path id="Path_17348" data-name="Path 17348" d="M3115.891,1822.874a3.245,3.245,0,0,0-2.084-.289,3.075,3.075,0,0,0-1.652,4.021,4.2,4.2,0,0,0,.538.633c.624.579,1.379,1.558,2.544.964a3.045,3.045,0,0,0,.655-5.328" transform="translate(-2794.574 -1639.661)" fill="#fcbaa0"/>
        <path id="Path_17349" data-name="Path 17349" d="M3129.968,1838.391a3.793,3.793,0,0,0-1.7,2.921s-1.268-2.543,1.521-3.06h.452Z" transform="translate(-2809.002 -1653.797)" fill="#ffefe9"/>
        <path id="Path_17350" data-name="Path 17350" d="M3364.871,1743.21l-3.414-1.708s.089-.215-.443-.375a.9.9,0,0,0-.692.214l0,0-.035.026a2.6,2.6,0,0,0-.793,2.7,5.831,5.831,0,0,0,2.7,3.767h0a14.134,14.134,0,0,0,2.907,1.294l1.329-5.871c-.857-.027-1.552-.046-1.552-.046" transform="translate(-3016.829 -1566.563)" fill="#fcbaa0"/>
        <path id="Path_17351" data-name="Path 17351" d="M3379.771,1745.045l3.391,1.7h.049a4.794,4.794,0,0,1-1.592.091,1.738,1.738,0,0,1-1.847-1.789" transform="translate(-3035.121 -1570.095)" fill="#ffefe9"/>
      </g>
    </g>
  </g>
</svg>
