<svg xmlns="http://www.w3.org/2000/svg" xmlns:xlink="http://www.w3.org/1999/xlink" width="200.53" height="200.345" viewBox="0 0 200.53 200.345">
  <defs>
    <clipPath id="clip-path">
      <path id="Path_17759" data-name="Path 17759" d="M411.975,134.455s-1.442,8.948-.95,11.133c1.117,4.965,5.023,4.752,7.467,3.8,2.281-.887,4.562-4.021,4.856-4.435a.145.145,0,0,1,.083-.059,6.544,6.544,0,0,0,3.615-2.565,1.826,1.826,0,0,0-.95-2.715" transform="translate(-410.923 -134.455)" fill="#fff" stroke="#263238" stroke-linecap="round" stroke-miterlimit="10" stroke-width="1.061"/>
    </clipPath>
  </defs>
  <g id="Group_3997" data-name="Group 3997" transform="translate(-26.552 -15.339)">
    <g id="Plants" transform="translate(31.306 151.971)">
      <g id="Group_3959" data-name="Group 3959" transform="translate(135.575 0)">
        <path id="Path_17735" data-name="Path 17735" d="M447.892,390.892c-1.776-.256-5.148-2.453-5.151-2.455-.034-.023,2.123-1.783,2.271-1.879,1.724-1.1,5.7-2.224,7.471-.767a2.713,2.713,0,0,1,.059,4.036C451.393,390.967,449.405,391.109,447.892,390.892Z" transform="translate(-398.511 -357.761)" fill="#baafc4"/>
        <path id="Path_17736" data-name="Path 17736" d="M379.765,350.241c-.042,0,.787-2.658.859-2.819.828-1.871,3.529-5,5.808-4.761a2.712,2.712,0,0,1,2.275,3.334c-.331,1.584-1.91,2.8-3.292,3.453C383.792,350.213,379.768,350.241,379.765,350.241Z" transform="translate(-363.461 -334.135)" fill="#baafc4"/>
        <path id="Path_17737" data-name="Path 17737" d="M355.992,383.927c-.784.975-1.5,1.893-2.136,2.737h-1.615c.813-1.042,1.759-2.222,2.829-3.495.622-.744,1.3-1.525,2.006-2.322a25.955,25.955,0,0,1-1.79-2.462,17.454,17.454,0,0,1-4.766.335c-.11.948-.209,1.871-.288,2.744-.184,1.972-.3,3.724-.371,5.2H348.55c.107-1.506.262-3.3.495-5.323.108-.963.243-1.99.392-3.043a16.351,16.351,0,0,1-4.5-2.037,4.984,4.984,0,0,1-1.929-3.723,2.384,2.384,0,0,1,2.74-2.254c1.982.358,3.492,3.662,3.73,5.446.014.1.04,1.263.043,1.994.063-.43.119-.848.189-1.29.134-.875.292-1.744.459-2.679q.145-.674.293-1.361c.088-.456.239-.927.358-1.4.3-1.081.652-2.161,1.033-3.242a15.651,15.651,0,0,1-4.613-1.31,4.983,4.983,0,0,1-2.471-3.387,2.385,2.385,0,0,1,2.367-2.643c2.014.054,4.006,3.091,4.512,4.818.031.108.255,1.387.365,2.092.234-.648.464-1.3.723-1.943.745-1.87,1.557-3.739,2.359-5.607.246-.572.484-1.145.724-1.718-.273-.039-3.509-.516-4.78-1.335a4.982,4.982,0,0,1-2.471-3.388,2.384,2.384,0,0,1,2.367-2.643c2.014.054,4.007,3.091,4.512,4.818.038.13.358,1.971.416,2.444.53-1.262,1.046-2.524,1.5-3.789a42.043,42.043,0,0,0,1.545-5.221c-.127-.018-3.507-.5-4.808-1.34a4.983,4.983,0,0,1-2.471-3.388A2.384,2.384,0,0,1,354,341.574c2.014.053,4.006,3.091,4.512,4.818.033.113.278,1.515.379,2.185l.115,0a30.673,30.673,0,0,0,.582-5.445c.031-1.006,0-1.969-.044-2.906a16.036,16.036,0,0,1-4.811-.8,4.983,4.983,0,0,1-2.828-3.1,2.384,2.384,0,0,1,2.063-2.887c2.007-.168,4.321,2.633,5.014,4.293.038.09.319,1.05.514,1.752-.028-.422-.049-.859-.084-1.263-.127-1.518-.336-2.9-.533-4.123-.117-.694-.236-1.32-.354-1.9a15.943,15.943,0,0,1-3.88-2.914,4.982,4.982,0,0,1-1.083-4.05,2.384,2.384,0,0,1,3.16-1.612c1.859.776,2.622,4.328,2.472,6.12-.013.155-.495,2.554-.527,2.536l-.037-.021c.125.56.252,1.161.378,1.821.223,1.221.463,2.6.624,4.124a42.228,42.228,0,0,1,.286,4.932,31.059,31.059,0,0,1-.467,5.507c0,.021-.011.043-.015.064.276-.522,1.094-1.956,1.169-2.059,1.062-1.451,3.967-3.633,5.88-3a2.384,2.384,0,0,1,1.329,3.289,4.982,4.982,0,0,1-3.474,2.348c-1.477.34-4.7-.314-4.952-.368a42.224,42.224,0,0,1-1.475,5.434c-.351,1.037-.737,2.07-1.136,3.1.252-.444.481-.838.519-.89,1.062-1.452,3.968-3.633,5.88-3a2.383,2.383,0,0,1,1.329,3.289,4.981,4.981,0,0,1-3.474,2.348,15.8,15.8,0,0,1-4.812-.34c-.157.394-.31.789-.469,1.183-.762,1.888-1.531,3.769-2.228,5.636-.247.659-.465,1.315-.686,1.972.225-.394.417-.724.452-.771,1.062-1.452,3.967-3.633,5.88-3a2.383,2.383,0,0,1,1.329,3.289,4.983,4.983,0,0,1-3.474,2.347,15.225,15.225,0,0,1-4.681-.315c-.206.679-.413,1.359-.582,2.027-.1.458-.238.893-.318,1.359l-.263,1.366c-.135.875-.281,1.776-.392,2.633-.081.6-.148,1.164-.217,1.737.237-.658.73-1.936.783-2.038a9.251,9.251,0,0,1,3.257-3.348,2.817,2.817,0,0,1,.283-.446,2.384,2.384,0,0,1,3.528-.368c1.456,1.392.892,4.981.107,6.6-.046.1-.664,1.075-1.064,1.687.29-.324.567-.642.87-.971.593-.656,1.205-1.293,1.861-1.982l1-.972c.325-.332.71-.641,1.068-.967.845-.737,1.736-1.442,2.65-2.133a15.67,15.67,0,0,1-3.125-3.638,4.982,4.982,0,0,1-.192-4.188,2.384,2.384,0,0,1,3.432-.9c1.65,1.156,1.636,4.789,1.106,6.507-.033.107-.552,1.3-.85,1.946.552-.411,1.1-.824,1.675-1.222,1.653-1.148,3.361-2.259,5.061-3.375.521-.342,1.035-.688,1.552-1.033-.206-.183-2.643-2.367-3.25-3.751a4.984,4.984,0,0,1-.193-4.188,2.384,2.384,0,0,1,3.432-.9c1.65,1.156,1.636,4.788,1.106,6.507-.04.13-.789,1.842-1,2.268,1.137-.761,2.264-1.528,3.344-2.331a41.981,41.981,0,0,0,4.169-3.5c-.1-.085-2.649-2.352-3.272-3.77a4.984,4.984,0,0,1-.192-4.188,2.384,2.384,0,0,1,3.432-.9c1.651,1.155,1.636,4.788,1.106,6.507-.034.113-.6,1.418-.89,2.033l.094.066a30.729,30.729,0,0,0,3.49-4.221c.58-.823,1.089-1.641,1.566-2.449a16.043,16.043,0,0,1-3.572-3.321,4.987,4.987,0,0,1-.651-4.142,2.384,2.384,0,0,1,3.313-1.27c1.767.967,2.152,4.58,1.814,6.347-.018.1-.313,1.052-.538,1.745.209-.368.432-.743.626-1.1.732-1.336,1.319-2.6,1.83-3.733.286-.644.531-1.231.755-1.783a15.935,15.935,0,0,1-1.629-4.571,4.984,4.984,0,0,1,1.331-3.976,2.385,2.385,0,0,1,3.526.4c1.122,1.673-.2,5.056-1.315,6.468-.1.122-1.822,1.858-1.839,1.825l-.02-.038c-.2.536-.43,1.108-.69,1.728-.487,1.141-1.049,2.427-1.754,3.784a42.405,42.405,0,0,1-2.482,4.271,31.083,31.083,0,0,1-3.428,4.336c-.015.016-.033.03-.048.046.517-.284,1.991-1.028,2.11-1.073,1.687-.625,5.313-.841,6.558.742a2.384,2.384,0,0,1-.705,3.477,4.984,4.984,0,0,1-4.193.041c-1.42-.531-3.744-2.853-3.928-3.039a42.12,42.12,0,0,1-4.228,3.718c-.865.672-1.756,1.321-2.658,1.961.455-.231.864-.434.924-.456,1.687-.625,5.313-.841,6.559.742a2.384,2.384,0,0,1-.706,3.477,4.983,4.983,0,0,1-4.193.042,15.836,15.836,0,0,1-3.827-2.938c-.349.242-.694.487-1.043.727-1.678,1.154-3.356,2.3-4.968,3.472-.568.413-1.113.841-1.66,1.267.4-.2.748-.374.8-.394,1.687-.625,5.313-.842,6.559.742a2.384,2.384,0,0,1-.706,3.477,4.983,4.983,0,0,1-4.192.041,15.216,15.216,0,0,1-3.731-2.845c-.546.453-1.094.906-1.6,1.37-.341.325-.691.613-1.015.958l-.973.994c-.6.655-1.214,1.327-1.779,1.98-.4.451-.766.889-1.139,1.328.561-.418,1.676-1.212,1.777-1.268,1.573-.874,5.124-1.637,6.6-.26a2.384,2.384,0,0,1-.171,3.544,4.985,4.985,0,0,1-4.138.676,16.364,16.364,0,0,1-4.32-2.391C357.131,382.527,356.539,383.243,355.992,383.927Z" transform="translate(-343 -323.451)" fill="#baafc4"/>
      </g>
      <g id="Group_3960" data-name="Group 3960" transform="translate(79.7 0)">
        <path id="Path_17738" data-name="Path 17738" d="M321.892,390.892c-1.776-.256-5.148-2.453-5.151-2.455-.035-.023,2.123-1.783,2.271-1.879,1.724-1.1,5.7-2.224,7.471-.767a2.713,2.713,0,0,1,.059,4.036C325.393,390.967,323.405,391.109,321.892,390.892Z" transform="translate(-272.511 -357.761)" fill="#92e3a9"/>
        <path id="Path_17739" data-name="Path 17739" d="M253.765,350.241c-.042,0,.787-2.658.859-2.819.828-1.871,3.529-5,5.808-4.761a2.712,2.712,0,0,1,2.275,3.334c-.331,1.584-1.91,2.8-3.292,3.453C257.793,350.213,253.768,350.241,253.765,350.241Z" transform="translate(-237.461 -334.135)" fill="#92e3a9"/>
        <path id="Path_17740" data-name="Path 17740" d="M229.992,383.927c-.784.975-1.5,1.893-2.136,2.737h-1.615c.813-1.042,1.759-2.222,2.829-3.495.622-.744,1.3-1.525,2.006-2.322a25.985,25.985,0,0,1-1.79-2.462,17.454,17.454,0,0,1-4.766.335c-.11.948-.209,1.871-.288,2.744-.184,1.972-.3,3.724-.371,5.2H222.55c.107-1.506.262-3.3.495-5.323.108-.963.243-1.99.392-3.043a16.353,16.353,0,0,1-4.5-2.037,4.984,4.984,0,0,1-1.929-3.723,2.384,2.384,0,0,1,2.74-2.254c1.982.358,3.492,3.662,3.73,5.446.014.1.039,1.263.043,1.994.063-.43.119-.848.189-1.29.133-.875.292-1.744.459-2.679q.145-.674.293-1.361c.088-.456.239-.927.358-1.4.3-1.081.652-2.161,1.033-3.242a15.651,15.651,0,0,1-4.613-1.31,4.983,4.983,0,0,1-2.471-3.387,2.385,2.385,0,0,1,2.367-2.643c2.014.054,4.006,3.091,4.512,4.818.031.108.255,1.387.365,2.092.234-.648.464-1.3.723-1.943.745-1.87,1.557-3.739,2.359-5.607.246-.572.484-1.145.725-1.718-.273-.039-3.51-.516-4.78-1.335a4.982,4.982,0,0,1-2.471-3.388,2.384,2.384,0,0,1,2.367-2.643c2.014.054,4.007,3.091,4.512,4.818.038.13.358,1.971.416,2.444.529-1.262,1.046-2.524,1.5-3.789a42.043,42.043,0,0,0,1.545-5.221c-.127-.018-3.507-.5-4.808-1.34a4.982,4.982,0,0,1-2.471-3.388A2.384,2.384,0,0,1,228,341.574c2.014.053,4.006,3.091,4.512,4.818.033.113.278,1.515.379,2.185l.115,0a30.661,30.661,0,0,0,.582-5.445c.031-1.006,0-1.969-.044-2.906a16.036,16.036,0,0,1-4.811-.8,4.983,4.983,0,0,1-2.828-3.1,2.384,2.384,0,0,1,2.063-2.887c2.007-.168,4.321,2.633,5.014,4.293.038.09.319,1.05.514,1.752-.028-.422-.049-.859-.084-1.263-.127-1.518-.337-2.9-.533-4.123-.117-.694-.236-1.32-.354-1.9a15.945,15.945,0,0,1-3.88-2.914,4.983,4.983,0,0,1-1.083-4.05,2.384,2.384,0,0,1,3.16-1.612c1.859.776,2.622,4.328,2.472,6.12-.013.155-.495,2.554-.527,2.536l-.037-.021c.125.56.252,1.161.378,1.821.223,1.221.463,2.6.624,4.124a42.228,42.228,0,0,1,.286,4.932,31.071,31.071,0,0,1-.467,5.507c0,.021-.011.043-.015.064.276-.522,1.094-1.956,1.169-2.059,1.062-1.451,3.967-3.633,5.88-3a2.384,2.384,0,0,1,1.329,3.289,4.982,4.982,0,0,1-3.474,2.348c-1.477.34-4.7-.314-4.953-.368a42.224,42.224,0,0,1-1.475,5.434c-.351,1.037-.737,2.07-1.136,3.1.252-.444.481-.838.519-.89,1.062-1.452,3.968-3.633,5.88-3a2.384,2.384,0,0,1,1.329,3.289,4.981,4.981,0,0,1-3.474,2.348,15.8,15.8,0,0,1-4.812-.34c-.157.394-.31.789-.469,1.183-.762,1.888-1.531,3.769-2.228,5.636-.247.659-.465,1.315-.686,1.972.225-.394.417-.724.452-.771,1.062-1.452,3.967-3.633,5.88-3a2.384,2.384,0,0,1,1.329,3.289,4.983,4.983,0,0,1-3.474,2.347,15.225,15.225,0,0,1-4.681-.315c-.206.679-.413,1.359-.582,2.027-.1.458-.238.893-.318,1.359l-.263,1.366c-.135.875-.281,1.776-.392,2.633-.082.6-.148,1.164-.217,1.737.237-.658.73-1.936.783-2.038a9.251,9.251,0,0,1,3.257-3.348,2.817,2.817,0,0,1,.283-.446,2.384,2.384,0,0,1,3.528-.368c1.456,1.392.892,4.981.107,6.6-.046.1-.664,1.075-1.064,1.687.29-.324.567-.642.87-.971.593-.656,1.205-1.293,1.861-1.982l1-.972c.325-.332.71-.641,1.068-.967.845-.737,1.736-1.442,2.65-2.133a15.67,15.67,0,0,1-3.125-3.638,4.982,4.982,0,0,1-.192-4.188,2.384,2.384,0,0,1,3.432-.9c1.65,1.156,1.636,4.789,1.106,6.507-.033.107-.552,1.3-.85,1.946.552-.411,1.1-.824,1.675-1.222,1.653-1.148,3.361-2.259,5.061-3.375.521-.342,1.035-.688,1.552-1.033-.206-.183-2.643-2.367-3.25-3.751a4.984,4.984,0,0,1-.193-4.188,2.384,2.384,0,0,1,3.432-.9c1.65,1.156,1.636,4.788,1.106,6.507-.04.13-.789,1.842-1,2.268,1.137-.761,2.264-1.528,3.344-2.331a41.953,41.953,0,0,0,4.169-3.5c-.1-.085-2.649-2.352-3.272-3.77a4.984,4.984,0,0,1-.192-4.188,2.384,2.384,0,0,1,3.432-.9c1.651,1.155,1.636,4.788,1.106,6.507-.035.113-.6,1.418-.89,2.033l.094.066a30.72,30.72,0,0,0,3.49-4.221c.58-.823,1.089-1.641,1.566-2.449a16.041,16.041,0,0,1-3.572-3.321,4.987,4.987,0,0,1-.651-4.142,2.384,2.384,0,0,1,3.313-1.27c1.767.967,2.152,4.58,1.814,6.347-.018.1-.313,1.052-.538,1.745.209-.368.432-.743.627-1.1.732-1.336,1.319-2.6,1.83-3.733.286-.644.531-1.231.755-1.783a15.935,15.935,0,0,1-1.629-4.571,4.984,4.984,0,0,1,1.331-3.976,2.384,2.384,0,0,1,3.525.4c1.122,1.673-.2,5.056-1.315,6.468-.1.122-1.822,1.858-1.839,1.825l-.019-.038c-.2.536-.43,1.108-.69,1.728-.487,1.141-1.049,2.427-1.754,3.784a42.428,42.428,0,0,1-2.482,4.271,31.091,31.091,0,0,1-3.428,4.336c-.015.016-.033.03-.048.046.517-.284,1.991-1.028,2.11-1.073,1.687-.625,5.313-.841,6.559.742a2.384,2.384,0,0,1-.706,3.477,4.984,4.984,0,0,1-4.193.041c-1.419-.531-3.744-2.853-3.928-3.039a42.12,42.12,0,0,1-4.228,3.718c-.865.672-1.756,1.321-2.658,1.961.455-.231.864-.434.924-.456,1.687-.625,5.313-.841,6.559.742a2.384,2.384,0,0,1-.706,3.477,4.983,4.983,0,0,1-4.193.042,15.835,15.835,0,0,1-3.827-2.938c-.349.242-.694.487-1.043.727-1.678,1.154-3.356,2.3-4.968,3.472-.568.413-1.113.841-1.66,1.267.4-.2.748-.374.8-.394,1.687-.625,5.313-.842,6.559.742a2.384,2.384,0,0,1-.706,3.477,4.983,4.983,0,0,1-4.192.041,15.213,15.213,0,0,1-3.731-2.845c-.546.453-1.094.906-1.6,1.37-.341.325-.691.613-1.015.958l-.973.994c-.6.655-1.214,1.327-1.779,1.98-.4.451-.766.889-1.139,1.328.561-.418,1.676-1.212,1.777-1.268,1.573-.874,5.124-1.637,6.595-.26a2.384,2.384,0,0,1-.171,3.544,4.985,4.985,0,0,1-4.138.676,16.362,16.362,0,0,1-4.32-2.391C231.131,382.527,230.539,383.243,229.992,383.927Z" transform="translate(-217 -323.451)" fill="#baafc4"/>
      </g>
      <g id="Group_3961" data-name="Group 3961" transform="translate(0 7.05)">
        <path id="Path_17741" data-name="Path 17741" d="M42.178,399.268c1.578-.227,4.574-2.179,4.576-2.181.031-.02-1.886-1.583-2.018-1.669-1.531-.981-5.066-1.976-6.638-.681a2.41,2.41,0,0,0-.052,3.586A5.036,5.036,0,0,0,42.178,399.268Z" transform="translate(-37.272 -369.832)" fill="#baafc4"/>
        <path id="Path_17742" data-name="Path 17742" d="M104.564,363.152c.037,0-.7-2.361-.763-2.505-.736-1.663-3.136-4.443-5.161-4.23a2.41,2.41,0,0,0-2.022,2.962,5.036,5.036,0,0,0,2.925,3.068C100.986,363.127,104.562,363.152,104.564,363.152Z" transform="translate(-70.271 -348.842)" fill="#92e3a9"/>
        <path id="Path_17743" data-name="Path 17743" d="M79.15,393.08c.7.866,1.33,1.682,1.9,2.432h1.435c-.722-.926-1.563-1.974-2.513-3.105-.553-.661-1.156-1.355-1.783-2.063a23.006,23.006,0,0,0,1.59-2.187,15.517,15.517,0,0,0,4.234.3c.1.842.186,1.662.256,2.438.163,1.752.264,3.309.329,4.62h1.164c-.1-1.338-.232-2.933-.439-4.729-.1-.855-.216-1.768-.349-2.7a14.553,14.553,0,0,0,4-1.81,4.429,4.429,0,0,0,1.714-3.307,2.118,2.118,0,0,0-2.435-2c-1.761.318-3.1,3.254-3.314,4.838-.012.093-.035,1.122-.038,1.772-.056-.382-.106-.754-.169-1.146-.118-.777-.259-1.549-.408-2.381q-.129-.6-.26-1.208c-.078-.405-.212-.824-.317-1.24-.265-.96-.58-1.92-.918-2.88a13.928,13.928,0,0,0,4.1-1.163,4.427,4.427,0,0,0,2.2-3.01,2.118,2.118,0,0,0-2.1-2.348c-1.789.047-3.56,2.746-4.009,4.28-.028.1-.227,1.233-.324,1.859-.208-.575-.412-1.151-.642-1.726-.662-1.661-1.384-3.322-2.1-4.982-.219-.509-.43-1.018-.644-1.527a14.693,14.693,0,0,0,4.247-1.186,4.427,4.427,0,0,0,2.2-3.01,2.117,2.117,0,0,0-2.1-2.348c-1.789.047-3.56,2.746-4.009,4.28-.034.116-.318,1.752-.369,2.171-.47-1.121-.929-2.243-1.336-3.366A37.3,37.3,0,0,1,76.554,362a14.943,14.943,0,0,0,4.272-1.19,4.429,4.429,0,0,0,2.2-3.01,2.118,2.118,0,0,0-2.1-2.348c-1.789.047-3.559,2.746-4.009,4.28-.03.1-.247,1.347-.337,1.942l-.1,0a27.27,27.27,0,0,1-.517-4.837c-.027-.894,0-1.75.04-2.582a14.26,14.26,0,0,0,4.274-.71,4.428,4.428,0,0,0,2.513-2.75,2.118,2.118,0,0,0-1.832-2.565c-1.784-.149-3.839,2.339-4.454,3.814-.034.08-.283.934-.457,1.557.025-.375.043-.763.074-1.122.113-1.349.3-2.577.473-3.663.1-.617.21-1.173.315-1.692a14.164,14.164,0,0,0,3.447-2.589,4.426,4.426,0,0,0,.962-3.6,2.118,2.118,0,0,0-2.808-1.431c-1.651.689-2.329,3.845-2.2,5.438.012.137.439,2.27.468,2.253l.033-.019c-.111.5-.224,1.032-.336,1.618-.2,1.085-.411,2.312-.554,3.664a37.62,37.62,0,0,0-.254,4.382,27.59,27.59,0,0,0,.415,4.893c0,.019.009.039.013.058-.245-.464-.972-1.738-1.039-1.829-.944-1.29-3.525-3.228-5.224-2.665a2.118,2.118,0,0,0-1.181,2.922,4.427,4.427,0,0,0,3.086,2.086,14.743,14.743,0,0,0,4.4-.327,37.485,37.485,0,0,0,1.31,4.828c.312.921.654,1.84,1.009,2.756-.224-.394-.427-.745-.461-.791-.944-1.29-3.525-3.228-5.224-2.665a2.118,2.118,0,0,0-1.181,2.922,4.428,4.428,0,0,0,3.087,2.086,14.062,14.062,0,0,0,4.276-.3c.14.35.275.7.417,1.05.677,1.678,1.36,3.349,1.98,5.008.219.584.413,1.169.609,1.752-.2-.35-.371-.643-.4-.685-.944-1.29-3.525-3.228-5.224-2.665a2.118,2.118,0,0,0-1.181,2.922,4.427,4.427,0,0,0,3.087,2.085A13.51,13.51,0,0,0,82.4,380c.183.6.367,1.207.517,1.8.093.408.211.793.282,1.208s.157.813.234,1.214c.12.777.249,1.578.348,2.339.073.529.132,1.034.193,1.543-.211-.584-.648-1.72-.695-1.811a8.224,8.224,0,0,0-2.894-2.975,2.509,2.509,0,0,0-.252-.4,2.118,2.118,0,0,0-3.135-.327c-1.294,1.237-.792,4.425-.1,5.864.041.085.59.955.945,1.5-.258-.288-.5-.57-.773-.863-.527-.583-1.071-1.149-1.654-1.761l-.884-.864c-.289-.295-.631-.569-.949-.859-.75-.655-1.542-1.282-2.354-1.9a13.909,13.909,0,0,0,2.776-3.232,4.428,4.428,0,0,0,.171-3.721,2.118,2.118,0,0,0-3.049-.8c-1.466,1.026-1.454,4.254-.983,5.781.029.1.49,1.153.755,1.73-.491-.365-.979-.733-1.488-1.086-1.469-1.021-2.987-2.007-4.5-3-.463-.3-.92-.612-1.379-.918a14.714,14.714,0,0,0,2.887-3.333,4.426,4.426,0,0,0,.171-3.721,2.118,2.118,0,0,0-3.05-.8c-1.466,1.027-1.453,4.254-.983,5.781.036.115.7,1.636.89,2.015-1.011-.675-2.012-1.358-2.972-2.07a37.3,37.3,0,0,1-3.7-3.112,14.963,14.963,0,0,0,2.907-3.349,4.428,4.428,0,0,0,.171-3.721,2.118,2.118,0,0,0-3.049-.8c-1.466,1.026-1.454,4.254-.983,5.781.031.1.537,1.26.791,1.806l-.083.058a27.227,27.227,0,0,1-3.1-3.75c-.516-.731-.968-1.458-1.392-2.176a14.248,14.248,0,0,0,3.174-2.95,4.428,4.428,0,0,0,.578-3.68,2.118,2.118,0,0,0-2.943-1.128c-1.57.859-1.912,4.069-1.611,5.638.016.085.278.935.478,1.551-.186-.327-.384-.661-.557-.977-.65-1.187-1.172-2.314-1.626-3.316-.254-.572-.472-1.094-.671-1.585a14.163,14.163,0,0,0,1.447-4.061,4.429,4.429,0,0,0-1.183-3.533,2.119,2.119,0,0,0-3.132.355c-1,1.487.178,4.492,1.168,5.747.086.109,1.619,1.651,1.634,1.621l.017-.034c.182.476.382.984.612,1.535.433,1.014.932,2.156,1.559,3.362a37.612,37.612,0,0,0,2.206,3.795,27.607,27.607,0,0,0,3.046,3.852c.013.014.029.026.043.041-.459-.252-1.769-.913-1.875-.953-1.5-.555-4.721-.748-5.827.659a2.118,2.118,0,0,0,.627,3.089,4.427,4.427,0,0,0,3.725.037,14.724,14.724,0,0,0,3.49-2.7,37.47,37.47,0,0,0,3.756,3.3c.768.6,1.561,1.174,2.362,1.742-.4-.2-.768-.385-.821-.405-1.5-.555-4.721-.747-5.827.659a2.117,2.117,0,0,0,.627,3.089,4.425,4.425,0,0,0,3.725.037,14.037,14.037,0,0,0,3.4-2.61c.31.215.616.433.927.646,1.49,1.025,2.982,2.042,4.414,3.084.505.367.988.747,1.474,1.125-.36-.182-.664-.332-.713-.35-1.5-.555-4.721-.748-5.827.659a2.118,2.118,0,0,0,.627,3.089,4.426,4.426,0,0,0,3.725.037,13.507,13.507,0,0,0,3.315-2.528c.485.4.972.8,1.424,1.217.3.288.614.544.9.851l.865.884c.529.582,1.079,1.179,1.581,1.759.352.4.68.79,1.012,1.18-.5-.371-1.489-1.077-1.579-1.127-1.4-.776-4.553-1.454-5.86-.231a2.118,2.118,0,0,0,.152,3.148,4.429,4.429,0,0,0,3.677.6,14.54,14.54,0,0,0,3.838-2.125C78.139,391.837,78.664,392.473,79.15,393.08Z" transform="translate(-41.915 -339.35)" fill="#baafc4"/>
      </g>
    </g>
    <g id="Background_Simple" data-name="Background Simple" transform="translate(26.552 15.339)">
      <g id="Group_3962" data-name="Group 3962" transform="translate(0 0)">
        <path id="Path_17744" data-name="Path 17744" d="M158.535,18.895S126.281,7.426,94.62,25.685,46.983,80.192,33.264,109.228s-5.822,58.57,18.347,72.037,40.6-6.385,74.509-7.352,43.025,3.881,71.159-15.273S230.5,94.251,208.306,60.78,158.535,18.895,158.535,18.895Z" transform="translate(-26.552 -15.339)" fill="rgba(227,205,221,0.95)"/>
        <path id="Path_17745" data-name="Path 17745" d="M158.535,18.895S126.281,7.426,94.62,25.685,46.983,80.192,33.264,109.228s-5.822,58.57,18.347,72.037,40.6-6.385,74.509-7.352,43.025,3.881,71.159-15.273S230.5,94.251,208.306,60.78,158.535,18.895,158.535,18.895Z" transform="translate(-26.552 -15.339)" fill="#fff" opacity="0.7"/>
      </g>
      <g id="Group_3978" data-name="Group 3978" transform="translate(146.979 43.997)">
        <g id="Group_3977" data-name="Group 3977">
          <path id="Path_17746" data-name="Path 17746" d="M382.586,128.508s11.626-1.128,12.292.81.434,6.363.434,6.363a10.287,10.287,0,0,1,1.706.608,1.94,1.94,0,0,1,.27,3.126,4.741,4.741,0,0,1-1.5,1.121,11.206,11.206,0,0,0-2.006,1.153c-.455.521-2.321,2.639-2.321,2.639l.463,3.413a9.426,9.426,0,0,1,2.314,3.383s3.008,1.765,4.772,2.776a31.124,31.124,0,0,0,4.512,1.938s.81.26.752.839-4.02,13.766-4.02,13.766l-2.082,6.652a15.332,15.332,0,0,1-.318,2.429c-.3,1.432-1.417,2.372-2.574,2.082l.116,4.859s-5.437,2.718-14.4,2.256A16.691,16.691,0,0,1,373.65,186l-.058-11.394-14.4-2.776a1.263,1.263,0,0,1-.868-2.024c.976-1.678,4.078-5.712,4.078-5.712l10.107-12.363s.694-.824.954-1.085.868-.434,3.384-.651,5.293-.694,5.293-.694a12.01,12.01,0,0,1,1.735-1.3c.217,0,.26-1.952.26-1.952a6.54,6.54,0,0,1-2.69-4.772c-.217-3.167,1.172-10.585,1.172-10.585Z" transform="translate(-358.024 -122.139)" fill="#fff"/>
          <g id="Group_3963" data-name="Group 3963" transform="translate(14.564 63.827)">
            <path id="Path_17747" data-name="Path 17747" d="M392.06,258.488s-1.222,18.193-1.222,26.882.543,15.749.815,21.859-.815,10.319.136,14.8,3.123,17.514,3.123,17.514l2.561,1.547s.425-10.372,1.376-14.037,1.222-19.143,1.765-23.9,2.308-21.587,2.308-21.587,6.788,17.65,8.418,24.574,7.2,22.537,8.418,26.339,3.139,9.429,3.139,9.429a4.283,4.283,0,0,0,1.765.136,1.508,1.508,0,0,0,1.222-.815s-1.8-11.371-2.6-16.9c-.98-6.836-2.579-17.107-3.53-20.908s-2.444-9.775-2.444-12.627-3.666-31.5-3.666-31.5S400.885,264.869,392.06,258.488Z" transform="translate(-390.838 -258.488)" fill="#311d43"/>
            <line id="Line_170" data-name="Line 170" x1="5.446" y1="6.35" transform="translate(6.637 16.731)" fill="none" stroke="#fff" stroke-linecap="round" stroke-miterlimit="10" stroke-width="0.53"/>
            <line id="Line_171" data-name="Line 171" x2="4.481" y2="4.172" transform="translate(5.247 17.195)" fill="none" stroke="#fff" stroke-linecap="round" stroke-miterlimit="10" stroke-width="0.53"/>
            <path id="Path_17748" data-name="Path 17748" d="M424.274,289.775a13.322,13.322,0,0,1,6.027-6.8" transform="translate(-409.447 -272.117)" fill="none" stroke="#fff" stroke-linecap="round" stroke-miterlimit="10" stroke-width="0.53"/>
            <path id="Path_17749" data-name="Path 17749" d="M438.267,263.811s-.618,2.318.154,3.708,1.545,1.391,1.545,1.391a88.447,88.447,0,0,1,1.391,11.9c0,4.327-.927,4.79,0,9.581s1.545,6.335,1.545,9.116,1.236,4.636,2.318,6.335,1.391,6.645,1.391,8.654a21.958,21.958,0,0,0,1.236,6.181s.149,4.5.927,5.563.927,4.636.927,4.636" transform="translate(-417.105 -261.451)" fill="none" stroke="#fff" stroke-linecap="round" stroke-miterlimit="10" stroke-width="0.53"/>
            <path id="Path_17750" data-name="Path 17750" d="M409.551,309.11a41.723,41.723,0,0,1-.773,9.735c-1.082,6.181-1.854,7.881-2.009,14.989s.464,8.344.155,12.053-2.164,9.581-2.164,12.208.285,11.168.285,11.168" transform="translate(-398.586 -286.662)" fill="none" stroke="#fff" stroke-linecap="round" stroke-miterlimit="10" stroke-width="0.53"/>
            <path id="Path_17751" data-name="Path 17751" d="M407.9,265.9l.309,1.236,2.009.464-.309-1.545" transform="translate(-400.332 -262.614)" fill="none" stroke="#fff" stroke-linecap="round" stroke-miterlimit="10" stroke-width="0.53"/>
            <path id="Path_17752" data-name="Path 17752" d="M413.123,267.214a27.585,27.585,0,0,0,5.563-.773l-.464-1.236" transform="translate(-403.241 -262.226)" fill="none" stroke="#fff" stroke-linecap="round" stroke-miterlimit="10" stroke-width="0.53"/>
            <path id="Path_17753" data-name="Path 17753" d="M428.456,264.508l.463,1.545s2.936-.154,3.4-.618" transform="translate(-411.774 -261.839)" fill="none" stroke="#fff" stroke-linecap="round" stroke-miterlimit="10" stroke-width="0.53"/>
            <path id="Path_17754" data-name="Path 17754" d="M403.163,265.392a6.779,6.779,0,0,1-2.936-.772l-1.391-.773.464-1.082" transform="translate(-395.289 -260.868)" fill="none" stroke="#fff" stroke-linecap="round" stroke-miterlimit="10" stroke-width="0.53"/>
          </g>
          <g id="Group_3964" data-name="Group 3964" transform="translate(10.884 144.881)">
            <path id="Path_17755" data-name="Path 17755" d="M390.293,441.268s-6.653,4.344-7.6,6.381,2.851,1.222,5.567.136,4.422-4.97,4.422-4.97Z" transform="translate(-382.541 -441.268)" fill="#fff" stroke="#263238" stroke-linecap="round" stroke-miterlimit="10" stroke-width="1.061"/>
            <path id="Path_17756" data-name="Path 17756" d="M463.623,445.816a16.049,16.049,0,0,0,1.955,5.276c1.463,2.275,4.226,4.226,4.226.65s-3.414-6.664-3.414-6.664A5.612,5.612,0,0,1,463.623,445.816Z" transform="translate(-427.667 -443.389)" fill="#fff" stroke="#263238" stroke-linecap="round" stroke-miterlimit="10" stroke-width="1.061"/>
          </g>
          <g id="Group_3970" data-name="Group 3970" transform="translate(18.64)">
            <g id="Group_3968" data-name="Group 3968" transform="translate(4.83 8.825)">
              <g id="Group_3966" data-name="Group 3966">
                <path id="Path_17757" data-name="Path 17757" d="M411.975,134.455s-1.442,8.948-.95,11.133c1.117,4.965,5.023,4.752,7.467,3.8,2.281-.887,4.562-4.021,4.856-4.435a.145.145,0,0,1,.083-.059,6.544,6.544,0,0,0,3.615-2.565,1.826,1.826,0,0,0-.95-2.715" transform="translate(-410.923 -134.455)" fill="#fff"/>
                <g id="Group_3965" data-name="Group 3965" clip-path="url(#clip-path)">
                  <path id="Path_17758" data-name="Path 17758" d="M432.853,147.5,435,145.133a7.414,7.414,0,0,0,3.666-2.58,1.667,1.667,0,0,0-.1-2.228,15.2,15.2,0,0,0-1.675-.776l-.723,1.593-.613.108a3.989,3.989,0,0,0-.489-2.613c-.744-.971-.913-3.78-.913-3.78s-1.043,5.605-1.173,7.952a6.783,6.783,0,0,1-1.173,3.65s.13,1.434.391,2.868c.03.165.06.42.09.737l.358-.569.192.541A3.864,3.864,0,0,1,432.853,147.5Z" transform="translate(-422.548 -134.678)" fill="#c7417b" opacity="0.5" style="mix-blend-mode: multiply;isolation: isolate"/>
                </g>
                <path id="Path_17760" data-name="Path 17760" d="M411.975,134.455s-1.442,8.948-.95,11.133c1.117,4.965,5.023,4.752,7.467,3.8,2.281-.887,4.562-4.021,4.856-4.435a.145.145,0,0,1,.083-.059,6.544,6.544,0,0,0,3.615-2.565,1.826,1.826,0,0,0-.95-2.715" transform="translate(-410.923 -134.455)" fill="none" stroke="#263238" stroke-linecap="round" stroke-miterlimit="10" stroke-width="1.061"/>
              </g>
              <g id="Group_3967" data-name="Group 3967" transform="translate(1.859 1.62)">
                <path id="Path_17761" data-name="Path 17761" d="M425.692,144c-.085.352-.011.671.166.714s.387-.209.471-.56.01-.671-.165-.714S425.776,143.646,425.692,144Z" transform="translate(-420.983 -141.071)" fill="#263238"/>
                <path id="Path_17762" data-name="Path 17762" d="M417.091,141.9c-.085.352-.01.671.166.714s.387-.209.471-.56.011-.671-.165-.714S417.175,141.545,417.091,141.9Z" transform="translate(-416.196 -139.902)" fill="#263238"/>
                <path id="Path_17763" data-name="Path 17763" d="M428.476,139.6a2.539,2.539,0,0,0-2.063-1.28" transform="translate(-421.403 -138.224)" fill="none" stroke="#263238" stroke-linecap="round" stroke-miterlimit="10" stroke-width="1.061"/>
                <path id="Path_17764" data-name="Path 17764" d="M417.211,138.265a1.88,1.88,0,0,0-2.1.407" transform="translate(-415.116 -138.108)" fill="none" stroke="#263238" stroke-linecap="round" stroke-miterlimit="10" stroke-width="1.061"/>
                <path id="Path_17765" data-name="Path 17765" d="M419.5,142.1a10.174,10.174,0,0,1-.132,1.773c-.148.74-.723.885-.578,1.459s.892.629.892.629" transform="translate(-417.146 -140.331)" fill="none" stroke="#263238" stroke-linecap="round" stroke-miterlimit="10" stroke-width="1.061"/>
                <path id="Path_17766" data-name="Path 17766" d="M422.557,155.726a2.286,2.286,0,0,0,1.895-.235" transform="translate(-419.257 -147.782)" fill="none" stroke="#263238" stroke-linecap="round" stroke-miterlimit="10" stroke-width="1.061"/>
              </g>
            </g>
            <g id="Group_3969" data-name="Group 3969">
              <path id="Path_17767" data-name="Path 17767" d="M417.046,117.135s-2.987-2.58-5.838-2.58-5.159,1.629-6.924,1.765-2.987-1.494-4.073.679,2.987,5.838,5.7,6.381,6.517-.271,7.6-.407a22.349,22.349,0,0,1,3.123,0s-.815,2.58,0,3.394a2.49,2.49,0,0,1,.95,1.9,12.251,12.251,0,0,0,.271,1.765l.815.271.408-1.494a8.666,8.666,0,0,0,2.172-4.209c.408-2.444-1.629-4.888-1.629-4.888Z" transform="translate(-400.031 -114.555)" fill="#142850"/>
              <path id="Path_17768" data-name="Path 17768" d="M412.619,125.511s4.641.878,8.278-.627.5-4.516.5-4.516" transform="translate(-407.037 -117.79)" fill="none" stroke="#fff" stroke-linecap="round" stroke-miterlimit="10" stroke-width="0.53"/>
              <path id="Path_17769" data-name="Path 17769" d="M434.116,119.8c.376,0,3.512,2.384,2.885,4.14s-1.882,1.881-1.882,1.881" transform="translate(-419.001 -117.475)" fill="none" stroke="#fff" stroke-linecap="round" stroke-miterlimit="10" stroke-width="0.53"/>
            </g>
          </g>
          <g id="Group_3973" data-name="Group 3973" transform="translate(15.916 20.617)">
            <g id="Group_3971" data-name="Group 3971" transform="translate(0 31.941)">
              <path id="Path_17770" data-name="Path 17770" d="M411.227,236.711l-3.911-2.086a20.542,20.542,0,0,1-3-.391c-.913-.261-10.288-1.157-10.288-1.157l-.141,2.2s10.689,1.434,12.906,1.694,4.171,1.3,4.562,1.955a3.376,3.376,0,0,1,.782,3.129c-.391,1.825-3,4.432-3,4.432-.124-.184,6.273-.643,6.2-1.327-.137-1.356-.859-5.321-.859-5.321Z" transform="translate(-393.889 -233.077)" fill="#c7417b"/>
              <path id="Path_17771" data-name="Path 17771" d="M411.227,236.711l-3.911-2.086a20.542,20.542,0,0,1-3-.391c-.913-.261-10.288-1.157-10.288-1.157l-.141,2.2s10.689,1.434,12.906,1.694,4.171,1.3,4.562,1.955a3.376,3.376,0,0,1,.782,3.129c-.391,1.825-3,4.432-3,4.432-.1-.2,6.285-.65,6.2-1.327-.208-1.731-.859-5.321-.859-5.321Z" transform="translate(-393.889 -233.077)" fill="#fff" opacity="0.5"/>
            </g>
            <g id="Group_3972" data-name="Group 3972" transform="translate(17.297 3.023)">
              <path id="Path_17772" data-name="Path 17772" d="M445.879,178.725c-.345-1.626-2.926-1.408-4.481-2.308s-5.334-2.985-5.334-2.985l-1.825-2.737a14.293,14.293,0,0,1-.794-2.29l-.192-.541-.358.569c.228,2.428.432,8.649.432,8.649l.782,3.911s3,12.906,3.781,15.773.782,4.823.261,5.736-.347,1.313-.347,1.313,2.038-1.574,1.911-3.138C439.566,198.859,446.111,179.822,445.879,178.725Z" transform="translate(-432.895 -167.864)" fill="#c7417b"/>
              <path id="Path_17773" data-name="Path 17773" d="M445.879,178.725c-.177-1.653-2.926-1.408-4.481-2.308s-5.334-2.985-5.334-2.985l-1.825-2.737a14.293,14.293,0,0,1-.794-2.29l-.192-.541-.358.569c.228,2.428.432,8.649.432,8.649l.782,3.911s3,12.906,3.781,15.773.782,4.823.261,5.736-.347,1.313-.347,1.313,2.093-1.579,1.911-3.138C439.521,199.026,446.025,180.093,445.879,178.725Z" transform="translate(-432.895 -167.864)" fill="#fff" opacity="0.5"/>
            </g>
            <path id="Path_17774" data-name="Path 17774" d="M428.044,173.3s-.814-7.332-1.222-9.232-.136-2.987-1.9-2.987-3.937-.272-3.53.678,3.123.136,3.53.543.136,1.358.136,1.358-3.53.271-3.53,1.222.136,3.53.815,3.8.95-1.222.95-1.222.136,3.123.814,4.209a12.012,12.012,0,0,0,1.493,1.9Z" transform="translate(-409.168 -161.048)" fill="#fff" stroke="#263238" stroke-linecap="round" stroke-miterlimit="10" stroke-width="1.061"/>
            <path id="Path_17775" data-name="Path 17775" d="M430.793,191.742s-.407,16.835.272,19.55,4.344,6.381,6.245,4.616.95-5.567.95-7.332-4.344-14.8-4.344-15.749a7.92,7.92,0,0,0-.543-2.308" transform="translate(-414.361 -177.451)" fill="none" stroke="#263238" stroke-linecap="round" stroke-miterlimit="10" stroke-width="1.061"/>
            <line id="Line_172" data-name="Line 172" y1="0.272" x2="2.715" transform="translate(16.704 16.056)" fill="none" stroke="#263238" stroke-linecap="round" stroke-miterlimit="10" stroke-width="1.061"/>
          </g>
          <g id="Group_3976" data-name="Group 3976" transform="translate(0 23.811)">
            <g id="Group_3974" data-name="Group 3974" transform="translate(9.399 6.522)">
              <path id="Path_17776" data-name="Path 17776" d="M385.057,198,385.578,183s-.652-.391-.913,1.043-.391,4.3-.391,4.3-3.129-1.956-2.346-.782,2.086,3.78,2.086,3.78l-4.823,4.823,2.216.912Z" transform="translate(-379.191 -182.956)" fill="#c7417b"/>
              <path id="Path_17777" data-name="Path 17777" d="M385.057,198,385.578,183s-.652-.391-.913,1.043-.391,4.3-.391,4.3-3.129-1.956-2.346-.782,2.086,3.78,2.086,3.78l-4.823,4.823,2.216.912Z" transform="translate(-379.191 -182.956)" fill="#fff" opacity="0.5"/>
            </g>
            <g id="Group_3975" data-name="Group 3975" transform="translate(21.73 8.567)">
              <path id="Path_17778" data-name="Path 17778" d="M407.025,188.907s-.248.877.8.877a10.566,10.566,0,0,0,2.871-.741l-.134-1.475A16.556,16.556,0,0,1,407.025,188.907Z" transform="translate(-406.999 -187.568)" fill="#c7417b"/>
              <path id="Path_17779" data-name="Path 17779" d="M407.025,188.907s-.248.877.8.877a10.566,10.566,0,0,0,2.871-.741l-.134-1.475A16.556,16.556,0,0,1,407.025,188.907Z" transform="translate(-406.999 -187.568)" fill="#fff" opacity="0.5"/>
            </g>
            <path id="Path_17780" data-name="Path 17780" d="M416.16,168.249s-1.358,7.975-.543,9.74,2.037,1.358,2.987.543a15.3,15.3,0,0,0,2.172-2.851" transform="translate(-389.92 -168.249)" fill="none" stroke="#263238" stroke-linecap="round" stroke-miterlimit="10" stroke-width="1.061"/>
            <path id="Path_17781" data-name="Path 17781" d="M392.981,233.383l.271,11.133s3.123,2.987,9.1,2.987a46.24,46.24,0,0,0,12.49-2.172v-3.937" transform="translate(-377.467 -204.499)" fill="none" stroke="#263238" stroke-linecap="round" stroke-miterlimit="10" stroke-width="1.061"/>
            <path id="Path_17782" data-name="Path 17782" d="M434.313,171.844s2.444,2.444,2.444,4.752-.407,2.851-.407,2.851" transform="translate(-400.47 -170.25)" fill="none" stroke="#263238" stroke-linecap="round" stroke-miterlimit="10" stroke-width="1.061"/>
            <path id="Path_17783" data-name="Path 17783" d="M439.212,179.5s3.666,2.172,5.7,3.394,4.481,1.222,4.481,2.308-5.7,19.551-5.7,19.551" transform="translate(-403.197 -174.51)" fill="none" stroke="#263238" stroke-linecap="round" stroke-miterlimit="10" stroke-width="1.061"/>
            <line id="Line_173" data-name="Line 173" x1="1.358" y2="5.431" transform="translate(36.965 11.098)" fill="none" stroke="#263238" stroke-linecap="round" stroke-miterlimit="10" stroke-width="1.061"/>
            <line id="Line_174" data-name="Line 174" x1="2.192" y1="4.602" transform="translate(13.355 9.684)" fill="none" stroke="#263238" stroke-linecap="round" stroke-miterlimit="10" stroke-width="0.53"/>
            <line id="Line_175" data-name="Line 175" x1="3.287" y1="1.972" transform="translate(12.259 13.628)" fill="none" stroke="#263238" stroke-linecap="round" stroke-miterlimit="10" stroke-width="0.53"/>
            <line id="Line_176" data-name="Line 176" x1="0.657" y2="3.287" transform="translate(25.627 25.901)" fill="none" stroke="#263238" stroke-linecap="round" stroke-miterlimit="10" stroke-width="0.53"/>
            <path id="Path_17784" data-name="Path 17784" d="M449.325,192.063a12.32,12.32,0,0,0-6.356,4.383" transform="translate(-405.288 -181.503)" fill="none" stroke="#263238" stroke-linecap="round" stroke-miterlimit="10" stroke-width="0.53"/>
            <path id="Path_17785" data-name="Path 17785" d="M447.408,191.563s-.877-.219-3.945,2.411" transform="translate(-405.563 -181.222)" fill="none" stroke="#263238" stroke-linecap="round" stroke-miterlimit="10" stroke-width="0.53"/>
            <path id="Path_17786" data-name="Path 17786" d="M415.62,194.04l-1.315,10.3,1.1.219.877-3.287" transform="translate(-389.335 -182.603)" fill="none" stroke="#263238" stroke-linecap="round" stroke-miterlimit="10" stroke-width="0.53"/>
            <path id="Path_17787" data-name="Path 17787" d="M407.42,254.827C403.475,258.114,398,257.9,398,257.9" transform="translate(-380.258 -216.434)" fill="none" stroke="#263238" stroke-linecap="round" stroke-miterlimit="10" stroke-width="0.53"/>
            <path id="Path_17788" data-name="Path 17788" d="M373.505,213.342s-2.683-2.459-6.483.67" transform="translate(-363.02 -192.835)" fill="none" stroke="#263238" stroke-linecap="round" stroke-miterlimit="10" stroke-width="0.53"/>
            <path id="Path_17789" data-name="Path 17789" d="M411.142,172.763s-1.086.271-2.308,2.172-2.716,5.16-1.629,5.431,3.123-.95,3.123-.95" transform="translate(-385.174 -170.761)" fill="none" stroke="#263238" stroke-linecap="round" stroke-miterlimit="10" stroke-width="1.061"/>
            <line id="Line_177" data-name="Line 177" x2="1.358" y2="1.222" transform="translate(30.177 9.197)" fill="none" stroke="#263238" stroke-linecap="round" stroke-miterlimit="10" stroke-width="1.061"/>
            <path id="Path_17790" data-name="Path 17790" d="M382.064,175.824s-5.023.679-7.06.815-1.641.891-2.308,1.358c-1.073.75-13.381,16.355-14.2,17.849s-.678,2.172.679,2.58,14.874,2.788,14.874,2.788L386,202.435l.95-2.987s2.773.365,3.261.365" transform="translate(-357.997 -172.465)" fill="none" stroke="#263238" stroke-linecap="round" stroke-miterlimit="10" stroke-width="1.061"/>
            <path id="Path_17791" data-name="Path 17791" d="M410.687,222.728a39.362,39.362,0,0,1-7.6-3.122" transform="translate(-383.09 -196.832)" fill="none" stroke="#263238" stroke-linecap="round" stroke-miterlimit="10" stroke-width="1.061"/>
            <path id="Path_17792" data-name="Path 17792" d="M386.057,216.346a38.261,38.261,0,0,0-6.15-1.751c-2.172-.272-5.465-.358-5.465-.358" transform="translate(-367.149 -193.844)" fill="none" stroke="#263238" stroke-linecap="round" stroke-miterlimit="10" stroke-width="1.061"/>
            <line id="Line_178" data-name="Line 178" y1="10.726" x2="0.407" transform="translate(15.242 10.012)" fill="none" stroke="#263238" stroke-linecap="round" stroke-miterlimit="10" stroke-width="1.061"/>
            <path id="Path_17793" data-name="Path 17793" d="M421.148,235.832a15.543,15.543,0,0,0,2.911,1.116" transform="translate(-393.143 -205.862)" fill="none" stroke="#263238" stroke-linecap="round" stroke-miterlimit="10" stroke-width="1.061"/>
          </g>
        </g>
      </g>
    </g>
    <g id="Device" transform="translate(84.344 30.726)">
      <g id="Group_3979" data-name="Group 3979" transform="translate(0 0)">
        <rect id="Rectangle_2478" data-name="Rectangle 2478" width="88.805" height="167.742" rx="7.674" fill="#311d43" stroke="#263238" stroke-linecap="round" stroke-linejoin="round" stroke-width="1"/>
        <rect id="Rectangle_2479" data-name="Rectangle 2479" width="80.911" height="130.904" transform="translate(3.947 18.419)" fill="#fff" stroke="#263238" stroke-linecap="round" stroke-linejoin="round" stroke-width="1"/>
        <path id="Path_17794" data-name="Path 17794" d="M253.256,67.9H235.664a1.2,1.2,0,0,1-1.2-1.2h0a1.2,1.2,0,0,1,1.2-1.2h17.592a1.2,1.2,0,0,1,1.2,1.2h0A1.2,1.2,0,0,1,253.256,67.9Z" transform="translate(-200.058 -58.644)" fill="#fff"/>
        <path id="Path_17795" data-name="Path 17795" d="M255.78,397.416a4.8,4.8,0,1,0-4.8,4.8A4.8,4.8,0,0,0,255.78,397.416Z" transform="translate(-206.58 -240.701)" fill="#fff" stroke="#263238" stroke-linecap="round" stroke-linejoin="round" stroke-width="0.704"/>
        <rect id="Rectangle_2480" data-name="Rectangle 2480" width="4.863" height="4.863" transform="translate(41.971 154.283)" fill="#311d43"/>
      </g>
    </g>
    <g id="Icons" transform="translate(108.789 55.986)">
      <g id="Group_3981" data-name="Group 3981" transform="translate(0 0)">
        <circle id="Ellipse_148" data-name="Ellipse 148" cx="18.625" cy="18.625" r="18.625" fill="#ac6697" opacity="0.422"/>
        <g id="Group_3980" data-name="Group 3980" transform="translate(6.68 10.194)">
          <path id="Path_17796" data-name="Path 17796" d="M251.936,129.989H229.858l10.882,10.49Z" transform="translate(-228.619 -129.989)" fill="#3a254e"/>
          <path id="Path_17797" data-name="Path 17797" d="M264.368,139.376l7.686,6.793V132.174Z" transform="translate(-247.826 -131.205)" fill="#3a254e"/>
          <path id="Path_17798" data-name="Path 17798" d="M234.848,138.966l-7.784-7.5v13.99Z" transform="translate(-227.064 -130.809)" fill="#3a254e"/>
          <path id="Path_17799" data-name="Path 17799" d="M243.443,150.475l-3.459,3.241-3.361-3.24-8.1,6.75h22.561Z" transform="translate(-227.876 -141.39)" fill="#3a254e"/>
        </g>
      </g>
      <g id="Group_3983" data-name="Group 3983" transform="translate(0 40.797)">
        <circle id="Ellipse_149" data-name="Ellipse 149" cx="18.625" cy="18.625" r="18.625" fill="#ac6697" opacity="0.422"/>
        <g id="Group_3982" data-name="Group 3982" transform="translate(9.081 4.434)">
          <path id="Path_17800" data-name="Path 17800" d="M243.888,217.314a.821.821,0,0,0,1.182.314c.606-.332,1.216-.664,1.787-1.05a2.437,2.437,0,0,0,.488-.659c-.11-.264-.167-.443-.255-.6-.243-.44-.5-.872-.752-1.308q-1.284-2.225-2.569-4.449a.882.882,0,0,0-1.38-.368c-.546.311-1.094.619-1.63.948a.812.812,0,0,0-.332,1.173Q242.144,214.321,243.888,217.314Z" transform="translate(-236.83 -209)" fill="#3a254e"/>
          <path id="Path_17801" data-name="Path 17801" d="M268.676,252.679q-1.682-2.928-3.378-5.848a.839.839,0,0,0-1.274-.356q-.848.468-1.678.968a.834.834,0,0,0-.366,1.173l3.672,6.264a.817.817,0,0,0,.971.077c.594-.324,1.191-.649,1.753-1.023a2.762,2.762,0,0,0,.525-.643A4.315,4.315,0,0,0,268.676,252.679Z" transform="translate(-248.835 -229.768)" fill="#3a254e"/>
          <path id="Path_17802" data-name="Path 17802" d="M244.719,231.6a2.655,2.655,0,0,1-2.233-.194,5.5,5.5,0,0,1-1.056-.7,10.406,10.406,0,0,1-3.261-5.516c-.322-1.348-.411-2.67.608-3.722L235,215.011c-.3.191-.583.374-.853.562a3.517,3.517,0,0,0-1.654,3.255,20.93,20.93,0,0,0,.573,3.905,30.929,30.929,0,0,0,6.52,12.013,16.268,16.268,0,0,0,3.994,3.5,4.327,4.327,0,0,0,4.912-.225Z" transform="translate(-232.479 -212.345)" fill="#3a254e"/>
        </g>
      </g>
      <g id="Group_3988" data-name="Group 3988" transform="translate(0 81.595)">
        <circle id="Ellipse_150" data-name="Ellipse 150" cx="18.625" cy="18.625" r="18.625" fill="#ac6697" opacity="0.422"/>
        <g id="Group_3987" data-name="Group 3987" transform="translate(6.415 9.299)">
          <g id="Group_3985" data-name="Group 3985">
            <g id="Group_3984" data-name="Group 3984" transform="translate(5.326 5.631)">
              <path id="Path_17803" data-name="Path 17803" d="M242.616,340.875h-4.14v2.1a2.585,2.585,0,0,0,2.4,2.577Z" transform="translate(-238.476 -333.688)" fill="#37224b"/>
              <path id="Path_17804" data-name="Path 17804" d="M259.119,324.667h-1.791v3.652a3.54,3.54,0,0,1-3.536,3.535h-.061l-6.328,4.682h6.871l-1.7,4.565,6.17-4.565h.374a2.587,2.587,0,0,0,2.587-2.587v-6.7A2.587,2.587,0,0,0,259.119,324.667Z" transform="translate(-243.445 -324.667)" fill="#37224b"/>
            </g>
            <path id="Path_17805" data-name="Path 17805" d="M242.14,311.969H229.053a2.587,2.587,0,0,0-2.587,2.587v6.7a2.587,2.587,0,0,0,2.587,2.587H237.3l-1.7,4.565,6.169-4.565h.374a2.587,2.587,0,0,0,2.587-2.587v-6.7A2.587,2.587,0,0,0,242.14,311.969Z" transform="translate(-226.466 -311.969)" fill="#3a254e"/>
          </g>
          <g id="Group_3986" data-name="Group 3986" transform="translate(4.621 4.84)">
            <circle id="Ellipse_151" data-name="Ellipse 151" cx="0.925" cy="0.925" r="0.925" transform="translate(0 0)" fill="rgba(199,65,123,0.73)"/>
            <path id="Path_17806" data-name="Path 17806" d="M247.244,323.809a.925.925,0,1,1-.925-.926A.926.926,0,0,1,247.244,323.809Z" transform="translate(-241.621 -322.884)" fill="rgba(199,65,123,0.73)"/>
            <path id="Path_17807" data-name="Path 17807" d="M255.751,323.809a.925.925,0,1,1-.925-.926A.925.925,0,0,1,255.751,323.809Z" transform="translate(-246.355 -322.884)" fill="rgba(199,65,123,0.73)"/>
          </g>
        </g>
      </g>
    </g>
    <g id="Character_1" data-name="Character 1" transform="translate(34.445 54.179)">
      <g id="Group_3996" data-name="Group 3996" transform="translate(0)">
        <path id="Path_17808" data-name="Path 17808" d="M145.077,186.217l.336-.457,5.5-7.483s.745-4.466,1.117-5.583,1.117-3.474,1.365-4.343.5-1.861.992-1.489.5,1.861.248,2.605a4.242,4.242,0,0,0-.124,2.11c.124.372,6.7-5.211,7.32-4.715s-.248,2.854-1.489,4.466-6.327,7.444-6.327,7.444-5.831,15.633-7.568,18.114-2.109,1.365-3.846,0a28.237,28.237,0,0,1-3.97-4.466Z" transform="translate(-96.819 -138.465)" fill="#fff" stroke="#263238" stroke-linecap="round" stroke-linejoin="round" stroke-width="1"/>
        <path id="Path_17809" data-name="Path 17809" d="M173.6,174.887s.62-2.233,1.241-2.729,2.978-1.985,2.978-1.985l1.613-4.963s.5-.372.372.745a31,31,0,0,1-.744,4.715,14.9,14.9,0,0,1-1.985,3.1" transform="translate(-116.283 -137.557)" fill="#fff" stroke="#263238" stroke-linecap="round" stroke-linejoin="round" stroke-width="1"/>
        <g id="Group_3989" data-name="Group 3989" transform="translate(39.325 28.769)">
          <path id="Path_17810" data-name="Path 17810" d="M133.03,167.8l9.553,18.734-7.32,7.444-2.109-7.072Z" transform="translate(-133.03 -167.802)" fill="#db8aae" stroke="#263238" stroke-linecap="round" stroke-linejoin="round" stroke-width="1"/>
          <path id="Path_17811" data-name="Path 17811" d="M136.093,211.32l.875,2.933,7.32-7.444-1.317-2.582Z" transform="translate(-134.735 -188.074)" fill="#263238" stroke="#263238" stroke-miterlimit="10" stroke-width="1"/>
        </g>
        <g id="Group_3990" data-name="Group 3990" transform="translate(9.541 152.128)">
          <path id="Path_17812" data-name="Path 17812" d="M72.9,445.981l-.882,3.515s-5.2,2.881-5.6,3.281-.24,2.081-.24,2.081H81.06a13.646,13.646,0,0,0-.32-3.842,42.41,42.41,0,0,1-.411-4.705Z" transform="translate(-66.02 -445.981)" fill="#263238" stroke="#263238" stroke-linecap="round" stroke-linejoin="round" stroke-width="1"/>
          <path id="Path_17813" data-name="Path 17813" d="M66.174,464.794H81.06s.033-.362.023-.96H66.147A8.667,8.667,0,0,0,66.174,464.794Z" transform="translate(-66.02 -455.917)" fill="#fff" stroke="#263238" stroke-linecap="round" stroke-linejoin="round" stroke-width="1"/>
          <path id="Path_17814" data-name="Path 17814" d="M66.58,458.811a7.6,7.6,0,0,1,8.643-.64,5.148,5.148,0,0,1,.8,1.841l-10.032.08A.841.841,0,0,1,66.58,458.811Z" transform="translate(-65.866 -452.174)" fill="#fff" stroke="#263238" stroke-linecap="round" stroke-linejoin="round" stroke-width="1"/>
          <path id="Path_17815" data-name="Path 17815" d="M94.645,450.416c0,.862-.3,1.561-.68,1.561s-.681-.7-.681-1.561.3-1.561.681-1.561S94.645,449.554,94.645,450.416Z" transform="translate(-81.125 -447.581)" fill="#fff" stroke="#263238" stroke-linecap="round" stroke-linejoin="round" stroke-width="1"/>
        </g>
        <g id="Group_3991" data-name="Group 3991" transform="translate(45.395 152.128)">
          <path id="Path_17816" data-name="Path 17816" d="M154.906,445.981l.882,3.515s5.2,2.881,5.6,3.281.24,2.081.24,2.081H146.744a13.629,13.629,0,0,1,.32-3.842,42.491,42.491,0,0,0,.41-4.705Z" transform="translate(-146.718 -445.981)" fill="#263238" stroke="#263238" stroke-linecap="round" stroke-linejoin="round" stroke-width="1"/>
          <path id="Path_17817" data-name="Path 17817" d="M161.63,464.794H146.744s-.034-.362-.023-.96h14.936A8.645,8.645,0,0,1,161.63,464.794Z" transform="translate(-146.719 -455.917)" fill="#fff" stroke="#263238" stroke-linecap="round" stroke-linejoin="round" stroke-width="1"/>
          <path id="Path_17818" data-name="Path 17818" d="M167.228,458.811a7.6,7.6,0,0,0-8.643-.64,5.153,5.153,0,0,0-.8,1.841l10.031.08A.841.841,0,0,0,167.228,458.811Z" transform="translate(-152.878 -452.174)" fill="#fff" stroke="#263238" stroke-linecap="round" stroke-linejoin="round" stroke-width="1"/>
          <path id="Path_17819" data-name="Path 17819" d="M150.205,450.416c0,.862.3,1.561.68,1.561s.68-.7.68-1.561-.3-1.561-.68-1.561S150.205,449.554,150.205,450.416Z" transform="translate(-148.659 -447.581)" fill="#fff" stroke="#263238" stroke-linecap="round" stroke-linejoin="round" stroke-width="1"/>
        </g>
        <path id="Path_17820" data-name="Path 17820" d="M80.382,274.287l-.5,7.762.661,66.882,7.431.33L95.41,287.5l.991-.33,13.879,62.093,7.431-.33-3.31-41.615L109.408,271.6Z" transform="translate(-64.128 -196.802)" fill="#fff" stroke="#263238" stroke-linecap="round" stroke-linejoin="round" stroke-width="1"/>
        <path id="Path_17821" data-name="Path 17821" d="M116.362,281.44V287.1l1.545-2.575.257-3.862" transform="translate(-84.428 -201.848)" fill="none" stroke="gray" stroke-linecap="round" stroke-linejoin="round" stroke-width="1"/>
        <g id="Group_3992" data-name="Group 3992" transform="translate(0.284 27.747)">
          <path id="Path_17822" data-name="Path 17822" d="M66.041,165.651s-16.75,7.32-17,8.064-4.715,19.231-3.97,20.968a4.242,4.242,0,0,0,5.335,2.233C52.766,196.048,55,186.99,55,186.99s5.211,15.881,5.211,17.494.5,11.539.5,11.539,9.553,1.365,17.494-.5,11.786-2.977,11.786-2.977l-3.722-22.705s-1.985-22.456-2.233-23.325-14.392-1.117-15.509-.992S66.041,165.651,66.041,165.651Z" transform="translate(-44.989 -165.496)" fill="#db8aae" stroke="#263238" stroke-linecap="round" stroke-linejoin="round" stroke-width="1"/>
          <path id="Path_17823" data-name="Path 17823" d="M53.336,219.049a11.525,11.525,0,0,0-2.957-4.829c-1.383-1.23-3.225-.532-4.485.23-.665,3.445-1.094,6.34-.82,6.977a4.242,4.242,0,0,0,5.335,2.233C51.475,223.268,52.515,221.2,53.336,219.049Z" transform="translate(-44.99 -192.241)" fill="#263238" stroke="#263238" stroke-miterlimit="10" stroke-width="1"/>
        </g>
        <g id="Group_3993" data-name="Group 3993" transform="translate(12.741 27.747)">
          <path id="Path_17824" data-name="Path 17824" d="M73.873,226.174l28.255-5.938-.229-1.4-.111-1.248-28.707,6.033C73.347,224.469,73.614,225.328,73.873,226.174Z" transform="translate(-73.081 -194.488)" fill="#263238"/>
          <path id="Path_17825" data-name="Path 17825" d="M108.145,250.263l-2.787-17-27.741,5.746a20.293,20.293,0,0,1,.751,3.192c0,1.613.5,11.538.5,11.538s9.553,1.365,17.494-.5S108.145,250.263,108.145,250.263Z" transform="translate(-75.606 -203.211)" fill="#aa6383" stroke="#263238" stroke-miterlimit="10" stroke-width="1"/>
          <path id="Path_17826" data-name="Path 17826" d="M86.5,165.526c-1.117.124-2.482.124-2.482.124s-3.142,1.373-6.724,2.99l14.49,14.973s3.09-14.932,2.832-16.22a13.636,13.636,0,0,0-.516-1.763C90.555,165.493,87.038,165.467,86.5,165.526Z" transform="translate(-75.429 -165.497)" fill="#263238" stroke="#263238" stroke-miterlimit="10" stroke-width="1"/>
        </g>
        <path id="Path_17827" data-name="Path 17827" d="M93.74,154.494s.744,6.452,1.117,7.693-2.109,9.925-2.109,9.925-7.2-7.32-8.064-9.429-2.854-9.43-2.854-9.43S88.157,156.479,93.74,154.494Z" transform="translate(-65.209 -130.935)" fill="#fff" stroke="#263238" stroke-linecap="round" stroke-linejoin="round" stroke-width="1"/>
        <path id="Path_17828" data-name="Path 17828" d="M81.829,153.253s.453,1.671,1.021,3.646c.3.166.665.358,1.108.579a12.727,12.727,0,0,0,7.534,1.381A3.515,3.515,0,0,0,94.045,157c-.177-1.389-.305-2.5-.305-2.5C88.157,156.479,81.829,153.253,81.829,153.253Z" transform="translate(-65.209 -130.935)" fill="#263238" stroke="#263238" stroke-linecap="round" stroke-linejoin="round" stroke-width="1"/>
        <g id="Group_3994" data-name="Group 3994" transform="translate(10.668 5.14)">
          <path id="Path_17829" data-name="Path 17829" d="M83.082,116.65a46.165,46.165,0,0,0,3.139,5.4c1.256,1.632,3.264,5.273,2.386,7.407s-1.453,5.769-4.27,6.153a12.72,12.72,0,0,1-7.534-1.381,8.7,8.7,0,0,1-2.511-1.506,5.72,5.72,0,0,1-3.014-.879c-1.13-.879-3.39-3.642-2.762-6.027s2.135-2.637,2.135-2.637-3.139-1.256-1.13-4.395,6.278-4.269,8.287-4.269S83.082,116.65,83.082,116.65Z" transform="translate(-68.408 -114.516)" fill="#fff" stroke="#263238" stroke-linecap="round" stroke-linejoin="round" stroke-width="1"/>
          <path id="Path_17830" data-name="Path 17830" d="M100.082,128.673a3.647,3.647,0,0,0,1.13,1.13c.879.628,2.135.251,1.758,1.381a1.8,1.8,0,0,1-2.009,1.381" transform="translate(-86.036 -122.395)" fill="none" stroke="#263238" stroke-linecap="round" stroke-linejoin="round" stroke-width="1"/>
          <path id="Path_17831" data-name="Path 17831" d="M98.841,140.565s-2.386,1.381-4.018,1.256a4.44,4.44,0,0,1-2.386-.753" transform="translate(-81.781 -129.014)" fill="none" stroke="#263238" stroke-linecap="round" stroke-linejoin="round" stroke-width="1"/>
          <path id="Path_17832" data-name="Path 17832" d="M94.985,142.766s.879,3.139,2.135,2.135a4.635,4.635,0,0,0,1.507-2.637A8.213,8.213,0,0,1,94.985,142.766Z" transform="translate(-83.199 -129.959)" fill="#263238" stroke="#263238" stroke-linecap="round" stroke-linejoin="round" stroke-width="1"/>
          <path id="Path_17833" data-name="Path 17833" d="M93.222,130.449c.278.436.287.928.019,1.1s-.709-.045-.988-.482-.287-.928-.02-1.1S92.944,130.013,93.222,130.449Z" transform="translate(-81.56 -123.083)" fill="#263238"/>
          <path id="Path_17834" data-name="Path 17834" d="M102.263,126.175c.278.436.287.928.019,1.1s-.709-.045-.988-.481-.287-.928-.019-1.1S101.985,125.738,102.263,126.175Z" transform="translate(-86.592 -120.704)" fill="#263238"/>
          <path id="Path_17835" data-name="Path 17835" d="M88.773,127.9s.365-1.677,1.677-1.9" transform="translate(-79.742 -120.909)" fill="none" stroke="#263238" stroke-linecap="round" stroke-linejoin="round" stroke-width="1"/>
          <path id="Path_17836" data-name="Path 17836" d="M98.472,123.173s.729-1.385,1.9-.8" transform="translate(-85.14 -118.808)" fill="none" stroke="#263238" stroke-linecap="round" stroke-linejoin="round" stroke-width="1"/>
        </g>
        <path id="Path_17837" data-name="Path 17837" d="M65.28,114.092s8.162,0,8.79-1.381-1.256-2.386-1.256-2.386,7.032.251,7.785-1.883-2.511-3.014-3.516-3.014H75.576s-.376-3.139-4.018-2.386-10.673,5.525-11.552,8.287-2.888,3.642-1.381,6.906,5.65,5.9,5.65,5.9-.628-2.386.628-2.511,3.39.753,3.767.753,1.507-1,.879-1.632-1.255-1-1.381-1.381.627-1.632.125-2.762S65.28,114.092,65.28,114.092Z" transform="translate(-51.992 -102.926)" fill="#0a1929" stroke="#263238" stroke-linecap="round" stroke-linejoin="round" stroke-width="1"/>
        <g id="Group_3995" data-name="Group 3995" transform="translate(0 15.163)">
          <rect id="Rectangle_2481" data-name="Rectangle 2481" width="5.542" height="12.407" rx="2.309" transform="translate(9.638 3.068) rotate(-33.61)" fill="#c7417b" stroke="#263238" stroke-miterlimit="10" stroke-width="1"/>
          <path id="Path_17838" data-name="Path 17838" d="M68.891,156.923a27.834,27.834,0,0,0-1.158-2.564c-.579-1.075-.579-1.572-.165-1.572a2.284,2.284,0,0,1,1.82,1.737,8.665,8.665,0,0,1,.165,2.729Z" transform="translate(-57.109 -145.839)" fill="#fff" stroke="#263238" stroke-miterlimit="10" stroke-width="1"/>
          <path id="Path_17839" data-name="Path 17839" d="M61.094,157.439s-4.715-4.715-4.88-5.128c-.142-.356.021-5.785.07-7.3a.485.485,0,0,1,.4-.461h0a.485.485,0,0,1,.57.436l.368,4.349,1.081-5.481a.486.486,0,0,1,.477-.392h0a.486.486,0,0,1,.485.51l-.306,6.107,1.36-5.213a.505.505,0,0,1,.622-.36h0a.506.506,0,0,1,.369.543l-.615,5.609,1.158.993v-1.985l1.385-2.333a.392.392,0,0,1,.512-.15h0a.391.391,0,0,1,.182.51l-.921,2.056s1.819,7.444,1.9,7.692a6.074,6.074,0,0,1-.579,2.068c-.248.5-11.331,23.987-11.994,24.9s-5.128,2.316-7.113.165-1.324-4.3-.248-6.782S61.094,157.439,61.094,157.439Z" transform="translate(-44.35 -140.648)" fill="#fff" stroke="#263238" stroke-miterlimit="10" stroke-width="1"/>
        </g>
        <line id="Line_179" data-name="Line 179" x2="6.275" y2="3.633" transform="translate(18.401 82.274)" fill="none" stroke="gray" stroke-linecap="round" stroke-linejoin="round" stroke-width="1"/>
        <line id="Line_180" data-name="Line 180" x1="3.798" y2="4.954" transform="translate(40.034 79.797)" fill="none" stroke="gray" stroke-linecap="round" stroke-linejoin="round" stroke-width="1"/>
      </g>
    </g>
    <g id="Floor" transform="translate(28.081 215.185)">
      <line id="Line_181" data-name="Line 181" x2="198.222" transform="translate(0)" fill="none" stroke="#263238" stroke-linecap="round" stroke-linejoin="round" stroke-width="1"/>
    </g>
  </g>
</svg>
