<svg xmlns="http://www.w3.org/2000/svg" width="42" height="41.939" viewBox="0 0 42 41.939">
  <g id="growth_1_" data-name="growth (1)" transform="translate(0 -0.359)">
    <path id="Path_2717" data-name="Path 2717" d="M102.248,400.359v4.059H88.719V407.8h33.822v-7.441Zm0,0" transform="translate(-81.217 -366.178)" fill="#c7417b"/>
    <path id="Path_2718" data-name="Path 2718" d="M21.012,161.036l2.029,2.029-3.033,2.36a33.681,33.681,0,0,1-6.568,4,33.7,33.7,0,0,1-11.072,2.964l-1.649.15V179.3l4.059-.624a37.786,37.786,0,0,0,9.137-2.615,37.755,37.755,0,0,0,9.3-5.7l3.882-3.235,2.029,2.029.676-8.794Zm0,0" transform="translate(-0.658 -146.471)" fill="#c7417b"/>
    <path id="Path_2719" data-name="Path 2719" d="M100.583,211.348A40.279,40.279,0,0,0,110.2,205l1.812-1.611-.9-1.011-1.812,1.611a38.924,38.924,0,0,1-14.84,8.241l.383,1.3A40.312,40.312,0,0,0,100.583,211.348Zm0,0" transform="translate(-86.47 -184.941)" fill="#472d5e"/>
    <path id="Path_2720" data-name="Path 2720" d="M64.66,324.549l-.338-1.311q-.661.171-1.33.318l.292,1.321Q63.974,324.725,64.66,324.549Zm0,0" transform="translate(-57.666 -295.578)" fill="#472d5e"/>
    <path id="Path_2721" data-name="Path 2721" d="M33.132,331.5l-.244-1.33q-.663.122-1.329.221l.2,1.339C32.216,331.66,32.674,331.582,33.132,331.5Zm0,0" transform="translate(-28.89 -301.922)" fill="#472d5e"/>
    <path id="Path_2722" data-name="Path 2722" d="M.6,336.282q.444-.041.887-.091l-.154-1.343q-.427.049-.856.087L0,334.978l.123,1.348Zm0,0" transform="translate(0 -306.206)" fill="#472d5e"/>
    <path id="Path_2723" data-name="Path 2723" d="M42.658,13.888V6.827a2.028,2.028,0,0,0-1.537-1.969l-.731-.183a2,2,0,0,0,.238-.934V2.389a2.029,2.029,0,1,0-4.059,0V3.742a2,2,0,0,0,.242.942l-.735.175a2.027,2.027,0,0,0-1.537,1.969v7.061h1.4l.58,8.117H34.972l-1.707,1.422a59.245,59.245,0,0,1-14.314,8.824,59.27,59.27,0,0,1-15.8,4.4l-2.433.323V42.3H42.658V22.005H40.679l.58-8.117Zm-4.735-11.5a.676.676,0,0,1,1.353,0V3.742a.676.676,0,1,1-1.353,0ZM34.132,24.467l.409-.341V40.946H29.129V28.212A60.711,60.711,0,0,0,34.132,24.467ZM27.776,40.946H22.365v-8.8a60.421,60.421,0,0,0,5.412-3.053Zm-8.284-7.454c.512-.222,1.016-.457,1.52-.693v8.148H15.6v-5.92Q17.57,34.326,19.492,33.491Zm-5.244,7.454H8.836V36.985q2.74-.627,5.412-1.505ZM2.072,38.156l1.258-.168q2.09-.279,4.153-.7v3.659H2.072Zm39.233,2.79H35.894V23.358h5.412Zm-3.429-18.94-.676-9.47H35.894V6.827a.675.675,0,0,1,.513-.656l1.6-.4h1.186l1.6.4a.676.676,0,0,1,.513.657v5.708H40l-.676,9.47Zm0,0" transform="translate(-0.658)" fill="#472d5e"/>
    <path id="Path_2724" data-name="Path 2724" d="M440.719,288.359h1.353v9.47h-1.353Zm0,0" transform="translate(-403.454 -263.648)" fill="#472d5e"/>
    <path id="Path_2725" data-name="Path 2725" d="M440.719,416.359h1.353v1.353h-1.353Zm0,0" transform="translate(-403.454 -380.825)" fill="#472d5e"/>
    <path id="Path_2726" data-name="Path 2726" d="M440.719,448.359h1.353v1.353h-1.353Zm0,0" transform="translate(-403.454 -410.119)" fill="#472d5e"/>
    <path id="Path_2727" data-name="Path 2727" d="M360.719,336.359h1.353v5.412h-1.353Zm0,0" transform="translate(-330.218 -307.59)" fill="#472d5e"/>
    <path id="Path_2728" data-name="Path 2728" d="M360.719,416.359h1.353v1.353h-1.353Zm0,0" transform="translate(-330.218 -380.825)" fill="#472d5e"/>
    <path id="Path_2729" data-name="Path 2729" d="M360.719,448.359h1.353v1.353h-1.353Zm0,0" transform="translate(-330.218 -410.119)" fill="#472d5e"/>
    <path id="Path_2730" data-name="Path 2730" d="M280.719,384.359h1.353v1.353h-1.353Zm0,0" transform="translate(-256.983 -351.531)" fill="#472d5e"/>
    <path id="Path_2731" data-name="Path 2731" d="M280.719,416.359h1.353v1.353h-1.353Zm0,0" transform="translate(-256.983 -380.825)" fill="#472d5e"/>
    <path id="Path_2732" data-name="Path 2732" d="M280.719,448.359h1.353v1.353h-1.353Zm0,0" transform="translate(-256.983 -410.119)" fill="#472d5e"/>
    <path id="Path_2733" data-name="Path 2733" d="M200.719,416.359h1.353v1.353h-1.353Zm0,0" transform="translate(-183.747 -380.825)" fill="#472d5e"/>
    <path id="Path_2734" data-name="Path 2734" d="M200.719,448.359h1.353v1.353h-1.353Zm0,0" transform="translate(-183.747 -410.119)" fill="#472d5e"/>
    <path id="Path_2735" data-name="Path 2735" d="M120.719,448.359h1.353v1.353h-1.353Zm0,0" transform="translate(-110.511 -410.119)" fill="#472d5e"/>
  </g>
</svg>
