<svg xmlns="http://www.w3.org/2000/svg" width="60" height="68.889" viewBox="0 0 60 68.889">
  <g id="bell" transform="translate(-5 -1)" opacity="0.7">
    <g id="Group_3888" data-name="Group 3888" transform="translate(6 21.889)">
      <path id="Path_17399" data-name="Path 17399" d="M60.654,54H9.346a3.018,3.018,0,1,1,0-6H60.654a3.018,3.018,0,1,1,0,6Z" transform="translate(-6 -15)" fill="#c7417b"/>
      <path id="Path_17400" data-name="Path 17400" d="M32,37a2.125,2.125,0,0,1-2.11-1.877L28.026,19.282A3.945,3.945,0,0,1,28,18.834,3.838,3.838,0,0,1,31.834,15h.332A3.838,3.838,0,0,1,36,18.834a3.976,3.976,0,0,1-.026.449L34.11,35.124A2.125,2.125,0,0,1,32,37Z" transform="translate(-3 -15)" fill="#c7417b"/>
      <path id="Path_17401" data-name="Path 17401" d="M32,45a3,3,0,1,1,3-3A3,3,0,0,1,32,45Z" transform="translate(-3 -15)" fill="#c7417b"/>
    </g>
    <path id="Path_17402" data-name="Path 17402" d="M60.556,52.111h-.621a13.956,13.956,0,0,1-3.823-9.619V31A18.9,18.9,0,0,0,39.779,12.3a6.667,6.667,0,1,0-9.558,0A18.9,18.9,0,0,0,13.889,31V42.492a13.956,13.956,0,0,1-3.823,9.619H9.444a4.444,4.444,0,0,0,0,8.889H25.066a10,10,0,0,0,19.869,0H60.556a4.444,4.444,0,0,0,0-8.889ZM35,3.222a4.444,4.444,0,1,1-4.444,4.444A4.449,4.449,0,0,1,35,3.222ZM16.111,42.492V31A16.686,16.686,0,0,1,32.778,14.333h4.444A16.686,16.686,0,0,1,53.889,31V42.492a16.144,16.144,0,0,0,3.164,9.619H12.947a16.144,16.144,0,0,0,3.164-9.619ZM35,67.667A7.784,7.784,0,0,1,27.311,61H42.689A7.784,7.784,0,0,1,35,67.667Zm25.556-8.889H9.444a2.222,2.222,0,0,1,0-4.444H60.556a2.222,2.222,0,0,1,0,4.444Z" transform="translate(0 0)" fill="#321e46"/>
    <path id="Path_17403" data-name="Path 17403" d="M17,38.343a16.58,16.58,0,0,1-1.219,6.28l1.853.754A18.6,18.6,0,0,0,19,38.343V33H17Z" transform="translate(1.274 4.442)" fill="#321e46"/>
    <path id="Path_17404" data-name="Path 17404" d="M42.667,18.318l-1.335,1.49A11.016,11.016,0,0,1,45,28v2h2V28A13.018,13.018,0,0,0,42.667,18.318Z" transform="translate(4.51 2.371)" fill="#321e46"/>
    <path id="Path_17405" data-name="Path 17405" d="M17,29h2v2H17Z" transform="translate(1.385 3.215)" fill="#321e46"/>
    <path id="Path_17406" data-name="Path 17406" d="M45,32h2v2H45Z" transform="translate(4.615 3.559)" fill="#321e46"/>
    <path id="Path_17407" data-name="Path 17407" d="M45,36h2v2H45Z" transform="translate(4.615 4.019)" fill="#321e46"/>
  </g>
</svg>
