<svg xmlns="http://www.w3.org/2000/svg" xmlns:xlink="http://www.w3.org/1999/xlink" width="279.009" height="233.857" viewBox="0 0 279.009 233.857">
  <defs>
    <clipPath id="clip-path">
      <rect width="279.009" height="233.857" fill="none"/>
    </clipPath>
    <clipPath id="clip-path-4">
      <path id="Path_17356" data-name="Path 17356" d="M493.755,407.366c-.993.536-1.55,2.168-1.691,2.188s-.4-.02-.4-.182.04-.705-.141-.705-.383.887-.423,2.177-.5,4.367,0,4.758c.313.245,3.185,1.754,3.266,1.956s-.061,1.613.182,1.835.806.766,1.25.786a19.242,19.242,0,0,0,4.214,0,9.274,9.274,0,0,0,2.782-1.028c.041-.161-.3-3.589-.685-4.012s-3.145-4.214-3.367-4.557a3.9,3.9,0,0,1-.383-1.653,2.131,2.131,0,0,0-1.253-1.794,4.494,4.494,0,0,0-1.255-.15,4.991,4.991,0,0,0-2.092.381" transform="translate(-490.865 -406.985)" fill="none"/>
    </clipPath>
    <linearGradient id="linear-gradient" x1="-8.536" y1="5.903" x2="-8.518" y2="5.903" gradientUnits="objectBoundingBox">
      <stop offset="0" stop-color="#4e9cff"/>
      <stop offset="0.984" stop-color="#176ad4"/>
      <stop offset="1" stop-color="#553772"/>
    </linearGradient>
    <clipPath id="clip-path-6">
      <path id="Path_17359" data-name="Path 17359" d="M397.194,4.688c-1.054,2.214-1,3.374-2.741,4.9s-9.321,7.728-10.027,8.354.694,3.668,1.8,4.2,3.476-1.509,3.476-1.509c1.072-1.191,6.073-6.828,7.066-7.026s3.408-.635,3.947-1.191,2.817-7.709,1.915-9.01a2.252,2.252,0,0,0-1.882-.75,3.956,3.956,0,0,0-3.554,2.033" transform="translate(-384.234 -2.655)" fill="none"/>
    </clipPath>
    <linearGradient id="linear-gradient-2" x1="-5.447" y1="10.678" x2="-5.433" y2="10.678" gradientUnits="objectBoundingBox">
      <stop offset="0" stop-color="#f2bfad"/>
      <stop offset="1" stop-color="#f2dad4"/>
    </linearGradient>
    <clipPath id="clip-path-7">
      <path id="Path_17361" data-name="Path 17361" d="M534.257,138.968s-4.405,1.332-4.749,1.791-.955,2.291,0,3.055,2,1.335,3.134.454,2.165-2.068,2.82-2.217a6.918,6.918,0,0,1,1.319-.037,6.614,6.614,0,0,0,2.116-.154c.822-.323,2.382-6.555,1.752-6.932a.2.2,0,0,0-.1-.023c-.989,0-6.289,4.064-6.289,4.064" transform="translate(-528.997 -134.904)" fill="none"/>
    </clipPath>
    <linearGradient id="linear-gradient-3" x1="-12.564" y1="17.437" x2="-12.54" y2="17.437" gradientUnits="objectBoundingBox">
      <stop offset="0" stop-color="#f2bfad"/>
      <stop offset="0.704" stop-color="#f2dad4"/>
      <stop offset="1" stop-color="#f2dad4"/>
    </linearGradient>
    <clipPath id="clip-path-9">
      <path id="Path_17363" data-name="Path 17363" d="M448.22,41.326c-1.759.051-3.8.111-3.886,1.255-.09,1.218-.4,7.105.113,7.972.468.8,1.3,3.11,4.563,3.008s5.378-3.365,5.557-3.747-.2-5.1-.2-5.888-4.266-2.6-6.07-2.6h-.073" transform="translate(-444.161 -41.325)" fill="none"/>
    </clipPath>
    <linearGradient id="linear-gradient-4" x1="-9.195" y1="14.084" x2="-9.174" y2="14.084" xlink:href="#linear-gradient-2"/>
    <clipPath id="clip-path-10">
      <path id="Path_17365" data-name="Path 17365" d="M517.462,115.8l-16.087.133a.889.889,0,0,0-.689.337l-8.934,11.3a.887.887,0,0,0,.711,1.438l16.514-.281a.886.886,0,0,0,.7-.355l8.441-11.279a.806.806,0,0,0-.644-1.288h-.008" transform="translate(-491.559 -115.797)" fill="none"/>
    </clipPath>
    <linearGradient id="linear-gradient-5" x1="-5.102" y1="8.239" x2="-5.092" y2="8.239" gradientUnits="objectBoundingBox">
      <stop offset="0" stop-color="#7e51aa"/>
      <stop offset="1" stop-color="#ac6697"/>
    </linearGradient>
    <clipPath id="clip-path-12">
      <path id="Path_17354" data-name="Path 17354" d="M0,474.961c0,27.276,62.458,49.387,139.5,49.387s139.5-22.111,139.5-49.387-62.458-49.387-139.5-49.387S0,447.685,0,474.961" transform="translate(0 -425.574)" fill="none"/>
    </clipPath>
    <linearGradient id="linear-gradient-6" x1="0.5" x2="0.5" y2="1" gradientUnits="objectBoundingBox">
      <stop offset="0" stop-color="#ebcad8"/>
      <stop offset="0.212" stop-color="#fce8f3"/>
      <stop offset="0.517" stop-color="#fff" stop-opacity="0.71"/>
      <stop offset="0.744" stop-color="#fff"/>
      <stop offset="1" stop-color="#fff"/>
    </linearGradient>
    <filter id="Rectangle_2407" x="-9" y="129.083" width="297.009" height="116.775" filterUnits="userSpaceOnUse">
      <feOffset dy="3" input="SourceAlpha"/>
      <feGaussianBlur stdDeviation="3" result="blur"/>
      <feFlood flood-color="#e3cddd" flood-opacity="0.949"/>
      <feComposite operator="in" in2="blur"/>
      <feComposite in="SourceGraphic"/>
    </filter>
    <clipPath id="clip-path-14">
      <path id="Path_17360" data-name="Path 17360" d="M371.609,48.958c-.619.165-7.786,6.842-7.3,9.4,1.157,6.026,18.1,10.418,18.485,13.046s-1.314,27.83-.386,28.758,10.745,4.483,15.693,4.793,13.627-1.414,14.1-2.717-2.414-26.342-2.079-26.342.43,7.882,4.2,9.921c2.488,1.346,5.91-.041,6.565-.783s-2.338-11.222-3.693-14.756-2.65-10.836-5.713-13.428-7.386-2.151-8.874-2.76c-.964-.394-3.4-.35-5.339-.306-1.053.024-1.959.048-2.4,0a45.864,45.864,0,0,0-4.957.162c-2.556.536-6.8.989-8.2,1.443s-6.925,2.391-6.883,1.566,2.555-4.452,2.1-4.823-3.174-.824-3.627-1.4c-.428-.544-1-1.786-1.585-1.786a.409.409,0,0,0-.1.014" transform="translate(-364.289 -48.944)" fill="none"/>
    </clipPath>
    <linearGradient id="linear-gradient-7" x1="-1.306" y1="2.876" x2="-1.302" y2="2.876" gradientUnits="objectBoundingBox">
      <stop offset="0" stop-color="#4e9cff"/>
      <stop offset="0.984" stop-color="#176ad4"/>
      <stop offset="1" stop-color="#8f3b76"/>
    </linearGradient>
    <clipPath id="clip-path-15">
      <path id="Path_17367" data-name="Path 17367" d="M405.049,409.541a2.13,2.13,0,0,0-1.253,1.794,3.911,3.911,0,0,1-.383,1.653c-.222.343-2.984,4.133-3.367,4.556s-.726,3.851-.685,4.012a9.287,9.287,0,0,0,2.782,1.028,19.264,19.264,0,0,0,4.214,0c.443-.02,1.008-.565,1.25-.786s.1-1.633.182-1.835,2.953-1.71,3.266-1.955c.5-.391.04-3.468,0-4.758s-.242-2.177-.423-2.177-.141.544-.141.706-.262.2-.4.182-.7-1.652-1.69-2.189a5,5,0,0,0-2.093-.38,4.479,4.479,0,0,0-1.254.15" transform="translate(-399.358 -409.391)" fill="rgb(0,0,255)"/>
    </clipPath>
    <linearGradient id="linear-gradient-8" x1="-6.827" y1="5.933" x2="-6.81" y2="5.933" xlink:href="#linear-gradient"/>
  </defs>
  <g id="Repeat_Grid_1" data-name="Repeat Grid 1" clip-path="url(#clip-path)">
    <g id="Group_3886" data-name="Group 3886">
      <g id="Group_3859" data-name="Group 3859">
        <g id="Group_3858" data-name="Group 3858" clip-path="url(#clip-path)">
          <path id="Path_17352" data-name="Path 17352" d="M683.21,350.737a1.939,1.939,0,1,0-3.831.6c.278,1.805.632,7.462-1.32,9.738a2.6,2.6,0,0,1-1.574.9l.178-10.773a2.8,2.8,0,1,0-5.6.023l.506,20.445a2.615,2.615,0,0,1-1.64-.914c-1.952-2.276-1.6-7.933-1.32-9.738a1.938,1.938,0,0,0-3.83-.6c-.139.89-1.26,8.81,2.2,12.856a6.563,6.563,0,0,0,4.685,2.3l.22,8.9h4.23l.307-18.592a6.552,6.552,0,0,0,4.587-2.3c3.462-4.045,2.341-11.966,2.2-12.856" transform="translate(-453.576 -237.784)" fill="rgba(203,186,198,0.8)"/>
          <path id="Path_17353" data-name="Path 17353" d="M128.751,407.195a1.236,1.236,0,1,0-2.442.382c.177,1.151.4,4.757-.841,6.208a1.661,1.661,0,0,1-1,.577l.113-6.868a1.786,1.786,0,1,0-3.572.015l.323,13.033a1.666,1.666,0,0,1-1.045-.582c-1.244-1.451-1.019-5.057-.841-6.208A1.236,1.236,0,1,0,117,413.37c-.089.567-.8,5.616,1.4,8.195a4.184,4.184,0,0,0,2.987,1.468l.14,5.673h2.7l.2-11.852a4.175,4.175,0,0,0,2.923-1.463c2.207-2.579,1.492-7.628,1.4-8.195" transform="translate(-79.741 -276.91)" fill="rgba(203,186,198,0.8)"/>
        </g>
      </g>
      <g id="Group_3863" data-name="Group 3863">
        <g id="Group_3862" data-name="Group 3862" clip-path="url(#clip-path)">
          <path id="Path_17355" data-name="Path 17355" d="M498.037,391.891s-.081,4.753,0,5.228-1.86,3.262-2.654,3.138a8.687,8.687,0,0,1-2.609-.652c-.229-.264-.128-.888-.046-1.458s.675-5.745.675-6.01,3.755-.969,4.636-.247" transform="translate(-336.263 -267.284)" fill="#ffd3bc"/>
        </g>
      </g>
      <g id="Group_3865" data-name="Group 3865" transform="translate(155.807 129.182)">
        <g id="Group_3864" data-name="Group 3864" clip-path="url(#clip-path-4)">
          <rect id="Rectangle_2409" data-name="Rectangle 2409" width="17.89" height="18.13" transform="translate(-6.756 4.918) rotate(-37.164)" fill="url(#linear-gradient)"/>
        </g>
      </g>
      <g id="Group_3867" data-name="Group 3867">
        <g id="Group_3866" data-name="Group 3866" clip-path="url(#clip-path)">
          <path id="Path_17357" data-name="Path 17357" d="M418.222,400.549s0,2.768-.08,3.244,1.86,3.261,2.654,3.138a8.669,8.669,0,0,0,2.609-.652c.229-.264.129-.888.047-1.458s-.593-3.761-.593-4.025-3.755-.97-4.636-.247" transform="translate(-285.417 -273.194)" fill="#ffd3bc"/>
          <path id="Path_17358" data-name="Path 17358" d="M417.877,207.353c-1.123,4.083-3.247,18.072-3.247,24.869s-.68,24.131-.68,26.766-.283,9.169.4,9.51a6.8,6.8,0,0,0,4.425,1.021,2.912,2.912,0,0,0,2.78-2.95c.057-1.248.567-10.211,1.078-13.672s2.326-10.134,3.517-14.427,3.971-12.925,4.708-12.892,5.332,18.945,5.714,20.016,1.112,16.3,1.159,17.578,0,2.508.8,3.029a14.116,14.116,0,0,0,4.543,1.893c1.278.095,2.13-1.94,2.366-2.555s.656-20.984.505-26.571.29-16.007.032-19.4-1.089-10.678-1.618-12.21-26.485,0-26.485,0" transform="translate(-282.517 -141.072)" fill="#322043"/>
        </g>
      </g>
      <g id="Group_3869" data-name="Group 3869" transform="translate(121.961 0.843)">
        <g id="Group_3868" data-name="Group 3868" clip-path="url(#clip-path-6)">
          <rect id="Rectangle_2411" data-name="Rectangle 2411" width="22.087" height="21.911" transform="matrix(0.111, -0.994, 0.994, 0.111, -2.721, 19.767)" fill="url(#linear-gradient-2)"/>
        </g>
      </g>
      <g id="Group_3873" data-name="Group 3873" transform="translate(167.91 42.82)">
        <g id="Group_3872" data-name="Group 3872" clip-path="url(#clip-path-7)">
          <rect id="Rectangle_2413" data-name="Rectangle 2413" width="13.306" height="10.977" transform="translate(-1.046 0.035) rotate(-3.377)" fill="url(#linear-gradient-3)"/>
        </g>
      </g>
      <g id="Group_3875" data-name="Group 3875">
        <g id="Group_3874" data-name="Group 3874" clip-path="url(#clip-path)">
          <path id="Path_17362" data-name="Path 17362" d="M434.609,19.695c-1.422-.295-4.167-2.979-4.419-5.707-.246-2.658-2.2-10.127,4.6-12.928,6.383-2.629,12.952.076,13.9,3.317.882,3.027-6.611,3.163-9.358,5.135s-2.934,3.28-3.62,2.969-1.1,7.214-1.1,7.214" transform="translate(-293.338 -0.001)" fill="#342048"/>
        </g>
      </g>
      <g id="Group_3877" data-name="Group 3877" transform="translate(140.982 13.117)">
        <g id="Group_3876" data-name="Group 3876" clip-path="url(#clip-path-9)">
          <rect id="Rectangle_2415" data-name="Rectangle 2415" width="15.076" height="15.795" transform="translate(-5.029 2.301) rotate(-25.587)" fill="url(#linear-gradient-4)"/>
        </g>
      </g>
      <g id="Group_3881" data-name="Group 3881" transform="translate(156.027 36.755)">
        <g id="Group_3880" data-name="Group 3880" clip-path="url(#clip-path-10)">
          <rect id="Rectangle_2417" data-name="Rectangle 2417" width="30.231" height="24.614" transform="matrix(0.879, -0.478, 0.478, 0.879, -5.817, 3.014)" fill="url(#linear-gradient-5)"/>
        </g>
      </g>
      <g id="Group_3883" data-name="Group 3883">
        <g id="Group_3882" data-name="Group 3882" clip-path="url(#clip-path)">
          <path id="Path_17366" data-name="Path 17366" d="M549.939,131.595c-.869.088-2.132.577-2.132,1.031s1.014.579,1.293.622.647.13.542.27-.315.839-.874.716a34.21,34.21,0,0,0-3.478-.157c-.472,0-1.031.332-1.066.682s-.14.419-.419.437-.787.28-.787.734,1.123.863,1.123,1.024a20.116,20.116,0,0,0,2.634,1.756c.432.25,1.239.886,1.693.886a1.377,1.377,0,0,0,1.272-1.057c.057-.625.954-1.079.966-1.386s-.284-.534-.25-.727.818-.466.818-.954a5.533,5.533,0,0,0-.352-1.352c-.045-.2-.227-.648-.045-.7s.818-.647.7-1.193-1.239-.668-1.641-.628" transform="translate(-370.656 -89.82)" fill="#ffd3bc"/>
        </g>
      </g>
      <g id="Group_3898" data-name="Group 3898">
        <g id="Group_3897" data-name="Group 3897">
          <g id="Group_3861" data-name="Group 3861" transform="translate(0 135.083)">
            <g id="Group_3860" data-name="Group 3860" clip-path="url(#clip-path-12)">
              <g transform="matrix(1, 0, 0, 1, 0, -135.08)" filter="url(#Rectangle_2407)">
                <rect id="Rectangle_2407-2" data-name="Rectangle 2407" width="279.009" height="98.775" transform="translate(0 135.08)" fill="url(#linear-gradient-6)"/>
              </g>
            </g>
          </g>
        </g>
        <g id="Group_3900" data-name="Group 3900">
          <g id="Group_3879" data-name="Group 3879">
            <g id="Group_3878" data-name="Group 3878" clip-path="url(#clip-path)">
              <path id="Path_17364" data-name="Path 17364" d="M439.172,24.828c.368-.011-.067,2.233.6,2.967s3.568,4.557,6.637,4.184c2.655-.323,2.274-2.611,2.657-4.494.348-1.71,1.451-1.857,1.838-6.322.15-1.728.967-4.433-.533-4.933s-7.133-1.833-8.533,0-1.533,6.233-2.267,5.666-2.266-3.333-3.167-1.833.8,4.823,2.767,4.767" transform="translate(-297.715 -10.437)" fill="#f2dad4"/>
            </g>
          </g>
          <g id="Group_3895" data-name="Group 3895">
            <g id="Group_3899" data-name="Group 3899">
              <g id="Group_3871" data-name="Group 3871" transform="translate(115.63 15.535)">
                <g id="Group_3870" data-name="Group 3870" clip-path="url(#clip-path-14)">
                  <rect id="Rectangle_2412" data-name="Rectangle 2412" width="79.75" height="80.02" transform="matrix(0.604, -0.797, 0.797, 0.604, -27.578, 35.765)" fill="url(#linear-gradient-7)"/>
                </g>
              </g>
              <g id="Group_3894" data-name="Group 3894">
                <g id="Group_3884" data-name="Group 3884" transform="translate(126.761 129.946)" clip-path="url(#clip-path-15)">
                  <rect id="Rectangle_2419" data-name="Rectangle 2419" width="18.129" height="17.89" transform="translate(-6.525 8.558) rotate(-52.836)" fill="rgb(85,55,114)"/>
                </g>
              </g>
            </g>
          </g>
        </g>
      </g>
    </g>
  </g>
</svg>
