<svg xmlns="http://www.w3.org/2000/svg" width="35" height="39.187" viewBox="0 0 35 39.187">
  <g id="file" transform="translate(-27.352)">
    <g id="Group_528" data-name="Group 528" transform="translate(28.117 0.765)">
      <g id="Group_524" data-name="Group 524" transform="translate(5.214 13.873)">
        <path id="Path_2400" data-name="Path 2400" d="M126.458,191.934a7.271,7.271,0,0,1-2.144-.321V208.9a2.02,2.02,0,0,1-2.02,2.02H105.476v2.1a2.02,2.02,0,0,0,2.02,2.02h20.011a2.02,2.02,0,0,0,2.02-2.02V191.256A7.245,7.245,0,0,1,126.458,191.934Z" transform="translate(-105.476 -191.256)" fill="#fff"/>
      </g>
      <g id="Group_525" data-name="Group 525" transform="translate(0 1.657)">
        <path id="Path_2401" data-name="Path 2401" d="M58.773,31.646h-19.4a2.02,2.02,0,0,0-2.02,2.02V61.508a2.02,2.02,0,0,0,2.02,2.02H59.384a2.02,2.02,0,0,0,2.02-2.02V44.372" transform="translate(-37.352 -31.646)" fill="#fff"/>
      </g>
      <g id="Group_526" data-name="Group 526" transform="translate(18.922)">
        <ellipse id="Ellipse_91" data-name="Ellipse 91" cx="7.274" cy="7.275" rx="7.274" ry="7.275" fill="#c7417b"/>
      </g>
      <g id="Group_527" data-name="Group 527" transform="translate(5.13 7.701)">
        <path id="Path_2402" data-name="Path 2402" d="M104.377,110.62h13.792v3.232H104.377Z" transform="translate(-104.377 -110.62)" fill="#fff"/>
      </g>
    </g>
    <g id="Group_546" data-name="Group 546" transform="translate(27.352)">
      <g id="Group_530" data-name="Group 530" transform="translate(26.199 6.273)">
        <g id="Group_529" data-name="Group 529">
          <path id="Path_2403" data-name="Path 2403" d="M370.42,88.72a.765.765,0,0,1-.765-.765V82.721a.765.765,0,0,1,1.531,0v5.234A.765.765,0,0,1,370.42,88.72Z" transform="translate(-369.655 -81.956)" fill="#fff"/>
        </g>
      </g>
      <g id="Group_532" data-name="Group 532" transform="translate(26.195 3.81)">
        <g id="Group_531" data-name="Group 531">
          <circle id="Ellipse_92" data-name="Ellipse 92" cx="0.765" cy="0.765" r="0.765" fill="#fff"/>
        </g>
      </g>
      <g id="Group_535" data-name="Group 535">
        <path id="Path_2404" data-name="Path 2404" d="M62.352,8.041A8.035,8.035,0,0,0,49.43,1.657H30.137a2.789,2.789,0,0,0-2.785,2.785V32.284a2.789,2.789,0,0,0,2.785,2.785h2.429V36.4a2.789,2.789,0,0,0,2.785,2.785H55.363A2.789,2.789,0,0,0,58.148,36.4V25.786a.765.765,0,0,0-1.531,0V36.4a1.256,1.256,0,0,1-1.255,1.255H35.351A1.256,1.256,0,0,1,34.1,36.4V35.07H50.149a2.789,2.789,0,0,0,2.785-2.785V15.963a8.068,8.068,0,0,0,3.683-.218v3.121a.765.765,0,1,0,1.531,0v-3.76a8.048,8.048,0,0,0,4.2-7.065ZM51.4,32.284a1.256,1.256,0,0,1-1.255,1.255H30.137a1.256,1.256,0,0,1-1.255-1.255V4.442a1.256,1.256,0,0,1,1.255-1.255h17.77A8,8,0,0,0,46.281,7.7H33.247a.765.765,0,0,0-.765.765V11.7a.765.765,0,0,0,.765.765H47.039a.762.762,0,0,0,.463-.156,8.086,8.086,0,0,0,3.9,3.228ZM46.274,9.232v1.7H34.013v-1.7Zm8.039,5.319a6.51,6.51,0,1,1,6.508-6.51A6.517,6.517,0,0,1,54.313,14.551Z" transform="translate(-27.352)" fill="#472d5e"/>
        <g id="Group_534" data-name="Group 534" transform="translate(29.267 21.548)">
          <g id="Group_533" data-name="Group 533" transform="translate(0)">
            <path id="Path_2405" data-name="Path 2405" d="M410.506,283.07a.765.765,0,1,1,.746-.592A.773.773,0,0,1,410.506,283.07Z" transform="translate(-409.742 -281.541)" fill="#c7417b"/>
          </g>
        </g>
      </g>
      <g id="Group_545" data-name="Group 545" transform="translate(5.13 15.126)">
        <g id="Group_544" data-name="Group 544">
          <g id="Group_537" data-name="Group 537">
            <g id="Group_536" data-name="Group 536">
              <path id="Path_2406" data-name="Path 2406" d="M108.934,199.164H95.142a.765.765,0,1,1,0-1.531h13.792a.765.765,0,1,1,0,1.531Z" transform="translate(-94.377 -197.633)" fill="#472d5e"/>
            </g>
          </g>
          <g id="Group_539" data-name="Group 539" transform="translate(0 3.63)">
            <g id="Group_538" data-name="Group 538">
              <path id="Path_2407" data-name="Path 2407" d="M108.934,246.594H95.142a.765.765,0,0,1,0-1.531h13.792a.765.765,0,0,1,0,1.531Z" transform="translate(-94.377 -245.063)" fill="#472d5e"/>
            </g>
          </g>
          <g id="Group_541" data-name="Group 541" transform="translate(0 7.26)">
            <g id="Group_540" data-name="Group 540">
              <path id="Path_2408" data-name="Path 2408" d="M108.934,294.024H95.142a.765.765,0,1,1,0-1.531h13.792a.765.765,0,1,1,0,1.531Z" transform="translate(-94.377 -292.493)" fill="#472d5e"/>
            </g>
          </g>
          <g id="Group_543" data-name="Group 543" transform="translate(0 10.89)">
            <g id="Group_542" data-name="Group 542">
              <path id="Path_2409" data-name="Path 2409" d="M108.934,341.454H95.142a.765.765,0,0,1,0-1.531h13.792a.765.765,0,0,1,0,1.531Z" transform="translate(-94.377 -339.923)" fill="#472d5e"/>
            </g>
          </g>
        </g>
      </g>
    </g>
  </g>
</svg>
