<svg id="Page-1" xmlns="http://www.w3.org/2000/svg" width="40" height="40" viewBox="0 0 40 40">
  <g id="_001---Money-In" data-name="001---Money-In">
    <path id="Shape" d="M37,31.327v12.34a2.667,2.667,0,0,1-2.667,2.667H3.667A2.667,2.667,0,0,1,1,43.667v-20A2.667,2.667,0,0,1,3.667,21H13.72a5.324,5.324,0,0,0,9.227,0h3.727A7.333,7.333,0,0,0,37,31.327Z" transform="translate(-0.333 -7)" fill="#fff"/>
    <path id="Shape-2" data-name="Shape" d="M41.332,33a7.34,7.34,0,0,0,1-.075A7.333,7.333,0,0,1,37.672,21h-2a7.333,7.333,0,0,0,5.66,12Z" transform="translate(-11.332 -7)" fill="#fff"/>
    <path id="Shape-3" data-name="Shape" d="M50.667,37.66V48.83A2.667,2.667,0,0,1,48,51.5h2a2.667,2.667,0,0,0,2.667-2.667V36.49A7.314,7.314,0,0,1,50.667,37.66Z" transform="translate(-16 -12.163)" fill="#fff"/>
    <path id="Shape-4" data-name="Shape" d="M11,46H37v4.667H1V46H11Z" transform="translate(-0.333 -15.333)" fill="#c7417b"/>
    <path id="Rectangle-path" d="M52,46h2v4.667H52Z" transform="translate(-17.333 -15.333)" fill="#c7417b"/>
    <circle id="Oval" cx="2" cy="2" r="2" transform="translate(4 17.333)" fill="#c7417b"/>
    <circle id="Oval-2" data-name="Oval" cx="2" cy="2" r="2" transform="translate(8 17.333)" fill="#fff"/>
    <path id="Shape-5" data-name="Shape" d="M51.667,24.333a7.329,7.329,0,1,1-2.147-5.187A7.333,7.333,0,0,1,51.667,24.333Z" transform="translate(-12.333 -5.667)" fill="#c7417b"/>
    <path id="Shape-6" data-name="Shape" d="M47.5,17a7.417,7.417,0,0,0-1,.075,7.325,7.325,0,0,1,.007,14.516A7.33,7.33,0,1,0,47.5,17Z" transform="translate(-15.5 -5.667)" fill="#c7417b"/>
    <path id="Shape-7" data-name="Shape" d="M29.667,14.333A5.234,5.234,0,0,1,28.947,17a5.324,5.324,0,0,1-9.227,0A5.234,5.234,0,0,1,19,14.333a5.333,5.333,0,1,1,10.667,0Z" transform="translate(-6.333 -3)" fill="#c7417b"/>
    <path id="Shape-8" data-name="Shape" d="M26.5,9a5.371,5.371,0,0,0-1,.1,5.333,5.333,0,0,1,4.333,5.237A5.234,5.234,0,0,1,29.113,17,5.309,5.309,0,0,1,25.5,19.561a5.332,5.332,0,0,0,6.333-5.228A5.333,5.333,0,0,0,26.5,9Z" transform="translate(-8.5 -3)" fill="#c7417b"/>
    <g id="Group_612" data-name="Group 612">
      <path id="Shape-9" data-name="Shape" d="M7.667,30.333a2.65,2.65,0,0,0,2-.921,2.667,2.667,0,1,0,0-3.491,2.661,2.661,0,1,0-2,4.412Zm4-4a1.333,1.333,0,1,1-1.333,1.333A1.333,1.333,0,0,1,11.667,26.333Zm-4,0a1.333,1.333,0,1,1-1.333,1.333A1.333,1.333,0,0,1,7.667,26.333Z" transform="translate(-1.667 -8.333)" fill="#472d5e"/>
      <path id="Shape-10" data-name="Shape" d="M42.667,12.333a.667.667,0,0,0,.667-.667v-4a.667.667,0,1,0-1.333,0v4A.667.667,0,0,0,42.667,12.333Z" transform="translate(-14 -2.333)" fill="#472d5e"/>
      <path id="Shape-11" data-name="Shape" d="M42.667,3.667A.667.667,0,0,0,43.333,3V1.667a.667.667,0,1,0-1.333,0V3A.667.667,0,0,0,42.667,3.667Z" transform="translate(-14 -0.333)" fill="#472d5e"/>
      <path id="Shape-12" data-name="Shape" d="M48.667,9.333a.667.667,0,0,0,.667-.667v-8A.667.667,0,1,0,48,.667v8A.667.667,0,0,0,48.667,9.333Z" transform="translate(-16)" fill="#472d5e"/>
      <path id="Shape-13" data-name="Shape" d="M53.667,13.667A.667.667,0,0,0,54.333,13V11.667a.667.667,0,1,0-1.333,0V13A.667.667,0,0,0,53.667,13.667Z" transform="translate(-17.667 -3.667)" fill="#472d5e"/>
      <path id="Shape-14" data-name="Shape" d="M53.667,8a.667.667,0,0,0,.667-.667V6.667a.667.667,0,1,0-1.333,0v.667A.667.667,0,0,0,53.667,8Z" transform="translate(-17.667 -2)" fill="#472d5e"/>
      <path id="Shape-15" data-name="Shape" d="M20.667,2.667A.667.667,0,0,0,21.333,2V.667A.667.667,0,1,0,20,.667V2A.667.667,0,0,0,20.667,2.667Z" transform="translate(-6.667)" fill="#472d5e"/>
      <path id="Shape-16" data-name="Shape" d="M20.667,7a.667.667,0,0,0,.667-.667V5.667a.667.667,0,1,0-1.333,0v.667A.667.667,0,0,0,20.667,7Z" transform="translate(-6.667 -1.667)" fill="#472d5e"/>
      <path id="Shape-17" data-name="Shape" d="M26.667,4a.667.667,0,0,0,.667-.667V.667A.667.667,0,1,0,26,.667V3.333A.667.667,0,0,0,26.667,4Z" transform="translate(-8.667)" fill="#472d5e"/>
      <path id="Shape-18" data-name="Shape" d="M31.667,6.667A.667.667,0,0,0,32.333,6V4.667a.667.667,0,1,0-1.333,0V6A.667.667,0,0,0,31.667,6.667Z" transform="translate(-10.333 -1.333)" fill="#472d5e"/>
      <path id="Shape-19" data-name="Shape" d="M8,39H6.667a.667.667,0,1,0,0,1.333H8A.667.667,0,1,0,8,39Z" transform="translate(-2 -13)" fill="#472d5e"/>
      <path id="Shape-20" data-name="Shape" d="M12,39.667a.667.667,0,0,0,.667.667H18A.667.667,0,0,0,18,39H12.667A.667.667,0,0,0,12,39.667Z" transform="translate(-4 -13)" fill="#472d5e"/>
      <path id="Shape-21" data-name="Shape" d="M46.034,21.834a.651.651,0,0,0,1.267,0A1.327,1.327,0,0,1,48,23a.667.667,0,0,0,1.333,0,2.667,2.667,0,0,0-2-2.572v-.761a.667.667,0,1,0-1.333,0v.761a2.661,2.661,0,0,0,.667,5.239,1.329,1.329,0,0,1,.633,2.5.651.651,0,0,0-1.267,0,1.327,1.327,0,0,1-.7-1.166A.667.667,0,1,0,44,27a2.667,2.667,0,0,0,2,2.572v.761a.667.667,0,0,0,1.333,0v-.761a2.661,2.661,0,0,0-.667-5.239,1.329,1.329,0,0,1-.633-2.5Z" transform="translate(-14.667 -6.333)" fill="#472d5e"/>
      <path id="Shape-22" data-name="Shape" d="M26,15.667a.667.667,0,1,1-.6.964.667.667,0,0,0-1.192.6,1.991,1.991,0,0,0,1.125.985v.118a.667.667,0,1,0,1.333,0v-.123A2,2,0,0,0,26,14.333a.667.667,0,1,1,.6-.964.667.667,0,0,0,1.192-.6,1.991,1.991,0,0,0-1.125-.985v-.118a.667.667,0,1,0-1.333,0v.123A2,2,0,0,0,26,15.667Z" transform="translate(-8 -3.667)" fill="#472d5e"/>
      <path id="Shape-23" data-name="Shape" d="M40,21.315a7.991,7.991,0,0,0-13.95-5.333H23.643a6,6,0,1,0-11.287,0H3.333A3.337,3.337,0,0,0,0,19.315v20a3.337,3.337,0,0,0,3.333,3.333H34a3.337,3.337,0,0,0,3.333-3.333V27.265A7.982,7.982,0,0,0,40,21.315Zm-8-6.667a6.661,6.661,0,1,1-5.147,2.425A6.661,6.661,0,0,1,32,14.648ZM18,9.315a4.672,4.672,0,0,1,4.667,4.667,4.588,4.588,0,0,1-.632,2.333,4.657,4.657,0,0,1-8.074-.007,4.588,4.588,0,0,1-.627-2.327A4.672,4.672,0,0,1,18,9.315Zm-14.667,8h9.7a5.962,5.962,0,0,0,9.937,0h2.1A8,8,0,0,0,36,28.244v4.4H10.667a.667.667,0,1,0,0,1.333H36v3.333H1.333V33.982h4a.667.667,0,1,0,0-1.333h-4V19.315A2,2,0,0,1,3.333,17.315ZM34,41.315H3.333a2,2,0,0,1-2-2v-.667H36v.667A2,2,0,0,1,34,41.315Z" transform="translate(0 -2.648)" fill="#472d5e"/>
    </g>
  </g>
</svg>
