<svg xmlns="http://www.w3.org/2000/svg" width="91" height="91" viewBox="0 0 91 91">
  <g id="Group_3998" data-name="Group 3998" transform="translate(-262 -33)">
    <circle id="Ellipse_12" data-name="Ellipse 12" cx="45.5" cy="45.5" r="45.5" transform="translate(262 33)" fill="rgba(203,203,203,0.25)"/>
    <g id="user" transform="translate(288 54.245)" opacity="0.997">
      <path id="Path_152" data-name="Path 152" d="M110.13,11.547a11.174,11.174,0,0,1-3.383,8.165,11.174,11.174,0,0,1-8.165,3.383h-.005a11.176,11.176,0,0,1-8.159-3.383,11.173,11.173,0,0,1-3.383-8.165,11.172,11.172,0,0,1,3.383-8.164A11.171,11.171,0,0,1,98.577,0h.005a11.177,11.177,0,0,1,8.165,3.383A11.173,11.173,0,0,1,110.13,11.547Zm0,0" transform="translate(-78.885)" fill="#d1b2c2"/>
      <path id="Path_153" data-name="Path 153" d="M40,263.859a7.959,7.959,0,0,1-2.365,6.023,8.511,8.511,0,0,1-6.093,2.223H8.457a8.507,8.507,0,0,1-6.092-2.223A7.958,7.958,0,0,1,0,263.859c0-.963.032-1.915.1-2.831A28.344,28.344,0,0,1,.484,258a23.913,23.913,0,0,1,.744-3.045,15.1,15.1,0,0,1,1.252-2.841,10.754,10.754,0,0,1,1.887-2.461,8.327,8.327,0,0,1,2.713-1.7,9.378,9.378,0,0,1,3.462-.626,3.509,3.509,0,0,1,1.876.795c.571.373,1.23.8,1.957,1.262a11.168,11.168,0,0,0,2.529,1.115,10.082,10.082,0,0,0,2.787.495q.153.005.306.005a10.058,10.058,0,0,0,3.095-.5,11.168,11.168,0,0,0,2.529-1.115c.734-.469,1.393-.893,1.956-1.26a3.505,3.505,0,0,1,1.877-.8,9.383,9.383,0,0,1,3.462.626,8.334,8.334,0,0,1,2.712,1.7,10.716,10.716,0,0,1,1.888,2.461,15.051,15.051,0,0,1,1.252,2.84A23.894,23.894,0,0,1,39.515,258a28.613,28.613,0,0,1,.388,3.029C39.967,261.941,40,262.893,40,263.859Zm0,0" transform="translate(0 -224.161)" fill="#d1b2c2"/>
      <path id="Path_154" data-name="Path 154" d="M210.3,23.094h-.005V0h.005a11.177,11.177,0,0,1,8.165,3.383,11.173,11.173,0,0,1,3.383,8.164,11.174,11.174,0,0,1-3.383,8.165A11.174,11.174,0,0,1,210.3,23.094Zm0,0" transform="translate(-190.601)" fill="#d1b2c2"/>
      <path id="Path_155" data-name="Path 155" d="M230.6,263.859a7.959,7.959,0,0,1-2.365,6.023,8.511,8.511,0,0,1-6.093,2.223h-11.85V250.986q.153.005.306.005a10.058,10.058,0,0,0,3.094-.5,11.168,11.168,0,0,0,2.529-1.115c.734-.469,1.393-.893,1.956-1.26a3.505,3.505,0,0,1,1.877-.8,9.383,9.383,0,0,1,3.462.626,8.334,8.334,0,0,1,2.712,1.7,10.714,10.714,0,0,1,1.888,2.461,15.05,15.05,0,0,1,1.252,2.84,23.9,23.9,0,0,1,.745,3.047,28.622,28.622,0,0,1,.388,3.029C230.568,261.941,230.6,262.893,230.6,263.859Zm0,0" transform="translate(-190.601 -224.161)" fill="#d1b2c2"/>
    </g>
  </g>
</svg>
