<svg xmlns="http://www.w3.org/2000/svg" width="30" height="23.612" viewBox="0 0 30 23.612">
  <g id="camera" transform="translate(0 -44.8)" opacity="0.832">
    <g id="Group_460" data-name="Group 460" transform="translate(0 44.8)">
      <g id="Group_459" data-name="Group 459">
        <path id="Path_2340" data-name="Path 2340" d="M29,48.479a3.225,3.225,0,0,0-2.367-1H21.9v-.057a2.56,2.56,0,0,0-.77-1.854,2.609,2.609,0,0,0-1.854-.77H10.722A2.629,2.629,0,0,0,8.07,47.424v.057H3.365a3.225,3.225,0,0,0-2.367,1,3.39,3.39,0,0,0-1,2.367v14.2a3.225,3.225,0,0,0,1,2.367,3.39,3.39,0,0,0,2.367,1h23.27a3.225,3.225,0,0,0,2.367-1,3.39,3.39,0,0,0,1-2.367v-14.2A3.225,3.225,0,0,0,29,48.479Zm-.485,16.568h-.029A1.85,1.85,0,0,1,26.635,66.9H3.365a1.85,1.85,0,0,1-1.854-1.854v-14.2a1.85,1.85,0,0,1,1.854-1.854h5.5a.767.767,0,0,0,.77-.77V47.4a1.073,1.073,0,0,1,1.112-1.112h8.527A1.073,1.073,0,0,1,20.39,47.4v.827a.767.767,0,0,0,.77.77h5.5a1.85,1.85,0,0,1,1.854,1.854Z" transform="translate(0 -44.8)" fill="#8f3b76"/>
        <path id="Path_2341" data-name="Path 2341" d="M119.015,130.8a7.01,7.01,0,1,0,4.962,2.053A7.028,7.028,0,0,0,119.015,130.8Zm3.878,10.922a5.508,5.508,0,0,1-7.757,0,5.452,5.452,0,0,1-1.6-3.878,5.573,5.573,0,0,1,1.6-3.878,5.452,5.452,0,0,1,3.878-1.6,5.573,5.573,0,0,1,3.878,1.6,5.452,5.452,0,0,1,1.6,3.878A5.336,5.336,0,0,1,122.894,141.722Z" transform="translate(-104.015 -124.669)" fill="#8f3b76"/>
        <circle id="Ellipse_46" data-name="Ellipse 46" cx="1.397" cy="1.397" r="1.397" transform="translate(23.755 6.103)" fill="#8f3b76"/>
      </g>
    </g>
  </g>
</svg>
