<svg xmlns="http://www.w3.org/2000/svg" width="40" height="30.827" viewBox="0 0 40 30.827">
  <g id="speed_1_" data-name="speed (1)" transform="translate(0 -32.788)">
    <g id="Group_547" data-name="Group 547" transform="translate(0 32.788)">
      <path id="Path_2419" data-name="Path 2419" d="M134.794,48.53h-4.028l-1.127-7.325a4.628,4.628,0,1,0-1.8-2.311l-2.509-2.148a2.814,2.814,0,0,0-1.831-.675h-9.038a1.967,1.967,0,1,0,0,3.935h8.119l-6.824,5.359a5.1,5.1,0,0,0,.394,8.3l6.085,3.911-5.13,2.138a2,2,0,0,0,.774,3.856,1.989,1.989,0,0,0,.807-.171l7.071-3.121a3.149,3.149,0,0,0,.9-5.082l-4.019-4.02,3.789-3.316.293,2.339a2.583,2.583,0,0,0,2.558,2.262h5.516a1.967,1.967,0,0,0,0-3.935ZM132.171,34.1a3.279,3.279,0,1,1-3.279,3.279A3.283,3.283,0,0,1,132.171,34.1Zm2.623,17.054h-5.516a1.271,1.271,0,0,1-1.257-1.112l-.6-4.788-6.7,5.864,5.011,5.011a1.839,1.839,0,0,1-.51,2.961l-7.06,3.115a.694.694,0,1,1-.547-1.275l5.573-2.322a1.059,1.059,0,0,0,.166-1.869l-6.489-4.172a3.794,3.794,0,0,1-.293-6.173l8.062-6.331-1.371-1.368h-8.8a.656.656,0,1,1,0-1.312H123.5a1.5,1.5,0,0,1,.977.359l3.8,3.259,1.36,8.841h5.153a.656.656,0,0,1,0,1.312Z" transform="translate(-96.761 -32.788)" fill="#472d5e"/>
      <path id="Path_2420" data-name="Path 2420" d="M50.513,164.207a.967.967,0,0,1-1.469-1.256l8.716-10.459-1.007-.84-8.717,10.46a2.278,2.278,0,0,0,3.464,2.96l7.561-8.632-.987-.864Z" transform="translate(-40.862 -135.024)" fill="#472d5e"/>
      <rect id="Rectangle_444" data-name="Rectangle 444" width="14.426" height="1.311" transform="translate(5.246 8.529)" fill="#472d5e"/>
      <rect id="Rectangle_445" data-name="Rectangle 445" width="2.623" height="1.311" transform="translate(1.311 8.529)" fill="#472d5e"/>
      <rect id="Rectangle_446" data-name="Rectangle 446" width="9.836" height="1.311" transform="translate(6.557 11.152)" fill="#472d5e"/>
      <rect id="Rectangle_447" data-name="Rectangle 447" width="2.623" height="1.311" transform="translate(2.623 11.152)" fill="#472d5e"/>
      <rect id="Rectangle_448" data-name="Rectangle 448" width="8.525" height="1.311" transform="translate(7.213 13.775)" fill="#472d5e"/>
      <rect id="Rectangle_449" data-name="Rectangle 449" width="1.967" height="1.311" transform="translate(3.934 13.775)" fill="#472d5e"/>
      <rect id="Rectangle_450" data-name="Rectangle 450" width="11.148" height="1.311" transform="translate(3.934 5.906)" fill="#472d5e"/>
      <rect id="Rectangle_451" data-name="Rectangle 451" width="2.623" height="1.311" transform="translate(0 5.906)" fill="#472d5e"/>
      <rect id="Rectangle_452" data-name="Rectangle 452" width="13.771" height="1.311" transform="translate(1.311 7.218)" fill="#c7417b"/>
      <rect id="Rectangle_453" data-name="Rectangle 453" width="17.049" height="1.311" transform="translate(2.623 9.841)" fill="#c7417b"/>
      <rect id="Rectangle_454" data-name="Rectangle 454" width="12.459" height="1.311" transform="translate(3.934 12.464)" fill="#c7417b"/>
      <rect id="Rectangle_455" data-name="Rectangle 455" width="10.492" height="1.311" transform="translate(5.246 15.086)" fill="#c7417b"/>
    </g>
  </g>
</svg>
