<svg xmlns="http://www.w3.org/2000/svg" width="42" height="31.369" viewBox="0 0 42 31.369">
  <g id="live-streaming" transform="translate(-0.001 -64.795)">
    <path id="Path_2956" data-name="Path 2956" d="M406.293,208l-7.8,4.5v7.281l7.8,4.5c.492.284.9.052.9-.517V208.521C407.188,207.952,406.785,207.72,406.293,208Z" transform="translate(-365.802 -131.35)" fill="#fff"/>
    <path id="Path_2957" data-name="Path 2957" d="M457.193,208l-3.252,1.878v12.534l3.252,1.878c.492.284.9.052.9-.517V208.521C458.088,207.952,457.686,207.72,457.193,208Z" transform="translate(-416.703 -131.35)" fill="#fff"/>
    <path id="Path_2958" data-name="Path 2958" d="M103.84,193.969h-22.8a3.241,3.241,0,0,1,.621,1.912v5.582H83.7a.517.517,0,0,1,.514.567A5.848,5.848,0,0,1,78.4,207.3v4.032h4.348a.823.823,0,0,1,.82.82v.627H103.84a.823.823,0,0,0,.82-.82V194.789A.823.823,0,0,0,103.84,193.969Z" transform="translate(-71.971 -118.578)" fill="#fff"/>
    <path id="Path_2959" data-name="Path 2959" d="M78.4,344.633h3.815v-5.455A5.821,5.821,0,0,1,78.4,340.6Z" transform="translate(-71.972 -251.875)" fill="#fff"/>
    <path id="Path_2960" data-name="Path 2960" d="M196.292,250.716c0-.451.32-.637.712-.413l7.512,4.292a.429.429,0,0,1,0,.814L197,259.7c-.392.224-.712.038-.712-.413Z" transform="translate(-180.189 -170.203)" fill="#c7417b"/>
    <path id="Path_2961" data-name="Path 2961" d="M198.893,251.383,197,250.3c-.392-.224-.712-.038-.712.413v8.571c0,.451.32.637.712.413l1.889-1.079Z" transform="translate(-180.189 -170.204)" fill="#c7417b"/>
    <path id="Path_2962" data-name="Path 2962" d="M19,285.5a.517.517,0,0,0-.383-.169H16.573a3.256,3.256,0,1,1-6.513,0H8.018a.517.517,0,0,0-.514.567,5.841,5.841,0,0,0,11.627,0A.517.517,0,0,0,19,285.5Z" transform="translate(-6.885 -202.447)" fill="#fff"/>
    <path id="Path_2963" data-name="Path 2963" d="M25.725,407.652a.823.823,0,0,1-.82.82h-8.7a.823.823,0,0,1-.82-.82V406.5a.823.823,0,0,1,.82-.82h8.7a.823.823,0,0,1,.82.82v1.15Z" transform="translate(-14.125 -312.923)" fill="#fff"/>
    <path id="Path_2964" data-name="Path 2964" d="M17.98,407.652V406.5a.823.823,0,0,1,.82-.82H16.208a.823.823,0,0,0-.82.82v1.15a.823.823,0,0,0,.82.82H18.8A.823.823,0,0,1,17.98,407.652Z" transform="translate(-14.125 -312.923)" fill="#fff"/>
    <path id="Path_2965" data-name="Path 2965" d="M38.7,268.56a3.256,3.256,0,1,0,6.513,0v-1.5H38.7Z" transform="translate(-35.525 -185.674)" fill="#fff"/>
    <path id="Path_2966" data-name="Path 2966" d="M41.268,268.56v-1.5H38.7v1.5a3.257,3.257,0,0,0,4.54,2.993,3.257,3.257,0,0,1-1.972-2.993Z" transform="translate(-35.525 -185.674)" fill="#fff"/>
    <path id="Path_2967" data-name="Path 2967" d="M41.958,177.586a3.256,3.256,0,0,0-3.256,3.256v4.083h6.513v-4.083A3.256,3.256,0,0,0,41.958,177.586Z" transform="translate(-35.526 -103.539)" fill="#c7417b"/>
    <path id="Path_2968" data-name="Path 2968" d="M41.183,183.267a.615.615,0,0,1,0-1.23h.087v-1.044h-.087a.615.615,0,0,1,0-1.23h.27a3.266,3.266,0,0,1,1.789-1.913,3.257,3.257,0,0,0-4.54,2.993v4.083h2.567v-1.659h-.087Z" transform="translate(-35.526 -103.539)" fill="#c7417b"/>
    <path id="Path_2969" data-name="Path 2969" d="M40.888,172.57a1.408,1.408,0,0,0-.705.2L33.3,176.745v-3.88a1.437,1.437,0,0,0-1.436-1.436H9.361a3.869,3.869,0,0,0-6.8,2.528v4.967H1.133a1.132,1.132,0,0,0-1.127,1.241,6.464,6.464,0,0,0,5.811,5.8V188.8H2.083a1.437,1.437,0,0,0-1.436,1.436v1.15a1.437,1.437,0,0,0,1.436,1.436H6.317a.615.615,0,0,0,0-1.23H2.083a.208.208,0,0,1-.205-.205v-1.15a.208.208,0,0,1,.205-.205h8.7a.208.208,0,0,1,.205.205v1.15a.208.208,0,0,1-.205.205H9.188a.615.615,0,0,0,0,1.23H10.78a1.436,1.436,0,0,0,1.431-1.344H31.869a1.437,1.437,0,0,0,1.436-1.436v-3.881l6.878,3.971a1.407,1.407,0,0,0,.705.2h0a1.055,1.055,0,0,0,.839-.4,1.347,1.347,0,0,0,.274-.856V173.824a1.138,1.138,0,0,0-1.113-1.253Zm-37.1,1.386a2.641,2.641,0,0,1,5.282,0v3.468H3.791Zm0,4.7H9.073v.884a2.641,2.641,0,1,1-5.282,0v-.884Zm-.88,4.742a5.215,5.215,0,0,1-1.669-3.243H2.61a3.871,3.871,0,0,0,7.644,0h1.367a5.223,5.223,0,0,1-8.71,3.243Zm29.163,6.641a.208.208,0,0,1-.205.205H12.216v-.012A1.437,1.437,0,0,0,10.78,188.8H7.047v-2.831a6.464,6.464,0,0,0,5.811-5.8,1.132,1.132,0,0,0-1.127-1.241H10.3v-4.967a3.855,3.855,0,0,0-.224-1.3h21.79a.208.208,0,0,1,.205.205Zm8.7-.991-2.917-1.684v-2.6a.615.615,0,0,0-1.23,0v1.891L33.3,184.737v-6.571l3.318-1.916v5.64a.615.615,0,0,0,1.23,0V175.54l2.917-1.684Z" transform="translate(0 -96.653)"/>
    <path id="Path_2970" data-name="Path 2970" d="M197.938,247.176l-7.512-4.292a1.244,1.244,0,0,0-.62-.176,1.037,1.037,0,0,0-1.013,1.124V252.4a1.037,1.037,0,0,0,1.013,1.124,1.244,1.244,0,0,0,.62-.176l7.512-4.292a1.035,1.035,0,0,0,0-1.882Zm-7.915,4.987v-8.091l7.081,4.046Z" transform="translate(-173.305 -163.319)"/>
    <path id="Path_2971" data-name="Path 2971" d="M63.611,204.112H62.06a.615.615,0,0,0,0,1.23h1.551a.615.615,0,0,0,0-1.23Z" transform="translate(-56.404 -127.889)"/>
    <path id="Path_2972" data-name="Path 2972" d="M63.611,231.835H62.06a.615.615,0,0,0,0,1.23h1.551a.615.615,0,0,0,0-1.23Z" transform="translate(-56.404 -153.338)"/>
    <path id="Path_2973" data-name="Path 2973" d="M233.881,153.894a2.473,2.473,0,0,0-1.814.8.615.615,0,1,0,.905.833,1.23,1.23,0,0,1,1.817,0,.615.615,0,1,0,.905-.833A2.472,2.472,0,0,0,233.881,153.894Z" transform="translate(-212.88 -81.79)" fill="#c7417b"/>
    <path id="Path_2974" data-name="Path 2974" d="M216.519,126.614a.615.615,0,1,0,.905-.833,4.9,4.9,0,0,0-7.214,0,.615.615,0,0,0,.905.833,3.665,3.665,0,0,1,5.4,0Z" transform="translate(-192.816 -54.527)" fill="#c7417b"/>
    <path id="Path_2975" data-name="Path 2975" d="M194.508,95.771a.615.615,0,1,0,.149-1.221,7.335,7.335,0,0,0-6.294,2.319.615.615,0,1,0,.905.833,6.106,6.106,0,0,1,5.24-1.931Z" transform="translate(-172.761 -27.264)" fill="#c7417b"/>
    <path id="Path_2976" data-name="Path 2976" d="M293.08,108.915a.615.615,0,1,0,.905-.833,7.391,7.391,0,0,0-1.548-1.28.615.615,0,1,0-.648,1.046A6.155,6.155,0,0,1,293.08,108.915Z" transform="translate(-267.585 -38.477)" fill="#c7417b"/>
    <path id="Path_2977" data-name="Path 2977" d="M166.961,68.988a.614.614,0,0,0,.453-.2,8.531,8.531,0,0,1,12.573,0,.615.615,0,1,0,.905-.833,9.761,9.761,0,0,0-14.384,0,.615.615,0,0,0,.453,1.032Z" transform="translate(-152.699 0)" fill="#c7417b"/>
  </g>
</svg>
