<svg xmlns="http://www.w3.org/2000/svg" xmlns:xlink="http://www.w3.org/1999/xlink" width="62.003" height="214.899" viewBox="0 0 62.003 214.899">
  <defs>
    <clipPath id="clip-path">
      <rect id="Rectangle_2097" data-name="Rectangle 2097" width="62.003" height="214.899" fill="none"/>
    </clipPath>
    <clipPath id="clip-path-2">
      <rect id="Rectangle_2096" data-name="Rectangle 2096" width="62.002" height="251.899" fill="none"/>
    </clipPath>
    <clipPath id="clip-path-3">
      <rect id="Rectangle_2095" data-name="Rectangle 2095" width="9.706" height="8.586" fill="none"/>
    </clipPath>
  </defs>
  <g id="Group_3452" data-name="Group 3452" clip-path="url(#clip-path)">
    <g id="Group_3451" data-name="Group 3451">
      <g id="Group_3450" data-name="Group 3450" clip-path="url(#clip-path-2)">
        <path id="Path_16439" data-name="Path 16439" d="M42.732,48.148c-.64-2.745-6.107-11.577-8.174-17.452-1.684.588-1.244,1.024-2.994,1.418A36.189,36.189,0,0,1,32.116,37c.133,4.512,2.521,12.472,2.521,12.472s-8.387,12.443-9.793,13.1-3.167,0-5.422.8l1.414,24.98,9.854-8.23a74.476,74.476,0,0,0,7.4-13.72c3.981-9.156,5.572-14.277,4.645-18.256" transform="translate(18.04 28.511)" fill="#5b3d77"/>
        <path id="Path_16440" data-name="Path 16440" d="M19.044,63.21c-1.406-.664-10.3-13.4-10.3-13.4s2.388-7.962,2.523-12.474a37.512,37.512,0,0,1,.635-5.385c-1.665-.546-1.177-1.042-2.833-1.616C7.03,36.181,1.32,45.627.653,48.483-.277,52.464,1.859,55.639,5.84,64.8s8.579,20.529,8.579,20.529l8.128,3.366,1.919-24.683c-2.255-.8-4.016-.131-5.422-.8" transform="translate(0.406 28.176)" fill="#5b3d77"/>
        <path id="Path_16441" data-name="Path 16441" d="M23.837,121.7c2.768,5.231,5.837,8.927,4.041,11.264s-10.337-.262-9.858-5.632c0,0-.114,1.7-.619,1.335a34.264,34.264,0,0,1-2.893-3.472c-.795-1.011.652-5.133.652-5.133Z" transform="translate(13.253 111.519)" fill="#2b2826"/>
        <path id="Path_16442" data-name="Path 16442" d="M36.3,79.1c-.195,2.11-2.214,26.06-3.075,36.609s-7.6,47.413-7.6,47.413-4.558,3-11.685-2.484c0,0,7.087-48.383,5.466-62.729v-19.9Z" transform="translate(12.948 72.454)" fill="#75c8f5"/>
        <path id="Path_16443" data-name="Path 16443" d="M19.406,78.005l9.141,3c-.991,11.357-4.756,66.493-7.318,82.847a15.3,15.3,0,0,1-7.289-3.213s7.087-50.865,5.466-65.216Z" transform="translate(12.948 72.453)" fill="#8fd8ff"/>
        <path id="Path_16444" data-name="Path 16444" d="M19.161,125.162c-.359,2.5,2.594,7.5,1.722,8.545s-1.229,2.093-5.759,1.919-6.971-.874-6.8-2.093.872-8.371.872-8.371Z" transform="translate(7.726 116.254)" fill="#2b2826"/>
        <path id="Path_16445" data-name="Path 16445" d="M25.927,95.422s-3.979,14.183-3.582,25.561-1.665,49.361-1.665,49.361-4.135,3.8-13.76,0c0,0,.563-45.106.746-52.279s0-37.952,0-37.952l18.26-2.108Z" transform="translate(6.428 72.453)" fill="#75c8f5"/>
        <path id="Path_16446" data-name="Path 16446" d="M6.921,169.817s.563-45.106.746-52.279,0-37.95,0-37.95l8.78-1.016c.255,14.036-.82,83.086-.505,92.918a22.794,22.794,0,0,1-9.021-1.672" transform="translate(6.428 72.98)" fill="#8fd8ff"/>
        <path id="Path_16447" data-name="Path 16447" d="M18.256,47.487s-12.094,3.2-12.211,4.139S7.929,68.494,8.284,73.445s-.505,23.484-.858,27.139a22.417,22.417,0,0,0,1.061,7.877s3.6,1.487,17.709,1.724L30.213,49.9Z" transform="translate(5.61 44.107)" fill="#5c3e79"/>
        <path id="Path_16448" data-name="Path 16448" d="M24.46,47.487s11.442,3.3,11.558,4.243-2.156,12.9-2.239,21.819c-.046,4.965,1.177,23.246,1.531,26.9a14.554,14.554,0,0,1-1.3,6.994s-3.327,2.5-17.44,2.739L16.4,49.1Z" transform="translate(15.234 44.107)" fill="#5c3e79"/>
        <path id="Path_16449" data-name="Path 16449" d="M26.315,47.842l-13.565-.257,6.68,18.26Z" transform="translate(11.842 44.198)" fill="#f8f3e0"/>
        <path id="Path_16450" data-name="Path 16450" d="M30.773,41.878c.118-4.712-3.784-8.9-10.194-8.622-6.749.291-9.1,5.227-9.089,8.9a17.033,17.033,0,0,0,1.342,6.7c.289.729,2.529,2.722,3.252,4.98S30.773,41.878,30.773,41.878" transform="translate(10.672 30.877)" fill="#2d1d3c"/>
        <path id="Path_16451" data-name="Path 16451" d="M12.945,52.835l6.3,1.18L26.372,52.3c-1.429-.8-3.4-1.368-2.938-3.3L14.07,42.08c.6,2.517,1.651,6.672-.644,9.482-.1.127-.368,1.153-.48,1.273" transform="translate(12.024 39.085)" fill="#f0bb8f"/>
        <g id="Group_3449" data-name="Group 3449" transform="translate(26.116 81.224)" opacity="0.3" style="mix-blend-mode: multiply;isolation: isolate">
          <g id="Group_3448" data-name="Group 3448">
            <g id="Group_3447" data-name="Group 3447" clip-path="url(#clip-path-3)">
              <path id="Path_16452" data-name="Path 16452" d="M14.263,47.265a20.561,20.561,0,0,0-.723-5.123c.021-.01.039-.025.05-.031l8.522,6.9a4.141,4.141,0,0,0,.7.691,1.713,1.713,0,0,0,.438.991,17,17,0,0,1-7.692-2.3c-.594-.32-.841-.837-1.29-1.128" transform="translate(-13.54 -42.11)" fill="#f0bb8f"/>
            </g>
          </g>
        </g>
        <path id="Path_16453" data-name="Path 16453" d="M14.53,48.134c.523,1.258.835,3,3.046,4.583S23.3,56.355,24.4,56.309s1.95.226,3.47-2.567,2.677-4.1,2.652-6.892.818-8.491-2.789-10.439c-2.671-1.456-6.863-.538-8.988,1.811s-2.143,3.194-2.76,6.8c0,0-1.989-2.384-2.739-2.452s-1.364.424-.868,1.927.864,1.236.955,2.014.21,1.537.619,1.805c.513.318.581-.177.581-.177" transform="translate(11.328 33.17)" fill="#f0bb8f"/>
        <path id="Path_16454" data-name="Path 16454" d="M26.13,37.53s-9.011-1.323-10.539,9.893l-2.847-7.276,6.917-6.228Z" transform="translate(11.837 31.505)" fill="#2d1d3c"/>
        <path id="Path_16455" data-name="Path 16455" d="M13.461,42.2c1.038-.343,3.3,3.076,3.3,3.076a34.653,34.653,0,0,1,2.695-6.786c-6.531-4.747-7.821-.538-7.846-.5a8.12,8.12,0,0,0-.114,1.4,16.972,16.972,0,0,0,1.342,6.707c.278.7,2.374,2.608,3.167,4.784a.02.02,0,0,0,0-.017,15.129,15.129,0,0,0-.563-3.291s-.318.285-.588.179A2,2,0,0,1,14.06,46.6c-.077-.255,0-.4-.093-.646-.081-.218-.316-.536-.4-.71-.436-.895-1.15-2.7-.108-3.042" transform="translate(10.673 33.654)" fill="#2d1d3c"/>
        <path id="Path_16456" data-name="Path 16456" d="M25.8,37a12.521,12.521,0,0,1-3.609,2.955c-2.095.989-5.484.15-5.949,2.394s-1.016,4.535-1.016,4.535l-.874-.095-.27-7.7,4.5-4.479Z" transform="translate(13.078 32.141)" fill="#2d1d3c"/>
        <path id="Path_16457" data-name="Path 16457" d="M19.745,37.423a17.494,17.494,0,0,0,3.36,3.161l-.912-3.929-2.444-2.019Z" transform="translate(18.34 32.171)" fill="#2d1d3c"/>
        <path id="Path_16458" data-name="Path 16458" d="M50.986.008c-3.337-.149-6.176,1.964-6.631,4.8A24.87,24.87,0,0,0,44.092,1.6H14.722a25.375,25.375,0,0,0-.262,3.293C14.047,2.012,11.181-.143,7.813.008,4.287.172,1.583,2.793,1.764,5.871c.447,7.4,17.286,15.67,17.444,18.33a1.477,1.477,0,0,1-1.5,1.462,1.532,1.532,0,0,1-1.678-1.315.657.657,0,0,0-.723-.567.633.633,0,0,0-.648.629h0a2.846,2.846,0,0,0,3.121,2.452,2.75,2.75,0,0,0,2.806-2.724A3.52,3.52,0,0,0,20,22.554c2.849,3.713,5.366,4.892,5.667,6.4a.874.874,0,0,0-.206,1.13l0,.015.98,2.129h.17c0,1.325,0,3.588,0,5.825,0,3.464-1.086,4.332-1.086,4.332h-.955v.723l-4.907,1.279v1.169H39.147V44.388l-4.905-1.279v-.723h-.957S32.2,41.518,32.2,38.054c0-2.237,0-4.5,0-5.825h.174l.978-2.129.006-.015a.885.885,0,0,0-.2-1.13c.3-1.493,2.762-2.658,5.574-6.28a3.385,3.385,0,0,0-.511,1.462,2.753,2.753,0,0,0,2.806,2.725,2.845,2.845,0,0,0,3.121-2.452h0a.631.631,0,0,0-.648-.629.654.654,0,0,0-.723.565,1.533,1.533,0,0,1-1.68,1.317,1.477,1.477,0,0,1-1.5-1.464c.158-2.658,16.995-10.923,17.442-18.328.183-3.076-2.523-5.7-6.047-5.864M4.513,5.748A3.379,3.379,0,0,1,7.958,2.407a3.5,3.5,0,0,1,3.827,3.009,1.317,1.317,0,0,0,1.445,1.136,1.368,1.368,0,0,0,1.219-.789A27.8,27.8,0,0,0,17.21,18.106a29.251,29.251,0,0,0,2.045,3.433C15.463,16.975,4.817,10.836,4.513,5.748m29.962,14.3L29.3,17.263l-5.412,2.579,1.437-5.162L20.84,10.986l6.068-.4,2.641-4.863,2.313,4.913,6.114.691-4.637,3.439Zm19.807-14.3c-.3,5.054-10.809,11.149-14.667,15.7A29.06,29.06,0,0,0,41.6,18.106,27.759,27.759,0,0,0,44.362,5.786a1.381,1.381,0,0,0,1.207.766,1.316,1.316,0,0,0,1.443-1.136,3.5,3.5,0,0,1,3.827-3.009,3.374,3.374,0,0,1,3.443,3.341" transform="translate(1.631 0)" fill="#8f3b76"/>
        <path id="Path_16459" data-name="Path 16459" d="M36.122,23.906H10.057v8.919H8.447v.583H37.734v-.583H36.122Z" transform="translate(7.846 22.205)" fill="#8f3b76"/>
        <path id="Path_16460" data-name="Path 16460" d="M9.723,43.622A50.987,50.987,0,0,1,4.37,41.265C5.747,38.646,8.5,32.647,8.5,31.675c0-1.352-.824-3.838.314-5.526.949-1.406,2.245-2.463,4.988-3.046,1.117-.237,7.636-1.572,2.405,1.566-1.491.895-2.868,1.614-3.051,2.519-.2.986.991,1.8,1.292,3.239.376,1.8-1.146,3.507-2.089,5.58-.486,1.065-1.474,4.118-2.639,7.615" transform="translate(4.059 21.009)" fill="#f0bb8f"/>
        <path id="Path_16461" data-name="Path 16461" d="M29.109,43.622a50.988,50.988,0,0,0,5.353-2.357c-1.377-2.619-4.13-8.618-4.13-9.59,0-1.352.824-3.838-.314-5.526-.949-1.406-2.247-2.463-4.99-3.046-1.115-.237-7.634-1.572-2.405,1.566,1.493.895,2.868,1.614,3.051,2.519.2.986-.991,1.8-1.292,3.239-.376,1.8,1.146,3.507,2.091,5.58.486,1.065,1.472,4.118,2.637,7.615" transform="translate(19.149 21.009)" fill="#f0bb8f"/>
        <path id="Path_16462" data-name="Path 16462" d="M10.533,76.84C4.041,63.342.229,55.609,0,53.591S10.055,28.237,10.055,28.237a31.339,31.339,0,0,1,7.054,2.832L9.879,52.795l2.978,7.97Z" transform="translate(0 26.227)" fill="#5c3e79"/>
        <path id="Path_16463" data-name="Path 16463" d="M30.365,52.148S23.975,34.576,23.331,30.5a23.127,23.127,0,0,1,7.522-1.67s8.9,20.53,9.44,23.314-4.851,13.681-4.851,13.681Z" transform="translate(21.671 26.78)" fill="#5c3e79"/>
        <path id="Path_16464" data-name="Path 16464" d="M55.677,52.148c-.536-2.783-9.442-23.314-9.442-23.314a11.662,11.662,0,0,0-1.6.1c4.18,9.4,10.676,20.978,8.529,25.158C50.931,58.447,42.9,78.737,38.713,79.414c0,0,2.147,4.056,1.686,11.073s2.83,18.245,0,21.086-10.865,2.837-10.865,2.837,2.025,1.352,10.865,0c0,0,.968.056,0,2.394s-21.821,4.539-28.554,2.172c0,0,7.536,2.71,19.836,2.706a50.428,50.428,0,0,1-24.911-.947,25.315,25.315,0,0,0,1.038,5.054s3.6,1.485,17.709,1.722c14.113-.237,17.44-2.739,17.44-2.739a14.547,14.547,0,0,0,1.3-6.994c-.353-3.655-1.578-21.939-1.531-26.9A102.638,102.638,0,0,1,43.5,80.282a86.1,86.1,0,0,0,6.336-12.146c.355-.816.667-1.562.984-2.317l0,.01s5.387-10.9,4.853-13.681" transform="translate(6.288 26.78)" fill="#5c3e79"/>
        <path id="Path_16465" data-name="Path 16465" d="M12.373,48.619,14.8,46.268l6.186,1.412,3.343-.845,2.911,1.784L19.778,67.068Z" transform="translate(11.492 42.975)" fill="#c8b4d9"/>
      </g>
    </g>
  </g>
</svg>
