<svg xmlns="http://www.w3.org/2000/svg" width="19" height="19" viewBox="0 0 19 19">
  <g id="Group_559" data-name="Group 559" transform="translate(-108.5 -777.5)">
    <path id="Path_2336" data-name="Path 2336" d="M18,9a9,9,0,1,0-9,9A9,9,0,0,0,18,9Z" transform="translate(109 777.997)" fill="none" stroke="#402854" stroke-width="1"/>
    <path id="Path_2337" data-name="Path 2337" d="M179.617,164.768a.181.181,0,0,0-.227-.062,21.184,21.184,0,0,1-2.1.908.18.18,0,0,1-.023-.027.238.238,0,0,1-.04-.146,26.823,26.823,0,0,1,1.132-4.561,15.867,15.867,0,0,0,.706-2.7.688.688,0,0,0-.249-.549.986.986,0,0,0-.643-.192,3.368,3.368,0,0,0-1.6.525,8.609,8.609,0,0,0-2.01,1.723.181.181,0,0,0,.2.29c.255-.1,1.538-.63,1.725-.747a.787.787,0,0,1,.394-.145h.01a.193.193,0,0,1,0,.034,1.37,1.37,0,0,1-.067.388,32.16,32.16,0,0,0-1.625,6.639,1.1,1.1,0,0,0,.27.781.955.955,0,0,0,.731.295,2.55,2.55,0,0,0,1.2-.412,13.988,13.988,0,0,0,2.19-1.8A.181.181,0,0,0,179.617,164.768Z" transform="translate(-59.18 626.277)" fill="#402854"/>
    <path id="Path_2338" data-name="Path 2338" d="M263.356,69.351a.914.914,0,0,0-.679-.276,1.156,1.156,0,0,0-.877.4,1.355,1.355,0,0,0-.361.947,1,1,0,0,0,.266.718.891.891,0,0,0,.67.283,1.159,1.159,0,0,0,.872-.42,1.385,1.385,0,0,0,.376-.958A.955.955,0,0,0,263.356,69.351Z" transform="translate(-142.955 711.431)" fill="#402854"/>
  </g>
</svg>
