<svg id="account_1_" data-name="account (1)" xmlns="http://www.w3.org/2000/svg" width="43" height="43" viewBox="0 0 43 43">
  <path id="Path_17421" data-name="Path 17421" d="M59.078,0a9.709,9.709,0,0,0-8.045,4.258A4.349,4.349,0,0,0,48,8.408v7.544h.694a2.774,2.774,0,0,1,2.774-2.774V10.4a6.936,6.936,0,0,0,5.548-2.774A12.661,12.661,0,0,0,64.925,10.4h.414v2.774a2.774,2.774,0,0,1,2.774,2.774h.694V9.728A9.74,9.74,0,0,0,59.078,0Zm0,0" transform="translate(-43.839)" fill="#c7417b"/>
  <path id="Path_17424" data-name="Path 17424" d="M121.387,160.694a.694.694,0,1,1-.694-.694A.694.694,0,0,1,121.387,160.694Zm0,0" transform="translate(-109.597 -146.129)" fill="#472a64"/>
  <path id="Path_17425" data-name="Path 17425" d="M201.387,160.694a.694.694,0,1,1-.694-.694A.694.694,0,0,1,201.387,160.694Zm0,0" transform="translate(-182.661 -146.129)" fill="#472a64"/>
  <path id="Path_17426" data-name="Path 17426" d="M141.548,216h-1.387a1.387,1.387,0,0,1-2.774,0H136a2.774,2.774,0,0,0,5.548,0Zm0,0" transform="translate(-124.21 -197.274)" fill="#472a64"/>
  <path id="Path_17427" data-name="Path 17427" d="M27.742,108.76v2.814H23.581v-6.242H22.194v6.242H15.258V99.031A4.235,4.235,0,0,0,18.47,96.5l6.2,2.067.439-1.315-6.386-2.129V93.685a7.653,7.653,0,0,0,3.183-4.347,3.457,3.457,0,0,0,.285-6.824V79.67H21.086a12.014,12.014,0,0,1-7.476-2.622l-.559-.447-.428.571a6.273,6.273,0,0,1-4.994,2.5H6.935v2.844a3.457,3.457,0,0,0,.285,6.824A7.646,7.646,0,0,0,10.4,93.685v1.437L3.32,97.484a4.846,4.846,0,0,0-3.32,4.6v10.872H29.129v-4.2ZM23.581,85.912a2.077,2.077,0,0,1-1.416,1.962c.015-.191.029-.381.029-.575v-3.34A2.078,2.078,0,0,1,23.581,85.912Zm-18.032,0a2.078,2.078,0,0,1,1.387-1.953V87.3c0,.194.015.384.029.575A2.077,2.077,0,0,1,5.548,85.912ZM8.323,87.3V81.026a7.687,7.687,0,0,0,4.966-2.482,13.415,13.415,0,0,0,7.518,2.511V87.3a6.242,6.242,0,0,1-12.484,0Zm6.242,7.629a7.574,7.574,0,0,0,2.774-.53v1.138a2.86,2.86,0,0,1-5.548,0V94.4A7.574,7.574,0,0,0,14.565,94.928Zm-13.177,7.16A3.463,3.463,0,0,1,3.758,98.8l6.9-2.3a4.233,4.233,0,0,0,3.212,2.532v12.542H6.935v-6.242H5.548v6.242H1.387Zm0,0" transform="translate(0 -69.961)" fill="#472a64"/>
  <path id="Path_17428" data-name="Path 17428" d="M128,352h1.387v1.387H128Zm0,0" transform="translate(-116.903 -321.484)" fill="#472a64"/>
  <path id="Path_17429" data-name="Path 17429" d="M128,384h1.387v1.387H128Zm0,0" transform="translate(-116.903 -350.71)" fill="#472a64"/>
  <path id="Path_17430" data-name="Path 17430" d="M128,416h1.387v1.387H128Zm0,0" transform="translate(-116.903 -379.936)" fill="#472a64"/>
  <path id="Path_17431" data-name="Path 17431" d="M208,360h2.774v1.387H208Zm0,0" transform="translate(-189.968 -328.79)" fill="#472a64"/>
  <path id="Path_17432" data-name="Path 17432" d="M128,448h1.387v1.387H128Zm0,0" transform="translate(-116.903 -409.161)" fill="#472a64"/>
  <path id="Path_17433" data-name="Path 17433" d="M281.71,267.419a9.71,9.71,0,1,1,9.71-9.71A9.72,9.72,0,0,1,281.71,267.419Zm0,0" transform="translate(-248.419 -226.5)" fill="#c7417b"/>
  <path id="Path_17434" data-name="Path 17434" d="M327.629,307.1h-4.161v-3.468H320v-4.161h3.468V296h4.161v3.468H331.1v4.161h-3.468Zm-2.774-1.387h1.387v-3.468h3.468v-1.387h-3.468v-3.468h-1.387v3.468h-3.468v1.387h3.468Zm0,0" transform="translate(-292.258 -270.339)" fill="#472a64"/>
</svg>
