<svg id="Group_3901" data-name="Group 3901" xmlns="http://www.w3.org/2000/svg" width="12" height="12" viewBox="0 0 12 12">
  <path id="Path_17014" data-name="Path 17014" d="M6,12a6,6,0,1,1,6-6A6.007,6.007,0,0,1,6,12ZM6,.75A5.25,5.25,0,1,0,11.25,6,5.256,5.256,0,0,0,6,.75Zm0,0" fill="#fff"/>
  <path id="Path_17015" data-name="Path 17015" d="M133.625,240.75h-5.25a.375.375,0,0,1,0-.75h5.25a.375.375,0,0,1,0,.75Zm0,0" transform="translate(-125 -234.375)" fill="#fff"/>
  <path id="Path_17016" data-name="Path 17016" d="M240.375,134a.375.375,0,0,1-.375-.375v-5.25a.375.375,0,0,1,.75,0v5.25A.375.375,0,0,1,240.375,134Zm0,0" transform="translate(-234.375 -125)" fill="#fff"/>
</svg>
