<svg xmlns="http://www.w3.org/2000/svg" width="22" height="31.068" viewBox="0 0 22 31.068">
  <g id="man-playing-badminton" transform="translate(-8.289)">
    <g id="Group_3731" data-name="Group 3731" transform="translate(8.289)">
      <path id="Path_17026" data-name="Path 17026" d="M29.81,26.016a57,57,0,0,1-1.963-5.393,3.029,3.029,0,0,0-.067-.329q-.8-2.976-1.6-5.952a12.235,12.235,0,0,0,3.743-2.727,1.28,1.28,0,0,0,.2-1.534q-1.126-1.843-2.254-3.688C27.014,5,24.825,6.274,25.678,7.67q.87,1.421,1.738,2.842a7.83,7.83,0,0,1-3.188,1.84,1.326,1.326,0,0,0-.176.065,2.186,2.186,0,0,0-.883.125,2.258,2.258,0,0,0-.469.243c-.011,0-.021,0-.033,0A11.02,11.02,0,0,1,16.822,10.9a1.093,1.093,0,0,0-1.182-.063,14.47,14.47,0,0,1-1.8-2.624c.539-1.013,0-2.842-.918-4C11.8,2.794,10.05,2.305,9.018,3.123s-.958,2.636.165,4.054c.913,1.154,2.563,2.1,3.672,1.813a16.6,16.6,0,0,1,2.24,2.455,1.248,1.248,0,0,0,.45,1.638,13.619,13.619,0,0,0,6.281,2.181c.011.051.022.1.036.155q.868,3.221,1.735,6.442a.006.006,0,0,0,0,0,52.88,52.88,0,0,1-4.711,3.6c-1.385.856-.115,3.046,1.277,2.184,1.923-1.19,3.57-2.763,5.377-4.112a1.375,1.375,0,0,0,.25-.24,2.413,2.413,0,0,0,.269-.021q.54,1.537,1.162,3.046a26.085,26.085,0,0,0-3.049,4.1A1.266,1.266,0,0,0,26.355,31.7,24.008,24.008,0,0,1,29.6,27.47a1.184,1.184,0,0,0,.28-1.251A1.354,1.354,0,0,0,29.81,26.016ZM9.53,6.9c-.97-1.226-1.076-2.764-.236-3.429s2.314-.21,3.284,1.016c.958,1.21,1.333,2.981.78,3.665l-.439.348C12.127,8.882,10.488,8.111,9.53,6.9Zm4.262,2.273c-.114.09-.323.017-.465-.163s-.166-.4-.052-.49.322-.018.465.163S13.906,9.084,13.792,9.174Z" transform="translate(-8.289 -1.235)" fill="#553772"/>
      <circle id="Ellipse_151" data-name="Ellipse 151" cx="2.299" cy="2.299" r="2.299" transform="translate(12.072 5.796)" fill="#553772"/>
      <path id="Path_17027" data-name="Path 17027" d="M22.288,3.5a.656.656,0,0,0,.1-.094l2.884-1.357L24.426,1.7l.075-.7L23.688.684,23.775,0,21.606,2.335a.634.634,0,0,0-.121.069.68.68,0,0,0,.8,1.1Z" transform="translate(-14.142)" fill="#553772"/>
    </g>
  </g>
</svg>
