<svg xmlns="http://www.w3.org/2000/svg" width="20" height="20" viewBox="0 0 20 20">
  <g id="Group_3733" data-name="Group 3733" transform="translate(-148 -2217)">
    <g id="calendar" transform="translate(148 2217)">
      <path id="Path_17037" data-name="Path 17037" d="M35.667,18h-1v-.333a.333.333,0,0,0-.333-.333H32V17a1,1,0,0,0-2,0v.333h-.667V17a1,1,0,0,0-2,0v.333h-4V17a1,1,0,0,0-2,0v.333h-.667V17a1,1,0,0,0-2,0v.333H16.333a.333.333,0,0,0-.333.333V34.333a.333.333,0,0,0,.333.333h.333v1A.333.333,0,0,0,17,36H35.667A.333.333,0,0,0,36,35.667V18.333A.333.333,0,0,0,35.667,18Zm-19,16V22H34V34Zm14-17a.333.333,0,0,1,.667,0v.333h-.667ZM28,17a.333.333,0,0,1,.667,0v.333H28Zm-6,0a.333.333,0,0,1,.667,0v.333H22Zm-2.667,0A.333.333,0,0,1,20,17v.333h-.667Zm-.667,1v.333a1,1,0,0,0,1,1,.333.333,0,0,0,0-.667.334.334,0,0,1-.333-.333V18h2v.333a1,1,0,0,0,1,1,.333.333,0,1,0,0-.667A.334.334,0,0,1,22,18.333V18h5.333v.333a1,1,0,0,0,1,1,.333.333,0,1,0,0-.667A.334.334,0,0,1,28,18.333V18h2v.333a1,1,0,0,0,1,1,.333.333,0,1,0,0-.667.334.334,0,0,1-.333-.333V18H34v3.333H16.667V18ZM35.333,35.333h-18v-.667h17a.333.333,0,0,0,.333-.333V18.667h.667Z" transform="translate(-16 -16)" fill="#fff"/>
    </g>
    <g id="workout" transform="translate(153.09 2223.774)">
      <path id="Path_17038" data-name="Path 17038" d="M13.171,25.584a.765.765,0,0,1-.765-.764V23.467a.764.764,0,0,1-1.233-.6V18.925h-.395v-.3h.543a.148.148,0,0,1,.148.148v4.086a.469.469,0,1,0,.937,0V21.572a.148.148,0,1,1,.3,0V24.82a.469.469,0,1,0,.937,0V18.777a.148.148,0,0,1,.148-.148h2.3a.419.419,0,0,0,0-.839H9.025a.419.419,0,0,0,0,.839h1.163v.3H9.025a.715.715,0,0,1,0-1.43h7.06a.715.715,0,1,1,0,1.43H13.936V24.82A.765.765,0,0,1,13.171,25.584Z" transform="translate(-8.309 -15.178)" fill="#fff"/>
      <path id="Path_17039" data-name="Path 17039" d="M30.9,3.961A1.061,1.061,0,1,1,31.96,2.9,1.061,1.061,0,0,1,30.9,3.961Zm0-1.827a.766.766,0,1,0,.543.223.765.765,0,0,0-.543-.223Z" transform="translate(-26.652 -1.839)" fill="#fff"/>
    </g>
  </g>
</svg>
