<svg id="calendar_1_" data-name="calendar (1)" xmlns="http://www.w3.org/2000/svg" width="108" height="108" viewBox="0 0 108 108">
  <path id="Path_71" data-name="Path 71" d="M97.607,69.465V19.7a8.863,8.863,0,0,0-8.852-8.852H85.213V7.311a5.311,5.311,0,0,0-10.623,0v3.541H65.738V7.311a5.311,5.311,0,0,0-10.623,0v3.541H44.492V7.311a5.311,5.311,0,0,0-10.623,0v3.541H25.016V7.311a5.311,5.311,0,1,0-10.623,0v3.541H10.852A8.863,8.863,0,0,0,2,19.7v70.82a8.863,8.863,0,0,0,8.852,8.852h59.53A21.229,21.229,0,1,0,97.607,69.465ZM78.131,7.311a1.77,1.77,0,0,1,3.541,0V17.934a1.77,1.77,0,1,1-3.541,0Zm-19.475,0a1.77,1.77,0,0,1,3.541,0V17.934a1.77,1.77,0,1,1-3.541,0Zm-21.246,0a1.77,1.77,0,0,1,3.541,0V17.934a1.77,1.77,0,1,1-3.541,0Zm-19.475,0a1.77,1.77,0,0,1,3.541,0V17.934a1.77,1.77,0,1,1-3.541,0Zm-7.082,7.082h3.541v3.541a5.311,5.311,0,1,0,10.623,0V14.393h8.852v3.541a5.311,5.311,0,1,0,10.623,0V14.393H55.115v3.541a5.311,5.311,0,0,0,10.623,0V14.393H74.59v3.541a5.311,5.311,0,0,0,10.623,0V14.393h3.541A5.317,5.317,0,0,1,94.066,19.7v8.852H5.541V19.7A5.317,5.317,0,0,1,10.852,14.393Zm0,81.443a5.317,5.317,0,0,1-5.311-5.311V32.1H94.066V68.207a20.218,20.218,0,0,0-8.852-.379V58.656a1.769,1.769,0,0,0-1.77-1.771H72.82a1.769,1.769,0,0,0-1.771,1.771V69.279a1.769,1.769,0,0,0,1.771,1.77h4.215a21.126,21.126,0,0,0-8.287,24.787Zm70.82-28.328H74.59V60.426h7.082Zm7.082,38.951a17.7,17.7,0,1,1,17.7-17.7A17.726,17.726,0,0,1,88.754,106.459Z" transform="translate(-2 -2)" fill="#b4b7b2"/>
  <path id="Path_72" data-name="Path 72" d="M57.1,54.114V43H53.564V54.114a3.381,3.381,0,0,0-1.718,3.573l-6.471,5.176,2.213,2.766,6.465-5.172A3.529,3.529,0,0,0,57.1,54.114Z" transform="translate(31.42 29.59)" fill="#b4b7b2"/>
  <path id="Path_73" data-name="Path 73" d="M20.393,22H9.771A1.769,1.769,0,0,0,8,23.771V34.393a1.769,1.769,0,0,0,1.771,1.77H20.393a1.769,1.769,0,0,0,1.77-1.77V23.771A1.769,1.769,0,0,0,20.393,22ZM18.623,32.623H11.541V25.541h7.082Z" transform="translate(2.623 13.41)" fill="#b4b7b2"/>
  <path id="Path_74" data-name="Path 74" d="M31.393,22H20.77A1.769,1.769,0,0,0,19,23.771V34.393a1.769,1.769,0,0,0,1.77,1.77H31.393a1.769,1.769,0,0,0,1.77-1.77V23.771A1.769,1.769,0,0,0,31.393,22Zm-1.77,10.623H22.541V25.541h7.082Z" transform="translate(11.098 13.41)" fill="#b4b7b2"/>
  <path id="Path_75" data-name="Path 75" d="M42.393,22H31.771A1.77,1.77,0,0,0,30,23.771V34.393a1.769,1.769,0,0,0,1.771,1.77H42.393a1.769,1.769,0,0,0,1.77-1.77V23.771A1.769,1.769,0,0,0,42.393,22ZM40.623,32.623H33.541V25.541h7.082Z" transform="translate(19.574 13.41)" fill="#b4b7b2"/>
  <path id="Path_76" data-name="Path 76" d="M42.771,36.164H53.393a1.769,1.769,0,0,0,1.77-1.77V23.771A1.769,1.769,0,0,0,53.393,22H42.771A1.769,1.769,0,0,0,41,23.771V34.393A1.769,1.769,0,0,0,42.771,36.164Zm1.771-10.623h7.082v7.082H44.541Z" transform="translate(28.049 13.41)" fill="#b4b7b2"/>
  <path id="Path_77" data-name="Path 77" d="M20.393,33H9.771A1.769,1.769,0,0,0,8,34.77V45.393a1.77,1.77,0,0,0,1.771,1.771H20.393a1.77,1.77,0,0,0,1.77-1.771V34.77A1.769,1.769,0,0,0,20.393,33ZM18.623,43.623H11.541V36.541h7.082Z" transform="translate(2.623 21.885)" fill="#b4b7b2"/>
  <path id="Path_78" data-name="Path 78" d="M31.393,33H20.77A1.769,1.769,0,0,0,19,34.77V45.393a1.77,1.77,0,0,0,1.77,1.771H31.393a1.77,1.77,0,0,0,1.77-1.771V34.77A1.769,1.769,0,0,0,31.393,33Zm-1.77,10.623H22.541V36.541h7.082Z" transform="translate(11.098 21.885)" fill="#b4b7b2"/>
  <path id="Path_79" data-name="Path 79" d="M42.393,33H31.771A1.769,1.769,0,0,0,30,34.77V45.393a1.77,1.77,0,0,0,1.771,1.771H42.393a1.77,1.77,0,0,0,1.77-1.771V34.77A1.769,1.769,0,0,0,42.393,33ZM40.623,43.623H33.541V36.541h7.082Z" transform="translate(19.574 21.885)" fill="#b4b7b2"/>
  <path id="Path_80" data-name="Path 80" d="M20.393,44H9.771A1.769,1.769,0,0,0,8,45.77V56.393a1.77,1.77,0,0,0,1.771,1.771H20.393a1.77,1.77,0,0,0,1.77-1.771V45.77A1.769,1.769,0,0,0,20.393,44ZM18.623,54.623H11.541V47.541h7.082Z" transform="translate(2.623 30.361)" fill="#b4b7b2"/>
  <path id="Path_81" data-name="Path 81" d="M31.393,44H20.77A1.769,1.769,0,0,0,19,45.77V56.393a1.77,1.77,0,0,0,1.77,1.771H31.393a1.77,1.77,0,0,0,1.77-1.771V45.77A1.769,1.769,0,0,0,31.393,44Zm-1.77,10.623H22.541V47.541h7.082Z" transform="translate(11.098 30.361)" fill="#b4b7b2"/>
  <path id="Path_82" data-name="Path 82" d="M42.393,44H31.771A1.769,1.769,0,0,0,30,45.77V56.393a1.77,1.77,0,0,0,1.771,1.771H42.393a1.77,1.77,0,0,0,1.77-1.771V45.77A1.769,1.769,0,0,0,42.393,44ZM40.623,54.623H33.541V47.541h7.082Z" transform="translate(19.574 30.361)" fill="#b4b7b2"/>
</svg>
