<svg xmlns="http://www.w3.org/2000/svg" width="40" height="40" viewBox="0 0 40 40">
  <g id="incoming-call" transform="translate(-1 -1)">
    <g id="Group_3901" data-name="Group 3901" transform="translate(13.258 1)">
      <path id="Path_17595" data-name="Path 17595" d="M29.837,1a5.661,5.661,0,0,0-1.819.307A5.608,5.608,0,0,0,26.2,1h-.554A5.653,5.653,0,0,0,20,6.646v.068a7.056,7.056,0,0,0,.415,2.392l.33.341A1.929,1.929,0,0,1,22.581,8.1h.645a10.887,10.887,0,0,0,4.516-2.581A10.887,10.887,0,0,0,32.258,8.1H32.9a1.933,1.933,0,0,1,1.882,1.5l.283-.49a7.059,7.059,0,0,0,.415-2.392V6.646A5.653,5.653,0,0,0,29.837,1Z" transform="translate(-20 -1)" fill="#c7417b"/>
    </g>
    <g id="Group_3903" data-name="Group 3903" transform="translate(33.258 28.248)">
      <g id="Group_3902" data-name="Group 3902">
        <path id="Path_17596" data-name="Path 17596" d="M51,49.384v-6.15l5.125,3.075Z" transform="translate(-51 -43.234)" fill="#c7417b"/>
      </g>
    </g>
    <g id="Group_3905" data-name="Group 3905" transform="translate(27.452 28.248)">
      <g id="Group_3904" data-name="Group 3904">
        <path id="Path_17597" data-name="Path 17597" d="M42,49.384v-6.15l5.125,3.075Z" transform="translate(-42 -43.234)" fill="#c7417b"/>
      </g>
    </g>
    <g id="Group_3907" data-name="Group 3907" transform="translate(21.645 28.248)">
      <g id="Group_3906" data-name="Group 3906">
        <path id="Path_17598" data-name="Path 17598" d="M33,49.384v-6.15l5.125,3.075Z" transform="translate(-33 -43.234)" fill="#c7417b"/>
      </g>
    </g>
    <g id="Group_3908" data-name="Group 3908" transform="translate(1 4.604)">
      <path id="Path_17599" data-name="Path 17599" d="M33.161,17h-1.29a1.29,1.29,0,1,1-2.581,0H28a2.581,2.581,0,1,0,5.161,0Z" transform="translate(-10.581 -10.281)" fill="#37224b"/>
      <circle id="Ellipse_185" data-name="Ellipse 185" cx="0.647" cy="0.647" r="0.647" transform="translate(21.297 4.156)" fill="#37224b"/>
      <circle id="Ellipse_186" data-name="Ellipse 186" cx="0.647" cy="0.647" r="0.647" transform="translate(17.417 4.156)" fill="#37224b"/>
      <path id="Path_17600" data-name="Path 17600" d="M16.83,44.7a1.8,1.8,0,0,0-1.282-.531h-.085a1.8,1.8,0,0,0-1.621,1,.518.518,0,0,1-.466.288H13.29a.521.521,0,0,1-.37-.153l-.606-.606a.519.519,0,0,1-.154-.37v-.086a.519.519,0,0,1,.288-.467,1.8,1.8,0,0,0,1-1.621v-.086a1.8,1.8,0,0,0-.531-1.281l-1.137-1.137a2.257,2.257,0,0,0-3.115,0l-.9.9A2.648,2.648,0,0,0,7,42.476a2.6,2.6,0,0,0,.213,1.035,12.965,12.965,0,0,0,6.11,6.481l.713.357a2.631,2.631,0,0,0,3.034-.493l.9-.9a2.2,2.2,0,0,0,0-3.115Zm.225,3.34-.9.9a1.376,1.376,0,0,1-1.546.251l-.712-.356A11.677,11.677,0,0,1,8.4,43a1.441,1.441,0,0,1-.108-.589,1.33,1.33,0,0,1,.392-.947l.9-.9a.913.913,0,0,1,1.29,0l1.137,1.137a.518.518,0,0,1,.153.369v.086a.519.519,0,0,1-.288.467,1.8,1.8,0,0,0-1,1.621v.086a1.8,1.8,0,0,0,.531,1.281l.606.606a1.8,1.8,0,0,0,1.283.532h.085a1.8,1.8,0,0,0,1.621-1,.518.518,0,0,1,.466-.288h.085a.518.518,0,0,1,.369.153l1.137,1.137a.912.912,0,0,1,0,1.29Z" transform="translate(-3.129 -18.1)" fill="#37224b"/>
      <path id="Path_17601" data-name="Path 17601" d="M41,27.5H31.968V24.126a4.5,4.5,0,0,0-3.5-4.4L23.581,18.6v-.83A5.173,5.173,0,0,0,25.992,14.6h.17a2.581,2.581,0,1,0,0-5.161H25.6a10.292,10.292,0,0,1-4.147-2.392L21,6.586l-.456.456A10.3,10.3,0,0,1,16.4,9.434h-.558a2.581,2.581,0,0,0,0,5.161h.17a5.175,5.175,0,0,0,2.411,3.173v.83l-4.886,1.128a4.482,4.482,0,0,0-3.461,3.932A9.671,9.671,0,1,0,18.4,39.111H41ZM23.783,19.969l-.6,2.995-1.332-1.332,1.348-1.8Zm3.668-7.955a1.292,1.292,0,0,1-1.29,1.29V10.724h0A1.292,1.292,0,0,1,27.452,12.014Zm-12.9,0a1.292,1.292,0,0,1,1.29-1.29V13.3A1.292,1.292,0,0,1,14.548,12.014Zm2.581,1.29V10.558A11.692,11.692,0,0,0,21,8.381a11.692,11.692,0,0,0,3.871,2.177V13.3a3.871,3.871,0,0,1-7.742,0ZM21,18.466a5.131,5.131,0,0,0,1.29-.17v.6L21,20.617,19.71,18.9v-.6A5.131,5.131,0,0,0,21,18.466Zm-2.2,1.368,1.348,1.8-1.332,1.332-.6-2.995Zm-4.977,1.148,3.135-.724,1.065,5.322L21,22.6l2.977,2.977,1.065-5.322,3.135.724a3.212,3.212,0,0,1,2.5,3.143V27.5H28.1V23.627h-1.29V27.5H18.4a9.658,9.658,0,0,0-7.039-3.836,3.2,3.2,0,0,1,2.461-2.679ZM10.677,41.692A8.387,8.387,0,1,1,19.065,33.3,8.4,8.4,0,0,1,10.677,41.692ZM39.71,37.821H19.23a9.626,9.626,0,0,0,0-9.032H39.71Z" transform="translate(-1 -6.586)" fill="#37224b"/>
      <path id="Path_17602" data-name="Path 17602" d="M47.448,16.437a4.521,4.521,0,0,0,0-6.386l-.912.912a3.23,3.23,0,0,1,0,4.562Z" transform="translate(-17.158 -7.816)" fill="#37224b"/>
      <path id="Path_17603" data-name="Path 17603" d="M49.364,16.346l.912.912a7.105,7.105,0,0,0,0-10.037l-.912.912A5.814,5.814,0,0,1,49.364,16.346Z" transform="translate(-18.161 -6.811)" fill="#37224b"/>
      <path id="Path_17604" data-name="Path 17604" d="M15.324,16.437l.912-.912a3.23,3.23,0,0,1,0-4.562l-.912-.913A4.522,4.522,0,0,0,15.324,16.437Z" transform="translate(-5.614 -7.815)" fill="#37224b"/>
      <path id="Path_17605" data-name="Path 17605" d="M12.993,16.346a5.814,5.814,0,0,1,0-8.212l-.912-.912a7.105,7.105,0,0,0,0,10.037Z" transform="translate(-4.195 -6.811)" fill="#37224b"/>
    </g>
  </g>
</svg>
