<svg xmlns="http://www.w3.org/2000/svg" width="16" height="16.023" viewBox="0 0 16 16.023">
  <g id="phone-call" transform="translate(-0.344 0)">
    <g id="Group_552" data-name="Group 552" transform="translate(0.344 0)">
      <path id="Path_2426" data-name="Path 2426" d="M13,36.405a1.576,1.576,0,0,0-1.143-.524A1.63,1.63,0,0,0,10.7,36.4L9.628,37.467c-.088-.047-.176-.091-.26-.135-.122-.061-.237-.118-.335-.179A11.615,11.615,0,0,1,6.25,34.616a6.852,6.852,0,0,1-.913-1.441c.277-.254.534-.517.785-.771.095-.095.189-.193.284-.287a1.552,1.552,0,0,0,0-2.34l-.923-.923c-.1-.1-.213-.213-.315-.321-.2-.21-.416-.426-.636-.629a1.6,1.6,0,0,0-1.133-.5,1.657,1.657,0,0,0-1.15.5l-.007.007-1.15,1.16a2.474,2.474,0,0,0-.734,1.573,5.928,5.928,0,0,0,.433,2.509,14.561,14.561,0,0,0,2.587,4.315,15.914,15.914,0,0,0,5.3,4.149,8.257,8.257,0,0,0,2.976.879c.071,0,.145.007.213.007a2.548,2.548,0,0,0,1.951-.839c0-.007.01-.01.014-.017a7.688,7.688,0,0,1,.592-.612c.145-.139.294-.284.44-.436a1.687,1.687,0,0,0,.511-1.17,1.625,1.625,0,0,0-.521-1.16Zm1.211,3.561s0,0,0,0c-.132.142-.267.271-.413.413a8.893,8.893,0,0,0-.653.676,1.63,1.63,0,0,1-1.272.538c-.051,0-.1,0-.156,0A7.335,7.335,0,0,1,9.077,40.8a15.022,15.022,0,0,1-4.992-3.909A13.73,13.73,0,0,1,1.65,32.834a4.829,4.829,0,0,1-.379-2.117,1.552,1.552,0,0,1,.467-1l1.153-1.153a.769.769,0,0,1,.514-.24.723.723,0,0,1,.494.237l.01.01c.206.193.4.392.609.605.1.108.213.216.321.328l.923.923a.645.645,0,0,1,0,1.048c-.1.1-.193.2-.291.291-.284.291-.555.561-.849.825-.007.007-.014.01-.017.017a.69.69,0,0,0-.176.768l.01.03a7.412,7.412,0,0,0,1.092,1.782l0,0a12.413,12.413,0,0,0,3,2.733,4.617,4.617,0,0,0,.416.227c.122.061.237.118.335.179.014.007.027.017.041.024a.733.733,0,0,0,.335.085.723.723,0,0,0,.514-.233l1.157-1.157a.765.765,0,0,1,.511-.254.689.689,0,0,1,.487.247l.007.007L14.2,38.908A.669.669,0,0,1,14.207,39.966Z" transform="translate(-0.344 -26.479)" fill="#8f3b76"/>
      <path id="Path_2427" data-name="Path 2427" d="M245.32,86.831a4.352,4.352,0,0,1,3.544,3.544.454.454,0,0,0,.45.379.6.6,0,0,0,.078-.007.457.457,0,0,0,.375-.528,5.263,5.263,0,0,0-4.288-4.288.459.459,0,0,0-.528.372A.452.452,0,0,0,245.32,86.831Z" transform="translate(-236.672 -83.019)" fill="#8f3b76"/>
      <path id="Path_2428" data-name="Path 2428" d="M256.367,7.068A8.666,8.666,0,0,0,249.306.007a.456.456,0,1,0-.149.9,7.74,7.74,0,0,1,6.31,6.31.454.454,0,0,0,.45.379.6.6,0,0,0,.078-.007A.448.448,0,0,0,256.367,7.068Z" transform="translate(-240.374 0)" fill="#8f3b76"/>
    </g>
  </g>
</svg>
