<svg xmlns="http://www.w3.org/2000/svg" width="18" height="15" viewBox="0 0 18 15">
  <g id="Group_37" data-name="Group 37" transform="translate(-334 -118.333)">
    <g id="multiple" transform="translate(334 118.333)">
      <g id="bold" transform="translate(0 0)">
        <path id="Path_220" data-name="Path 220" d="M23.75,16.333H21.459L20.45,14.3a1.743,1.743,0,0,0-1.57-.97h-3.76a1.743,1.743,0,0,0-1.57.97l-1.009,2.03H10.25A2.253,2.253,0,0,0,8,18.583v7.5a2.253,2.253,0,0,0,2.25,2.25h13.5A2.253,2.253,0,0,0,26,26.083v-7.5A2.254,2.254,0,0,0,23.75,16.333Zm-3.25,5.5a3.5,3.5,0,1,1-3.5-3.5A3.5,3.5,0,0,1,20.5,21.834Z" transform="translate(-8 -13.333)" fill="#d5d5d5"/>
      </g>
    </g>
    <circle id="Ellipse_13" data-name="Ellipse 13" cx="2.571" cy="2.571" r="2.571" transform="translate(340.429 124.333)" fill="#d5d5d5"/>
  </g>
</svg>
