<svg xmlns="http://www.w3.org/2000/svg" width="19" height="20.066" viewBox="0 0 19 20.066">
  <g id="bar-chart" transform="translate(-13.601)">
    <g id="Group_602" data-name="Group 602" transform="translate(13.601 5.748)">
      <g id="Group_601" data-name="Group 601">
        <path id="Path_2674" data-name="Path 2674" d="M32.209,160.189h-.86V147.708a1.055,1.055,0,0,0-1.054-1.054H28.375a1.055,1.055,0,0,0-1.054,1.054v12.481H25.138v-6.826a1.055,1.055,0,0,0-1.054-1.054H22.164a1.055,1.055,0,0,0-1.054,1.054v6.826H18.927v-3.535a1.055,1.055,0,0,0-1.054-1.054H15.952a1.055,1.055,0,0,0-1.054,1.054v3.535h-.906a.392.392,0,1,0,0,.784H32.209a.392.392,0,1,0,0-.784Zm-14.066,0H15.683v-3.535a.27.27,0,0,1,.27-.27h1.921a.27.27,0,0,1,.27.27Zm6.211,0H21.894v-6.826a.27.27,0,0,1,.27-.27h1.921a.27.27,0,0,1,.27.27Zm6.211,0H28.1V147.708a.27.27,0,0,1,.27-.27H30.3a.27.27,0,0,1,.27.27Z" transform="translate(-13.601 -146.654)" fill="#fff"/>
      </g>
    </g>
    <g id="Group_604" data-name="Group 604" transform="translate(16.961)">
      <g id="Group_603" data-name="Group 603" transform="translate(0)">
        <path id="Path_2675" data-name="Path 2675" d="M113.733.412A.391.391,0,0,0,113.322,0h-2.39a.392.392,0,0,0,0,.784H112.4l-3.874,3.874L107.061,3.2a.392.392,0,0,0-.554,0l-7.045,7.045a.392.392,0,0,0,.554.554l6.768-6.768,1.461,1.461a.392.392,0,0,0,.554,0l4.151-4.151V2.663a.392.392,0,1,0,.784,0V.431C113.734.425,113.734.418,113.733.412Z" transform="translate(-99.346)" fill="#fff"/>
      </g>
    </g>
    <g id="Group_606" data-name="Group 606" transform="translate(15.64 11.495)">
      <g id="Group_605" data-name="Group 605">
        <circle id="Ellipse_106" data-name="Ellipse 106" cx="0.392" cy="0.392" r="0.392" fill="#fff"/>
      </g>
    </g>
  </g>
</svg>
