<svg xmlns="http://www.w3.org/2000/svg" width="35" height="36.964" viewBox="0 0 35 36.964">
  <g id="bar-chart" transform="translate(-13.601)">
    <g id="Group_602" data-name="Group 602" transform="translate(13.601 10.588)">
      <g id="Group_601" data-name="Group 601">
        <path id="Path_2674" data-name="Path 2674" d="M47.879,171.586H46.3V148.595a1.943,1.943,0,0,0-1.941-1.941H40.816a1.943,1.943,0,0,0-1.941,1.941v22.992H34.854V159.012a1.943,1.943,0,0,0-1.941-1.941H29.374a1.943,1.943,0,0,0-1.941,1.941v12.575H23.413v-6.512a1.943,1.943,0,0,0-1.941-1.941H17.933a1.943,1.943,0,0,0-1.941,1.941v6.512H14.323a.722.722,0,1,0,0,1.444H47.879a.722.722,0,1,0,0-1.444Zm-25.91,0H17.436v-6.512a.5.5,0,0,1,.5-.5h3.539a.5.5,0,0,1,.5.5Zm11.442,0H28.877V159.012a.5.5,0,0,1,.5-.5h3.539a.5.5,0,0,1,.5.5Zm11.442,0H40.319V148.595a.5.5,0,0,1,.5-.5h3.539a.5.5,0,0,1,.5.5Z" transform="translate(-13.601 -146.654)" fill="#472a64"/>
      </g>
    </g>
    <g id="Group_604" data-name="Group 604" transform="translate(19.791)">
      <g id="Group_603" data-name="Group 603" transform="translate(0)">
        <path id="Path_2675" data-name="Path 2675" d="M125.849.759A.719.719,0,0,0,125.091,0l-.035,0h-4.368a.722.722,0,1,0,0,1.444h2.7l-7.137,7.137L113.557,5.89a.722.722,0,0,0-1.021,0L99.558,18.868a.722.722,0,0,0,1.021,1.021L113.047,7.421l2.691,2.691a.722.722,0,0,0,1.021,0l7.647-7.647V4.906a.722.722,0,1,0,1.444,0V.794C125.85.782,125.849.771,125.849.759Z" transform="translate(-99.346)" fill="#c7417b"/>
      </g>
    </g>
    <g id="Group_606" data-name="Group 606" transform="translate(17.358 21.176)">
      <g id="Group_605" data-name="Group 605">
        <circle id="Ellipse_106" data-name="Ellipse 106" cx="0.722" cy="0.722" r="0.722" fill="#c7417b"/>
      </g>
    </g>
  </g>
</svg>
