<svg id="Group_3901" data-name="Group 3901" xmlns="http://www.w3.org/2000/svg" width="10" height="10" viewBox="0 0 10 10">
  <path id="Path_17014" data-name="Path 17014" d="M5,10a5,5,0,1,1,5-5A5.006,5.006,0,0,1,5,10ZM5,.625A4.375,4.375,0,1,0,9.375,5,4.38,4.38,0,0,0,5,.625Zm0,0" fill="#8f3b76"/>
  <path id="Path_17015" data-name="Path 17015" d="M132.688,240.625h-4.375a.313.313,0,0,1,0-.625h4.375a.313.313,0,0,1,0,.625Zm0,0" transform="translate(-125.5 -235.313)" fill="#8f3b76"/>
  <path id="Path_17016" data-name="Path 17016" d="M240.313,133a.313.313,0,0,1-.312-.312v-4.375a.313.313,0,0,1,.625,0v4.375A.313.313,0,0,1,240.313,133Zm0,0" transform="translate(-235.313 -125.5)" fill="#8f3b76"/>
</svg>
