<svg id="Group_3902" data-name="Group 3902" xmlns="http://www.w3.org/2000/svg" width="13" height="13" viewBox="0 0 13 13">
  <g id="Group_3684" data-name="Group 3684">
    <g id="Group_3683" data-name="Group 3683">
      <path id="Path_16974" data-name="Path 16974" d="M6.5,0A6.5,6.5,0,1,0,13,6.5,6.5,6.5,0,0,0,6.5,0Zm0,12.133A5.633,5.633,0,1,1,12.133,6.5,5.64,5.64,0,0,1,6.5,12.133Z" fill="#c7417b"/>
    </g>
  </g>
  <g id="Group_3686" data-name="Group 3686" transform="translate(6.067 5.326)">
    <g id="Group_3685" data-name="Group 3685">
      <path id="Path_16975" data-name="Path 16975" d="M239.363,209.777a.433.433,0,0,0-.433.433v3.655a.433.433,0,0,0,.867,0V210.21A.433.433,0,0,0,239.363,209.777Z" transform="translate(-238.93 -209.777)" fill="#c7417b"/>
    </g>
  </g>
  <g id="Group_3688" data-name="Group 3688" transform="translate(5.633 3.152)">
    <g id="Group_3687" data-name="Group 3687">
      <path id="Path_16976" data-name="Path 16976" d="M222.734,124.122a.867.867,0,1,0,.867.867A.868.868,0,0,0,222.734,124.122Z" transform="translate(-221.867 -124.122)" fill="#c7417b"/>
    </g>
  </g>
</svg>
