<svg id="wall-clock" xmlns="http://www.w3.org/2000/svg" width="81" height="81" viewBox="0 0 81 81">
  <g id="Group_380" data-name="Group 380">
    <g id="Group_379" data-name="Group 379">
      <path id="Path_557" data-name="Path 557" d="M40.5,0A40.5,40.5,0,1,0,81,40.5,40.546,40.546,0,0,0,40.5,0Zm0,75.088A34.588,34.588,0,1,1,75.088,40.5,34.627,34.627,0,0,1,40.5,75.088Z" fill="#72bf44"/>
    </g>
  </g>
  <g id="Group_382" data-name="Group 382" transform="translate(35.573 19.807)">
    <g id="Group_381" data-name="Group 381">
      <path id="Path_558" data-name="Path 558" d="M243.58,145.89h-12.81V128.153a2.956,2.956,0,0,0-5.912,0v20.694a2.956,2.956,0,0,0,2.956,2.956H243.58a2.956,2.956,0,0,0,0-5.912Z" transform="translate(-224.857 -125.197)" fill="#72bf44"/>
    </g>
  </g>
</svg>
