<svg id="error" xmlns="http://www.w3.org/2000/svg" width="15" height="15" viewBox="0 0 15 15">
  <g id="Group_3720" data-name="Group 3720">
    <g id="Group_3719" data-name="Group 3719">
      <path id="Path_17018" data-name="Path 17018" d="M7.5,0A7.5,7.5,0,1,0,15,7.5,7.506,7.506,0,0,0,7.5,0Zm0,14.243A6.743,6.743,0,1,1,14.243,7.5,6.755,6.755,0,0,1,7.5,14.243Z" fill="#fff"/>
    </g>
  </g>
  <g id="Group_3722" data-name="Group 3722" transform="translate(4.665 4.63)">
    <g id="Group_3721" data-name="Group 3721">
      <path id="Path_17019" data-name="Path 17019" d="M109.363,108.035l2.2-2.2a.373.373,0,0,0-.528-.528l-2.2,2.2-2.2-2.2a.373.373,0,0,0-.528.528l2.2,2.2-2.2,2.183a.383.383,0,0,0,0,.528.383.383,0,0,0,.528,0l2.2-2.2,2.2,2.2a.383.383,0,0,0,.528,0,.383.383,0,0,0,0-.528Z" transform="translate(-106 -105.2)" fill="#fff"/>
    </g>
  </g>
</svg>
