<svg xmlns="http://www.w3.org/2000/svg" width="35" height="47.174" viewBox="0 0 35 47.174">
  <g id="Group_558" data-name="Group 558" transform="translate(-64)">
    <path id="Path_2397" data-name="Path 2397" d="M95.263,30.229l-8.437-2.636v-2.12a8.384,8.384,0,0,0,2.731-4.214A3.8,3.8,0,0,0,92.913,17.5V9.891A9.9,9.9,0,0,0,83.022,0H79.978a9.9,9.9,0,0,0-9.891,9.891V17.5a3.8,3.8,0,0,0,3.356,3.759,8.384,8.384,0,0,0,2.731,4.214v2.12l-8.437,2.636A5.3,5.3,0,0,0,64,35.313V47.174H99V35.313A5.3,5.3,0,0,0,95.263,30.229ZM73.13,13.515v.257a3.778,3.778,0,0,0-1.522.7V12.038A6.636,6.636,0,0,0,73.13,13.515Zm-.577-2.863H90.448c-.892,1.963-5.016,3.8-8.947,3.8S73.445,12.615,72.553,10.652ZM89.87,13.515a6.649,6.649,0,0,0,1.522-1.477v2.438a3.768,3.768,0,0,0-1.522-.7Zm-.032,6.137c.016-.209.032-.418.032-.631V15.357a2.269,2.269,0,0,1-.032,4.3ZM79.978,1.522h3.043A8.377,8.377,0,0,1,91.352,9.13h-19.7A8.377,8.377,0,0,1,79.978,1.522ZM71.609,17.5a2.28,2.28,0,0,1,1.522-2.143v3.664c0,.213.016.422.032.631A2.279,2.279,0,0,1,71.609,17.5Zm3.043,1.522v-4.6A16.049,16.049,0,0,0,81.5,15.978a16.048,16.048,0,0,0,6.848-1.559v4.6a6.848,6.848,0,1,1-13.7,0Zm6.848,8.37a8.315,8.315,0,0,0,3.8-.924V27.9a4.96,4.96,0,0,1-7.609,0V26.468A8.315,8.315,0,0,0,81.5,27.391Zm-4.832,1.641a6.479,6.479,0,0,0,9.665,0l.79.247-5.622,7.5-5.622-7.5Zm-8.476,2.649,6.146-1.92L80.891,38.5l.609-.457.609.457,6.554-8.739,6.146,1.92a3.787,3.787,0,0,1,2.67,3.631v4.252H92.913V35H91.391V45.652H71.609V35H70.087v4.565H65.522V35.313A3.787,3.787,0,0,1,68.192,31.682Zm-2.67,9.405h4.565v4.565H65.522Zm27.391,4.565V41.087h4.565v4.565Z" fill="#472d5e"/>
    <ellipse id="Ellipse_89" data-name="Ellipse 89" cx="0.807" cy="0.605" rx="0.807" ry="0.605" transform="translate(84.566 16.123)"/>
    <ellipse id="Ellipse_90" data-name="Ellipse 90" cx="0.807" cy="0.605" rx="0.807" ry="0.605" transform="translate(76.904 16.123)"/>
    <path id="Path_2398" data-name="Path 2398" d="M219.043,219.043A3.047,3.047,0,0,0,222.087,216h-1.522a1.522,1.522,0,0,1-3.044,0H216A3.047,3.047,0,0,0,219.043,219.043Z" transform="translate(-137.543 -195.457)"/>
    <rect id="Rectangle_443" data-name="Rectangle 443" width="1.21" height="1.613" transform="translate(80.937 6.042)"/>
  </g>
</svg>
