<svg xmlns="http://www.w3.org/2000/svg" width="13" height="12.996" viewBox="0 0 13 12.996">
  <g id="phone_3_" data-name="phone (3)" transform="translate(0 -0.5)">
    <path id="Path_16264" data-name="Path 16264" d="M12.965,6.319A6.5,6.5,0,1,0,6.5,13.5a.193.193,0,0,0,0-.386A6.114,6.114,0,0,1,2.177,2.672a6.114,6.114,0,0,1,10.4,3.687,6.136,6.136,0,0,1-.917,3.912.937.937,0,0,1-.691.431.926.926,0,0,1-.609-.145l.441-.441a.674.674,0,0,0,0-.952l-.17-.17a.193.193,0,0,0-.273.273l.17.17a.287.287,0,0,1,0,.406l-.364.364L8.454,8.494l.364-.364a.287.287,0,0,1,.406,0l.494.495a.193.193,0,1,0,.273-.273L9.5,7.857a.674.674,0,0,0-.952,0l-.652.652a.672.672,0,0,1-.949,0L4.987,6.552a.671.671,0,0,1,0-.949l.149-.149,0,0,0,0,.5-.5a.674.674,0,0,0,0-.952L4.331,2.691a.674.674,0,0,0-.952,0l-.5.5h0a3,3,0,0,0,0,4.247l.672.672a.193.193,0,1,0,.273-.273l-.672-.672A2.618,2.618,0,0,1,3.02,3.606L4.728,5.315l-.015.015a1.059,1.059,0,0,0,0,1.5L6.671,8.782a1.058,1.058,0,0,0,1.5,0l.015-.015,1.709,1.709a2.617,2.617,0,0,1-3.56-.131l-1.85-1.85a.193.193,0,1,0-.273.273l1.85,1.85a3,3,0,0,0,4.018.207,1.321,1.321,0,0,0,1.916-.346A6.524,6.524,0,0,0,12.965,6.319ZM3.288,3.328l.364-.364a.287.287,0,0,1,.406,0L5.366,4.272a.288.288,0,0,1,0,.406L5,5.042Zm0,0" fill="#8f3b76"/>
    <path id="Path_16265" data-name="Path 16265" d="M270.509,159.449a1.381,1.381,0,0,1,1.38,1.38.193.193,0,1,0,.386,0,1.768,1.768,0,0,0-1.766-1.766.193.193,0,1,0,0,.386Zm0,0" transform="translate(-263.453 -154.536)" fill="#8f3b76"/>
    <path id="Path_16266" data-name="Path 16266" d="M270.509,121.281a2.351,2.351,0,0,1,2.349,2.349.193.193,0,1,0,.386,0,2.738,2.738,0,0,0-2.735-2.735.193.193,0,1,0,0,.386Zm0,0" transform="translate(-263.453 -117.338)" fill="#8f3b76"/>
    <path id="Path_16267" data-name="Path 16267" d="M270.509,83.5a3.312,3.312,0,0,1,3.308,3.308.193.193,0,1,0,.386,0,3.7,3.7,0,0,0-3.694-3.694.193.193,0,1,0,0,.386Zm0,0" transform="translate(-263.453 -80.519)" fill="#8f3b76"/>
  </g>
</svg>
