<svg xmlns="http://www.w3.org/2000/svg" width="14" height="14.629" viewBox="0 0 14 14.629">
  <g id="contract_1_" data-name="contract (1)" transform="translate(-11)">
    <path id="Path_17612" data-name="Path 17612" d="M24.974,3.31a.214.214,0,0,0-.127-.1l-.713-.213.128-.428a.464.464,0,0,0-.036-.357.471.471,0,0,0-.088-.115l.238-.794A.794.794,0,0,0,22.855.845l-.238.794a.468.468,0,0,0-.35.288L20.429.176,20.4.146a.739.739,0,0,0-.116-.1l-.006,0h0a.212.212,0,0,0-.054-.024A.323.323,0,0,0,20.108,0h-8.7A.406.406,0,0,0,11,.406V6.537a.214.214,0,1,0,.429,0V.429h8.516V1.666a.986.986,0,0,0,.985.985h1.121L21.168,5.6a.214.214,0,1,0,.411.123l.961-3.213,0-.016.121-.4a.041.041,0,0,1,.05-.026l1.111.332a.04.04,0,0,1,.026.049l-.189.633h0l-2.337,7.814-.388-.116-.8-.238L21.3,6.669a.214.214,0,0,0-.411-.123l-1.219,4.075v0l0,.008c0,.005,0,.011,0,.016v.008c0,.006,0,.012,0,.018s0,0,0,.006a.211.211,0,0,0,0,.024h0l.118,1.057.085.748a.813.813,0,0,1-.215-.265c-.09-.147-.213-.348-.449-.3-.2.038-.291.2-.382.364a1.894,1.894,0,0,1-.163.255c-.05.063-.083.081-.094.082s-.058,0-.2-.144a.508.508,0,0,0-.791,0,.451.451,0,0,1-.148.1c-.036.006-.1-.031-.177-.1a.214.214,0,0,0-.29.316.584.584,0,0,0,.9,0,.551.551,0,0,1,.118-.088s.029.005.09.065a.744.744,0,0,0,.5.268h.028a.564.564,0,0,0,.405-.245,2.3,2.3,0,0,0,.2-.31c.018-.032.039-.069.059-.1l.033.054a.869.869,0,0,0,.837.517h0a.207.207,0,0,0,.085-.018l.011-.005h0a.211.211,0,0,0,.03-.018.418.418,0,0,0,.068-.062l.007-.008L21.634,11.3l.005-.007.007-.009.012-.021,0-.006a.213.213,0,0,0,.012-.029v0l.6-2.016v5H11.429V7.528a.214.214,0,0,0-.429,0v6.694a.407.407,0,0,0,.406.406H22.3a.407.407,0,0,0,.407-.406V7.771L24.011,3.4l.508.151-.871,2.912a.214.214,0,1,0,.411.123l.932-3.117a.214.214,0,0,0-.017-.163ZM23.265.968A.366.366,0,0,1,23.72.723a.365.365,0,0,1,.245.454l-.223.744-.7-.209Zm-2.894.7V.714l1.584,1.509H20.928A.557.557,0,0,1,20.371,1.666Zm-.105,10.606L20.12,10.98l.976.291Z" fill="#8f3b76"/>
    <path id="Path_17613" data-name="Path 17613" d="M105.932,195.167a.214.214,0,0,0,.214.214h5.818a.214.214,0,0,0,0-.429h-5.818A.214.214,0,0,0,105.932,195.167Z" transform="translate(-92.22 -189.383)" fill="#8f3b76"/>
    <path id="Path_17614" data-name="Path 17614" d="M106.146,253.681h5.464a.214.214,0,1,0,0-.429h-5.464a.214.214,0,0,0,0,.429Z" transform="translate(-92.22 -246.016)" fill="#8f3b76"/>
    <path id="Path_17615" data-name="Path 17615" d="M106.146,311.98h5.041a.214.214,0,1,0,0-.429h-5.041a.214.214,0,1,0,0,.429Z" transform="translate(-92.22 -302.65)" fill="#8f3b76"/>
    <path id="Path_17616" data-name="Path 17616" d="M106.146,370.279H109.6a.214.214,0,0,0,0-.429h-3.452a.214.214,0,0,0,0,.429Z" transform="translate(-92.22 -359.283)" fill="#8f3b76"/>
    <path id="Path_17617" data-name="Path 17617" d="M120.635,98.438a.361.361,0,0,0,.36-.36v-.864a.361.361,0,0,0-.36-.36h-4.716a.361.361,0,0,0-.36.36v.864a.361.361,0,0,0,.36.36h4.716Zm-4.647-1.156h4.579v.727h-4.579Z" transform="translate(-101.572 -94.087)" fill="#8f3b76"/>
  </g>
</svg>
