<svg xmlns="http://www.w3.org/2000/svg" width="19" height="19" viewBox="0 0 19 19">
  <g id="phone" opacity="0.95">
    <path id="Path_2434" data-name="Path 2434" d="M16.218,2.782A9.5,9.5,0,0,0,2.782,16.218a9.514,9.514,0,0,0,9.6,2.337l-.338-1.061A8.388,8.388,0,1,1,17.887,9.5v3.111a2.111,2.111,0,0,1-2.109,2.109H15.12L16.44,13.4l-3.6-3.6-1.393,1.393a12.539,12.539,0,0,1-1.756-1.47A12.512,12.512,0,0,1,8.194,7.927L9.581,6.54l-3.6-3.6L4.131,4.783,4.116,4.8c-.7.757-.759,2.01-.169,3.529a12.826,12.826,0,0,0,2.9,4.205,12.756,12.756,0,0,0,4.249,2.913,5.249,5.249,0,0,0,1.845.387h2.839A3.226,3.226,0,0,0,19,12.611V9.5A9.438,9.438,0,0,0,16.218,2.782ZM11.491,14.406a11.633,11.633,0,0,1-3.859-2.661C5.06,9.174,4.145,6.428,4.927,5.562L5.978,4.511,8.007,6.54,6.774,7.772l.234.375A13.329,13.329,0,0,0,8.9,10.506a13.365,13.365,0,0,0,2.32,1.868l.376.236,1.241-1.241L14.866,13.4l-1.021,1.021a1.2,1.2,0,0,1-.821.3H13A4.054,4.054,0,0,1,11.491,14.406Z" transform="translate(0 0)" fill="#fff"/>
    <path id="Path_2435" data-name="Path 2435" d="M287.7,90.5a5.091,5.091,0,0,0-5.16-5.16l.015,1.113a3.977,3.977,0,0,1,4.032,4.032Z" transform="translate(-272.052 -82.177)" fill="#fff"/>
    <path id="Path_2436" data-name="Path 2436" d="M284.267,144.8l.015,1.113a1.737,1.737,0,0,1,1.761,1.761l1.113.015a2.85,2.85,0,0,0-2.889-2.889Z" transform="translate(-273.718 -139.423)" fill="#fff"/>
  </g>
</svg>
