<svg id="support_2_" data-name="support (2)" xmlns="http://www.w3.org/2000/svg" width="42" height="42" viewBox="0 0 42 42">
  <g id="Group_3478" data-name="Group 3478" transform="translate(3.394 3.387)">
    <path id="Path_16734" data-name="Path 16734" d="M312,352v3.387h3.387v3.387h6.774v-3.387h2.032V352Zm0,0" transform="translate(-288.974 -325.581)" fill="#c7417b"/>
    <path id="Path_16735" data-name="Path 16735" d="M208.129,40v3.387a2.448,2.448,0,0,1-2.195,1.355H200V43.353A3.357,3.357,0,0,1,203.353,40Zm0,0" transform="translate(-186.458 -40)" fill="#c7417b"/>
    <path id="Path_16736" data-name="Path 16736" d="M46.168,199.086v.156a1.316,1.316,0,0,1-.827,1.22l-1.158.46-.047-.115-4.058-7.438c.129-.142.264-.284.4-.42l.562-.562a1.316,1.316,0,0,1,2.107.339l2.886,5.772A1.363,1.363,0,0,1,46.168,199.086Zm0,0" transform="translate(-40.078 -179.129)" fill="#c7417b"/>
    <path id="Path_16737" data-name="Path 16737" d="M205.53,386.371l1.308.65a1.316,1.316,0,0,1,.339,2.107l-.562.562c-.136.136-.271.264-.42.4l-7.438-4.058-.115-.047.46-1.158a1.316,1.316,0,0,1,1.22-.827h.156a1.363,1.363,0,0,1,.589.136Zm0,0" transform="translate(-185.214 -354.871)" fill="#c7417b"/>
  </g>
  <path id="Path_16738" data-name="Path 16738" d="M416,416h1.355v1.355H416Zm0,0" transform="translate(-380.774 -380.774)" fill="#37224b"/>
  <path id="Path_16739" data-name="Path 16739" d="M384,416h1.355v1.355H384Zm0,0" transform="translate(-351.484 -380.774)" fill="#37224b"/>
  <path id="Path_16740" data-name="Path 16740" d="M352,416h1.355v1.355H352Zm0,0" transform="translate(-322.193 -380.774)" fill="#37224b"/>
  <path id="Path_16741" data-name="Path 16741" d="M312,384h12.194v1.355H312Zm0,0" transform="translate(-285.581 -351.484)" fill="#37224b"/>
  <path id="Path_16742" data-name="Path 16742" d="M384,352h6.1v1.355H384Zm0,0" transform="translate(-351.484 -322.193)" fill="#37224b"/>
  <path id="Path_16743" data-name="Path 16743" d="M312,352h4.742v1.355H312Zm0,0" transform="translate(-285.581 -322.193)" fill="#37224b"/>
  <path id="Path_16744" data-name="Path 16744" d="M40.993,27.385A20.995,20.995,0,1,0,0,21a21.333,21.333,0,0,0,.115,2.193A11.493,11.493,0,0,0,0,24.726a11.232,11.232,0,0,0,3.312,8l5.967,5.967a11.291,11.291,0,0,0,15.327.6H39.968A2.035,2.035,0,0,0,42,37.258V29.129A2.025,2.025,0,0,0,40.993,27.385ZM32.516,12.871a11.448,11.448,0,0,1-2.05,6.542,3.357,3.357,0,0,0-2.4-3.028l-4.36-1.308v-1.03a4.737,4.737,0,0,0,2.032-3.886V2.71H20.289A4.035,4.035,0,0,0,16.258,6.74v3.421a4.736,4.736,0,0,0,2.032,3.886v1.03L13.93,16.385a3.356,3.356,0,0,0-2.4,3.028,11.513,11.513,0,1,1,20.983-6.542Zm-8.129-6.3a1.754,1.754,0,0,1-1.515.877h-5.26V6.74a2.679,2.679,0,0,1,2.676-2.676h4.1ZM17.613,8.806h5.26a3.121,3.121,0,0,0,1.515-.4v1.75a3.387,3.387,0,1,1-6.774,0Zm5.613,7.54.428.129-.4,1.984-1.226-.919ZM21,14.9a4.713,4.713,0,0,0,1.355-.2v.6L21,16.655,19.645,15.3v-.6A4.713,4.713,0,0,0,21,14.9Zm-2.225,1.443,1.194,1.194-1.226.919-.4-1.984Zm-1.731.519.793,3.967L21,18.46l3.163,2.372.793-3.967,2.725.818a2.019,2.019,0,0,1,1.448,1.946V21.02a11.5,11.5,0,0,1-16.258,0V19.629a2.019,2.019,0,0,1,1.448-1.946Zm-4.693-13.5a12.871,12.871,0,1,0,17.3,0A19.6,19.6,0,0,1,39.666,27.1h-4.9l-5.636-4.026V27.1H25.065a2.035,2.035,0,0,0-2.032,2.032v4.662l-3.486-1.743a2.006,2.006,0,0,0-.888-.209H18.5a1.981,1.981,0,0,0-1.848,1.251L16.1,34.481a1.185,1.185,0,0,1-1.938.4L7.122,27.841a1.185,1.185,0,0,1,.4-1.939l1.391-.556A1.981,1.981,0,0,0,10.161,23.5v-.156a2,2,0,0,0-.21-.889L7.065,16.681a1.978,1.978,0,0,0-1.779-1.1,2,2,0,0,0-1.407.582l-.567.567A11.346,11.346,0,0,0,1.44,19.212,19.681,19.681,0,0,1,12.351,3.366Zm4.923,37.279a9.887,9.887,0,0,1-7.038-2.915L4.269,31.763a9.954,9.954,0,0,1,0-14.075l.567-.567a.64.64,0,0,1,.449-.186.632.632,0,0,1,.568.351l2.886,5.77a.649.649,0,0,1,.068.286V23.5a.63.63,0,0,1-.4.589l-1.392.556A2.54,2.54,0,0,0,6.164,28.8L13.2,35.836a2.539,2.539,0,0,0,4.154-.852l.556-1.392a.632.632,0,0,1,.59-.4h.156a.634.634,0,0,1,.284.067l5.772,2.886a.63.63,0,0,1,.351.567.641.641,0,0,1-.186.449l-.567.567A9.887,9.887,0,0,1,17.274,40.645Zm23.371-3.387a.678.678,0,0,1-.677.677H25.988a1.974,1.974,0,0,0-.669-3l-.932-.466V29.129a.678.678,0,0,1,.677-.677h5.419V25.7l3.848,2.748h5.636a.678.678,0,0,1,.677.677Zm0,0" fill="#472a64"/>
</svg>
