<svg id="copy" xmlns="http://www.w3.org/2000/svg" width="30" height="30" viewBox="0 0 30 30">
  <path id="Path_17545" data-name="Path 17545" d="M24.375,30H5.625A5.625,5.625,0,0,1,0,24.375V5.625A5.625,5.625,0,0,1,5.625,0h18.75A5.625,5.625,0,0,1,30,5.625v18.75A5.625,5.625,0,0,1,24.375,30Zm0,0" fill="rgba(237,237,237,0.62)"/>
  <path id="Path_17546" data-name="Path 17546" d="M193.718,128A1.719,1.719,0,0,0,192,129.718v8.438a1.718,1.718,0,0,0,1.718,1.718h7.188a1.718,1.718,0,0,0,1.718-1.718v-8.281A1.875,1.875,0,0,0,200.75,128Zm5.938,9.063h-4.687a.469.469,0,0,1,0-.937h4.688a.469.469,0,0,1,0,.938Zm0-1.875h-4.687a.469.469,0,0,1,0-.937h4.688a.469.469,0,0,1,0,.938Zm0-1.875h-4.687a.469.469,0,0,1,0-.937h4.688a.469.469,0,0,1,0,.938Zm0,0" transform="translate(-180.75 -120.5)" fill="#8f3b76"/>
  <path id="Path_17547" data-name="Path 17547" d="M143.515,165.922a2.659,2.659,0,0,1-2.656-2.656v-8.437c0-.053.013-.1.016-.157h-.485a1.72,1.72,0,0,0-1.718,1.718v10a1.72,1.72,0,0,0,1.718,1.718h7.5a1.72,1.72,0,0,0,1.718-1.718v-.469Zm0,0" transform="translate(-130.547 -145.609)" fill="rgba(143,59,118,0.42)"/>
</svg>
