<svg xmlns="http://www.w3.org/2000/svg" width="65" height="55.141" viewBox="0 0 65 55.141">
  <g id="Group_393" data-name="Group 393" transform="translate(-11909.092 -896.183)">
    <g id="newspaper" transform="translate(11920.18 897.354)">
      <path id="Path_693" data-name="Path 693" d="M113.143,3H78a2.359,2.359,0,0,0-2.358,2.358V49.584a6.659,6.659,0,0,1-5.215,6.5l-.1.162h39.861a5.315,5.315,0,0,0,5.315-5.315V5.354A2.357,2.357,0,0,0,113.143,3Zm0,0" transform="translate(-61.946 -2.639)" fill="#e1f2d7"/>
      <path id="Path_694" data-name="Path 694" d="M110.5,0h-8.813a.358.358,0,1,0,0,.716H110.5a2,2,0,0,1,2,2V48.3a4.963,4.963,0,0,1-4.957,4.957H69.42a7.023,7.023,0,0,0,3.934-6.308V2.716a2,2,0,0,1,2-2H98.042a.358.358,0,1,0,0-.716H75.354a2.719,2.719,0,0,0-2.716,2.716V46.945A6.3,6.3,0,0,1,67.7,53.1a.358.358,0,0,0-.228.161l-.1.162a.358.358,0,0,0,.3.546h39.861a5.68,5.68,0,0,0,5.673-5.673V2.716A2.719,2.719,0,0,0,110.5,0Zm0,0" transform="translate(-59.303)" fill="#3a312a"/>
      <path id="Path_695" data-name="Path 695" d="M5.483,120.3a2.358,2.358,0,0,0-2.358,2.358v30.228a6.667,6.667,0,1,0,13.335,0V120.3Zm0,0" transform="translate(-2.767 -105.948)" fill="#72bf44"/>
      <path id="Path_696" data-name="Path 696" d="M13.814,117.3H2.838a2.72,2.72,0,0,0-2.717,2.717v11.817a.358.358,0,0,0,.716,0V120.018a2,2,0,0,1,2-2H13.456v32.229a6.31,6.31,0,0,1-12.619,0V135.6a.358.358,0,1,0-.716,0v14.643a7.026,7.026,0,0,0,14.051,0V117.659A.358.358,0,0,0,13.814,117.3Zm0,0" transform="translate(-0.121 -103.302)" fill="#3a312a"/>
      <path id="Path_697" data-name="Path 697" d="M187.894,134.3H162.923a1.915,1.915,0,0,0-1.915,1.915v8.2a1.916,1.916,0,0,0,1.915,1.915h24.971a1.916,1.916,0,0,0,1.915-1.915v-8.2A1.915,1.915,0,0,0,187.894,134.3Zm0,0" transform="translate(-141.808 -118.274)" fill="#ef8a00"/>
      <path id="Path_698" data-name="Path 698" d="M185.255,131.3H160.285a2.275,2.275,0,0,0-2.273,2.273v8.2a2.275,2.275,0,0,0,2.273,2.273h24.971a2.276,2.276,0,0,0,2.273-2.273v-8.2A2.276,2.276,0,0,0,185.255,131.3Zm1.557,10.47a1.559,1.559,0,0,1-1.557,1.557H160.285a1.559,1.559,0,0,1-1.557-1.557v-8.2a1.559,1.559,0,0,1,1.557-1.557h24.971a1.559,1.559,0,0,1,1.557,1.557Zm0,0" transform="translate(-139.169 -115.632)" fill="#3a312a"/>
      <path id="Path_699" data-name="Path 699" d="M188.208,42.68h-25.6a1.6,1.6,0,0,0-1.6,1.6v2.384a1.6,1.6,0,0,0,1.6,1.6h25.6a1.6,1.6,0,0,0,1.6-1.6V44.28A1.6,1.6,0,0,0,188.208,42.68Zm0,0" transform="translate(-141.808 -37.586)" fill="#72bf44"/>
      <g id="Group_391" data-name="Group 391" transform="translate(18.842 4.735)">
        <path id="Path_700" data-name="Path 700" d="M185.566,39.68h-25.6a1.961,1.961,0,0,0-1.959,1.959v2.384a1.961,1.961,0,0,0,1.959,1.959h25.6a1.962,1.962,0,0,0,1.959-1.959V41.639A1.961,1.961,0,0,0,185.566,39.68Zm1.243,4.343a1.244,1.244,0,0,1-1.243,1.243h-25.6a1.244,1.244,0,0,1-1.243-1.243V41.639a1.244,1.244,0,0,1,1.243-1.243h25.6a1.244,1.244,0,0,1,1.243,1.243Zm0,0" transform="translate(-158.008 -39.68)" fill="#3a312a"/>
        <path id="Path_701" data-name="Path 701" d="M187.167,271.773h-28.8a.358.358,0,0,0,0,.716h28.8a.358.358,0,1,0,0-.716Zm0,0" transform="translate(-158.008 -244.076)" fill="#3a312a"/>
        <path id="Path_702" data-name="Path 702" d="M187.167,313.68h-28.8a.358.358,0,0,0,0,.716h28.8a.358.358,0,1,0,0-.716Zm0,0" transform="translate(-158.008 -280.981)" fill="#3a312a"/>
        <path id="Path_703" data-name="Path 703" d="M187.167,355.59h-28.8a.358.358,0,1,0,0,.716h28.8a.358.358,0,1,0,0-.716Zm0,0" transform="translate(-158.008 -317.89)" fill="#3a312a"/>
        <path id="Path_704" data-name="Path 704" d="M187.167,397.5h-28.8a.358.358,0,0,0,0,.716h28.8a.358.358,0,1,0,0-.716Zm0,0" transform="translate(-158.008 -354.795)" fill="#3a312a"/>
      </g>
      <path id="Path_705" data-name="Path 705" d="M382.976,6h-3.3a2,2,0,0,1,2,2v45.58a4.961,4.961,0,0,1-4.955,4.957h3.3a4.964,4.964,0,0,0,4.957-4.957V8A2,2,0,0,0,382.976,6Zm0,0" transform="translate(-331.78 -5.281)" fill="#c5e3b3"/>
    </g>
    <g id="customer_1_" data-name="customer (1)" transform="translate(11909.092 896.183)">
      <path id="Path_706" data-name="Path 706" d="M176.1,4a9.3,9.3,0,1,0,9.3,9.3A9.3,9.3,0,0,0,176.1,4Zm0,16.289a6.987,6.987,0,1,1,6.987-6.987A6.987,6.987,0,0,1,176.1,20.289Zm0,0" transform="translate(-157.483 -3.777)" fill="#f0c891"/>
      <path id="Path_707" data-name="Path 707" d="M215.935,45.493a6.987,6.987,0,1,0,6.269,7.638A6.987,6.987,0,0,0,215.935,45.493Zm0,0" transform="translate(-196.634 -42.92)" fill="#f4efed"/>
      <path id="Path_708" data-name="Path 708" d="M324.3,4c-.181,0-.36.007-.538.017a9.3,9.3,0,0,1,0,18.572c.178.01.357.017.538.017A9.3,9.3,0,0,0,324.3,4Zm0,0" transform="translate(-305.687 -3.777)" fill="#dea42e"/>
      <path id="Path_709" data-name="Path 709" d="M176.1,22.605c.181,0,.36-.007.538-.017a9.3,9.3,0,0,1,0-18.572c-.178-.01-.357-.017-.538-.017a9.3,9.3,0,0,0,0,18.605Zm0,0" transform="translate(-157.483 -3.777)" fill="#fce06a"/>
      <path id="Path_710" data-name="Path 710" d="M148.264,277.186a2.151,2.151,0,0,1,.565,1l3.081-3.081a9.068,9.068,0,0,1-1.564-1.564l-3.081,3.081A2.151,2.151,0,0,1,148.264,277.186Zm0,0" transform="translate(-139.043 -258.265)" fill="#f4efed"/>
      <g id="Group_392" data-name="Group 392" transform="translate(7.999)">
        <path id="Path_711" data-name="Path 711" d="M145.05,274.636a.222.222,0,0,1-.217-.169,1.926,1.926,0,0,0-1.4-1.4.223.223,0,0,1-.1-.375l3.081-3.081a.224.224,0,0,1,.333.02,9.075,9.075,0,0,0,.717.81,9.218,9.218,0,0,0,.81.717.223.223,0,0,1,.02.333l-3.081,3.081A.223.223,0,0,1,145.05,274.636Zm-.407-1.38a2.37,2.37,0,0,1,.5.745l2.652-2.652c-.233-.193-.452-.392-.654-.594s-.4-.421-.594-.654l-2.652,2.652A2.372,2.372,0,0,1,144.642,273.256Zm0,0" transform="translate(-143.262 -254.493)" fill="#182113"/>
        <path id="Path_712" data-name="Path 712" d="M211.48,55.893a7.21,7.21,0,1,1,7.21-7.21A7.218,7.218,0,0,1,211.48,55.893Zm0-13.974a6.763,6.763,0,1,0,6.764,6.764A6.771,6.771,0,0,0,211.48,41.919Zm0,0" transform="translate(-200.863 -39.157)" fill="#182113"/>
        <path id="Path_713" data-name="Path 713" d="M172.323,19.052a9.526,9.526,0,1,1,9.526-9.526A9.537,9.537,0,0,1,172.323,19.052Zm0-18.605A9.079,9.079,0,1,0,181.4,9.526,9.09,9.09,0,0,0,172.323.447Zm0,0" transform="translate(-161.706)" fill="#182113"/>
        <path id="Path_714" data-name="Path 714" d="M197.836,69.9a.223.223,0,0,1-.188-.344,14.506,14.506,0,0,1,.994-1.361.223.223,0,1,1,.345.284,14.06,14.06,0,0,0-.963,1.319A.223.223,0,0,1,197.836,69.9Zm0,0" transform="translate(-194.578 -64.308)" fill="#182113"/>
      </g>
      <path id="Path_715" data-name="Path 715" d="M4.633,336.5a2.164,2.164,0,0,1,0-3.06l5.3-5.3a2.164,2.164,0,1,1,3.06,3.06l-5.3,5.3A2.164,2.164,0,0,1,4.633,336.5Zm0,0" transform="translate(-3.776 -309.211)" fill="#ef8a00"/>
      <path id="Path_716" data-name="Path 716" d="M17.774,332.906a2.165,2.165,0,0,0-.465-.351,2.163,2.163,0,0,1-.351,2.6l-5.3,5.3a2.163,2.163,0,0,1-2.6.351,2.158,2.158,0,0,0,3.412.465l5.3-5.3A2.164,2.164,0,0,0,17.774,332.906Zm0,0" transform="translate(-8.553 -313.986)" fill="#c67910"/>
      <path id="Path_717" data-name="Path 717" d="M2.387,333.575A2.387,2.387,0,0,1,.7,329.5L6,324.2a2.387,2.387,0,1,1,3.376,3.376l-5.3,5.3A2.372,2.372,0,0,1,2.387,333.575Zm5.3-9.632a1.927,1.927,0,0,0-1.372.569l-5.3,5.3a1.941,1.941,0,1,0,2.744,2.744l5.3-5.3a1.941,1.941,0,0,0-1.372-3.313Zm0,0" transform="translate(0 -305.433)" fill="#182113"/>
      <path id="Path_718" data-name="Path 718" d="M261.823,155.945h-1.977c0-.02,0-.04,0-.061v-1.989h-2.18v1.989c0,.021,0,.041,0,.061h-1.977a1.382,1.382,0,0,0-1.382,1.382v1.8H263.2v-1.8A1.382,1.382,0,0,0,261.823,155.945Zm0,0" transform="translate(-240.112 -145.301)" fill="#72bf44"/>
      <path id="Path_719" data-name="Path 719" d="M316.6,155.936l0-2.045h-2.18l0,2.045a1.088,1.088,0,0,0,2.176,0Zm0,0" transform="translate(-296.862 -145.298)" fill="#e18152"/>
      <path id="Path_720" data-name="Path 720" d="M259.432,155.569H250.54a.223.223,0,0,1-.223-.223v-1.8a1.608,1.608,0,0,1,1.606-1.606h1.75v-1.827a.224.224,0,0,1,.223-.223h2.18a.223.223,0,0,1,.223.223v1.827h1.75a1.607,1.607,0,0,1,1.606,1.606v1.8A.223.223,0,0,1,259.432,155.569Zm-8.669-.447h8.446v-1.576a1.16,1.16,0,0,0-1.159-1.159h-1.977a.223.223,0,0,1-.223-.236v-.02c0-.009,0-.019,0-.028v-1.766h-1.734V152.1c0,.01,0,.019,0,.029v.019a.223.223,0,0,1-.223.236h-1.977a1.16,1.16,0,0,0-1.159,1.159Zm0,0" transform="translate(-236.339 -141.521)" fill="#182113"/>
      <path id="Path_721" data-name="Path 721" d="M311.728,153.474a1.313,1.313,0,0,1-1.312-1.31l0-2.045a.223.223,0,0,1,.223-.224h2.18a.223.223,0,0,1,.223.224l0,2.045A1.313,1.313,0,0,1,311.728,153.474Zm-.867-3.133,0,1.822a.865.865,0,0,0,1.73,0l0-1.822Zm1.955,1.822h0Zm0,0" transform="translate(-293.081 -141.525)" fill="#182113"/>
      <path id="Path_722" data-name="Path 722" d="M294.087,70.393a2.372,2.372,0,0,1-2.357-2.388V66.353a2.357,2.357,0,1,1,4.714,0v1.653A2.372,2.372,0,0,1,294.087,70.393Zm0,0" transform="translate(-275.441 -60.393)" fill="#ff9f70"/>
      <path id="Path_723" data-name="Path 723" d="M290.311,66.84a2.6,2.6,0,0,1-2.58-2.611V62.576a2.58,2.58,0,1,1,5.161,0v1.653A2.6,2.6,0,0,1,290.311,66.84Zm0-6.428a2.152,2.152,0,0,0-2.134,2.164v1.653a2.134,2.134,0,1,0,4.267,0V62.576A2.152,2.152,0,0,0,290.311,60.412Zm0,0" transform="translate(-271.664 -56.617)" fill="#182113"/>
    </g>
  </g>
</svg>
