<svg id="file" xmlns="http://www.w3.org/2000/svg" width="20" height="21.818" viewBox="0 0 20 21.818">
  <path id="Path_17485" data-name="Path 17485" d="M25.213,26.577V29.3l-2.273,2.273H11.122a.455.455,0,0,1-.454-.454v-20a.455.455,0,0,1,.454-.454H24.759a.455.455,0,0,1,.455.454v3.636" transform="translate(-10.213 -10.213)" fill="#fff"/>
  <path id="Path_17486" data-name="Path 17486" d="M270.3,416h-3.636v3.636h1.364l2.273-2.273Zm0,0" transform="translate(-255.304 -398.273)" fill="#c7417b"/>
  <path id="Path_17487" data-name="Path 17487" d="M74.668,96h9.091v5.455H74.668Zm0,0" transform="translate(-71.486 -91.909)" fill="#c7417b"/>
  <path id="Path_17488" data-name="Path 17488" d="M15.455,4.546V.909A.91.91,0,0,0,14.545,0H.909A.91.91,0,0,0,0,.909v20a.91.91,0,0,0,.909.909H12.727a.452.452,0,0,0,.321-.133l2.273-2.273a.454.454,0,0,0,.133-.321V16.364h-.909v.909H11.364a.455.455,0,0,0-.455.455v3.182h-10v-20H14.545V4.546ZM11.818,18.182h2.727V18.9l-2.006,2.006h-.721Zm0,0" fill="#332046"/>
  <path id="Path_17489" data-name="Path 17489" d="M70.364,91.7H64.455A.455.455,0,0,1,64,91.241V85.787a.455.455,0,0,1,.455-.455h9.091a.455.455,0,0,1,.455.455V87.15h-.909v-.909H64.909v4.545h5.455Zm0,0" transform="translate(-61.273 -81.696)" fill="#332046"/>
  <path id="Path_17490" data-name="Path 17490" d="M64,277.332h4.546v.909H64Zm0,0" transform="translate(-61.273 -265.514)" fill="#332046"/>
  <path id="Path_17491" data-name="Path 17491" d="M192,277.332h.909v.909H192Zm0,0" transform="translate(-183.818 -265.514)" fill="#332046"/>
  <path id="Path_17492" data-name="Path 17492" d="M64,341.332h2.727v.909H64Zm0,0" transform="translate(-61.273 -326.787)" fill="#332046"/>
  <path id="Path_17493" data-name="Path 17493" d="M149.332,341.332h4.546v.909h-4.546Zm0,0" transform="translate(-142.968 -326.787)" fill="#332046"/>
  <path id="Path_17494" data-name="Path 17494" d="M64,405.332h4.546v.909H64Zm0,0" transform="translate(-61.273 -388.059)" fill="#332046"/>
  <path id="Path_17495" data-name="Path 17495" d="M192,405.332h1.818v.909H192Zm0,0" transform="translate(-183.818 -388.059)" fill="#332046"/>
  <path id="Path_17496" data-name="Path 17496" d="M254.423,142.3h-.156a.909.909,0,0,1-.643-1.552l.11-.111-1.285-1.285-.11.11a.91.91,0,0,1-1.552-.643v-.156h-1.818v.156a.909.909,0,0,1-1.552.643l-.11-.11-1.286,1.285.111.111a.909.909,0,0,1-.643,1.552h-.156v1.818h.156a.909.909,0,0,1,.643,1.552l-.11.111,1.285,1.285.11-.11a.909.909,0,0,1,1.552.643v.157h1.818V147.6a.909.909,0,0,1,1.552-.643l.111.111,1.285-1.286-.111-.11a.91.91,0,0,1,.644-1.552h.156Zm0,0" transform="translate(-234.878 -132.759)" fill="#c7417b"/>
  <path id="Path_17497" data-name="Path 17497" d="M240.577,138h-1.818a.455.455,0,0,1-.455-.455v-.156a.454.454,0,0,0-.776-.321l-.111.111a.454.454,0,0,1-.642,0l-1.285-1.286a.455.455,0,0,1,0-.644l.111-.111a.454.454,0,0,0-.322-.775h-.156a.454.454,0,0,1-.454-.454v-1.818a.454.454,0,0,1,.454-.455h.156a.454.454,0,0,0,.322-.776l-.11-.11a.455.455,0,0,1,0-.644l1.285-1.286a.454.454,0,0,1,.642,0l.111.11a.454.454,0,0,0,.776-.32v-.156a.454.454,0,0,1,.455-.455h1.818a.454.454,0,0,1,.455.455v.156a.454.454,0,0,0,.776.321l.111-.111a.454.454,0,0,1,.642,0l1.285,1.286a.455.455,0,0,1,0,.644l-.111.111a.454.454,0,0,0,.322.775h.156a.454.454,0,0,1,.454.455v1.818a.454.454,0,0,1-.454.454h-.156a.455.455,0,0,0-.322.776l.11.11a.455.455,0,0,1,0,.644l-1.285,1.286a.454.454,0,0,1-.642,0l-.111-.111a.454.454,0,0,0-.776.32v.156A.455.455,0,0,1,240.577,138Zm-1.395-.909h.972a1.367,1.367,0,0,1,2.063-.854l.687-.687a1.367,1.367,0,0,1,.855-2.063v-.972a1.367,1.367,0,0,1-.855-2.063l-.687-.687a1.367,1.367,0,0,1-2.063-.854h-.972a1.367,1.367,0,0,1-2.063.854l-.687.687a1.368,1.368,0,0,1-.855,2.063v.972a1.368,1.368,0,0,1,.855,2.063l.687.687a1.367,1.367,0,0,1,2.063.854Zm0,0" transform="translate(-224.668 -122.545)" fill="#332046"/>
  <path id="Path_17498" data-name="Path 17498" d="M312.969,204.486a1.818,1.818,0,1,1-1.818-1.818A1.818,1.818,0,0,1,312.969,204.486Zm0,0" transform="translate(-296.15 -194.032)" fill="#fff"/>
  <path id="Path_17499" data-name="Path 17499" d="M300.941,196.546a2.273,2.273,0,1,1,2.273-2.273A2.275,2.275,0,0,1,300.941,196.546Zm0-3.637a1.364,1.364,0,1,0,1.364,1.364A1.365,1.365,0,0,0,300.941,192.909Zm0,0" transform="translate(-285.941 -183.818)" fill="#332046"/>
</svg>
