<svg xmlns="http://www.w3.org/2000/svg" width="16" height="15.999" viewBox="0 0 16 15.999">
  <g id="edit" transform="translate(-8 -8.001)">
    <path id="Path_157" data-name="Path 157" d="M19.333,24H10a2,2,0,0,1-2-2V12.667a2,2,0,0,1,2-2h5.333a.667.667,0,1,1,0,1.333H10a.667.667,0,0,0-.667.667V22a.667.667,0,0,0,.667.667h9.333A.667.667,0,0,0,20,22V16.666a.667.667,0,0,1,1.334,0V22A2,2,0,0,1,19.333,24Z" fill="rgba(240,234,238,0.72)"/>
    <g id="Group_30" data-name="Group 30">
      <path id="Path_158" data-name="Path 158" d="M19.525,10.118,14.25,15.393a.333.333,0,0,0-.091.17l-.471,2.357a.334.334,0,0,0,.327.4.288.288,0,0,0,.065-.007l2.357-.471a.34.34,0,0,0,.171-.091l5.275-5.275Z" fill="rgba(255,255,255,0.82)"/>
      <path id="Path_159" data-name="Path 159" d="M23.512,8.488a1.668,1.668,0,0,0-2.357,0l-.923.923,2.357,2.357.923-.923a1.667,1.667,0,0,0,0-2.357Z" fill="rgba(255,255,255,0.82)"/>
    </g>
  </g>
</svg>
