<svg id="clipboard" xmlns="http://www.w3.org/2000/svg" width="42" height="42" viewBox="0 0 42 42">
  <g id="Group_3895" data-name="Group 3895" transform="translate(6.774 12.194)">
    <path id="Path_17512" data-name="Path 17512" d="M87.452,376.129H80.677a.677.677,0,0,1-.677-.677v-6.774a.677.677,0,0,1,.677-.677h6.774a.677.677,0,0,1,.677.677v6.774A.677.677,0,0,1,87.452,376.129Z" transform="translate(-80 -349.032)" fill="#c7417b"/>
    <path id="Path_17513" data-name="Path 17513" d="M87.452,264.129H80.677a.677.677,0,0,1-.677-.677v-6.774a.677.677,0,0,1,.677-.677h6.774a.677.677,0,0,1,.677.677v6.774A.677.677,0,0,1,87.452,264.129Z" transform="translate(-80 -246.516)" fill="#c7417b"/>
    <path id="Path_17514" data-name="Path 17514" d="M87.452,152.129H80.677a.677.677,0,0,1-.677-.677v-6.774a.677.677,0,0,1,.677-.677h6.774a.677.677,0,0,1,.677.677v6.774A.677.677,0,0,1,87.452,152.129Z" transform="translate(-80 -144)" fill="#c7417b"/>
  </g>
  <path id="Path_17515" data-name="Path 17515" d="M38.613,31.839h-.8a2.009,2.009,0,0,0,.125-.677A2.035,2.035,0,0,0,35.9,29.129H31.161V8.806a3.391,3.391,0,0,0-3.387-3.387H23.223l-.339-1.355H18.968V3.387a3.387,3.387,0,0,0-6.774,0v.677H8.277L7.939,5.419H3.387A3.391,3.391,0,0,0,0,8.806V38.613A3.391,3.391,0,0,0,3.387,42H27.774a3.391,3.391,0,0,0,3.387-3.387h7.452a3.387,3.387,0,1,0,0-6.774Zm-2.032-.677a.678.678,0,0,1-.677.677H23.71a.677.677,0,1,1,0-1.355H35.9A.678.678,0,0,1,36.581,31.161Zm-21,6.1a2.032,2.032,0,1,1,0-4.065h18.29v4.065Zm-3.336-1.532-1.261-.315a.19.19,0,0,1,0-.369l1.261-.315a2.482,2.482,0,0,0,0,1Zm1.3-32.339a2.032,2.032,0,0,1,4.065,0v.677H13.548ZM9.336,5.419h12.49l1.016,4.065H8.319Zm15.242,5.419-.339-1.355H27.1V26.419h1.355V8.129H23.9l-.339-1.355h4.213a2.035,2.035,0,0,1,2.032,2.032V29.129H28.452V27.774H27.1v1.355H23.71a2.035,2.035,0,0,0-2.032,2.032,2.009,2.009,0,0,0,.125.677H15.581a3.371,3.371,0,0,0-2.692,1.355h-.018l-2.217.534a1.544,1.544,0,0,0,0,3l2.053.513.168,0a3.373,3.373,0,0,0,2.706,1.371H27.1v2.032H4.065V9.484H6.923l-.339,1.355ZM1.355,38.613V8.806A2.035,2.035,0,0,1,3.387,6.774H7.6L7.261,8.129H2.71V40.521A2.03,2.03,0,0,1,1.355,38.613Zm27.1,1.908V38.613h1.355A2.03,2.03,0,0,1,28.452,40.521Zm10.161-3.262H35.226V33.194h3.387a2.032,2.032,0,1,1,0,4.065Z" fill="#472a64"/>
  <path id="Path_17516" data-name="Path 17516" d="M114,266.684l-.813-1.084-4.949,3.712-.94-.94-.958.958,1.77,1.77Z" transform="translate(-97.339 -243.11)" fill="#472a64"/>
  <path id="Path_17517" data-name="Path 17517" d="M114,154.684l-.813-1.084-4.949,3.712-.94-.94-.958.958,1.77,1.77Z" transform="translate(-97.339 -140.594)" fill="#472a64"/>
  <rect id="Rectangle_2457" data-name="Rectangle 2457" width="5.634" height="1.537" transform="translate(18.951 12.805)" fill="#472a64"/>
  <rect id="Rectangle_2458" data-name="Rectangle 2458" width="5.634" height="1.537" transform="translate(18.951 15.366)" fill="#472a64"/>
  <rect id="Rectangle_2459" data-name="Rectangle 2459" width="5.634" height="1.024" transform="translate(18.951 18.439)" fill="#472a64"/>
  <rect id="Rectangle_2460" data-name="Rectangle 2460" width="5.634" height="1.024" transform="translate(18.951 22.537)" fill="#472a64"/>
  <rect id="Rectangle_2461" data-name="Rectangle 2461" width="5.634" height="1.537" transform="translate(18.951 25.098)" fill="#472a64"/>
  <rect id="Rectangle_2462" data-name="Rectangle 2462" width="1.537" height="1.537" transform="translate(18.951 27.659)" fill="#472a64"/>
  <rect id="Rectangle_2463" data-name="Rectangle 2463" width="1.537" height="1.537" transform="translate(10.756 6.659)" fill="#472a64"/>
  <rect id="Rectangle_2464" data-name="Rectangle 2464" width="1.537" height="1.537" transform="translate(18.951 6.659)" fill="#472a64"/>
</svg>
