<svg id="clipboard" xmlns="http://www.w3.org/2000/svg" width="41" height="41" viewBox="0 0 41 41">
  <g id="Group_3895" data-name="Group 3895" transform="translate(6.613 11.903)">
    <path id="Path_17512" data-name="Path 17512" d="M87.274,375.935H80.661a.661.661,0,0,1-.661-.661v-6.613a.661.661,0,0,1,.661-.661h6.613a.661.661,0,0,1,.661.661v6.613A.661.661,0,0,1,87.274,375.935Z" transform="translate(-80 -349.484)" fill="#c7417b"/>
    <path id="Path_17513" data-name="Path 17513" d="M87.274,263.935H80.661a.661.661,0,0,1-.661-.661v-6.613a.661.661,0,0,1,.661-.661h6.613a.661.661,0,0,1,.661.661v6.613A.661.661,0,0,1,87.274,263.935Z" transform="translate(-80 -246.742)" fill="#c7417b"/>
    <path id="Path_17514" data-name="Path 17514" d="M87.274,151.935H80.661a.661.661,0,0,1-.661-.661v-6.613a.661.661,0,0,1,.661-.661h6.613a.661.661,0,0,1,.661.661v6.613A.661.661,0,0,1,87.274,151.935Z" transform="translate(-80 -144)" fill="#c7417b"/>
  </g>
  <path id="Path_17515" data-name="Path 17515" d="M37.694,31.081h-.783a1.962,1.962,0,0,0,.122-.661,1.986,1.986,0,0,0-1.984-1.984H30.419V8.6A3.31,3.31,0,0,0,27.113,5.29H22.67l-.331-1.323H18.516V3.306a3.306,3.306,0,0,0-6.613,0v.661H8.08L7.75,5.29H3.306A3.31,3.31,0,0,0,0,8.6v29.1A3.31,3.31,0,0,0,3.306,41H27.113a3.31,3.31,0,0,0,3.306-3.306h7.274a3.306,3.306,0,0,0,0-6.613Zm-1.984-.661a.662.662,0,0,1-.661.661h-11.9a.661.661,0,1,1,0-1.323h11.9A.662.662,0,0,1,35.71,30.419Zm-20.5,5.952a1.984,1.984,0,1,1,0-3.968H33.065v3.968Zm-3.257-1.5-1.231-.307a.186.186,0,0,1,0-.36l1.231-.307a2.423,2.423,0,0,0,0,.975ZM13.226,3.306a1.984,1.984,0,0,1,3.968,0v.661H13.226ZM9.113,5.29H21.306L22.3,9.258H8.121Zm14.879,5.29-.331-1.323h2.79V25.79h1.323V7.935H23.331L23,6.613h4.113A1.986,1.986,0,0,1,29.1,8.6V28.435H27.774V27.113H26.452v1.323H23.145a1.986,1.986,0,0,0-1.984,1.984,1.962,1.962,0,0,0,.122.661H15.21A3.291,3.291,0,0,0,12.582,32.4h-.017l-2.164.521a1.508,1.508,0,0,0,0,2.926l2,.5.164,0a3.293,3.293,0,0,0,2.641,1.338H26.452v1.984H3.968V9.258h2.79l-.331,1.323ZM1.323,37.694V8.6A1.986,1.986,0,0,1,3.306,6.613H7.419L7.088,7.935H2.645v31.62A1.981,1.981,0,0,1,1.323,37.694Zm26.452,1.862V37.694H29.1A1.981,1.981,0,0,1,27.774,39.556Zm9.919-3.185H34.387V32.4h3.306a1.984,1.984,0,1,1,0,3.968Z" fill="#472a64"/>
  <path id="Path_17516" data-name="Path 17516" d="M113.821,266.658l-.794-1.058-4.831,3.624-.917-.917-.935.935,1.728,1.728Z" transform="translate(-97.553 -243.645)" fill="#472a64"/>
  <path id="Path_17517" data-name="Path 17517" d="M113.821,154.658l-.794-1.058-4.831,3.624-.917-.917-.935.935,1.728,1.728Z" transform="translate(-97.553 -140.903)" fill="#472a64"/>
  <rect id="Rectangle_2457" data-name="Rectangle 2457" width="5.5" height="1.5" transform="translate(18.5 12.5)" fill="#472a64"/>
  <rect id="Rectangle_2458" data-name="Rectangle 2458" width="5.5" height="1.5" transform="translate(18.5 15)" fill="#472a64"/>
  <rect id="Rectangle_2459" data-name="Rectangle 2459" width="5.5" height="1" transform="translate(18.5 18)" fill="#472a64"/>
  <rect id="Rectangle_2460" data-name="Rectangle 2460" width="5.5" height="1" transform="translate(18.5 22)" fill="#472a64"/>
  <rect id="Rectangle_2461" data-name="Rectangle 2461" width="5.5" height="1.5" transform="translate(18.5 24.5)" fill="#472a64"/>
  <rect id="Rectangle_2462" data-name="Rectangle 2462" width="1.5" height="1.5" transform="translate(18.5 27)" fill="#472a64"/>
  <rect id="Rectangle_2463" data-name="Rectangle 2463" width="1.5" height="1.5" transform="translate(10.5 6.5)" fill="#472a64"/>
  <rect id="Rectangle_2464" data-name="Rectangle 2464" width="1.5" height="1.5" transform="translate(18.5 6.5)" fill="#472a64"/>
</svg>
