<svg xmlns="http://www.w3.org/2000/svg" width="14" height="10.633" viewBox="0 0 14 10.633">
  <g id="logout" transform="translate(0 -58.95)">
    <g id="Group_3454" data-name="Group 3454" transform="translate(0 58.95)">
      <path id="Path_16466" data-name="Path 16466" d="M0,60.723V67.81a1.777,1.777,0,0,0,1.773,1.773H7.5A1.777,1.777,0,0,0,9.274,67.81V66.662a.351.351,0,0,0-.7,0V67.81A1.076,1.076,0,0,1,7.5,68.884H1.773A1.076,1.076,0,0,1,.7,67.81V60.723A1.076,1.076,0,0,1,1.773,59.65H7.5a1.076,1.076,0,0,1,1.074,1.074v1.148a.351.351,0,0,0,.7,0V60.723A1.777,1.777,0,0,0,7.5,58.95H1.773A1.775,1.775,0,0,0,0,60.723Z" transform="translate(0 -58.95)" fill="#8f3b76"/>
      <path id="Path_16467" data-name="Path 16467" d="M211.414,154.338a.352.352,0,0,0,.5,0l2.4-2.4a.348.348,0,0,0,0-.494l-2.4-2.4a.349.349,0,0,0-.494.494l1.8,1.8h-6.565a.351.351,0,0,0,0,.7h6.562l-1.8,1.8A.345.345,0,0,0,211.414,154.338Z" transform="translate(-200.409 -146.38)" fill="#8f3b76"/>
    </g>
  </g>
</svg>
