<svg xmlns="http://www.w3.org/2000/svg" width="16.124" height="37" viewBox="0 0 16.124 37">
  <g id="XMLID_1937_" transform="translate(-86.253)" opacity="0.783">
    <path id="XMLID_1869_" d="M306.214,98h-2.39a3.127,3.127,0,0,0-3.036,2.367l-1.866,7.415a1.547,1.547,0,1,0,3,.755l1.764-7.01-3.447,13.7a.7.7,0,0,0,.677.868h10.595a.7.7,0,0,0,.677-.868l-3.447-13.7,1.764,7.01a1.547,1.547,0,0,0,3-.755l-1.866-7.415A3.128,3.128,0,0,0,308.6,98Z" transform="translate(-211.899 -90.918)" fill="none"/>
    <g id="Group_3887" data-name="Group 3887" transform="translate(91.136 0.723)">
      <path id="XMLID_1618_" d="M364.256,10a2.818,2.818,0,0,0-2.818,2.818v.723a2.818,2.818,0,0,0,5.637,0v-.723A2.818,2.818,0,0,0,364.256,10Z" transform="translate(-361.077 -10)" fill="none"/>
      <path id="XMLID_1617_" d="M358.028,359.438a1.59,1.59,0,0,1-1.59-1.59v-9.515h3.18v9.515A1.59,1.59,0,0,1,358.028,359.438Z" transform="translate(-356.438 -323.883)" fill="none"/>
      <path id="XMLID_1616_" d="M402.028,359.438a1.59,1.59,0,0,1-1.59-1.59v-9.515h3.18v9.515A1.59,1.59,0,0,1,402.028,359.438Z" transform="translate(-397.258 -323.883)" fill="none"/>
    </g>
    <g id="XMLID_373_" transform="translate(86.253 0)">
      <path id="XMLID_551_" d="M302.728,19.512a2.271,2.271,0,0,0,2.2-2.824l-1.866-7.415a3.849,3.849,0,0,0-3.294-2.887,3.522,3.522,0,0,0,.708-2.122V3.541a3.541,3.541,0,1,0-7.082,0v.723a3.522,3.522,0,0,0,.708,2.122,3.848,3.848,0,0,0-3.294,2.887l-1.866,7.415a2.271,2.271,0,0,0,2.2,2.824h0a2.277,2.277,0,0,0,.282-.018l-1.166,4.634a1.42,1.42,0,0,0,1.378,1.767h1.4v8.792a2.311,2.311,0,0,0,3.9,1.677,2.311,2.311,0,0,0,3.9-1.677V25.9h1.4a1.42,1.42,0,0,0,1.378-1.767l-1.167-4.635a2.274,2.274,0,0,0,.282.019ZM294.841,3.541a2.1,2.1,0,1,1,4.191,0v.723a2.1,2.1,0,0,1-4.191,0Zm.506,32.014a.868.868,0,0,1-.867-.867V25.9h1.734v8.792A.868.868,0,0,1,295.347,35.555Zm4.047-.867a.867.867,0,0,1-1.734,0V25.9h1.734Zm2.536-17.244-1.765-7.011a.723.723,0,1,0-1.4.353L302.2,24.45H291.671l3.439-13.664a.723.723,0,0,0-1.4-.353l-1.764,7.01h0a.823.823,0,0,1-.8.624h0a.826.826,0,0,1-.8-1.026l1.866-7.415a2.406,2.406,0,0,1,2.336-1.82h4.779a2.406,2.406,0,0,1,2.336,1.82l1.866,7.415a.826.826,0,0,1-.8,1.026h0A.823.823,0,0,1,301.929,17.444Z" transform="translate(-288.874 0)" fill="#321e46"/>
    </g>
  </g>
</svg>
