<svg xmlns="http://www.w3.org/2000/svg" width="37" height="53.986" viewBox="0 0 37 53.986">
  <g id="woman" transform="translate(-72.997 0)" opacity="0.6">
    <path id="Path_17380" data-name="Path 17380" d="M109.415,48.488v4.568a.931.931,0,0,1-.931.931H74.51a.931.931,0,0,1-.931-.931V48.488a8.68,8.68,0,0,1,5.091-7.9,13.607,13.607,0,0,1-4.452-5.1,12.3,12.3,0,0,1,.842-12.167,11.967,11.967,0,0,0,2.008-6.637V11.635A11.635,11.635,0,0,1,88.7,0h5.585a11.635,11.635,0,0,1,11.635,11.635c0,5.339-.13,6.384.513,8.507.908,3,2.108,3.373,3.032,6.428a12.31,12.31,0,0,1-4.115,13.193l-1.031.82a8.68,8.68,0,0,1,5.091,7.9Z" transform="translate(0 0)" fill="#893771"/>
    <path id="Path_17381" data-name="Path 17381" d="M113.837,347.568v4.568a.931.931,0,0,1-.931.931H78.932a.931.931,0,0,1-.931-.931v-4.568a8.677,8.677,0,0,1,8.676-8.676,4.814,4.814,0,0,0,2-.432l.029.063,6.644,5.144a.931.931,0,0,0,1.14,0l6.644-5.144.029-.063a4.814,4.814,0,0,0,2,.432A8.677,8.677,0,0,1,113.837,347.568Z" transform="translate(-4.422 -299.08)" fill="#8f3b76"/>
    <path id="Path_17382" data-name="Path 17382" d="M155.157,115.191a.931.931,0,0,1,.881.929v5.572a11.519,11.519,0,1,1-23.037,0V116.2a.93.93,0,0,1,1.011-.927,24.082,24.082,0,0,0,15.7-4.014.928.928,0,0,1,1.414.519A4.342,4.342,0,0,0,155.157,115.191Z" transform="translate(-53.023 -98.174)" fill="#ffebd2"/>
    <path id="Path_17383" data-name="Path 17383" d="M105.36,39.764l-1.031.82a8.654,8.654,0,0,0-3.585-.773A4.814,4.814,0,0,1,95.924,35v-.795l-.017-.043a11.52,11.52,0,0,0,7.115-10.646V17.946a.931.931,0,0,0-.881-.929,4.34,4.34,0,0,1-4.033-3.412.928.928,0,0,0-1.414-.519A24.083,24.083,0,0,1,81,17.1a.93.93,0,0,0-1.011.927v5.491A11.52,11.52,0,0,0,87.1,34.164l-.017.043V35a4.813,4.813,0,0,1-4.82,4.81,8.654,8.654,0,0,0-3.585.773l-1.031-.82a12.31,12.31,0,0,1-2.578-16.451,11.967,11.967,0,0,0,2.008-6.637V11.635A11.635,11.635,0,0,1,88.711,0H94.3A11.635,11.635,0,0,1,105.93,11.635v5.041a11.974,11.974,0,0,0,2.008,6.637A12.31,12.31,0,0,1,105.36,39.764Z" transform="translate(-0.006 0)" fill="#3a264d"/>
    <path id="Path_17384" data-name="Path 17384" d="M201.977,295.584a11.55,11.55,0,0,1-9.106,0,7.209,7.209,0,0,0,.132-1.91l.017-.043a11.543,11.543,0,0,0,8.808,0l.017.043A7.21,7.21,0,0,0,201.977,295.584Z" transform="translate(-105.927 -259.466)" fill="#ffd6a6"/>
    <path id="Path_17385" data-name="Path 17385" d="M99.548,1.252a1.214,1.214,0,0,1-.655,2.291q-.549-.052-1.111-.052H92.2A11.635,11.635,0,0,0,80.563,15.125v1.416c0,.836-.582.809-.582,1.486,0,6.146.025,5.757-.065,6.022-.913,2.685-2.009,3.074-2.9,6.012a12.3,12.3,0,0,0-.46,4.848,1.215,1.215,0,0,1-2.336.57,12.3,12.3,0,0,1,.842-12.167,11.967,11.967,0,0,0,2.008-6.637V11.635A11.635,11.635,0,0,1,88.707,0h5.585a11.586,11.586,0,0,1,5.256,1.252Z" transform="translate(-0.003 0)" fill="#2a193b"/>
    <path id="Path_17386" data-name="Path 17386" d="M142.311,161.074a1.777,1.777,0,0,1-1.56,3.162A11.445,11.445,0,0,1,133,153.358v-5.491a.93.93,0,0,1,1.011-.927c.446.04.935.072,1.464.089a1.773,1.773,0,0,1,1.714,1.775V151.5A11.478,11.478,0,0,0,142.311,161.074Z" transform="translate(-53.023 -129.84)" fill="#fff3e4"/>
    <path id="Path_17387" data-name="Path 17387" d="M90.624,340.008a.74.74,0,0,1-.438,1.327,8.675,8.675,0,0,0-8.695,8.676v3.055h-2.56a.931.931,0,0,1-.931-.931v-4.568a8.677,8.677,0,0,1,8.676-8.676,4.815,4.815,0,0,0,2-.432l.029.063Z" transform="translate(-4.422 -299.08)" fill="#743060"/>
    <path id="Path_17388" data-name="Path 17388" d="M275.315,340.008a.74.74,0,0,0,.438,1.327,8.675,8.675,0,0,1,8.695,8.676v3.055h2.56a.931.931,0,0,0,.931-.931v-4.568a8.677,8.677,0,0,0-8.676-8.676,4.815,4.815,0,0,1-2-.432l-.029.063Z" transform="translate(-178.523 -299.08)" fill="#743060"/>
  </g>
</svg>
