<svg id="video-file_1_" data-name="video-file (1)" xmlns="http://www.w3.org/2000/svg" width="10" height="13.963" viewBox="0 0 10 13.963">
  <path id="Path_17437" data-name="Path 17437" d="M8.585,0H3.209a1.289,1.289,0,0,0-.576.136h0l0,0L2.6.156,2.57.17,2.543.186,2.513.2,2.49.219,2.458.242l-.02.014L2.4.282,2.387.3,2.353.325,2.338.339,2.3.372,2.291.385,2.246.432h0L.326,2.593v0l-.035.041-.014.018-.02.026L.237,2.7l-.014.02L.2,2.755l-.01.016-.021.035-.006.011-.022.041,0,.005-.022.046h0A1.287,1.287,0,0,0,0,3.449v9.1a1.417,1.417,0,0,0,1.415,1.415H8.585A1.417,1.417,0,0,0,10,12.548V1.415A1.417,1.417,0,0,0,8.585,0ZM2.48.99V2.608A.182.182,0,0,1,2.3,2.79H.88ZM9.455,12.548a.871.871,0,0,1-.87.87H1.415a.871.871,0,0,1-.87-.87v-9.1a.747.747,0,0,1,.009-.114H2.3a.728.728,0,0,0,.727-.727V.569A.74.74,0,0,1,3.209.545H8.585a.871.871,0,0,1,.87.87Zm0,0" fill="#8f3b76"/>
  <path id="Path_17438" data-name="Path 17438" d="M136.295,191.084a.674.674,0,0,0-.369.6v2.841a.676.676,0,0,0,1.073.548l1.962-1.421a.677.677,0,0,0,0-1.1L137,191.139A.674.674,0,0,0,136.295,191.084Zm2.4,2.023a.128.128,0,0,1-.054.106l-1.962,1.421a.131.131,0,0,1-.208-.106v-2.841a.128.128,0,0,1,.072-.117.137.137,0,0,1,.061-.015.127.127,0,0,1,.076.025L138.641,193A.129.129,0,0,1,138.7,193.107Zm0,0" transform="translate(-132.219 -185.8)" fill="#8f3b76"/>
  <path id="Path_17439" data-name="Path 17439" d="M67.766,149.211a.273.273,0,0,0-.118.367,2.737,2.737,0,0,1,.3,1.262,2.765,2.765,0,1,1-1.7-2.553c.042.018.084.037.126.057a.273.273,0,0,0,.236-.492c-.05-.024-.1-.047-.151-.068a3.311,3.311,0,1,0,1.668,1.545A.273.273,0,0,0,67.766,149.211Zm0,0" transform="translate(-60.184 -143.504)" fill="#8f3b76"/>
  <path id="Path_17440" data-name="Path 17440" d="M250.931,179.333a.28.28,0,0,0,.025.047.264.264,0,0,0,.034.041.285.285,0,0,0,.041.034.281.281,0,0,0,.047.025.293.293,0,0,0,.051.016.28.28,0,0,0,.106,0,.283.283,0,0,0,.051-.016.27.27,0,0,0,.047-.025.277.277,0,0,0,.041-.034.274.274,0,0,0,.08-.193.27.27,0,0,0-.005-.053.28.28,0,0,0-.016-.051.253.253,0,0,0-.025-.047.262.262,0,0,0-.034-.041.259.259,0,0,0-.041-.034.28.28,0,0,0-.047-.025.284.284,0,0,0-.051-.016.267.267,0,0,0-.106,0,.275.275,0,0,0-.1.041.265.265,0,0,0-.041.034.261.261,0,0,0-.034.041.268.268,0,0,0-.025.047.257.257,0,0,0-.016.051.27.27,0,0,0-.005.053.275.275,0,0,0,.005.053A.264.264,0,0,0,250.931,179.333Zm0,0" transform="translate(-244.067 -174.076)" fill="#8f3b76"/>
</svg>
