<svg id="home_2_" data-name="home (2)" xmlns="http://www.w3.org/2000/svg" width="16" height="15.344" viewBox="0 0 16 15.344">
  <g id="Group_448" data-name="Group 448">
    <path id="Path_2321" data-name="Path 2321" d="M15.818,17.552,9.306,11l-.026-.025a1.873,1.873,0,0,0-2.5-.005l-.026.024L.184,17.55a.625.625,0,1,0,.883.885l.5-.5v5.4a2.5,2.5,0,0,0,2.5,2.5h2.25a.625.625,0,0,0,.625-.625V20.118H9.125v5.094a.625.625,0,0,0,.625.625h2.187a2.5,2.5,0,0,0,2.5-2.5.625.625,0,0,0-1.25,0,1.251,1.251,0,0,1-1.25,1.25H10.375V19.493a.625.625,0,0,0-.625-.625H6.313a.625.625,0,0,0-.625.625v5.094H4.063a1.251,1.251,0,0,1-1.25-1.25V16.711q0-.009,0-.019l4.811-4.8a.624.624,0,0,1,.811,0l4.753,4.785v3.534a.625.625,0,0,0,1.25,0V17.936l.494.5a.625.625,0,0,0,.887-.881Z" transform="translate(0 -10.492)" fill="#472d5e"/>
  </g>
</svg>
