<svg xmlns="http://www.w3.org/2000/svg" width="20" height="19.083" viewBox="0 0 20 19.083">
  <g id="house_1_" data-name="house (1)" transform="translate(0 -11.141)">
    <path id="Path_2681" data-name="Path 2681" d="M19.816,19.751,10.4,11.335a.264.264,0,0,0-.053-.041.557.557,0,0,0-.753-.012L.186,19.7a.556.556,0,0,0,.74.831l1.695-1.518v9.815a1.4,1.4,0,0,0,1.4,1.4H6.99A1.313,1.313,0,0,0,8.3,28.912v-4.99a.2.2,0,0,1,.2-.2h3a.2.2,0,0,1,.2.2v4.99a1.313,1.313,0,0,0,1.312,1.312h2.97a1.59,1.59,0,0,0,1.4-1.752V19.064l1.695,1.518a.559.559,0,0,0,.786-.045A.566.566,0,0,0,19.816,19.751ZM16.27,22.5v5.969c0,.4-.2.642-.288.642h-2.97a.2.2,0,0,1-.2-.2V23.922A1.313,1.313,0,0,0,11.5,22.61h-3a1.313,1.313,0,0,0-1.312,1.312v4.99a.2.2,0,0,1-.2.2H4.016a.289.289,0,0,1-.288-.288V18.015l6.244-5.578,6.3,5.631V22.5Z" transform="translate(0 0)" fill="#fff"/>
  </g>
</svg>
