<svg id="instagram" xmlns="http://www.w3.org/2000/svg" width="30" height="30" viewBox="0 0 30 30">
  <path id="Path_2429" data-name="Path 2429" d="M212.742,209.871A2.871,2.871,0,1,1,209.871,207,2.871,2.871,0,0,1,212.742,209.871Zm0,0" transform="translate(-194.871 -194.871)" fill="#8f3b76"/>
  <path id="Path_2430" data-name="Path 2430" d="M149.26,137.47a2.852,2.852,0,0,0-1.635-1.635,4.766,4.766,0,0,0-1.6-.3c-.908-.041-1.181-.05-3.481-.05s-2.572.009-3.481.05a4.769,4.769,0,0,0-1.6.3,2.854,2.854,0,0,0-1.635,1.635,4.767,4.767,0,0,0-.3,1.6c-.041.908-.05,1.181-.05,3.481s.009,2.572.05,3.481a4.766,4.766,0,0,0,.3,1.6,2.852,2.852,0,0,0,1.635,1.635,4.76,4.76,0,0,0,1.6.3c.908.041,1.18.05,3.48.05s2.573-.009,3.481-.05a4.76,4.76,0,0,0,1.6-.3,2.852,2.852,0,0,0,1.635-1.635,4.77,4.77,0,0,0,.3-1.6c.041-.908.05-1.181.05-3.481s-.009-2.572-.05-3.481A4.76,4.76,0,0,0,149.26,137.47Zm-6.714,9.5a4.423,4.423,0,1,1,4.423-4.423A4.423,4.423,0,0,1,142.546,146.972Zm4.6-7.987a1.034,1.034,0,1,1,1.034-1.034A1.034,1.034,0,0,1,147.144,138.985Zm0,0" transform="translate(-127.546 -127.55)" fill="#8f3b76"/>
  <path id="Path_2431" data-name="Path 2431" d="M15,0A15,15,0,1,0,30,15,15,15,0,0,0,15,0Zm8.561,18.551a6.319,6.319,0,0,1-.4,2.091,4.4,4.4,0,0,1-2.519,2.519,6.324,6.324,0,0,1-2.091.4c-.919.042-1.212.052-3.551.052s-2.633-.01-3.551-.052a6.324,6.324,0,0,1-2.091-.4,4.4,4.4,0,0,1-2.519-2.519,6.318,6.318,0,0,1-.4-2.091C6.4,17.633,6.387,17.339,6.387,15s.01-2.633.052-3.551a6.32,6.32,0,0,1,.4-2.091A4.407,4.407,0,0,1,9.358,6.839a6.325,6.325,0,0,1,2.091-.4c.919-.042,1.212-.052,3.551-.052s2.633.01,3.551.052a6.327,6.327,0,0,1,2.091.4,4.405,4.405,0,0,1,2.519,2.519,6.319,6.319,0,0,1,.4,2.091c.042.919.052,1.212.052,3.551S23.6,17.633,23.561,18.551Zm0,0" fill="#8f3b76"/>
</svg>
