<svg xmlns="http://www.w3.org/2000/svg" width="35" height="41.656" viewBox="0 0 35 41.656">
  <g id="location_1_" data-name="location (1)" transform="translate(-25.494 -6)">
    <path id="Path_2844" data-name="Path 2844" d="M155.674,173.174a.316.316,0,0,1-.034,0v1.609a1.481,1.481,0,0,1,1.194-.6l.031,0v-.454a4.807,4.807,0,0,1,.032-.551h-1.223Z" transform="translate(-107.927 -138.631)" fill="#4671c6"/>
    <path id="Path_2845" data-name="Path 2845" d="M220.691,173.175h-1.223a4.8,4.8,0,0,1,.032.551v.454l.031,0a1.481,1.481,0,0,1,1.194.6v-1.609C220.713,173.173,220.7,173.175,220.691,173.175Z" transform="translate(-160.858 -138.632)" fill="#472d5e"/>
    <path id="Path_2846" data-name="Path 2846" d="M167.707,220.343h-5.965a2.475,2.475,0,0,0-2.475,2.475v2.247h10.914v-2.247A2.474,2.474,0,0,0,167.707,220.343Z" transform="translate(-110.935 -177.75)" fill="#fff"/>
    <path id="Path_2847" data-name="Path 2847" d="M177.3,223.122a2.873,2.873,0,0,0,2.868-2.779H174.43A2.873,2.873,0,0,0,177.3,223.122Z" transform="translate(-123.509 -177.75)" fill="#8f3b76"/>
    <path id="Path_2848" data-name="Path 2848" d="M165.206,153.511l-.031,0v-.454a4.852,4.852,0,0,0-9.7,0v.454l-.031,0a1.467,1.467,0,1,0,0,2.934,1.518,1.518,0,0,0,.159-.009,4.862,4.862,0,0,0,9.448,0,1.521,1.521,0,0,0,.159.009,1.467,1.467,0,1,0,0-2.934Z" transform="translate(-106.534 -117.965)" fill="#fff"/>
    <path id="Path_2849" data-name="Path 2849" d="M174.264,182.52a.586.586,0,0,1-.586-.586v-.976a.586.586,0,0,1,1.172,0v.976A.586.586,0,0,1,174.264,182.52Z" transform="translate(-122.886 -144.603)" fill="#472d5e"/>
    <path id="Path_2850" data-name="Path 2850" d="M202.378,182.52a.586.586,0,0,1-.586-.586v-.976a.586.586,0,0,1,1.171,0v.976A.586.586,0,0,1,202.378,182.52Z" transform="translate(-146.2 -144.603)" fill="#472d5e"/>
    <path id="Path_2851" data-name="Path 2851" d="M158.665,158.831a5.163,5.163,0,0,1-4.986-3.707,1.807,1.807,0,0,1-.208-3.588V151.4a5.194,5.194,0,0,1,10.387,0v.138a1.807,1.807,0,0,1-.208,3.588A5.162,5.162,0,0,1,158.665,158.831Zm-4.724-4.4a.341.341,0,0,1,.332.263,4.521,4.521,0,0,0,8.784,0,.344.344,0,0,1,.368-.261,1.17,1.17,0,0,0,.123.007,1.126,1.126,0,1,0,.006-2.251l-.037,0a.341.341,0,0,1-.341-.341V151.4a4.511,4.511,0,0,0-9.022,0v.454a.342.342,0,0,1-.353.341l-.028,0a1.126,1.126,0,1,0,.008,2.251,1.171,1.171,0,0,0,.123-.007l.036,0Z" transform="translate(-104.876 -116.305)" fill="#472d5e"/>
    <path id="Path_2852" data-name="Path 2852" d="M184.958,199.32h-.213a1.393,1.393,0,0,1-.438-.064,1.231,1.231,0,0,1-.49-.3.924.924,0,0,1-.279-.65.341.341,0,1,1,.683,0,.25.25,0,0,0,.081.17.545.545,0,0,0,.218.127.728.728,0,0,0,.226.03h.213a.727.727,0,0,0,.226-.03.546.546,0,0,0,.217-.127.251.251,0,0,0,.081-.17.341.341,0,1,1,.683,0,.925.925,0,0,1-.279.65,1.229,1.229,0,0,1-.49.3A1.4,1.4,0,0,1,184.958,199.32Z" transform="translate(-131.062 -159.196)" fill="#472d5e"/>
    <path id="Path_2853" data-name="Path 2853" d="M159.308,144.139H154.28a.321.321,0,0,1-.321-.321v-1.283a4.377,4.377,0,0,1,4.377-4.377h2.334a1.2,1.2,0,0,1,1.2,1.2v2.214A2.564,2.564,0,0,1,159.308,144.139Z" transform="translate(-106.533 -109.596)" fill="#c7417b"/>
    <path id="Path_2854" data-name="Path 2854" d="M204.806,144.139h-1.928a2.564,2.564,0,0,1-2.564-2.564V139.36a1.2,1.2,0,0,1,1.2-1.2,3.611,3.611,0,0,1,3.611,3.611v2.049A.321.321,0,0,1,204.806,144.139Z" transform="translate(-144.974 -109.596)" fill="#c7417b"/>
    <path id="Path_2855" data-name="Path 2855" d="M180.538,215.409a4.864,4.864,0,0,1-2.2-.523v.84a2.2,2.2,0,0,0,4.4,0v-.84A4.864,4.864,0,0,1,180.538,215.409Z" transform="translate(-126.749 -173.225)" fill="#fff"/>
    <path id="Path_2856" data-name="Path 2856" d="M168.524,219.222H157.609a.342.342,0,0,1-.341-.341v-2.247a2.819,2.819,0,0,1,2.816-2.816h.439v-.591a.341.341,0,0,1,.5-.3,4.556,4.556,0,0,0,4.094,0,.341.341,0,0,1,.5.3v.59h.441a2.819,2.819,0,0,1,2.816,2.816v2.247A.342.342,0,0,1,168.524,219.222Zm-10.573-.683h10.232v-1.905a2.136,2.136,0,0,0-2.133-2.133h-.784a.342.342,0,0,1-.341-.355c0-.026,0-.052,0-.078v-.316a5.259,5.259,0,0,1-3.72,0v.316c0,.026,0,.052,0,.078a.342.342,0,0,1-.341.355h-.783a2.136,2.136,0,0,0-2.133,2.133v1.905Z" transform="translate(-109.277 -171.565)" fill="#472d5e"/>
    <path id="Path_2857" data-name="Path 2857" d="M157.65,142.82h-5.028a.663.663,0,0,1-.662-.662v-1.283a4.724,4.724,0,0,1,4.719-4.719h2.334a1.546,1.546,0,0,1,1.544,1.544v2.214A2.909,2.909,0,0,1,157.65,142.82Zm-5.007-.683h5.007a2.226,2.226,0,0,0,2.223-2.223V137.7a.862.862,0,0,0-.861-.861h-2.334a4.041,4.041,0,0,0-4.036,4.036v1.262Z" transform="translate(-104.876 -107.936)" fill="#472d5e"/>
    <path id="Path_2858" data-name="Path 2858" d="M203.146,142.821h-1.928a2.909,2.909,0,0,1-2.906-2.906V137.7a1.545,1.545,0,0,1,1.544-1.544,3.957,3.957,0,0,1,3.953,3.953v2.049A.663.663,0,0,1,203.146,142.821Zm-3.291-5.981a.862.862,0,0,0-.861.861v2.214a2.225,2.225,0,0,0,2.223,2.223h1.907V140.11A3.274,3.274,0,0,0,199.856,136.84Z" transform="translate(-143.314 -107.936)" fill="#472d5e"/>
    <path id="Path_2859" data-name="Path 2859" d="M29.207,173.047a.316.316,0,0,1-.034,0v1.609a1.481,1.481,0,0,1,1.194-.6l.031,0V173.6a4.806,4.806,0,0,1,.032-.551H29.207Z" transform="translate(-3.051 -138.526)" fill="#472d5e"/>
    <path id="Path_2860" data-name="Path 2860" d="M94.224,173.048H93a4.8,4.8,0,0,1,.032.551v.454l.031,0a1.481,1.481,0,0,1,1.194.6v-1.609C94.246,173.046,94.235,173.048,94.224,173.048Z" transform="translate(-55.982 -138.527)" fill="#4671c6"/>
    <path id="Path_2861" data-name="Path 2861" d="M41.241,220.216H35.276a2.475,2.475,0,0,0-2.475,2.475v2.247H43.715v-2.247A2.475,2.475,0,0,0,41.241,220.216Z" transform="translate(-6.06 -177.645)" fill="#fff"/>
    <path id="Path_2862" data-name="Path 2862" d="M50.831,223a2.873,2.873,0,0,0,2.868-2.779H47.963A2.873,2.873,0,0,0,50.831,223Z" transform="translate(-18.633 -177.645)" fill="#8f3b76"/>
    <path id="Path_2863" data-name="Path 2863" d="M38.74,153.384l-.031,0v-.454a4.852,4.852,0,0,0-9.7,0v.454l-.031,0a1.467,1.467,0,1,0,0,2.934,1.523,1.523,0,0,0,.159-.009,4.862,4.862,0,0,0,9.448,0,1.525,1.525,0,0,0,.159.009,1.467,1.467,0,1,0,0-2.934Z" transform="translate(-1.659 -117.86)" fill="#fff"/>
    <path id="Path_2864" data-name="Path 2864" d="M47.8,182.393a.586.586,0,0,1-.586-.586v-.976a.586.586,0,0,1,1.171,0v.976A.586.586,0,0,1,47.8,182.393Z" transform="translate(-18.01 -144.498)" fill="#472d5e"/>
    <path id="Path_2865" data-name="Path 2865" d="M75.912,182.393a.586.586,0,0,1-.586-.586v-.976a.586.586,0,0,1,1.171,0v.976A.587.587,0,0,1,75.912,182.393Z" transform="translate(-41.325 -144.498)" fill="#472d5e"/>
    <path id="Path_2866" data-name="Path 2866" d="M32.2,158.7A5.162,5.162,0,0,1,27.213,155a1.807,1.807,0,0,1-.208-3.588v-.138a5.194,5.194,0,0,1,10.387,0v.138A1.807,1.807,0,0,1,37.184,155,5.162,5.162,0,0,1,32.2,158.7Zm-4.724-4.4a.341.341,0,0,1,.332.263,4.521,4.521,0,0,0,8.784,0,.345.345,0,0,1,.368-.261,1.174,1.174,0,0,0,.123.007,1.126,1.126,0,1,0,.005-2.251l-.036,0a.341.341,0,0,1-.341-.341v-.454a4.511,4.511,0,0,0-9.022,0v.454a.342.342,0,0,1-.1.243.35.35,0,0,1-.245.1l-.033,0a1.126,1.126,0,1,0,.008,2.251,1.174,1.174,0,0,0,.123-.007Z" transform="translate(0 -116.2)" fill="#472d5e"/>
    <path id="Path_2867" data-name="Path 2867" d="M58.492,199.193h-.213a1.393,1.393,0,0,1-.438-.064,1.228,1.228,0,0,1-.49-.3.924.924,0,0,1-.279-.65.341.341,0,1,1,.683,0,.249.249,0,0,0,.081.169.543.543,0,0,0,.218.127.728.728,0,0,0,.226.03h.213a.727.727,0,0,0,.226-.03.544.544,0,0,0,.217-.127.25.25,0,0,0,.081-.17.341.341,0,1,1,.683,0,.924.924,0,0,1-.279.65,1.226,1.226,0,0,1-.49.3A1.4,1.4,0,0,1,58.492,199.193Z" transform="translate(-26.187 -159.09)" fill="#472d5e"/>
    <path id="Path_2868" data-name="Path 2868" d="M32.842,144.012H27.814a.321.321,0,0,1-.321-.321v-1.283a4.377,4.377,0,0,1,4.377-4.377H34.2a1.2,1.2,0,0,1,1.2,1.2v2.214A2.564,2.564,0,0,1,32.842,144.012Z" transform="translate(-1.658 -109.49)" fill="#c7417b"/>
    <path id="Path_2869" data-name="Path 2869" d="M78.339,144.012H76.41a2.564,2.564,0,0,1-2.564-2.564v-2.214a1.2,1.2,0,0,1,1.2-1.2,3.611,3.611,0,0,1,3.611,3.611v2.049A.321.321,0,0,1,78.339,144.012Z" transform="translate(-40.097 -109.49)" fill="#c7417b"/>
    <path id="Path_2870" data-name="Path 2870" d="M54.072,215.282a4.864,4.864,0,0,1-2.2-.523v.84a2.2,2.2,0,0,0,4.4,0v-.84A4.865,4.865,0,0,1,54.072,215.282Z" transform="translate(-21.873 -173.119)" fill="#fff"/>
    <path id="Path_2871" data-name="Path 2871" d="M42.057,219.095H31.142a.342.342,0,0,1-.341-.341v-2.247a2.819,2.819,0,0,1,2.816-2.816h.439V213.1a.341.341,0,0,1,.5-.3,4.556,4.556,0,0,0,4.094,0,.342.342,0,0,1,.5.3v.59h.441a2.819,2.819,0,0,1,2.816,2.816v2.247a.341.341,0,0,1-.341.341Zm-10.573-.683H41.715v-1.905a2.136,2.136,0,0,0-2.133-2.133H38.8a.342.342,0,0,1-.341-.355c0-.026,0-.052,0-.078v-.316a5.259,5.259,0,0,1-3.72,0v.316c0,.026,0,.052,0,.078a.342.342,0,0,1-.341.355h-.783a2.136,2.136,0,0,0-2.133,2.133v1.905Z" transform="translate(-4.401 -171.46)" fill="#472d5e"/>
    <path id="Path_2872" data-name="Path 2872" d="M31.184,142.693H26.156a.663.663,0,0,1-.662-.662v-1.283a4.724,4.724,0,0,1,4.719-4.719h2.334a1.545,1.545,0,0,1,1.544,1.543v2.214a2.909,2.909,0,0,1-2.906,2.906Zm-5.007-.683h5.007a2.226,2.226,0,0,0,2.223-2.223v-2.214a.862.862,0,0,0-.861-.861H30.213a4.041,4.041,0,0,0-4.036,4.036v1.262Z" transform="translate(0 -107.83)" fill="#472d5e"/>
    <path id="Path_2873" data-name="Path 2873" d="M76.68,142.694H74.752a2.909,2.909,0,0,1-2.906-2.906v-2.214a1.545,1.545,0,0,1,1.544-1.543,3.957,3.957,0,0,1,3.953,3.953v2.049A.663.663,0,0,1,76.68,142.694Zm-3.291-5.981a.862.862,0,0,0-.861.861v2.214a2.225,2.225,0,0,0,2.223,2.223h1.907v-2.028A3.274,3.274,0,0,0,73.39,136.713Z" transform="translate(-38.439 -107.831)" fill="#472d5e"/>
    <path id="Path_2874" data-name="Path 2874" d="M93.869,209.05H85.456a3.488,3.488,0,0,0-3.49,3.485V215.7H97.358v-3.164A3.487,3.487,0,0,0,93.869,209.05Z" transform="translate(-46.831 -168.384)" fill="#fff"/>
    <path id="Path_2875" data-name="Path 2875" d="M110.192,209.054c-.053,0-.107,0-.161,0h-8.414c-.054,0-.108,0-.161,0a2.038,2.038,0,0,0,.032.245,1.257,1.257,0,0,0,.048.17h0l0,.009a1.267,1.267,0,0,0,.138.275,4.908,4.908,0,0,0,1.6,1.781h0a4.224,4.224,0,0,0,5.1,0h0a4.91,4.91,0,0,0,1.6-1.781,1.267,1.267,0,0,0,.138-.275l0-.009h0a1.285,1.285,0,0,0,.048-.17,2.011,2.011,0,0,0,.032-.245Z" transform="translate(-62.994 -168.384)" fill="#8f3b76"/>
    <path id="Path_2876" data-name="Path 2876" d="M111.963,201.289a6.71,6.71,0,0,1-3.106-.758v1.324a.685.685,0,0,0,.017.145h0a.7.7,0,0,0,.045.137l.008.017c.009.018.018.036.028.053s.021.033.032.049.011.018.018.026l.441.56a3.132,3.132,0,0,0,1.738,1.123c.093.022.188.04.288.055a3.145,3.145,0,0,0,2.936-1.205l.643-.828a.69.69,0,0,0,.015-.135v-1.319a6.709,6.709,0,0,1-3.1.756Z" transform="translate(-69.131 -161.32)" fill="#fff"/>
    <path id="Path_2877" data-name="Path 2877" d="M91.179,116.278l-.042,0v-.625a6.688,6.688,0,0,0-13.375,0v.625l-.042,0a2.019,2.019,0,1,0,0,4.038,2.1,2.1,0,0,0,.219-.012,6.7,6.7,0,0,0,13.022,0,2.064,2.064,0,0,0,.219.012,2.019,2.019,0,1,0,0-4.038Z" transform="translate(-41.617 -85.446)" fill="#fff"/>
    <g id="Group_616" data-name="Group 616" transform="translate(33.72 23.249)">
      <path id="Path_2878" data-name="Path 2878" d="M82.792,124.1a6.985,6.985,0,0,1-6.773-5.1,2.359,2.359,0,0,1-.256-4.7V114a7.029,7.029,0,0,1,14.058,0v.3a2.359,2.359,0,0,1-.256,4.7,6.985,6.985,0,0,1-6.773,5.1ZM76.281,118.3a.342.342,0,0,1,.332.263,6.362,6.362,0,0,0,12.357,0,.343.343,0,0,1,.368-.261,1.758,1.758,0,0,0,.184.01,1.678,1.678,0,1,0,0-3.355l-.047,0a.341.341,0,0,1-.341-.341V114a6.347,6.347,0,0,0-12.692,0v.625a.342.342,0,0,1-.1.243.349.349,0,0,1-.244.1l-.039,0h0a1.678,1.678,0,1,0,0,3.355,1.713,1.713,0,0,0,.184-.01Z" transform="translate(-73.68 -107.037)" fill="#3762cc"/>
      <path id="Path_2879" data-name="Path 2879" d="M119.207,180.489a1.872,1.872,0,0,1-.55-.075,1.663,1.663,0,0,1-.7-.408,1.2,1.2,0,0,1-.366-.847.341.341,0,0,1,.683,0,.521.521,0,0,0,.168.366.983.983,0,0,0,.412.236,1.39,1.39,0,0,0,.7,0,.978.978,0,0,0,.412-.236.521.521,0,0,0,.168-.366.341.341,0,0,1,.683,0,1.2,1.2,0,0,1-.366.847,1.663,1.663,0,0,1-.7.408A1.861,1.861,0,0,1,119.207,180.489Z" transform="translate(-110.096 -166.563)" fill="#472d5e"/>
      <path id="Path_2880" data-name="Path 2880" d="M103.751,158.391a.808.808,0,0,1-.807-.806v-1.344a.807.807,0,0,1,1.615,0v1.344A.807.807,0,0,1,103.751,158.391Z" transform="translate(-97.948 -147.172)" fill="#472d5e"/>
      <path id="Path_2881" data-name="Path 2881" d="M142.5,158.391a.808.808,0,0,1-.807-.806v-1.344a.807.807,0,0,1,1.615,0v1.344A.808.808,0,0,1,142.5,158.391Z" transform="translate(-130.08 -147.172)" fill="#472d5e"/>
      <path id="Path_2882" data-name="Path 2882" d="M82.792,124.1a6.985,6.985,0,0,1-6.773-5.1,2.359,2.359,0,0,1-.256-4.7V114a7.029,7.029,0,0,1,14.058,0v.3a2.359,2.359,0,0,1-.256,4.7,6.985,6.985,0,0,1-6.773,5.1ZM76.281,118.3a.342.342,0,0,1,.332.263,6.362,6.362,0,0,0,12.357,0,.343.343,0,0,1,.368-.261,1.758,1.758,0,0,0,.184.01,1.678,1.678,0,1,0,0-3.355l-.047,0a.341.341,0,0,1-.341-.341V114a6.347,6.347,0,0,0-12.692,0v.625a.342.342,0,0,1-.1.243.349.349,0,0,1-.244.1l-.039,0h0a1.678,1.678,0,1,0,0,3.355,1.713,1.713,0,0,0,.184-.01Z" transform="translate(-73.68 -107.037)" fill="#472d5e"/>
    </g>
    <path id="Path_2883" data-name="Path 2883" d="M82.885,96.052a7.632,7.632,0,0,0-2.823-.992,9.224,9.224,0,0,0-5.367,0,9.245,9.245,0,0,1-4.1.5.225.225,0,0,0-.238.283,8.234,8.234,0,0,0,.869,2,.226.226,0,0,1-.11.325,11.309,11.309,0,0,1-1.691.526.225.225,0,0,0-.139.342c.745,1.145,4.033,5.383,11.049,3.841.125-.027.249-.062.371-.1a4.416,4.416,0,0,0,2.662-2.321l.512-1.076A2.576,2.576,0,0,0,82.885,96.052Z" transform="translate(-36.289 -73.529)" fill="#c7417b"/>
    <path id="Path_2884" data-name="Path 2884" d="M75.731,101.9a9.8,9.8,0,0,1-8.384-4.334.566.566,0,0,1,.35-.861,11.045,11.045,0,0,0,1.514-.46,8.572,8.572,0,0,1-.836-1.967.567.567,0,0,1,.6-.713A9.026,9.026,0,0,0,72.9,93.09a.349.349,0,0,1,.047-.016,9.65,9.65,0,0,1,5.533-.005A7.947,7.947,0,0,1,81.4,94.1a2.934,2.934,0,0,1,1.135,3.769l-.512,1.076a4.769,4.769,0,0,1-2.868,2.5c-.143.045-.273.08-.4.108A14.065,14.065,0,0,1,75.731,101.9Zm-7.719-4.567c.938,1.368,4.105,4.981,10.6,3.555.107-.024.219-.054.343-.093a4.085,4.085,0,0,0,2.455-2.142l.512-1.076a2.247,2.247,0,0,0-.865-2.887,7.269,7.269,0,0,0-2.7-.948.348.348,0,0,1-.062-.015,8.952,8.952,0,0,0-5.149,0,9.579,9.579,0,0,1-4.067.528,8.057,8.057,0,0,0,.786,1.754.567.567,0,0,1-.277.818,11.649,11.649,0,0,1-1.577.5Z" transform="translate(-34.632 -71.871)" fill="#472d5e"/>
    <path id="Path_2885" data-name="Path 2885" d="M153.017,116.416a1.088,1.088,0,0,0-1.178-.378l-.376.114a2.593,2.593,0,0,1-.161.714h0c-.025.066-.052.132-.083.2l-.512,1.076c-.038.079-.078.157-.121.234l-.007.012q-.062.111-.13.218h0a3.863,3.863,0,0,0,1.575,2.639l1.118.8.042,0a2.048,2.048,0,0,1,.975.246l.142-1.039A6.5,6.5,0,0,0,153.017,116.416Z" transform="translate(-103.622 -91.213)" fill="#c7417b"/>
    <path id="Path_2886" data-name="Path 2886" d="M152.5,120.978a.341.341,0,0,1-.162-.041,1.719,1.719,0,0,0-.814-.2l-.042,0a.341.341,0,0,1-.2-.064l-1.118-.8a4.222,4.222,0,0,1-1.714-2.872.341.341,0,0,1,.05-.227c.042-.066.082-.133.12-.2s.083-.153.118-.227l.512-1.076c.027-.056.05-.113.072-.171a2.268,2.268,0,0,0,.14-.622.341.341,0,0,1,.242-.3l.376-.114a1.436,1.436,0,0,1,1.547.5,6.881,6.881,0,0,1,1.353,5.09l-.142,1.039a.341.341,0,0,1-.338.3Zm-.91-.928a2.412,2.412,0,0,1,.631.1l.082-.6a6.2,6.2,0,0,0-1.218-4.582h0a.75.75,0,0,0-.808-.259l-.163.05a2.954,2.954,0,0,1-.153.573c-.028.075-.059.15-.094.224l-.512,1.076c-.04.085-.084.169-.129.251l-.009.015c-.023.041-.047.083-.071.124a3.534,3.534,0,0,0,1.418,2.289Z" transform="translate(-101.963 -89.559)" fill="#472d5e"/>
    <path id="Path_2887" data-name="Path 2887" d="M79.634,135.988a2.044,2.044,0,0,1,1.184-.377l.042,0v-.625a6.565,6.565,0,0,1,.216-1.672,9.419,9.419,0,0,1-1.462-.966,6.491,6.491,0,0,0-.139,2.468Z" transform="translate(-44.715 -104.779)" fill="#c7417b"/>
    <path id="Path_2888" data-name="Path 2888" d="M77.972,134.671a.342.342,0,0,1-.338-.3l-.16-1.17a6.808,6.808,0,0,1,.147-2.6.342.342,0,0,1,.545-.183,9.11,9.11,0,0,0,1.409.931.341.341,0,0,1,.169.388,6.233,6.233,0,0,0-.2,1.585v.626a.341.341,0,0,1-.1.244.329.329,0,0,1-.247.1l-.035,0h0a1.7,1.7,0,0,0-.984.314A.341.341,0,0,1,77.972,134.671Zm.2-3.382a6.109,6.109,0,0,0-.025,1.824l.093.679a2.365,2.365,0,0,1,.613-.162v-.3a6.926,6.926,0,0,1,.164-1.5A9.9,9.9,0,0,1,78.176,131.29Z" transform="translate(-43.054 -103.121)" fill="#472d5e"/>
    <path id="Path_2889" data-name="Path 2889" d="M95.7,207.318H80.307a.342.342,0,0,1-.341-.341v-3.164a3.833,3.833,0,0,1,3.831-3.827h.76v-1.113a.341.341,0,0,1,.5-.3,6.408,6.408,0,0,0,2.948.719,6.323,6.323,0,0,0,2.945-.717.341.341,0,0,1,.5.3v1.112h.761a3.833,3.833,0,0,1,3.831,3.827v3.164A.341.341,0,0,1,95.7,207.318Zm-15.051-.683h14.71v-2.823a3.15,3.15,0,0,0-3.148-3.144H91.093a.342.342,0,0,1-.335-.408.364.364,0,0,0,.008-.068v-.781a7.092,7.092,0,0,1-5.526,0v.787a.325.325,0,0,0,.008.063.341.341,0,0,1-.335.409H83.8a3.15,3.15,0,0,0-3.148,3.144v2.823Z" transform="translate(-45.172 -159.662)" fill="#472d5e"/>
    <path id="Path_2890" data-name="Path 2890" d="M104.581,8h-9a1.247,1.247,0,0,0-1.247,1.247v8.442a1.247,1.247,0,0,0,1.247,1.247h2.337l1.716,2.692a.554.554,0,0,0,.923.019l1.887-2.711h2.139a1.247,1.247,0,0,0,1.247-1.247V9.247A1.248,1.248,0,0,0,104.581,8Z" transform="translate(-57.087 -1.659)" fill="#fff"/>
    <path id="Path_2891" data-name="Path 2891" d="M98.442,20.568h-.018a.893.893,0,0,1-.737-.414l-1.615-2.534h-2.15a1.591,1.591,0,0,1-1.589-1.589V7.589A1.591,1.591,0,0,1,93.921,6h9a1.591,1.591,0,0,1,1.589,1.589v8.442a1.591,1.591,0,0,1-1.589,1.589h-1.96l-1.785,2.565a.894.894,0,0,1-.735.384ZM93.921,6.683a.907.907,0,0,0-.906.906v8.442a.907.907,0,0,0,.906.906h2.337a.342.342,0,0,1,.288.158l1.716,2.692a.213.213,0,0,0,.354.007l1.887-2.711a.342.342,0,0,1,.28-.146h2.139a.907.907,0,0,0,.906-.906V7.589a.907.907,0,0,0-.906-.906Z" transform="translate(-55.427)" fill="#472d5e"/>
    <path id="Path_2892" data-name="Path 2892" d="M111.529,26.087h0a2.482,2.482,0,0,0,.8-1.091,2.638,2.638,0,0,0-1.218-3.322,2.126,2.126,0,0,0-2.4.42.347.347,0,0,1-.469.009,2.127,2.127,0,0,0-2.328-.4,2.616,2.616,0,0,0-1.265,3.287,2.486,2.486,0,0,0,.789,1.1h0L108,28.2a.7.7,0,0,0,.869.006Z" transform="translate(-65.506 -12.831)" fill="#c7417b"/>
  </g>
</svg>
