<svg xmlns="http://www.w3.org/2000/svg" width="16" height="16" viewBox="0 0 16 16">
  <g id="whatsapp" transform="translate(-8 -8)">
    <path id="Path_17018" data-name="Path 17018" d="M19.671,17.538l-.006.05c-1.466-.73-1.619-.828-1.809-.544-.131.2-.514.643-.629.775s-.233.14-.431.05a5.411,5.411,0,0,1-1.6-.99,6.072,6.072,0,0,1-1.107-1.38c-.2-.337.213-.385.585-1.089a.363.363,0,0,0-.017-.349c-.05-.1-.448-1.08-.615-1.471s-.325-.34-.448-.34a.994.994,0,0,0-.912.229c-1.076,1.183-.805,2.4.116,3.7,1.809,2.368,2.773,2.8,4.536,3.409a2.767,2.767,0,0,0,1.253.081,2.052,2.052,0,0,0,1.344-.951,1.65,1.65,0,0,0,.12-.95c-.047-.09-.178-.14-.378-.23Z" fill="#8f3b76"/>
    <path id="Path_17019" data-name="Path 17019" d="M21.68,10.3a8,8,0,0,0-13.613,5.63A7.892,7.892,0,0,0,9.13,19.892L8,24l4.223-1.1A7.981,7.981,0,0,0,24,15.933a7.863,7.863,0,0,0-2.33-5.607Zm.988,5.612A6.637,6.637,0,0,1,12.66,21.58l-.24-.143-2.5.65.67-2.43-.159-.25a6.612,6.612,0,0,1,10.3-8.156,6.524,6.524,0,0,1,1.939,4.66Z" fill="#8f3b76"/>
  </g>
</svg>
