<svg xmlns="http://www.w3.org/2000/svg" width="15" height="11.903" viewBox="0 0 15 11.903">
  <g id="add-contact" transform="translate(0 -48)">
    <path id="Path_17606" data-name="Path 17606" d="M57.016,52.032A2.016,2.016,0,1,0,55,50.016,2.018,2.018,0,0,0,57.016,52.032Zm0-3.548a1.532,1.532,0,1,1-1.532,1.532A1.534,1.534,0,0,1,57.016,48.484Z" transform="translate(-53.226)" fill="#8f3b76"/>
    <path id="Path_17607" data-name="Path 17607" d="M222.016,52.032A2.016,2.016,0,1,0,220,50.016,2.018,2.018,0,0,0,222.016,52.032Zm0-3.548a1.532,1.532,0,1,1-1.532,1.532A1.534,1.534,0,0,1,222.016,48.484Z" transform="translate(-212.903)" fill="#8f3b76"/>
    <path id="Path_17608" data-name="Path 17608" d="M218.341,203.77a.242.242,0,0,0,.383-.3,3.791,3.791,0,0,0-5.12-.827.242.242,0,1,0,.271.4,3.308,3.308,0,0,1,4.466.722Z" transform="translate(-206.61 -149.032)" fill="#8f3b76"/>
    <path id="Path_17609" data-name="Path 17609" d="M3.79,202A3.8,3.8,0,0,0,0,205.79a.242.242,0,0,0,.484,0,3.306,3.306,0,1,1,6.613,0,.242.242,0,0,0,.484,0A3.8,3.8,0,0,0,3.79,202Z" transform="translate(0 -149.032)" fill="#8f3b76"/>
    <path id="Path_17610" data-name="Path 17610" d="M322.339,272a2.339,2.339,0,1,0,2.339,2.339A2.341,2.341,0,0,0,322.339,272Zm0,4.194a1.855,1.855,0,1,1,1.855-1.855A1.857,1.857,0,0,1,322.339,276.194Z" transform="translate(-309.677 -216.774)" fill="#8f3b76"/>
    <path id="Path_17611" data-name="Path 17611" d="M361.855,312.806h-.564v-.565a.242.242,0,0,0-.484,0v.565h-.565a.242.242,0,1,0,0,.484h.565v.565a.242.242,0,0,0,.484,0v-.565h.564a.242.242,0,1,0,0-.484Z" transform="translate(-348.387 -255.484)" fill="#8f3b76"/>
  </g>
</svg>
