<svg xmlns="http://www.w3.org/2000/svg" width="40" height="47.607" viewBox="0 0 40 47.607">
  <g id="location_1_" data-name="location (1)" transform="translate(-25.494 -6)">
    <path id="Path_2844" data-name="Path 2844" d="M155.679,173.175a.361.361,0,0,1-.039,0v1.838a1.693,1.693,0,0,1,1.364-.688l.035,0V173.8a5.494,5.494,0,0,1,.037-.629h-1.4Z" transform="translate(-104.753 -134.554)" fill="#4671c6"/>
    <path id="Path_2845" data-name="Path 2845" d="M220.865,173.176h-1.4a5.494,5.494,0,0,1,.037.629v.519l.035,0a1.693,1.693,0,0,1,1.364.688v-1.838C220.891,173.173,220.878,173.176,220.865,173.176Z" transform="translate(-156.128 -134.555)" fill="#472d5e"/>
    <path id="Path_2846" data-name="Path 2846" d="M168.913,220.343H162.1a2.828,2.828,0,0,0-2.828,2.828v2.568h12.474v-2.568A2.828,2.828,0,0,0,168.913,220.343Z" transform="translate(-107.672 -172.522)" fill="#fff"/>
    <path id="Path_2847" data-name="Path 2847" d="M177.708,223.519a3.284,3.284,0,0,0,3.278-3.176H174.43A3.284,3.284,0,0,0,177.708,223.519Z" transform="translate(-119.877 -172.522)" fill="#8f3b76"/>
    <path id="Path_2848" data-name="Path 2848" d="M166.813,154.263l-.035,0v-.519a5.546,5.546,0,0,0-11.091,0v.519l-.035,0a1.677,1.677,0,1,0,0,3.353,1.736,1.736,0,0,0,.181-.01,5.557,5.557,0,0,0,10.8,0,1.74,1.74,0,0,0,.181.01,1.677,1.677,0,1,0,0-3.353Z" transform="translate(-103.401 -114.496)" fill="#fff"/>
    <path id="Path_2849" data-name="Path 2849" d="M174.347,182.826a.67.67,0,0,1-.669-.669v-1.116a.669.669,0,0,1,1.339,0v1.116A.67.67,0,0,1,174.347,182.826Z" transform="translate(-119.272 -140.35)" fill="#472d5e"/>
    <path id="Path_2850" data-name="Path 2850" d="M202.461,182.826a.67.67,0,0,1-.669-.669v-1.116a.669.669,0,0,1,1.339,0v1.116A.67.67,0,0,1,202.461,182.826Z" transform="translate(-141.9 -140.35)" fill="#472d5e"/>
    <path id="Path_2851" data-name="Path 2851" d="M159.623,160.628a5.9,5.9,0,0,1-5.7-4.236,2.065,2.065,0,0,1-.238-4.1v-.157a5.936,5.936,0,0,1,11.871,0v.157a2.065,2.065,0,0,1-.238,4.1A5.9,5.9,0,0,1,159.623,160.628Zm-5.4-5.023a.39.39,0,0,1,.38.3,5.166,5.166,0,0,0,10.038,0,.393.393,0,0,1,.421-.3,1.337,1.337,0,0,0,.141.008,1.287,1.287,0,1,0,.007-2.573l-.042,0a.39.39,0,0,1-.39-.39v-.519a5.155,5.155,0,0,0-10.31,0v.519a.391.391,0,0,1-.4.39l-.032,0a1.287,1.287,0,1,0,.009,2.573,1.338,1.338,0,0,0,.141-.008l.041,0Z" transform="translate(-101.791 -112.885)" fill="#472d5e"/>
    <path id="Path_2852" data-name="Path 2852" d="M185.161,199.513h-.243a1.592,1.592,0,0,1-.5-.073,1.407,1.407,0,0,1-.56-.337,1.056,1.056,0,0,1-.319-.743.39.39,0,0,1,.78,0,.286.286,0,0,0,.093.194.624.624,0,0,0,.249.145.833.833,0,0,0,.258.034h.243a.831.831,0,0,0,.258-.035.624.624,0,0,0,.248-.145.286.286,0,0,0,.093-.194.39.39,0,0,1,.78,0,1.057,1.057,0,0,1-.319.743,1.4,1.4,0,0,1-.56.337A1.594,1.594,0,0,1,185.161,199.513Z" transform="translate(-127.208 -154.514)" fill="#472d5e"/>
    <path id="Path_2853" data-name="Path 2853" d="M160.072,144.993h-5.747a.366.366,0,0,1-.366-.366v-1.466a5,5,0,0,1,5-5h2.667A1.374,1.374,0,0,1,163,139.532v2.531A2.93,2.93,0,0,1,160.072,144.993Z" transform="translate(-103.4 -106.373)" fill="#c7417b"/>
    <path id="Path_2854" data-name="Path 2854" d="M205.448,144.993h-2.2a2.931,2.931,0,0,1-2.931-2.931v-2.531a1.374,1.374,0,0,1,1.374-1.374,4.127,4.127,0,0,1,4.127,4.127v2.342A.367.367,0,0,1,205.448,144.993Z" transform="translate(-140.71 -106.373)" fill="#c7417b"/>
    <path id="Path_2855" data-name="Path 2855" d="M180.852,215.484a5.559,5.559,0,0,1-2.516-.6v.96a2.516,2.516,0,0,0,5.031,0v-.96A5.558,5.558,0,0,1,180.852,215.484Z" transform="translate(-123.021 -168.13)" fill="#fff"/>
    <path id="Path_2856" data-name="Path 2856" d="M170.132,220.127H157.658a.39.39,0,0,1-.39-.39v-2.568a3.222,3.222,0,0,1,3.218-3.218h.5v-.675a.39.39,0,0,1,.566-.348,5.207,5.207,0,0,0,4.679,0,.39.39,0,0,1,.566.348v.674h.5a3.222,3.222,0,0,1,3.218,3.218v2.568A.39.39,0,0,1,170.132,220.127Zm-12.083-.78h11.693v-2.177a2.441,2.441,0,0,0-2.438-2.438h-.9a.39.39,0,0,1-.39-.406c0-.029,0-.059,0-.089v-.361a6.01,6.01,0,0,1-4.251,0v.361c0,.03,0,.06,0,.089a.39.39,0,0,1-.39.406h-.895a2.441,2.441,0,0,0-2.438,2.438v2.177Z" transform="translate(-106.064 -166.52)" fill="#472d5e"/>
    <path id="Path_2857" data-name="Path 2857" d="M158.463,143.772h-5.747a.757.757,0,0,1-.757-.757v-1.466a5.4,5.4,0,0,1,5.393-5.393h2.667a1.766,1.766,0,0,1,1.764,1.764v2.531A3.325,3.325,0,0,1,158.463,143.772Zm-5.723-.78h5.723A2.543,2.543,0,0,0,161,140.451V137.92a.985.985,0,0,0-.984-.984h-2.667a4.618,4.618,0,0,0-4.613,4.613v1.442Z" transform="translate(-101.791 -104.761)" fill="#472d5e"/>
    <path id="Path_2858" data-name="Path 2858" d="M203.837,143.773h-2.2a3.325,3.325,0,0,1-3.321-3.321v-2.531a1.766,1.766,0,0,1,1.764-1.764,4.523,4.523,0,0,1,4.517,4.517v2.342a.757.757,0,0,1-.757.757Zm-3.761-6.835a.985.985,0,0,0-.984.984v2.531a2.543,2.543,0,0,0,2.541,2.541h2.18v-2.318A3.741,3.741,0,0,0,200.076,136.937Z" transform="translate(-139.099 -104.762)" fill="#472d5e"/>
    <path id="Path_2859" data-name="Path 2859" d="M29.212,173.048a.362.362,0,0,1-.039,0v1.838a1.693,1.693,0,0,1,1.364-.688l.035,0v-.519a5.493,5.493,0,0,1,.037-.629h-1.4Z" transform="translate(-2.961 -134.452)" fill="#472d5e"/>
    <path id="Path_2860" data-name="Path 2860" d="M94.4,173.049H93a5.49,5.49,0,0,1,.037.629v.519l.035,0a1.693,1.693,0,0,1,1.364.688v-1.838C94.424,173.046,94.411,173.049,94.4,173.049Z" transform="translate(-54.336 -134.453)" fill="#4671c6"/>
    <path id="Path_2861" data-name="Path 2861" d="M42.446,220.216H35.629a2.828,2.828,0,0,0-2.828,2.828v2.568H45.275v-2.568A2.828,2.828,0,0,0,42.446,220.216Z" transform="translate(-5.881 -172.42)" fill="#fff"/>
    <path id="Path_2862" data-name="Path 2862" d="M51.241,223.392a3.284,3.284,0,0,0,3.278-3.176H47.963A3.284,3.284,0,0,0,51.241,223.392Z" transform="translate(-18.085 -172.42)" fill="#8f3b76"/>
    <path id="Path_2863" data-name="Path 2863" d="M40.347,154.136l-.035,0v-.519a5.546,5.546,0,0,0-11.091,0v.519l-.035,0a1.677,1.677,0,1,0,0,3.353,1.741,1.741,0,0,0,.181-.01,5.557,5.557,0,0,0,10.8,0,1.744,1.744,0,0,0,.181.01,1.677,1.677,0,1,0,0-3.353Z" transform="translate(-1.61 -114.393)" fill="#fff"/>
    <path id="Path_2864" data-name="Path 2864" d="M47.881,182.7a.67.67,0,0,1-.669-.669v-1.116a.669.669,0,1,1,1.339,0v1.116A.67.67,0,0,1,47.881,182.7Z" transform="translate(-17.481 -140.248)" fill="#472d5e"/>
    <path id="Path_2865" data-name="Path 2865" d="M76,182.7a.67.67,0,0,1-.669-.669v-1.116a.669.669,0,1,1,1.339,0v1.116A.67.67,0,0,1,76,182.7Z" transform="translate(-40.109 -140.248)" fill="#472d5e"/>
    <path id="Path_2866" data-name="Path 2866" d="M33.157,160.5a5.9,5.9,0,0,1-5.7-4.236,2.065,2.065,0,0,1-.238-4.1v-.157a5.936,5.936,0,0,1,11.871,0v.157a2.065,2.065,0,0,1-.238,4.1A5.9,5.9,0,0,1,33.157,160.5Zm-5.4-5.023a.39.39,0,0,1,.379.3,5.166,5.166,0,0,0,10.038,0,.394.394,0,0,1,.421-.3,1.342,1.342,0,0,0,.141.008,1.287,1.287,0,1,0,.006-2.573l-.041,0a.39.39,0,0,1-.39-.39v-.519a5.155,5.155,0,0,0-10.31,0v.519a.39.39,0,0,1-.116.278.4.4,0,0,1-.28.112l-.037,0a1.287,1.287,0,1,0,.009,2.573,1.341,1.341,0,0,0,.141-.008Z" transform="translate(0 -112.783)" fill="#472d5e"/>
    <path id="Path_2867" data-name="Path 2867" d="M58.7,199.386h-.243a1.592,1.592,0,0,1-.5-.073,1.4,1.4,0,0,1-.56-.338,1.056,1.056,0,0,1-.319-.743.39.39,0,1,1,.78,0,.285.285,0,0,0,.093.193.621.621,0,0,0,.249.146.833.833,0,0,0,.258.034H58.7a.831.831,0,0,0,.258-.035.621.621,0,0,0,.248-.145.286.286,0,0,0,.093-.194.39.39,0,1,1,.78,0,1.056,1.056,0,0,1-.319.743,1.4,1.4,0,0,1-.56.337A1.6,1.6,0,0,1,58.7,199.386Z" transform="translate(-25.417 -154.412)" fill="#472d5e"/>
    <path id="Path_2868" data-name="Path 2868" d="M33.606,144.866H27.859a.366.366,0,0,1-.366-.366v-1.466a5,5,0,0,1,5-5h2.667a1.374,1.374,0,0,1,1.374,1.374v2.531A2.93,2.93,0,0,1,33.606,144.866Z" transform="translate(-1.609 -106.27)" fill="#c7417b"/>
    <path id="Path_2869" data-name="Path 2869" d="M78.981,144.866h-2.2a2.931,2.931,0,0,1-2.931-2.931V139.4a1.374,1.374,0,0,1,1.374-1.374,4.127,4.127,0,0,1,4.127,4.127V144.5A.366.366,0,0,1,78.981,144.866Z" transform="translate(-38.918 -106.27)" fill="#c7417b"/>
    <path id="Path_2870" data-name="Path 2870" d="M54.386,215.357a5.558,5.558,0,0,1-2.516-.6v.96a2.516,2.516,0,1,0,5.031,0v-.96A5.56,5.56,0,0,1,54.386,215.357Z" transform="translate(-21.23 -168.028)" fill="#fff"/>
    <path id="Path_2871" data-name="Path 2871" d="M43.665,220H31.191a.39.39,0,0,1-.39-.39v-2.568a3.222,3.222,0,0,1,3.218-3.218h.5v-.675a.39.39,0,0,1,.566-.348,5.207,5.207,0,0,0,4.679,0,.39.39,0,0,1,.566.348v.674h.5a3.222,3.222,0,0,1,3.218,3.218v2.568a.39.39,0,0,1-.39.39Zm-12.083-.78H43.275v-2.177a2.441,2.441,0,0,0-2.438-2.438h-.9a.39.39,0,0,1-.39-.406c0-.029,0-.059,0-.089v-.361a6.01,6.01,0,0,1-4.251,0v.361c0,.03,0,.06,0,.089a.39.39,0,0,1-.39.406h-.895a2.441,2.441,0,0,0-2.438,2.438v2.177Z" transform="translate(-4.272 -166.418)" fill="#472d5e"/>
    <path id="Path_2872" data-name="Path 2872" d="M32,143.645H26.251a.757.757,0,0,1-.757-.756v-1.466a5.4,5.4,0,0,1,5.393-5.393h2.667a1.766,1.766,0,0,1,1.764,1.764v2.531A3.325,3.325,0,0,1,32,143.645Zm-5.723-.78H32a2.543,2.543,0,0,0,2.541-2.541v-2.531a.985.985,0,0,0-.984-.984H30.887a4.618,4.618,0,0,0-4.613,4.613v1.442Z" transform="translate(0 -104.659)" fill="#472d5e"/>
    <path id="Path_2873" data-name="Path 2873" d="M77.371,143.646h-2.2a3.325,3.325,0,0,1-3.321-3.321v-2.531a1.766,1.766,0,0,1,1.764-1.764,4.523,4.523,0,0,1,4.517,4.517v2.342A.757.757,0,0,1,77.371,143.646ZM73.61,136.81a.985.985,0,0,0-.984.984v2.531a2.543,2.543,0,0,0,2.541,2.541h2.18v-2.318A3.741,3.741,0,0,0,73.61,136.81Z" transform="translate(-37.308 -104.66)" fill="#472d5e"/>
    <path id="Path_2874" data-name="Path 2874" d="M95.569,209.05H85.954a3.986,3.986,0,0,0-3.988,3.983v3.616H99.557v-3.616A3.986,3.986,0,0,0,95.569,209.05Z" transform="translate(-45.454 -163.432)" fill="#fff"/>
    <path id="Path_2875" data-name="Path 2875" d="M111.44,209.054c-.061,0-.122,0-.184,0H101.64c-.062,0-.123,0-.184,0a2.33,2.33,0,0,0,.036.28,1.439,1.439,0,0,0,.054.194h0l.005.01a1.449,1.449,0,0,0,.157.314,5.609,5.609,0,0,0,1.827,2.036h0a4.828,4.828,0,0,0,5.826,0h0a5.611,5.611,0,0,0,1.827-2.036,1.449,1.449,0,0,0,.157-.314l.005-.01h0a1.468,1.468,0,0,0,.054-.194,2.3,2.3,0,0,0,.037-.28Z" transform="translate(-61.141 -163.432)" fill="#8f3b76"/>
    <path id="Path_2876" data-name="Path 2876" d="M112.407,201.4a7.669,7.669,0,0,1-3.55-.866v1.514a.783.783,0,0,0,.02.165h0a.8.8,0,0,0,.051.157l.009.02c.01.021.02.041.032.06s.024.038.037.056.013.02.021.03l.5.64a3.58,3.58,0,0,0,1.986,1.283c.106.025.215.046.329.063a3.594,3.594,0,0,0,3.355-1.377l.735-.947a.788.788,0,0,0,.017-.155v-1.507a7.668,7.668,0,0,1-3.546.864Z" transform="translate(-67.098 -156.576)" fill="#fff"/>
    <path id="Path_2877" data-name="Path 2877" d="M93.394,117.312l-.048,0V116.6a7.643,7.643,0,0,0-15.286,0v.715l-.048,0a2.308,2.308,0,1,0,0,4.615,2.4,2.4,0,0,0,.25-.014,7.661,7.661,0,0,0,14.882,0,2.358,2.358,0,0,0,.25.014,2.308,2.308,0,1,0,0-4.615Z" transform="translate(-40.393 -82.933)" fill="#fff"/>
    <g id="Group_616" data-name="Group 616" transform="translate(34.896 25.713)">
      <path id="Path_2878" data-name="Path 2878" d="M84.093,126.535a7.983,7.983,0,0,1-7.74-5.826,2.7,2.7,0,0,1-.293-5.374v-.343a8.034,8.034,0,0,1,16.067,0v.343a2.7,2.7,0,0,1-.293,5.374,7.983,7.983,0,0,1-7.741,5.826Zm-7.441-6.62a.39.39,0,0,1,.379.3,7.27,7.27,0,0,0,14.122,0,.392.392,0,0,1,.42-.3,2.009,2.009,0,0,0,.21.012,1.917,1.917,0,1,0,0-3.835l-.053,0a.39.39,0,0,1-.39-.39v-.715a7.253,7.253,0,0,0-14.506,0v.715a.391.391,0,0,1-.116.278.4.4,0,0,1-.279.113l-.045,0h0a1.917,1.917,0,1,0,0,3.835,1.959,1.959,0,0,0,.21-.012Z" transform="translate(-73.68 -107.037)" fill="#3762cc"/>
      <path id="Path_2879" data-name="Path 2879" d="M119.437,180.728a2.14,2.14,0,0,1-.628-.085,1.9,1.9,0,0,1-.8-.467,1.376,1.376,0,0,1-.418-.968.39.39,0,1,1,.78,0,.6.6,0,0,0,.192.418,1.123,1.123,0,0,0,.471.27,1.588,1.588,0,0,0,.8,0,1.118,1.118,0,0,0,.471-.27.6.6,0,0,0,.192-.418.39.39,0,1,1,.78,0,1.377,1.377,0,0,1-.419.968,1.9,1.9,0,0,1-.8.466A2.126,2.126,0,0,1,119.437,180.728Z" transform="translate(-109.025 -164.813)" fill="#472d5e"/>
      <path id="Path_2880" data-name="Path 2880" d="M103.867,158.813a.923.923,0,0,1-.923-.921v-1.536a.923.923,0,0,1,1.845,0v1.536A.923.923,0,0,1,103.867,158.813Z" transform="translate(-97.234 -145.992)" fill="#472d5e"/>
      <path id="Path_2881" data-name="Path 2881" d="M142.614,158.813a.923.923,0,0,1-.923-.921v-1.536a.923.923,0,0,1,1.845,0v1.536A.923.923,0,0,1,142.614,158.813Z" transform="translate(-128.421 -145.992)" fill="#472d5e"/>
      <path id="Path_2882" data-name="Path 2882" d="M84.093,126.535a7.983,7.983,0,0,1-7.74-5.826,2.7,2.7,0,0,1-.293-5.374v-.343a8.034,8.034,0,0,1,16.067,0v.343a2.7,2.7,0,0,1-.293,5.374,7.983,7.983,0,0,1-7.741,5.826Zm-7.441-6.62a.39.39,0,0,1,.379.3,7.27,7.27,0,0,0,14.122,0,.392.392,0,0,1,.42-.3,2.009,2.009,0,0,0,.21.012,1.917,1.917,0,1,0,0-3.835l-.053,0a.39.39,0,0,1-.39-.39v-.715a7.253,7.253,0,0,0-14.506,0v.715a.391.391,0,0,1-.116.278.4.4,0,0,1-.279.113l-.045,0h0a1.917,1.917,0,1,0,0,3.835,1.959,1.959,0,0,0,.21-.012Z" transform="translate(-73.68 -107.037)" fill="#472d5e"/>
    </g>
    <path id="Path_2883" data-name="Path 2883" d="M84.833,96.25a8.723,8.723,0,0,0-3.226-1.134,10.542,10.542,0,0,0-6.134,0,10.565,10.565,0,0,1-4.681.57.257.257,0,0,0-.272.323,9.41,9.41,0,0,0,.993,2.286.258.258,0,0,1-.126.372,12.926,12.926,0,0,1-1.933.6.257.257,0,0,0-.159.391c.852,1.309,4.609,6.152,12.628,4.39.143-.031.285-.071.425-.114a5.047,5.047,0,0,0,3.042-2.653l.585-1.23A2.944,2.944,0,0,0,84.833,96.25Z" transform="translate(-35.222 -71.366)" fill="#c7417b"/>
    <path id="Path_2884" data-name="Path 2884" d="M76.942,103.217a11.2,11.2,0,0,1-9.582-4.953.647.647,0,0,1,.4-.984,12.623,12.623,0,0,0,1.731-.526,9.8,9.8,0,0,1-.955-2.248.647.647,0,0,1,.682-.815,10.315,10.315,0,0,0,4.494-.54.4.4,0,0,1,.054-.019,11.029,11.029,0,0,1,6.323-.006A9.083,9.083,0,0,1,83.423,94.3a3.354,3.354,0,0,1,1.3,4.307l-.586,1.23a5.45,5.45,0,0,1-3.277,2.858c-.163.051-.313.091-.457.123A16.074,16.074,0,0,1,76.942,103.217ZM68.12,98c1.072,1.563,4.691,5.693,12.111,4.063.122-.027.251-.061.392-.106a4.669,4.669,0,0,0,2.806-2.448l.585-1.23a2.568,2.568,0,0,0-.989-3.3,8.308,8.308,0,0,0-3.082-1.083.4.4,0,0,1-.071-.017,10.23,10.23,0,0,0-5.885,0,10.948,10.948,0,0,1-4.648.6,9.209,9.209,0,0,0,.9,2,.648.648,0,0,1-.316.935,13.314,13.314,0,0,1-1.8.575Z" transform="translate(-33.614 -69.758)" fill="#472d5e"/>
    <path id="Path_2885" data-name="Path 2885" d="M153.383,116.477a1.243,1.243,0,0,0-1.346-.432l-.43.13a2.962,2.962,0,0,1-.184.817h0c-.029.076-.06.151-.1.226l-.585,1.23c-.043.091-.09.179-.138.267l-.008.014q-.071.127-.148.25h0a4.415,4.415,0,0,0,1.8,3.016l1.278.919.048,0a2.341,2.341,0,0,1,1.115.281l.162-1.187A7.423,7.423,0,0,0,153.383,116.477Z" transform="translate(-100.575 -88.531)" fill="#c7417b"/>
    <path id="Path_2886" data-name="Path 2886" d="M153.079,121.976a.39.39,0,0,1-.185-.047,1.965,1.965,0,0,0-.93-.234l-.048,0a.39.39,0,0,1-.228-.073l-1.278-.919a4.825,4.825,0,0,1-1.959-3.282.39.39,0,0,1,.057-.259c.048-.076.094-.152.137-.231.052-.093.094-.175.134-.259l.586-1.23c.031-.064.057-.13.082-.2a2.593,2.593,0,0,0,.16-.71.39.39,0,0,1,.276-.343l.43-.13a1.641,1.641,0,0,1,1.768.568,7.864,7.864,0,0,1,1.546,5.817l-.162,1.187a.39.39,0,0,1-.386.338Zm-1.04-1.06a2.757,2.757,0,0,1,.721.117l.094-.687a7.081,7.081,0,0,0-1.392-5.236h0a.857.857,0,0,0-.923-.3l-.187.057a3.375,3.375,0,0,1-.175.655c-.032.086-.067.171-.108.256l-.586,1.23c-.046.1-.1.193-.148.287l-.01.018c-.026.047-.053.095-.082.142a4.039,4.039,0,0,0,1.621,2.616Z" transform="translate(-98.964 -86.925)" fill="#472d5e"/>
    <path id="Path_2887" data-name="Path 2887" d="M79.665,136.508a2.336,2.336,0,0,1,1.353-.43l.048,0v-.715a7.5,7.5,0,0,1,.247-1.911,10.764,10.764,0,0,1-1.671-1.1,7.419,7.419,0,0,0-.159,2.821Z" transform="translate(-43.4 -101.698)" fill="#c7417b"/>
    <path id="Path_2888" data-name="Path 2888" d="M78.052,135.289a.391.391,0,0,1-.387-.337l-.183-1.337a7.78,7.78,0,0,1,.168-2.969.39.39,0,0,1,.623-.209,10.41,10.41,0,0,0,1.61,1.064.39.39,0,0,1,.194.443,7.123,7.123,0,0,0-.234,1.812v.715a.39.39,0,0,1-.118.279.376.376,0,0,1-.282.111l-.041,0h0a1.939,1.939,0,0,0-1.125.359A.39.39,0,0,1,78.052,135.289Zm.233-3.865a6.982,6.982,0,0,0-.028,2.084l.106.776a2.7,2.7,0,0,1,.7-.185v-.343a7.915,7.915,0,0,1,.188-1.713A11.312,11.312,0,0,1,78.285,131.424Z" transform="translate(-41.788 -100.088)" fill="#472d5e"/>
    <path id="Path_2889" data-name="Path 2889" d="M97.948,208.573H80.356a.39.39,0,0,1-.39-.39v-3.616a4.381,4.381,0,0,1,4.379-4.373h.868v-1.272a.39.39,0,0,1,.57-.346,7.324,7.324,0,0,0,3.37.822,7.226,7.226,0,0,0,3.366-.82.39.39,0,0,1,.57.346v1.27h.87a4.381,4.381,0,0,1,4.379,4.373v3.616A.39.39,0,0,1,97.948,208.573Zm-17.2-.78H97.557v-3.226a3.6,3.6,0,0,0-3.6-3.593H92.683a.39.39,0,0,1-.383-.466.416.416,0,0,0,.009-.077v-.893a8.105,8.105,0,0,1-6.315,0v.9a.372.372,0,0,0,.009.072.39.39,0,0,1-.383.467H84.345a3.6,3.6,0,0,0-3.6,3.593v3.226Z" transform="translate(-43.844 -154.967)" fill="#472d5e"/>
    <path id="Path_2890" data-name="Path 2890" d="M106.045,8H95.758a1.425,1.425,0,0,0-1.425,1.425v9.648A1.425,1.425,0,0,0,95.758,20.5H98.43l1.961,3.077a.634.634,0,0,0,1.054.021l2.156-3.1h2.444a1.425,1.425,0,0,0,1.425-1.425V9.425A1.426,1.426,0,0,0,106.045,8Z" transform="translate(-55.408 -1.61)" fill="#fff"/>
    <path id="Path_2891" data-name="Path 2891" d="M99.315,22.649h-.021a1.021,1.021,0,0,1-.843-.473l-1.846-2.9H94.148a1.818,1.818,0,0,1-1.816-1.816V7.816A1.818,1.818,0,0,1,94.148,6h10.287a1.818,1.818,0,0,1,1.816,1.816v9.648a1.818,1.818,0,0,1-1.816,1.816h-2.24l-2.04,2.931a1.022,1.022,0,0,1-.84.439ZM94.148,6.78a1.037,1.037,0,0,0-1.035,1.035v9.648A1.037,1.037,0,0,0,94.148,18.5h2.671a.391.391,0,0,1,.329.18l1.961,3.077a.243.243,0,0,0,.405.008l2.156-3.1a.39.39,0,0,1,.32-.167h2.444a1.037,1.037,0,0,0,1.035-1.035V7.816a1.037,1.037,0,0,0-1.035-1.035Z" transform="translate(-53.797)" fill="#472d5e"/>
    <path id="Path_2892" data-name="Path 2892" d="M112.535,26.746h0a2.837,2.837,0,0,0,.92-1.247,3.015,3.015,0,0,0-1.392-3.8,2.429,2.429,0,0,0-2.74.48.4.4,0,0,1-.536.01,2.431,2.431,0,0,0-2.661-.459,2.99,2.99,0,0,0-1.445,3.756,2.841,2.841,0,0,0,.9,1.258h0l2.93,2.412a.8.8,0,0,0,.993.007Z" transform="translate(-63.579 -12.453)" fill="#c7417b"/>
  </g>
</svg>
