<svg xmlns="http://www.w3.org/2000/svg" width="16" height="16" viewBox="0 0 16 16">
  <g id="telegram_1_" data-name="telegram (1)" transform="translate(-8 -8)">
    <path id="Path_17016" data-name="Path 17016" d="M16,24a8,8,0,1,0-8-8A8,8,0,0,0,16,24Zm-4.34-8.173,7.713-2.974c.358-.129.671.087.555.629h0l-1.313,6.187c-.1.438-.358.545-.723.339l-2-1.474-.965.929a.5.5,0,0,1-.4.2l.142-2.036,3.707-3.349c.161-.142-.036-.222-.248-.081l-4.581,2.884-1.974-.616c-.43-.135-.439-.428.089-.634Z" fill="#8f3b76"/>
  </g>
</svg>
