<svg xmlns="http://www.w3.org/2000/svg" width="10" height="13.333" viewBox="0 0 10 13.333">
  <g id="padlock" transform="translate(-3)">
    <path id="Path_2377" data-name="Path 2377" d="M11.75,17.333H4.25A1.252,1.252,0,0,1,3,16.083V10.25A1.252,1.252,0,0,1,4.25,9h7.5A1.252,1.252,0,0,1,13,10.25v5.833A1.252,1.252,0,0,1,11.75,17.333Zm-7.5-7.5a.417.417,0,0,0-.417.417v5.833a.417.417,0,0,0,.417.417h7.5a.417.417,0,0,0,.417-.417V10.25a.417.417,0,0,0-.417-.417Z" transform="translate(0 -4)" fill="#8f3b76"/>
    <path id="Path_2378" data-name="Path 2378" d="M12.25,5.833a.417.417,0,0,1-.417-.417V3.333a2.5,2.5,0,0,0-5,0V5.417a.417.417,0,0,1-.833,0V3.333a3.333,3.333,0,1,1,6.667,0V5.417A.417.417,0,0,1,12.25,5.833Z" transform="translate(-1.333 0)" fill="#8f3b76"/>
    <path id="Path_2379" data-name="Path 2379" d="M11.111,15.222a1.111,1.111,0,1,1,1.111-1.111A1.112,1.112,0,0,1,11.111,15.222Zm0-1.389a.278.278,0,1,0,.278.278A.278.278,0,0,0,11.111,13.833Z" transform="translate(-3.111 -5.778)" fill="#8f3b76"/>
    <path id="Path_2380" data-name="Path 2380" d="M11.667,18.111a.417.417,0,0,1-.417-.417V16.167a.417.417,0,0,1,.833,0v1.528A.417.417,0,0,1,11.667,18.111Z" transform="translate(-3.667 -7)" fill="#8f3b76"/>
  </g>
</svg>
