<svg xmlns="http://www.w3.org/2000/svg" width="37" height="55.747" viewBox="0 0 37 55.747">
  <g id="man" transform="translate(-78.028 0)" opacity="0.6">
    <path id="Path_17389" data-name="Path 17389" d="M115.028,50.07v4.716a.961.961,0,0,1-.961.961H78.989a.961.961,0,0,1-.961-.961V50.07a8.959,8.959,0,0,1,8.96-8.958,4.974,4.974,0,0,0,4.176-2.266,5.646,5.646,0,0,0,.8-3.521l.018-.044a11.894,11.894,0,0,1-7.346-10.992v-.376a2.963,2.963,0,0,1-3-2.948V15.972c-.038-1.738.041-7.869,4.469-12.137,5.149-4.963,13.308-4.557,19.218-1.9a.241.241,0,0,1-.008.442l-1.541.634a.24.24,0,0,0,.066.461l.748.08A12.126,12.126,0,0,1,113.56,9.12a.258.258,0,0,1-.031.3,7.268,7.268,0,0,0-1.985,4.993v6.555a2.948,2.948,0,0,1-2.948,2.948h-.175v.376a11.894,11.894,0,0,1-7.346,10.992l.018.044a5.644,5.644,0,0,0,.8,3.521,4.974,4.974,0,0,0,4.176,2.266,8.959,8.959,0,0,1,8.96,8.958Z" transform="translate(0 0)" fill="#ffdfba"/>
    <path id="Path_17390" data-name="Path 17390" d="M115.028,334.59v4.716a.961.961,0,0,1-.961.961H78.989a.961.961,0,0,1-.961-.961V334.59a8.96,8.96,0,0,1,8.96-8.958,4.974,4.974,0,0,0,4.176-2.266,8.246,8.246,0,0,0,10.728,0,4.974,4.974,0,0,0,4.176,2.266A8.96,8.96,0,0,1,115.028,334.59Z" transform="translate(0 -284.52)" fill="#8f3b76"/>
    <path id="Path_17391" data-name="Path 17391" d="M139.92,9.121a.255.255,0,0,1-.031.3A7.272,7.272,0,0,0,137.9,14.41v6.555a2.954,2.954,0,0,1-3.123,2.948v-7.42a5.766,5.766,0,0,0-5.766-5.766H116.762A5.766,5.766,0,0,0,111,16.493v7.42a2.963,2.963,0,0,1-3-2.948V15.972c-.038-1.738.041-7.869,4.469-12.137,5.148-4.963,13.308-4.556,19.218-1.9a.241.241,0,0,1-.008.442l-1.541.635a.24.24,0,0,0,.066.461l.749.08a12.12,12.12,0,0,1,8.976,5.569Z" transform="translate(-26.36 -0.001)" fill="#301e41"/>
    <path id="Path_17392" data-name="Path 17392" d="M156.814,102.849a11.9,11.9,0,1,1-23.786-.376v-7.42a5.766,5.766,0,0,1,5.766-5.766h12.253a5.766,5.766,0,0,1,5.766,5.766Z" transform="translate(-48.393 -78.56)" fill="#ffebd2"/>
    <path id="Path_17394" data-name="Path 17394" d="M142.228,124.3a1.9,1.9,0,0,1-1.727,3.364,11.9,11.9,0,0,1-7.473-11.044v-7.8a5.741,5.741,0,0,1,1.012-3.264,1.42,1.42,0,0,1,2.592.861v7.8A11.806,11.806,0,0,0,142.228,124.3Z" transform="translate(-48.393 -92.333)" fill="#fff3e4"/>
    <path id="Path_17395" data-name="Path 17395" d="M202.3,295.7a11.925,11.925,0,0,1-9.4,0,7.443,7.443,0,0,0,.136-1.973l.018-.044a11.917,11.917,0,0,0,9.094,0l.018.044A7.443,7.443,0,0,0,202.3,295.7Z" transform="translate(-101.071 -258.406)" fill="#ffd6a6"/>
    <path id="Path_17396" data-name="Path 17396" d="M91.829,328.534a4.887,4.887,0,0,1-1.431.221,8.983,8.983,0,0,0-9.006,8.927v.9a1.682,1.682,0,0,1-1.682,1.682h-.721a.961.961,0,0,1-.961-.961V334.59a8.96,8.96,0,0,1,8.96-8.958,4.974,4.974,0,0,0,4.176-2.266,8.314,8.314,0,0,0,1.143.82A2.4,2.4,0,0,1,91.829,328.534Z" transform="translate(0 -284.52)" fill="#743060"/>
    <path id="Path_17397" data-name="Path 17397" d="M259.017,328.534a4.886,4.886,0,0,0,1.431.221,8.983,8.983,0,0,1,9.006,8.927v.9a1.682,1.682,0,0,0,1.682,1.682h.721a.961.961,0,0,0,.961-.961V334.59a8.96,8.96,0,0,0-8.96-8.958,4.974,4.974,0,0,1-4.176-2.266,8.313,8.313,0,0,1-1.143.82A2.4,2.4,0,0,0,259.017,328.534Z" transform="translate(-157.789 -284.52)" fill="#743060"/>
    <path id="Path_17398" data-name="Path 17398" d="M131.671,2.376c-1.412.581-1.614.709-2.1.634-7.889-1.223-14.811,2.041-17.162,9.7h0A5.738,5.738,0,0,0,111,16.492V21a1.5,1.5,0,1,1-3-.035V15.972c-.038-1.738.041-7.869,4.469-12.137,5.149-4.963,13.308-4.557,19.218-1.9a.241.241,0,0,1-.008.442Z" transform="translate(-26.36 0)" fill="#2a193b"/>
  </g>
</svg>
