<svg xmlns="http://www.w3.org/2000/svg" width="16" height="39.567" viewBox="0 0 16 39.567">
  <g id="XMLID_1937_" transform="translate(-0.001)">
    <path id="XMLID_1609_" d="M67.516,10A3.014,3.014,0,0,0,64.5,13.014v.773a3.014,3.014,0,1,0,6.028,0v-.773A3.014,3.014,0,0,0,67.516,10Z" transform="translate(-59.516 -9.227)" fill="#c7417b"/>
    <path id="XMLID_1793_" d="M20.849,98H13.607A3.606,3.606,0,0,0,10,101.606v9.879a1.661,1.661,0,0,0,3.266.425h7.922a1.661,1.661,0,0,0,3.266-.425v-9.879A3.606,3.606,0,0,0,20.849,98Z" transform="translate(-9.227 -90.427)" fill="#c7417b"/>
    <path id="XMLID_1608_" d="M57.357,295.31a1.855,1.855,0,0,1-1.855-1.855V278h3.709v15.456A1.855,1.855,0,0,1,57.357,295.31Z" transform="translate(-51.212 -256.516)" fill="#c7417b"/>
    <path id="XMLID_1606_" d="M105.357,295.31a1.855,1.855,0,0,1-1.855-1.855V278h3.709v15.456A1.855,1.855,0,0,1,105.357,295.31Z" transform="translate(-95.503 -256.516)" fill="#c7417b"/>
    <g id="XMLID_373_" transform="translate(0.001)">
      <path id="XMLID_531_" d="M187.814,194.939a.772.772,0,1,0,.546.226A.778.778,0,0,0,187.814,194.939Z" transform="translate(-172.587 -179.874)"/>
      <path id="XMLID_557_" d="M11.622,6.8h-.573a3.766,3.766,0,0,0,.737-2.241V3.787a3.787,3.787,0,1,0-7.573,0v.773A3.766,3.766,0,0,0,4.95,6.8H4.38A4.384,4.384,0,0,0,0,11.18v9.879a2.433,2.433,0,0,0,3.516,2.18v13.7A2.626,2.626,0,0,0,8,38.8a2.626,2.626,0,0,0,4.482-1.859v-13.7A2.433,2.433,0,0,0,16,21.059V19.315a.773.773,0,0,0-1.546,0v1.744a.889.889,0,1,1-1.777,0v-8.72a.773.773,0,1,0-1.546,0v8.372H4.87V12.339a.773.773,0,0,0-1.546,0v8.72a.889.889,0,1,1-1.777,0V11.18A2.837,2.837,0,0,1,4.38,8.346h7.242a2.837,2.837,0,0,1,2.834,2.834v1.18a.773.773,0,0,0,1.546,0V11.18A4.384,4.384,0,0,0,11.622,6.8Zm-.686,30.139a1.082,1.082,0,1,1-2.164,0V22.256h2.164ZM5.063,22.256H7.227V36.939a1.082,1.082,0,1,1-2.164,0Zm.7-17.7V3.787a2.241,2.241,0,1,1,4.482,0v.773a2.241,2.241,0,1,1-4.482,0Z" transform="translate(-0.001)" fill="#321e46"/>
    </g>
  </g>
</svg>
