<svg xmlns="http://www.w3.org/2000/svg" width="15" height="37" viewBox="0 0 15 37">
  <g id="XMLID_1937_" transform="translate(-0.001)" opacity="0.8">
    <path id="XMLID_1609_" d="M67.328,10A2.822,2.822,0,0,0,64.5,12.818v.723a2.826,2.826,0,0,0,5.651,0v-.723A2.822,2.822,0,0,0,67.328,10Z" transform="translate(-59.828 -9.277)" fill="none"/>
    <path id="XMLID_1793_" d="M20.171,98H13.382A3.377,3.377,0,0,0,10,101.372v9.238a1.557,1.557,0,0,0,3.062.4H20.49a1.557,1.557,0,0,0,3.062-.4v-9.238A3.377,3.377,0,0,0,20.171,98Z" transform="translate(-9.276 -90.918)" fill="none"/>
    <path id="XMLID_1608_" d="M57.241,294.188a1.737,1.737,0,0,1-1.739-1.734V278H58.98v14.453A1.737,1.737,0,0,1,57.241,294.188Z" transform="translate(-51.48 -257.91)" fill="none"/>
    <path id="XMLID_1606_" d="M105.241,294.188a1.737,1.737,0,0,1-1.739-1.734V278h3.478v14.453A1.737,1.737,0,0,1,105.241,294.188Z" transform="translate(-96.002 -257.91)" fill="none"/>
    <g id="XMLID_373_" transform="translate(0.001)">
      <path id="XMLID_531_" d="M187.766,194.939a.723.723,0,1,0,.512.211A.731.731,0,0,0,187.766,194.939Z" transform="translate(-173.49 -180.852)" fill="#321e46"/>
      <path id="XMLID_557_" d="M10.9,6.359h-.537a3.516,3.516,0,0,0,.691-2.1V3.541a3.55,3.55,0,0,0-7.1,0v.723a3.515,3.515,0,0,0,.691,2.1H4.106A4.1,4.1,0,0,0,0,10.454v9.238a2.282,2.282,0,0,0,3.3,2.038V34.543a2.463,2.463,0,0,0,4.2,1.739,2.463,2.463,0,0,0,4.2-1.739V21.729A2.282,2.282,0,0,0,15,19.692V18.062a.724.724,0,0,0-1.449,0v1.631a.833.833,0,0,1-1.666,0V11.538a.724.724,0,0,0-1.449,0v7.829H4.565V11.538a.724.724,0,0,0-1.449,0v8.154a.833.833,0,0,1-1.666,0V10.454A2.656,2.656,0,0,1,4.106,7.8H10.9a2.656,2.656,0,0,1,2.656,2.65v1.1a.724.724,0,0,0,1.449,0v-1.1a4.1,4.1,0,0,0-4.105-4.1Zm-.643,28.184a1.014,1.014,0,0,1-2.029,0V20.813h2.029ZM4.747,20.813H6.775v13.73a1.014,1.014,0,0,1-2.029,0ZM5.4,4.264V3.541a2.1,2.1,0,0,1,4.2,0v.723a2.1,2.1,0,0,1-4.2,0Z" transform="translate(-0.001)" fill="#321e46"/>
    </g>
  </g>
</svg>
