<svg xmlns="http://www.w3.org/2000/svg" width="13" height="15.087" viewBox="0 0 13 15.087">
  <path id="bookmark_1_" data-name="bookmark (1)" d="M16.934,1.628A1.631,1.631,0,0,0,15.342,0V0H5.55A1.617,1.617,0,0,0,3.934,1.616V15.087l5.041-3.36,5.041,3.36V6.633h2.918ZM13.485,14.1l-4.51-3.007L4.465,14.1V1.616A1.086,1.086,0,0,1,5.55.531h8.494a1.855,1.855,0,0,0-.521.958h0c-.012.059-.021.119-.027.18a1.837,1.837,0,0,0-.01.188V14.1ZM16.4,6.1H14.016V1.857A1.322,1.322,0,0,1,15.031.571c.01,0,.018-.007.028-.008a1.3,1.3,0,0,1,.2-.024c.022,0,.043-.006.065-.007a1.1,1.1,0,0,1,1.08,1.1Z" transform="translate(-3.934)" fill="#8f3b76"/>
</svg>
