<svg xmlns="http://www.w3.org/2000/svg" width="15.7" height="11.671" viewBox="0 0 15.7 11.671">
  <g id="menu_2_" data-name="menu (2)" transform="translate(0 -96.243)">
    <g id="Menu_1_" transform="translate(0 96.243)">
      <path id="Path_2588" data-name="Path 2588" d="M.491,97.7H15.21c.271,0,.491-.327.491-.729s-.22-.729-.491-.729H.491c-.271,0-.491.327-.491.729S.22,97.7.491,97.7Z" transform="translate(0 -96.243)" fill="#fff"/>
      <path id="Path_2589" data-name="Path 2589" d="M15.21,180.455H.491c-.271,0-.491.327-.491.729s.22.729.491.729H15.21c.271,0,.491-.327.491-.729S15.48,180.455,15.21,180.455Z" transform="translate(0 -175.349)" fill="#fff"/>
      <path id="Path_2590" data-name="Path 2590" d="M130.606,264.667h-9.813c-.271,0-.491.327-.491.729s.22.729.491.729h9.813c.271,0,.491-.327.491-.729S130.877,264.667,130.606,264.667Z" transform="translate(-115.397 -254.455)" fill="#fff"/>
    </g>
  </g>
</svg>
