<svg xmlns="http://www.w3.org/2000/svg" width="208.24" height="194.556" viewBox="0 0 208.24 194.556">
  <g id="message" transform="translate(0 1.168)">
    <path id="Path_396" data-name="Path 396" d="M183.45-1.168H24.79A24.8,24.8,0,0,0,0,23.623V130.668a24.8,24.8,0,0,0,24.79,24.79H76.156l20.725,34.26c0,.051.05.051.05.1a7.694,7.694,0,0,0,12.99,0c0-.048.05-.048.05-.1l20.725-34.26H183.45a24.8,24.8,0,0,0,24.79-24.79V23.623a24.8,24.8,0,0,0-24.79-24.79Zm14.874,131.836a14.917,14.917,0,0,1-14.874,14.874h-55.58a5.039,5.039,0,0,0-4.264,2.38l-20.229,33.467L83.147,147.922a4.968,4.968,0,0,0-4.264-2.38H24.79A14.917,14.917,0,0,1,9.916,130.668V23.623A14.918,14.918,0,0,1,24.79,8.748H183.45a14.918,14.918,0,0,1,14.874,14.874Zm0,0" transform="translate(0 0)" fill="#324376"/>
    <path id="Path_397" data-name="Path 397" d="M232.219,130.843,188.29,172.836l-23.5-23.5a4.943,4.943,0,0,0-6.991,6.989l26.922,26.922a4.862,4.862,0,0,0,3.52,1.438,4.79,4.79,0,0,0,3.421-1.387l47.449-45.319a4.961,4.961,0,0,0-6.892-7.138Zm0,0" transform="translate(-94.334 -78.809)" fill="#324376"/>
  </g>
</svg>
