<svg xmlns="http://www.w3.org/2000/svg" width="42" height="42" viewBox="0 0 42 42">
  <g id="Group_3900" data-name="Group 3900" transform="translate(1486 -2926.593)">
    <path id="Path_17578" data-name="Path 17578" d="M35,33H54.235V45.632H35Z" transform="translate(-1515.825 2912.114)" fill="#c7417b"/>
    <path id="Path_17579" data-name="Path 17579" d="M39,33h3.453v1.8H39Z" transform="translate(-1516.619 2912.114)" fill="#38224d"/>
    <path id="Path_17580" data-name="Path 17580" d="M35,37h7.728v1.8H35Z" transform="translate(-1515.825 2911.723)" fill="#38224d"/>
    <path id="Path_17581" data-name="Path 17581" d="M35,41H54.235v1.8H35Z" transform="translate(-1515.825 2911.332)" fill="#38224d"/>
    <path id="Path_17582" data-name="Path 17582" d="M57,45h1.6v1.8H57Z" transform="translate(-1520.193 2910.941)" fill="#38224d"/>
    <path id="Path_17583" data-name="Path 17583" d="M35,45H51.029v1.8H35Z" transform="translate(-1515.825 2910.941)" fill="#38224d"/>
    <path id="Path_17584" data-name="Path 17584" d="M35,33h1.6v1.8H35Z" transform="translate(-1515.825 2912.114)" fill="#38224d"/>
    <g id="chat" transform="translate(-1486 2926.593)">
      <path id="Path_17538" data-name="Path 17538" d="M27.742,28.452h-2.71A2.035,2.035,0,0,1,23,26.419V21h1.355v5.419a.678.678,0,0,0,.677.677h2.71Z" transform="translate(-8.097 -7.452)" fill="#38224d"/>
      <path id="Path_17542" data-name="Path 17542" d="M39,38h1.355v1.355H39Z" transform="translate(-13.258 -12.935)" fill="#38224d"/>
      <path id="Path_17543" data-name="Path 17543" d="M37.387,45.387a.678.678,0,0,1-.677.677H34v1.355h2.71a2.035,2.035,0,0,0,2.032-2.032V42H37.387Z" transform="translate(-11.645 -14.226)" fill="#38224d"/>
      <path id="Path_17544" data-name="Path 17544" d="M38.258,1H17.935a4.748,4.748,0,0,0-4.742,4.742v7.452H5.742A4.748,4.748,0,0,0,1,17.935V32.161A4.748,4.748,0,0,0,5.742,36.9H7.774v4.51a1.587,1.587,0,0,0,2.84.974L14.88,36.9H26.065a4.748,4.748,0,0,0,4.742-4.742V26.878l2.58,3.317a1.588,1.588,0,0,0,2.84-.975V24.71h2.032A4.748,4.748,0,0,0,43,19.968V5.742A4.748,4.748,0,0,0,38.258,1ZM29.452,32.161a3.391,3.391,0,0,1-3.387,3.387H14.217L9.546,41.555a.241.241,0,0,1-.417-.142V35.548H5.742a3.391,3.391,0,0,1-3.387-3.387V17.935a3.391,3.391,0,0,1,3.387-3.387h7.452v5.419a4.748,4.748,0,0,0,4.742,4.742H29.12l.331.426ZM41.645,19.968a3.391,3.391,0,0,1-3.387,3.387H34.871v5.864a.241.241,0,0,1-.416.143l-4.672-6.007H17.935a3.391,3.391,0,0,1-3.387-3.387V5.742a3.391,3.391,0,0,1,3.387-3.387H38.258a3.391,3.391,0,0,1,3.387,3.387Z" transform="translate(-1 -1)" fill="#3e215a"/>
      <path id="Path_17548" data-name="Path 17548" d="M23,17h1.355v1.355H23Z" transform="translate(-8.097 -6.161)" fill="#38224d"/>
      <path id="Path_17549" data-name="Path 17549" d="M23,13h1.355v1.355H23Z" transform="translate(-8.097 -4.871)" fill="#38224d"/>
      <path id="Path_17550" data-name="Path 17550" d="M5,45H6.355v1.355H5Z" transform="translate(-2.29 -15.194)" fill="#38224d"/>
      <path id="Path_17551" data-name="Path 17551" d="M5,41H6.355v1.355H5Z" transform="translate(-2.29 -13.903)" fill="#38224d"/>
      <path id="Path_17552" data-name="Path 17552" d="M5,37H6.355v1.355H5Z" transform="translate(-2.29 -12.613)" fill="#38224d"/>
    </g>
    <path id="Path_17571" data-name="Path 17571" d="M35,33H55.984V46.112H35Z" transform="translate(-1503.218 2898.512)" fill="#c7417b"/>
    <path id="Path_17572" data-name="Path 17572" d="M39,33H56.487v1.873H39Z" transform="translate(-1503.721 2898.512)" fill="#38224d"/>
    <path id="Path_17573" data-name="Path 17573" d="M35,37H55.984v1.873H35Z" transform="translate(-1503.218 2898.258)" fill="#38224d"/>
    <path id="Path_17574" data-name="Path 17574" d="M35,41H55.984v1.873H35Z" transform="translate(-1503.218 2898.004)" fill="#38224d"/>
    <path id="Path_17575" data-name="Path 17575" d="M57,45h1.749v1.873H57Z" transform="translate(-1505.983 2897.751)" fill="#38224d"/>
    <path id="Path_17576" data-name="Path 17576" d="M35,45H52.486v1.873H35Z" transform="translate(-1503.218 2897.751)" fill="#38224d"/>
    <path id="Path_17577" data-name="Path 17577" d="M35,33h1.749v1.873H35Z" transform="translate(-1503.218 2898.512)" fill="#38224d"/>
  </g>
</svg>
