<svg xmlns="http://www.w3.org/2000/svg" xmlns:xlink="http://www.w3.org/1999/xlink" width="20.623" height="19.906" viewBox="0 0 20.623 19.906">
  <defs>
    <clipPath id="clip-path">
      <path id="Path_16774" data-name="Path 16774" d="M16.714,9.809a.361.361,0,0,0-.244.1l-3.28,3.116a1.257,1.257,0,0,0-.075,1.728,1.207,1.207,0,0,0,.895.392h.007a1.214,1.214,0,0,0,.889-.392L17.223,12.3h.83l-5.407,6.044H9.312A1.453,1.453,0,0,0,7.83,19.685a1.412,1.412,0,0,0,.389,1.057,1.428,1.428,0,0,0,1.032.443h4.975a.358.358,0,0,0,.26-.113l2.551-2.722,2.143,2.242-.647,4.138a1.417,1.417,0,0,0,1.374,1.786A1.415,1.415,0,0,0,21.289,25.4L22.4,19.471a.36.36,0,0,0-.1-.317l-2.952-2.945,2.347-2.342L23.326,15.5a1.234,1.234,0,0,0,1.707,0L28.1,12.435a1.2,1.2,0,0,0,0-1.7l-.051-.051a1.223,1.223,0,0,0-1.725,0L24.47,12.564a.256.256,0,0,1-.357.009l-2.6-2.4a1.359,1.359,0,0,0-.926-.363Z" transform="translate(-7.828 -9.809)" fill="none"/>
    </clipPath>
    <linearGradient id="linear-gradient" x1="-0.66" y1="1.832" x2="-0.576" y2="1.832" gradientUnits="objectBoundingBox">
      <stop offset="0" stop-color="#ac6697"/>
      <stop offset="1" stop-color="#8f3b76"/>
    </linearGradient>
    <clipPath id="clip-path-2">
      <path id="Path_16775" data-name="Path 16775" d="M15.982,10.108a2.133,2.133,0,1,0,2.133-2.134,2.135,2.135,0,0,0-2.133,2.134" transform="translate(-15.982 -7.974)" fill="none"/>
    </clipPath>
    <linearGradient id="linear-gradient-2" x1="-6.534" y1="7.924" x2="-6.125" y2="7.924" gradientUnits="objectBoundingBox">
      <stop offset="0" stop-color="#8f3b76"/>
      <stop offset="1" stop-color="#8f3b76"/>
    </linearGradient>
  </defs>
  <g id="Group_3901" data-name="Group 3901" transform="translate(-13.649 -13.904)">
    <g id="Group_3521" data-name="Group 3521" transform="translate(13.649 17.104)">
      <g id="Group_3520" data-name="Group 3520" clip-path="url(#clip-path)">
        <rect id="Rectangle_2123" data-name="Rectangle 2123" width="20.642" height="16.706" transform="translate(-0.019 0.001)" fill="url(#linear-gradient)"/>
      </g>
    </g>
    <g id="Group_3523" data-name="Group 3523" transform="translate(27.868 13.904)">
      <g id="Group_3522" data-name="Group 3522" clip-path="url(#clip-path-2)">
        <rect id="Rectangle_2124" data-name="Rectangle 2124" width="4.265" height="4.267" transform="translate(0 0.001)" fill="url(#linear-gradient-2)"/>
      </g>
    </g>
  </g>
</svg>
