<svg xmlns="http://www.w3.org/2000/svg" width="43" height="43" viewBox="0 0 43 43">
  <g id="team-member" transform="translate(-1 -1)">
    <path id="Path_17404" data-name="Path 17404" d="M22.5,1A21.5,21.5,0,1,0,44,22.5,21.524,21.524,0,0,0,22.5,1ZM36.371,23.194a2.081,2.081,0,0,1-2.081,2.081H33.6v9.71a1.387,1.387,0,0,1-2.774,0,1.387,1.387,0,0,1-2.774,0v-10.4a2.081,2.081,0,0,1-2.081,2.081h-.694v9.71a1.387,1.387,0,0,1-2.774,0,1.387,1.387,0,0,1-2.774,0v-9.71h-.694a2.081,2.081,0,0,1-2.081-2.081v10.4a1.387,1.387,0,0,1-2.774,0,1.387,1.387,0,0,1-2.774,0v-9.71H10.71a2.081,2.081,0,0,1-2.081-2.081V19.726a5.549,5.549,0,0,1,5.548-5.548,3.468,3.468,0,1,1,3.468-3.468,3.468,3.468,0,0,1-3.468,3.468,5.54,5.54,0,0,1,4.751,2.693A5.523,5.523,0,0,1,22.5,15.565,3.468,3.468,0,1,1,25.968,12.1,3.468,3.468,0,0,1,22.5,15.565a5.523,5.523,0,0,1,3.572,1.306,5.54,5.54,0,0,1,4.751-2.693A3.468,3.468,0,1,1,34.29,10.71a3.468,3.468,0,0,1-3.468,3.468,5.549,5.549,0,0,1,5.548,5.548Z" transform="translate(0 0)" fill="#c7417b"/>
    <path id="Path_17405" data-name="Path 17405" d="M36.4,16.469a4.161,4.161,0,1,0-5.029,0,6.174,6.174,0,0,0-2.4,1.873,6.247,6.247,0,0,0-.894-.486,4.162,4.162,0,1,0-5.03,0,6.247,6.247,0,0,0-.894.486,6.185,6.185,0,0,0-2.4-1.873,4.162,4.162,0,1,0-5.03,0A6.248,6.248,0,0,0,11,22.177v3.468a2.777,2.777,0,0,0,2.774,2.774v9.016a2.072,2.072,0,0,0,3.468,1.54,2.072,2.072,0,0,0,3.468-1.54V29.421a2.746,2.746,0,0,0,1.387.386v9.016a2.072,2.072,0,0,0,3.468,1.54,2.072,2.072,0,0,0,3.468-1.54V29.806a2.746,2.746,0,0,0,1.387-.386v8.015a2.072,2.072,0,0,0,3.468,1.54,2.072,2.072,0,0,0,3.468-1.54V28.419a2.777,2.777,0,0,0,2.774-2.774V22.177A6.248,6.248,0,0,0,36.4,16.469Zm-5.289-3.308a2.774,2.774,0,1,1,2.774,2.774,2.777,2.777,0,0,1-2.774-2.774ZM22.79,14.548a2.774,2.774,0,1,1,2.774,2.774A2.777,2.777,0,0,1,22.79,14.548Zm-8.323-1.387a2.774,2.774,0,1,1,2.774,2.774A2.777,2.777,0,0,1,14.468,13.161Zm4.855,24.274a.694.694,0,0,1-1.387,0V25.645H16.548v11.79a.694.694,0,0,1-1.387,0V20.1H13.774v6.935a1.388,1.388,0,0,1-1.387-1.387V22.177a4.861,4.861,0,0,1,4.855-4.855,4.8,4.8,0,0,1,3.843,1.9,6.22,6.22,0,0,0-1.762,4.337V37.435Zm9.71-9.016V21.484H27.645V38.823a.694.694,0,1,1-1.387,0V27.032H24.871v11.79a.694.694,0,1,1-1.387,0V21.484H22.1v6.935a1.388,1.388,0,0,1-1.387-1.387V23.565a4.855,4.855,0,1,1,9.71,0v3.468A1.388,1.388,0,0,1,29.032,28.419Zm9.71-2.774a1.388,1.388,0,0,1-1.387,1.387V20.1H35.968V37.435a.694.694,0,0,1-1.387,0V25.645H33.194v11.79a.694.694,0,1,1-1.387,0V23.565a6.22,6.22,0,0,0-1.762-4.337,4.8,4.8,0,0,1,3.843-1.9,4.861,4.861,0,0,1,4.855,4.855Z" transform="translate(-3.065 -2.452)" fill="#472a64"/>
  </g>
</svg>
