<svg xmlns="http://www.w3.org/2000/svg" width="40" height="40" viewBox="0 0 40 40">
  <g id="financial_2_" data-name="financial (2)" transform="translate(-1 -1)">
    <g id="Group_608" data-name="Group 608" transform="translate(20.835 3.581)">
      <path id="Path_2736" data-name="Path 2736" d="M38.361,5A7.09,7.09,0,0,0,31.83,9.315l-.086.2h.165A2.581,2.581,0,0,1,34.49,12.1v5.945a7.029,7.029,0,0,0,3.871,1.152A7.1,7.1,0,1,0,38.361,5Z" transform="translate(-31.744 -5)" fill="#c7417b"/>
    </g>
    <g id="Group_610" data-name="Group 610" transform="translate(3.581 10.032)">
      <g id="Group_609" data-name="Group 609">
        <path id="Path_2737" data-name="Path 2737" d="M21.774,24.032H6.29A1.292,1.292,0,0,1,5,22.742V16.29A1.292,1.292,0,0,1,6.29,15H21.774a1.292,1.292,0,0,1,1.29,1.29v6.452A1.292,1.292,0,0,1,21.774,24.032Z" transform="translate(-5 -15)" fill="#c7417b"/>
      </g>
    </g>
    <g id="Group_611" data-name="Group 611" transform="translate(1 1)">
      <path id="Path_2738" data-name="Path 2738" d="M40.29,16.648v1.384h1.29V16.648a1.835,1.835,0,0,0,.272-3.395l-1.258-.628a.551.551,0,0,1,.246-1.045h.188a.552.552,0,0,1,.551.551v.739h1.29v-.739a1.838,1.838,0,0,0-1.29-1.748V9H40.29v1.384a1.835,1.835,0,0,0-.272,3.395l1.258.628a.551.551,0,0,1-.246,1.045h-.188a.552.552,0,0,1-.551-.551v-.739H39V14.9A1.838,1.838,0,0,0,40.29,16.648Z" transform="translate(-14.484 -3.839)" fill="#472d5e"/>
      <path id="Path_2739" data-name="Path 2739" d="M41,23.4l-5.665,1.416-1.3-.977a4.542,4.542,0,0,0-2.71-.9H24.871a1.914,1.914,0,0,0-.645.119V19.8A9.677,9.677,0,1,0,27.452,1a9.735,9.735,0,0,0-9.118,6.452H4.226A3.229,3.229,0,0,0,1,10.677v27.1A3.229,3.229,0,0,0,4.226,41H21a3.218,3.218,0,0,0,2.741-1.546,1.675,1.675,0,0,0,.884.256,1.706,1.706,0,0,0,.755-.178l1.543-.771a3.234,3.234,0,0,1,1.443-.341h2.957a4.542,4.542,0,0,0,2.71-.9l1.3-.977L41,37.955ZM27.452,2.29a8.387,8.387,0,1,1,0,16.774,8.3,8.3,0,0,1-3.226-.656V10.677A3.229,3.229,0,0,0,21,7.452H19.714A8.443,8.443,0,0,1,27.452,2.29ZM21,39.71H4.226A1.938,1.938,0,0,1,2.29,37.774v-27.1A1.938,1.938,0,0,1,4.226,8.742H21a1.938,1.938,0,0,1,1.935,1.935V24.871a1.914,1.914,0,0,0,.259.949,1.907,1.907,0,0,0-.645,2.581,1.9,1.9,0,0,0-.785,2.277h-.119V28.1a1.292,1.292,0,0,0-1.29-1.29H17.774a1.292,1.292,0,0,0-1.29,1.29v2.581h-.645a1.918,1.918,0,0,0-.657.123c0-.041.012-.081.012-.123V28.1a1.292,1.292,0,0,0-1.29-1.29H11.323a1.292,1.292,0,0,0-1.29,1.29v2.581a1.292,1.292,0,0,0,1.29,1.29H13.9c.042,0,.082-.008.123-.012a1.824,1.824,0,0,0,0,1.315c-.041,0-.081-.012-.123-.012H11.323a1.292,1.292,0,0,0-1.29,1.29v2.581a1.292,1.292,0,0,0,1.29,1.29H13.9a1.292,1.292,0,0,0,1.29-1.29V34.548c0-.042-.008-.082-.012-.123a1.918,1.918,0,0,0,.657.123h.645v2.581a1.292,1.292,0,0,0,1.29,1.29h2.581a1.292,1.292,0,0,0,1.29-1.29V34.548h2.8a4.743,4.743,0,0,0-1.5,3.226h-.013A1.938,1.938,0,0,1,21,39.71Zm-.645-9.032H17.774V28.1h2.581Zm-6.451,0H11.323V28.1H13.9Zm0,6.452H11.323V34.548H13.9Zm3.87-2.581h2.581v2.581H17.774Zm15.484,1.935a3.244,3.244,0,0,1-1.935.645H28.366a4.543,4.543,0,0,0-2.02.477l-1.543.771a.409.409,0,0,1-.577-.356A3.476,3.476,0,0,1,27.7,34.548h2.334v-1.29H15.839a.645.645,0,1,1,0-1.29H26.161v-1.29H23.581a.645.645,0,1,1,0-1.29h2.581V28.1H24.226a.645.645,0,0,1,0-1.29h1.935v-1.29h-1.29a.645.645,0,0,1,0-1.29h6.452a3.244,3.244,0,0,1,1.935.645l1.29.968v9.677ZM39.71,36.3l-3.871-.968V26.02l3.871-.968Z" transform="translate(-1 -1)" fill="#472d5e"/>
      <path id="Path_2740" data-name="Path 2740" d="M8.871,51H6.29A1.292,1.292,0,0,0,5,52.29v2.581a1.292,1.292,0,0,0,1.29,1.29H8.871a1.292,1.292,0,0,0,1.29-1.29V52.29A1.292,1.292,0,0,0,8.871,51ZM6.29,54.871V52.29H8.871v2.581Z" transform="translate(-2.419 -18.742)" fill="#472d5e"/>
      <path id="Path_2741" data-name="Path 2741" d="M8.871,41H6.29A1.292,1.292,0,0,0,5,42.29v2.581a1.292,1.292,0,0,0,1.29,1.29H8.871a1.292,1.292,0,0,0,1.29-1.29V42.29A1.292,1.292,0,0,0,8.871,41ZM6.29,44.871V42.29H8.871v2.581Z" transform="translate(-2.419 -15.194)" fill="#472d5e"/>
      <path id="Path_2742" data-name="Path 2742" d="M8.871,31H6.29A1.292,1.292,0,0,0,5,32.29v2.581a1.292,1.292,0,0,0,1.29,1.29H8.871a1.292,1.292,0,0,0,1.29-1.29V32.29A1.292,1.292,0,0,0,8.871,31ZM6.29,34.871V32.29H8.871v2.581Z" transform="translate(-2.419 -11.645)" fill="#472d5e"/>
      <path id="Path_2743" data-name="Path 2743" d="M16.29,36.161h2.581a1.292,1.292,0,0,0,1.29-1.29V32.29A1.292,1.292,0,0,0,18.871,31H16.29A1.292,1.292,0,0,0,15,32.29v2.581A1.292,1.292,0,0,0,16.29,36.161Zm0-3.871h2.581v2.581H16.29Z" transform="translate(-5.968 -11.645)" fill="#472d5e"/>
      <path id="Path_2744" data-name="Path 2744" d="M26.29,36.161h2.581a1.292,1.292,0,0,0,1.29-1.29V32.29A1.292,1.292,0,0,0,28.871,31H26.29A1.292,1.292,0,0,0,25,32.29v2.581A1.292,1.292,0,0,0,26.29,36.161Zm0-3.871h2.581v2.581H26.29Z" transform="translate(-9.516 -11.645)" fill="#472d5e"/>
    </g>
  </g>
</svg>
