<svg xmlns="http://www.w3.org/2000/svg" width="42" height="40.6" viewBox="0 0 42 40.6">
  <g id="stopwatch_18_" data-name="stopwatch (18)" transform="translate(0 0)">
    <path id="Path_2795" data-name="Path 2795" d="M133.015,87.62v.42a2.793,2.793,0,0,1-2.457,2.779c-.336.042-.693.077-1.071.112l-2.765.105q-.515-.011-1.029-.042a13.636,13.636,0,0,1-1.792-.217c-.007.07-.014.147-.021.238a10.152,10.152,0,0,1-1.365,4.3v21h-7a3.492,3.492,0,0,1-3.5-2.1h-2.1l-.091-16.6c1.757-1.456,6.888-5.852,9.191-9.3,1.827-2.737,6.027-3.4,8.736-3.521h.056a20.742,20.742,0,0,1,2.408.021,2.8,2.8,0,0,1,2.8,2.8Zm0,0" transform="translate(-100.815 -77.82)" fill="#fff"/>
    <path id="Path_2796" data-name="Path 2796" d="M130.915,87.9v.42a2.793,2.793,0,0,1-2.457,2.779c-.336.042-.693.077-1.071.112l-1.694.063-1.071.042-.742-.021a15.677,15.677,0,0,1-2.079-.238,10.276,10.276,0,0,1-1.386,4.543v21h-4.9a3.492,3.492,0,0,1-3.5-2.1h-2.1l-.091-16.6c1.757-1.456,6.888-5.852,9.191-9.3,1.827-2.737,6.027-3.4,8.736-3.521h.056l.308.021a2.8,2.8,0,0,1,2.8,2.8Zm0,0" transform="translate(-100.815 -78.103)" fill="#fff"/>
    <path id="Path_2797" data-name="Path 2797" d="M258,146.809a.7.7,0,0,1-.135-.013,10.986,10.986,0,0,1-1.393-.364.7.7,0,1,1,.447-1.327,9.555,9.555,0,0,0,1.214.317.7.7,0,0,1-.133,1.387Zm0,0" transform="translate(-235 -133.169)" fill="#cbb292"/>
    <path id="Path_2798" data-name="Path 2798" d="M162.815,285.664a.7.7,0,0,1,0-1.4,5.157,5.157,0,0,0,1.82-.465.7.7,0,0,1,.567,1.28A6.413,6.413,0,0,1,162.815,285.664Zm0,0" transform="translate(-148.815 -260.464)" fill="#cbb292"/>
    <path id="Path_2799" data-name="Path 2799" d="M315.73,157.189v-2.884a.322.322,0,0,1,.007-.084.7.7,0,0,1,.693-.616h1.4a.7.7,0,0,1,.672.511.558.558,0,0,1,.028.189v2.884Zm0,0" transform="translate(-289.83 -141.005)" fill="#fff"/>
    <path id="Path_2800" data-name="Path 2800" d="M211.534,208.169a11.9,11.9,0,0,1-11.9,11.9,11.037,11.037,0,0,1-1.75-.133,11.9,11.9,0,0,1,0-23.534,11.113,11.113,0,0,1,1.75-.133,11.9,11.9,0,0,1,11.9,11.9Zm0,0" transform="translate(-172.334 -180.169)" fill="#fff"/>
    <path id="Path_2801" data-name="Path 2801" d="M208.034,209.658c0-6.5-4.544-11.767-10.15-11.767s-10.15,5.268-10.15,11.767,4.544,11.767,10.15,11.767S208.034,216.156,208.034,209.658Zm0,0" transform="translate(-172.334 -181.658)" fill="#fff"/>
    <path id="Path_2802" data-name="Path 2802" d="M240.067,239.5a9.1,9.1,0,0,1-9.1,9.1,8.239,8.239,0,0,1-1.386-.112,9.1,9.1,0,0,1-.021-17.983,9.4,9.4,0,0,1,1.407-.105,9.092,9.092,0,0,1,9.1,9.1Zm0,0" transform="translate(-203.667 -211.503)" fill="#c7417b"/>
    <path id="Path_2803" data-name="Path 2803" d="M237.267,240.678a9.1,9.1,0,0,1-7.686,8.988,9.1,9.1,0,0,1-.021-17.983A9.094,9.094,0,0,1,237.267,240.678Zm0,0" transform="translate(-203.667 -212.679)" fill="#c7417b"/>
    <path id="Path_2804" data-name="Path 2804" d="M9.935,230.4h5.6a1.4,1.4,0,0,1,1.4,1.4v16.1a1.4,1.4,0,0,1-1.4,1.4h-5.6a1.4,1.4,0,0,1-1.4-1.4V231.8A1.4,1.4,0,0,1,9.935,230.4Zm0,0" transform="translate(-7.835 -211.503)" fill="#fff"/>
    <path id="Path_2805" data-name="Path 2805" d="M9.935,230.4h3.5a1.4,1.4,0,0,1,1.4,1.4v16.1a1.4,1.4,0,0,1-1.4,1.4h-3.5a1.4,1.4,0,0,1-1.4-1.4V231.8A1.4,1.4,0,0,1,9.935,230.4Zm0,0" transform="translate(-7.835 -211.503)" fill="#fff"/>
    <path id="Path_2806" data-name="Path 2806" d="M329.166,315.565a.7.7,0,0,1-.7.7h-3.5a.7.7,0,0,1-.7-.7v-1.834c.455-.161.917-.322,1.4-.469v1.6h2.8A.7.7,0,0,1,329.166,315.565Zm0,0" transform="translate(-297.666 -287.565)" fill="#5e5f62"/>
    <path id="Path_2807" data-name="Path 2807" d="M258.73,341.422a.7.7,0,0,1-.7.693h-.581Q258.069,341.758,258.73,341.422Zm0,0" transform="translate(-236.33 -313.415)" fill="#5e5f62"/>
    <path id="Path_2808" data-name="Path 2808" d="M324.966,403.17a.7.7,0,0,1-.7-.7v-.7a.7.7,0,1,1,1.4,0v.7a.7.7,0,0,1-.7.7Zm0,0" transform="translate(-297.666 -368.17)" fill="#5e5f62"/>
    <path id="Path_2809" data-name="Path 2809" d="M273.769,377.623a.7.7,0,0,1-.5-1.195l.7-.7a.7.7,0,0,1,.99.99l-.7.7A.7.7,0,0,1,273.769,377.623Zm0,0" transform="translate(-250.669 -344.723)" fill="#5e5f62"/>
    <path id="Path_2810" data-name="Path 2810" d="M146.548,7.708a.686.686,0,0,1-.224-.037.7.7,0,0,1-.439-.888,13.926,13.926,0,0,1,4.78-6.64.7.7,0,0,1,.848,1.115,12.533,12.533,0,0,0-4.3,5.975A.7.7,0,0,1,146.548,7.708Zm0,0" transform="translate(-133.884 0)" fill="#c03a2b"/>
    <path id="Path_2811" data-name="Path 2811" d="M178.879,33.563a.7.7,0,0,1-.663-.924,11.148,11.148,0,0,1,3.824-5.312.7.7,0,1,1,.846,1.115,9.736,9.736,0,0,0-3.344,4.646A.7.7,0,0,1,178.879,33.563Zm0,0" transform="translate(-163.563 -24.954)" fill="#c03a2b"/>
    <path id="Path_2812" data-name="Path 2812" d="M444.037,7.708a.7.7,0,0,1-.663-.476,12.521,12.521,0,0,0-4.3-5.975.7.7,0,0,1,.848-1.115,13.932,13.932,0,0,1,4.78,6.64.7.7,0,0,1-.439.888A.686.686,0,0,1,444.037,7.708Zm0,0" transform="translate(-402.801 0)" fill="#c03a2b"/>
    <path id="Path_2813" data-name="Path 2813" d="M422.419,33.563a.7.7,0,0,1-.663-.476,9.742,9.742,0,0,0-3.344-4.646.7.7,0,1,1,.846-1.115,11.141,11.141,0,0,1,3.824,5.312.7.7,0,0,1-.663.924Zm0,0" transform="translate(-383.835 -24.954)" fill="#c03a2b"/>
    <path id="Path_2814" data-name="Path 2814" d="M34.833,258.1a.7.7,0,0,1-.7-.7v-.7a.7.7,0,1,1,1.4,0v.7a.7.7,0,0,1-.7.7Zm0,0" transform="translate(-31.333 -235.004)" fill="#fff"/>
    <path id="Path_2815" data-name="Path 2815" d="M34.833,309.172a.7.7,0,0,1-.7-.7v-9.1a.7.7,0,0,1,1.4,0v9.1a.7.7,0,0,1-.7.7Zm0,0" transform="translate(-31.333 -274.172)" fill="#fff"/>
    <path id="Path_2816" data-name="Path 2816" d="M325.666,256.7v4c-.483.147-.945.308-1.4.469V256.7a.7.7,0,1,1,1.4,0Zm0,0" transform="translate(-297.666 -235.004)" fill="#a5a5a4"/>
    <path id="Path_2817" data-name="Path 2817" d="M249.565,333.5v.007q-.661.336-1.281.693h-.119a.7.7,0,1,1,0-1.4h.7A.7.7,0,0,1,249.565,333.5Zm0,0" transform="translate(-227.165 -305.505)" fill="#a5a5a4"/>
    <g id="Group_613" data-name="Group 613" transform="translate(32.9 18.2)">
      <path id="Path_2818" data-name="Path 2818" d="M408.766,224.321a2.462,2.462,0,0,1-2.45,2.45h-2.8a2.45,2.45,0,1,1,0-4.9h2.8A2.453,2.453,0,0,1,408.766,224.321Zm0,0" transform="translate(-401.066 -221.871)" fill="#fff"/>
      <path id="Path_2819" data-name="Path 2819" d="M408.766,403.52a2.462,2.462,0,0,1-2.45,2.45h-2.8a2.45,2.45,0,1,1,0-4.9h2.8A2.453,2.453,0,0,1,408.766,403.52Zm0,0" transform="translate(-401.066 -386.37)" fill="#fff"/>
      <path id="Path_2820" data-name="Path 2820" d="M417.3,284.056a2.461,2.461,0,0,1-2.45,2.45h-2.8a2.45,2.45,0,0,1,0-4.9h2.8A2.452,2.452,0,0,1,417.3,284.056Zm0,0" transform="translate(-408.901 -276.705)" fill="#fff"/>
      <path id="Path_2821" data-name="Path 2821" d="M417.3,343.786a2.461,2.461,0,0,1-2.45,2.45h-2.8a2.45,2.45,0,0,1,0-4.9h2.8A2.453,2.453,0,0,1,417.3,343.786Zm0,0" transform="translate(-408.901 -331.536)" fill="#fff"/>
    </g>
    <path id="Path_2822" data-name="Path 2822" d="M406.666,224.321a2.462,2.462,0,0,1-2.45,2.45h-.7a2.45,2.45,0,1,1,0-4.9h.7A2.453,2.453,0,0,1,406.666,224.321Zm0,0" transform="translate(-368.166 -203.671)" fill="#fff"/>
    <path id="Path_2823" data-name="Path 2823" d="M406.666,403.52a2.462,2.462,0,0,1-2.45,2.45h-.7a2.45,2.45,0,1,1,0-4.9h.7A2.453,2.453,0,0,1,406.666,403.52Zm0,0" transform="translate(-368.166 -368.17)" fill="#fff"/>
    <path id="Path_2824" data-name="Path 2824" d="M415.2,284.056a2.462,2.462,0,0,1-2.45,2.45h-.7a2.45,2.45,0,0,1,0-4.9h.7A2.453,2.453,0,0,1,415.2,284.056Zm0,0" transform="translate(-376.001 -258.505)" fill="#fff"/>
    <path id="Path_2825" data-name="Path 2825" d="M415.2,343.786a2.462,2.462,0,0,1-2.45,2.45h-.7a2.45,2.45,0,0,1,0-4.9h.7A2.453,2.453,0,0,1,415.2,343.786Zm0,0" transform="translate(-376.001 -313.336)" fill="#fff"/>
    <path id="Path_2826" data-name="Path 2826" d="M40.805,97.979a3.116,3.116,0,0,0-.392-5.168,3.143,3.143,0,0,0-2.263-5.332h-2.8a3.109,3.109,0,0,0-.893.145A12.458,12.458,0,0,0,29.4,85.556V83.718c.14-.015.294-.028.426-.045A3.5,3.5,0,0,0,32.9,80.2v-.42a3.512,3.512,0,0,0-1.027-2.48,3.462,3.462,0,0,0-2.406-1.018h-.009c-.359-.029-8.847-.682-11.841,3.809-2.054,3.078-6.481,6.981-8.477,8.668a2.087,2.087,0,0,0-1.44-.58H2.1a2.1,2.1,0,0,0-2.1,2.1v16.1a2.1,2.1,0,0,0,2.1,2.1H7.7a2.1,2.1,0,0,0,1.971-1.4H10.76a4.261,4.261,0,0,0,3.94,2.1h6.854a12.514,12.514,0,0,0,12.9-.845,3.1,3.1,0,0,0,.893.145h2.8a3.143,3.143,0,0,0,2.263-5.332,3.116,3.116,0,0,0,.392-5.168ZM8.4,106.379a.7.7,0,0,1-.7.7H2.1a.7.7,0,0,1-.7-.7v-16.1a.7.7,0,0,1,.7-.7H7.7a.7.7,0,0,1,.7.7Zm26.95-17.5h2.8a1.75,1.75,0,0,1,0,3.5h-2.8a1.75,1.75,0,0,1,0-3.5Zm-20.65,18.9a2.821,2.821,0,0,1-2.836-1.621.7.7,0,0,0-.664-.479H9.8v-15.4a1.974,1.974,0,0,0-.023-.226c1.888-1.583,6.758-5.818,9.005-9.186,2.536-3.8,10.479-3.2,10.618-3.188a2.1,2.1,0,0,1,2.1,2.1v.42a2.1,2.1,0,0,1-1.844,2.084c-.2.025-.421.045-.636.067A1.386,1.386,0,0,0,28,81.879H26.6a1.394,1.394,0,0,0-1.138.6,12.759,12.759,0,0,1-3.539-.56.7.7,0,0,0-.447,1.327c.268.09.554.168.848.239a9.435,9.435,0,0,1-1.144,3.492,12.659,12.659,0,0,0-5.612,6.44A5.09,5.09,0,0,1,14,93.779a.7.7,0,0,0,0,1.4,5.2,5.2,0,0,0,1.062-.145A12.487,12.487,0,0,0,19.4,107.779ZM28,83.279v2.128c-.233-.013-.465-.028-.7-.028s-.467.022-.7.035V83.279Zm-2.8.585v1.7a12.485,12.485,0,0,0-2.074.536,11.637,11.637,0,0,0,.577-2.369C24.176,83.8,24.678,83.839,25.2,83.864Zm2.1,25.315a11.2,11.2,0,1,1,0-22.4,11.088,11.088,0,0,1,5.815,1.634,3.151,3.151,0,0,0-.733,1.2A9.678,9.678,0,0,0,27.3,88.179a9.8,9.8,0,1,0,0,19.6,9.682,9.682,0,0,0,5.083-1.433,3.15,3.15,0,0,0,.732,1.2A11.088,11.088,0,0,1,27.3,109.179Zm4.959-4.435a8.312,8.312,0,0,1-4.959,1.635,8.4,8.4,0,1,1,0-16.8,8.311,8.311,0,0,1,4.959,1.635,3.144,3.144,0,0,0,1.528,2.134,3.118,3.118,0,0,0,.308,4.632,3.117,3.117,0,0,0-.308,4.632A3.144,3.144,0,0,0,32.259,104.744Zm5.891,2.335h-2.8a1.75,1.75,0,0,1,0-3.5h2.8a1.75,1.75,0,1,1,0,3.5Zm.7-4.9h-2.8a1.75,1.75,0,0,1,0-3.5h2.8a1.75,1.75,0,0,1,0,3.5Zm0-4.9h-2.8a1.75,1.75,0,0,1,0-3.5h2.8a1.75,1.75,0,0,1,0,3.5Zm0,0" transform="translate(0 -69.979)" fill="#472a64"/>
    <path id="Path_2827" data-name="Path 2827" d="M328.466,262.3h-2.8v-5.6a.7.7,0,1,0-1.4,0V263a.7.7,0,0,0,.7.7h3.5a.7.7,0,1,0,0-1.4Zm0,0" transform="translate(-297.666 -235.004)" fill="#472d5e"/>
    <path id="Path_2828" data-name="Path 2828" d="M248.865,332.8h-.7a.7.7,0,1,0,0,1.4h.7a.7.7,0,0,0,0-1.4Zm0,0" transform="translate(-227.165 -305.505)" fill="#472d5e"/>
    <path id="Path_2829" data-name="Path 2829" d="M324.966,401.07a.7.7,0,0,0-.7.7v.7a.7.7,0,1,0,1.4,0v-.7a.7.7,0,0,0-.7-.7Zm0,0" transform="translate(-297.666 -368.17)" fill="#472d5e"/>
    <path id="Path_2830" data-name="Path 2830" d="M273.922,375.728l-.7.7a.7.7,0,1,0,.99.99l.7-.7a.7.7,0,0,0-.99-.99Zm0,0" transform="translate(-250.617 -344.723)" fill="#472d5e"/>
    <path id="Path_2831" data-name="Path 2831" d="M146.325,7.68a.686.686,0,0,0,.224.037.7.7,0,0,0,.663-.476,12.526,12.526,0,0,1,4.3-5.975.7.7,0,0,0-.848-1.115,13.933,13.933,0,0,0-4.78,6.64A.7.7,0,0,0,146.325,7.68Zm0,0" transform="translate(-133.885 -0.009)" fill="#c7417b"/>
    <path id="Path_2832" data-name="Path 2832" d="M180.355,28.872a11.146,11.146,0,0,0-2.168,3.767.7.7,0,1,0,1.326.448,9.734,9.734,0,0,1,3.344-4.646.7.7,0,1,0-.846-1.115A11.172,11.172,0,0,0,180.355,28.872Zm0,0" transform="translate(-163.535 -24.954)" fill="#c7417b"/>
    <path id="Path_2833" data-name="Path 2833" d="M440.937,3a12.568,12.568,0,0,1,2.437,4.236.7.7,0,0,0,.663.476.686.686,0,0,0,.224-.037.7.7,0,0,0,.439-.888,13.922,13.922,0,0,0-4.78-6.64.7.7,0,1,0-.848,1.115A12.64,12.64,0,0,1,440.937,3Zm0,0" transform="translate(-402.801 0)" fill="#c7417b"/>
    <path id="Path_2834" data-name="Path 2834" d="M419.86,29.794a9.723,9.723,0,0,1,1.894,3.293.7.7,0,1,0,1.326-.448,11.141,11.141,0,0,0-3.824-5.312.7.7,0,0,0-.846,1.115A9.823,9.823,0,0,1,419.86,29.794Zm0,0" transform="translate(-383.833 -24.954)" fill="#c7417b"/>
    <path id="Path_2835" data-name="Path 2835" d="M34.833,256a.7.7,0,0,0-.7.7v.7a.7.7,0,1,0,1.4,0v-.7a.7.7,0,0,0-.7-.7Zm0,0" transform="translate(-31.333 -235.004)" fill="#c7417b"/>
    <path id="Path_2836" data-name="Path 2836" d="M34.833,298.672a.7.7,0,0,0-.7.7v9.1a.7.7,0,1,0,1.4,0v-9.1a.7.7,0,0,0-.7-.7Zm0,0" transform="translate(-31.333 -274.172)" fill="#c7417b"/>
  </g>
</svg>
