<svg xmlns="http://www.w3.org/2000/svg" width="13" height="15.427" viewBox="0 0 13 15.427">
  <g id="news_1_" data-name="news (1)" transform="translate(-40.268)">
    <g id="Group_3407" data-name="Group 3407" transform="translate(40.268 0)">
      <g id="Group_3406" data-name="Group 3406">
        <path id="Path_16254" data-name="Path 16254" d="M92.345,268.467h8.406a.226.226,0,1,0,0-.452H92.345a.226.226,0,1,0,0,.452Z" transform="translate(-90.557 -259.94)" fill="#8f3b76"/>
        <path id="Path_16255" data-name="Path 16255" d="M92.345,321.55h8.406a.226.226,0,0,0,0-.452H92.345a.226.226,0,0,0,0,.452Z" transform="translate(-90.557 -311.423)" fill="#8f3b76"/>
        <path id="Path_16256" data-name="Path 16256" d="M254.071,374.181h-3.642a.226.226,0,1,0,0,.452h3.642a.226.226,0,1,0,0-.452Z" transform="translate(-243.878 -362.907)" fill="#8f3b76"/>
        <path id="Path_16257" data-name="Path 16257" d="M254.071,427.265h-3.642a.226.226,0,1,0,0,.452h3.642a.226.226,0,1,0,0-.452Z" transform="translate(-243.878 -414.392)" fill="#8f3b76"/>
        <path id="Path_16258" data-name="Path 16258" d="M92.345,122.107a.226.226,0,0,0,.226-.226v-1.435l1.048,1.518a.255.255,0,0,0,.288.107.266.266,0,0,0,.18-.266l-.02-2.091a.226.226,0,0,0-.226-.224h0a.226.226,0,0,0-.224.228l.014,1.464-1.1-1.59a.226.226,0,0,0-.412.128v2.16A.226.226,0,0,0,92.345,122.107Z" transform="translate(-90.557 -115.891)" fill="#8f3b76"/>
        <path id="Path_16259" data-name="Path 16259" d="M171.085,122.417h.9a.226.226,0,1,0,0-.452h-.677v-.62h.611a.226.226,0,1,0,0-.452h-.611v-.62h.677a.226.226,0,1,0,0-.452h-.9a.226.226,0,0,0-.226.226v2.144A.226.226,0,0,0,171.085,122.417Z" transform="translate(-166.924 -116.211)" fill="#8f3b76"/>
        <path id="Path_16260" data-name="Path 16260" d="M325.441,122.1a.859.859,0,0,0,.867-.655.773.773,0,0,0-.6-.848c-.273-.1-.526-.21-.6-.241a.193.193,0,0,1-.074-.186.26.26,0,0,1,.2-.21.766.766,0,0,1,.636.146.226.226,0,0,0,.29-.347,1.214,1.214,0,0,0-1.057-.232.717.717,0,0,0-.52.578.644.644,0,0,0,.287.637.225.225,0,0,0,.031.017c.012.006.309.138.643.261.223.082.336.208.312.344a.41.41,0,0,1-.422.283.8.8,0,0,1-.587-.246.226.226,0,0,0-.335.3A1.257,1.257,0,0,0,325.441,122.1Z" transform="translate(-315.898 -115.885)" fill="#8f3b76"/>
        <path id="Path_16261" data-name="Path 16261" d="M226.791,121.89a.227.227,0,0,0,.009.032.275.275,0,0,0,.259.183h0a.275.275,0,0,0,.258-.186l0-.006.442-1.43.441,1.43,0,.009a.275.275,0,0,0,.259.183h0a.275.275,0,0,0,.258-.186.237.237,0,0,0,.008-.029l.423-2.127a.226.226,0,1,0-.443-.088l-.285,1.432-.449-1.459a.226.226,0,0,0-.438.022l-.445,1.437-.284-1.436a.226.226,0,0,0-.443.088Z" transform="translate(-220.758 -115.889)" fill="#8f3b76"/>
        <path id="Path_16262" data-name="Path 16262" d="M53.042,4.606a.226.226,0,0,0,.226-.226V.711A.712.712,0,0,0,52.557,0H41.474a1.208,1.208,0,0,0-1.206,1.206h0V14.649a.779.779,0,0,0,.778.778H51.241a.779.779,0,0,0,.778-.778v-.211h.471a.779.779,0,0,0,.778-.778V5.436a.226.226,0,0,0-.452,0V13.66a.326.326,0,0,1-.326.326h-.471V2.874a.914.914,0,0,0-.913-.913H41.474a.755.755,0,0,1,0-1.509H52.55a.266.266,0,0,1,0,.531H42.915a.226.226,0,1,0,0,.452H52.55a.713.713,0,0,0,.266-.051v3a.226.226,0,0,0,.226.226ZM41.474,2.413h9.631a.462.462,0,0,1,.461.461V14.649a.326.326,0,0,1-.326.326H41.046a.326.326,0,0,1-.326-.326V2.147a1.2,1.2,0,0,0,.755.266Z" transform="translate(-40.268 0)" fill="#8f3b76"/>
        <path id="Path_16263" data-name="Path 16263" d="M92.672,360.383h3.082a.554.554,0,0,0,.553-.553v-1.437a.554.554,0,0,0-.553-.553h-.991a.226.226,0,0,0,0,.452h.991a.1.1,0,0,1,.1.1v1.437a.1.1,0,0,1-.1.1H92.672a.1.1,0,0,1-.1-.1v-1.437a.1.1,0,0,1,.1-.1h1.035a.226.226,0,1,0,0-.452H92.672a.554.554,0,0,0-.553.553v1.437A.554.554,0,0,0,92.672,360.383Z" transform="translate(-90.557 -347.057)" fill="#8f3b76"/>
      </g>
    </g>
  </g>
</svg>
