<svg xmlns="http://www.w3.org/2000/svg" width="15" height="18" viewBox="0 0 15 18">
  <g id="bell" transform="translate(-2)">
    <g id="Group_563" data-name="Group 563" transform="translate(7.5 0)">
      <path id="Path_2591" data-name="Path 2591" d="M13.5,4.18a.5.5,0,0,1-.5-.5V2a1,1,0,0,0-2,0V3.68a.5.5,0,0,1-1,0V2a2,2,0,0,1,4,0V3.68A.5.5,0,0,1,13.5,4.18Z" transform="translate(-10 0)" fill="#fff"/>
    </g>
    <g id="Group_564" data-name="Group 564" transform="translate(6 14)">
      <path id="Path_2592" data-name="Path 2592" d="M12,24a3.5,3.5,0,0,1-3.5-3.5.5.5,0,0,1,1,0,2.5,2.5,0,0,0,5,0,.5.5,0,0,1,1,0A3.5,3.5,0,0,1,12,24Z" transform="translate(-8.5 -20)" fill="#fff"/>
    </g>
    <g id="Group_565" data-name="Group 565" transform="translate(2 3)">
      <path id="Path_2593" data-name="Path 2593" d="M15.875,15H3.125A1.069,1.069,0,0,1,2,14a.957.957,0,0,1,.394-.76A4.445,4.445,0,0,0,4.25,9.692V7.667C4.25,5.093,6.605,3,9.5,3s5.25,2.093,5.25,4.667V9.692a4.439,4.439,0,0,0,1.85,3.543A.961.961,0,0,1,17,14,1.069,1.069,0,0,1,15.875,15ZM9.5,3.667a4.276,4.276,0,0,0-4.5,4V9.692a5.078,5.078,0,0,1-2.116,4.053A.321.321,0,0,0,2.75,14a.356.356,0,0,0,.375.333h12.75A.356.356,0,0,0,16.25,14a.32.32,0,0,0-.131-.253A5.083,5.083,0,0,1,14,9.692V7.667a4.276,4.276,0,0,0-4.5-4Z" transform="translate(-2 -3)" fill="#fff"/>
    </g>
  </g>
</svg>
