<svg xmlns="http://www.w3.org/2000/svg" width="40" height="40" viewBox="0 0 40 40">
  <g id="payment_1_" data-name="payment (1)" transform="translate(-1 -1)">
    <path id="Path_2773" data-name="Path 2773" d="M21.774,34.29a1.935,1.935,0,0,1-1.935-1.935V13H5V37.516H23.065V34.29Z" transform="translate(-1.419 -4.258)" fill="#c7417b"/>
    <path id="Path_2774" data-name="Path 2774" d="M31,23H45.194v9.032H31Z" transform="translate(-10.645 -7.806)" fill="#c7417b"/>
    <path id="Path_2775" data-name="Path 2775" d="M23,5h1.29V6.29H23Z" transform="translate(-7.806 -1.419)" fill="#472d5e"/>
    <path id="Path_2776" data-name="Path 2776" d="M13,5h5.161V6.29H13Z" transform="translate(-4.258 -1.419)" fill="#472d5e"/>
    <path id="Path_2777" data-name="Path 2777" d="M15,57h5.161v1.29H15Z" transform="translate(-4.968 -19.871)" fill="#472d5e"/>
    <path id="Path_2778" data-name="Path 2778" d="M29,57h1.29v1.29H29Z" transform="translate(-9.935 -19.871)" fill="#472d5e"/>
    <path id="Path_2779" data-name="Path 2779" d="M7,57H8.29v1.29H7Z" transform="translate(-2.129 -19.871)" fill="#472d5e"/>
    <path id="Path_2780" data-name="Path 2780" d="M37.129,25.516V10.41L31.59,4.871H24.226V4.226A3.229,3.229,0,0,0,21,1H4.226A3.229,3.229,0,0,0,1,4.226V37.774A3.229,3.229,0,0,0,4.226,41H21a3.229,3.229,0,0,0,3.226-3.226v-7.1H38.419A2.583,2.583,0,0,0,41,28.1V25.516ZM33.258,11.323v1.29H21.645V8.742h9.032v2.581Zm-1.29-1.29V7.074l2.959,2.959Zm-1.29-2.581H20.355V13.9H34.548V11.323h1.29V25.516H21.645V28.1a1.29,1.29,0,1,1-2.581,0V6.161H30.677ZM4.226,2.29H21a1.938,1.938,0,0,1,1.935,1.935v.645H17.774v1.29H2.29V4.226A1.938,1.938,0,0,1,4.226,2.29ZM21,39.71H4.226A1.938,1.938,0,0,1,2.29,37.774V35.839H22.935v1.935A1.938,1.938,0,0,1,21,39.71Zm1.935-5.161H2.29V7.452H17.774V28.1a2.583,2.583,0,0,0,2.581,2.581h2.581ZM39.71,28.1a1.292,1.292,0,0,1-1.29,1.29H22.589a2.561,2.561,0,0,0,.346-1.29v-1.29H39.71Z" fill="#472d5e"/>
    <path id="Path_2781" data-name="Path 2781" d="M17.581,25.581a1.292,1.292,0,0,1,1.29,1.29h1.29a2.578,2.578,0,0,0-1.935-2.489V23h-1.29v1.29H15v2.581a2.583,2.583,0,0,0,2.581,2.581,1.292,1.292,0,0,1,1.29,1.29v1.29h-1.29a1.292,1.292,0,0,1-1.29-1.29H15a2.578,2.578,0,0,0,1.935,2.489v1.382h1.29v-1.29h1.935V30.742a2.583,2.583,0,0,0-2.581-2.581,1.292,1.292,0,0,1-1.29-1.29v-1.29Z" transform="translate(-4.968 -7.806)" fill="#472d5e"/>
    <path id="Path_2782" data-name="Path 2782" d="M31,23h1.29v1.29H31Z" transform="translate(-10.645 -7.806)" fill="#472d5e"/>
    <path id="Path_2783" data-name="Path 2783" d="M35,23H46.613v1.29H35Z" transform="translate(-12.065 -7.806)" fill="#472d5e"/>
    <path id="Path_2784" data-name="Path 2784" d="M31,27h1.29v1.29H31Z" transform="translate(-10.645 -9.226)" fill="#472d5e"/>
    <path id="Path_2785" data-name="Path 2785" d="M35,27H46.613v1.29H35Z" transform="translate(-12.065 -9.226)" fill="#472d5e"/>
    <path id="Path_2786" data-name="Path 2786" d="M31,31h1.29v1.29H31Z" transform="translate(-10.645 -10.645)" fill="#472d5e"/>
    <path id="Path_2787" data-name="Path 2787" d="M35,31H46.613v1.29H35Z" transform="translate(-12.065 -10.645)" fill="#472d5e"/>
    <path id="Path_2788" data-name="Path 2788" d="M31,35h1.29v1.29H31Z" transform="translate(-10.645 -12.065)" fill="#472d5e"/>
    <path id="Path_2789" data-name="Path 2789" d="M35,35H46.613v1.29H35Z" transform="translate(-12.065 -12.065)" fill="#472d5e"/>
    <path id="Path_2790" data-name="Path 2790" d="M10.29,38H9v5.806h3.871v-1.29H10.29Z" transform="translate(-2.839 -13.129)" fill="#472d5e"/>
    <path id="Path_2791" data-name="Path 2791" d="M9,34h1.29v1.29H9Z" transform="translate(-2.839 -11.71)" fill="#472d5e"/>
    <path id="Path_2792" data-name="Path 2792" d="M9,17h1.29v1.29H9Z" transform="translate(-2.839 -5.677)" fill="#472d5e"/>
    <path id="Path_2793" data-name="Path 2793" d="M13,17h1.29v1.29H13Z" transform="translate(-4.258 -5.677)" fill="#472d5e"/>
    <path id="Path_2794" data-name="Path 2794" d="M17,17h1.29v1.29H17Z" transform="translate(-5.677 -5.677)" fill="#472d5e"/>
  </g>
</svg>
