<svg xmlns="http://www.w3.org/2000/svg" width="18" height="18" viewBox="0 0 18 18">
  <g id="Group_3903" data-name="Group 3903" transform="translate(-253 -707)">
    <g id="Group_3902" data-name="Group 3902">
      <g id="Ellipse_144" data-name="Ellipse 144" transform="translate(253 707)" fill="#c7417b" stroke="#c7417b" stroke-width="2">
        <circle cx="9" cy="9" r="9" stroke="none"/>
        <circle cx="9" cy="9" r="8" fill="none"/>
      </g>
    </g>
    <g id="arrow" transform="translate(257.128 680.158)">
      <g id="Group_3717" data-name="Group 3717" transform="translate(0 31.842)">
        <path id="Path_17013" data-name="Path 17013" d="M9.4,35.428a.715.715,0,0,0-.124-.009H2.22l.154-.072a1.431,1.431,0,0,0,.4-.286l1.978-1.978a.741.741,0,0,0,.1-.948.715.715,0,0,0-1.073-.093L.21,35.619a.715.715,0,0,0,0,1.012h0l3.577,3.577a.715.715,0,0,0,1.073-.072.741.741,0,0,0-.1-.948L2.782,37.207a1.431,1.431,0,0,0-.358-.261l-.215-.1H9.236a.741.741,0,0,0,.755-.6A.716.716,0,0,0,9.4,35.428Z" transform="translate(0 -31.842)" fill="#fff"/>
      </g>
    </g>
  </g>
</svg>
