<svg xmlns="http://www.w3.org/2000/svg" width="28" height="28" viewBox="0 0 28 28">
  <g id="Group_3909" data-name="Group 3909" transform="translate(-321 -386)">
    <rect id="Rectangle_2229" data-name="Rectangle 2229" width="28" height="28" rx="7" transform="translate(321 386)" fill="#e6ccda"/>
    <g id="play" transform="translate(295.42 394.34)">
      <g id="Group_3716" data-name="Group 3716" transform="translate(35.394 0)">
        <path id="Path_17012" data-name="Path 17012" d="M44.241,5.279a.209.209,0,0,0-.045-.06A.757.757,0,0,0,44.09,5.1a1.059,1.059,0,0,0-.151-.121L40.475,2.587,37,.183a1.012,1.012,0,0,0-.771-.166,1,1,0,0,0-.65.423,1.145,1.145,0,0,0-.136.272.627.627,0,0,0-.045.242v9.694a1.028,1.028,0,0,0,.3.726.967.967,0,0,0,.711.3.887.887,0,0,0,.348-.06.793.793,0,0,0,.287-.166l3.433-2.374,3.448-2.389c.015-.015.045-.03.06-.045a1.06,1.06,0,0,0,.393-.635A1.023,1.023,0,0,0,44.241,5.279Zm-.756.771-3.478,2.4-3.418,2.359a.053.053,0,0,0-.03.015.33.33,0,0,1-.076.045.136.136,0,0,1-.076.015.317.317,0,0,1-.166-.06.227.227,0,0,1-.06-.166V5.839h-.015V1.014A.056.056,0,0,1,36.18.969c0-.015.015-.03.015-.045.015-.015.015-.015.015-.03a.18.18,0,0,1,.136-.076.222.222,0,0,1,.166.03c.015.015.03.015.045.03l3.448,2.389L43.47,5.657c.015.015.03.015.03.03.015.015.015.03.03.03a.4.4,0,0,1,.045.181A.257.257,0,0,1,43.485,6.05Z" transform="translate(-35.394 0)" fill="#8f3b76"/>
      </g>
    </g>
  </g>
</svg>
