<svg xmlns="http://www.w3.org/2000/svg" width="40" height="46.154" viewBox="0 0 40 46.154">
  <g id="Group_3700" data-name="Group 3700" transform="translate(-170 -774.966)">
    <path id="Path_2837" data-name="Path 2837" d="M67.981,22V9.231c0-.016-.008-.03-.009-.047a.772.772,0,0,0-.214-.494l0,0L59.295.226l0,0A.813.813,0,0,0,58.8.01c-.018,0-.033-.01-.051-.01H36.443a2.31,2.31,0,0,0-2.308,2.308V40.769a2.31,2.31,0,0,0,2.308,2.308H52.649A13.064,13.064,0,1,0,67.981,22ZM59.52,2.626l5.835,5.835H60.289a.77.77,0,0,1-.769-.769ZM36.443,41.538a.77.77,0,0,1-.769-.769V2.308a.77.77,0,0,1,.769-.769H57.981V7.692A2.31,2.31,0,0,0,60.289,10h6.154V21.174a12.892,12.892,0,0,0-9.761-.4h-8.7a2.308,2.308,0,0,0,0,4.615h2.525a13.044,13.044,0,0,0-1.668,3.077h-.857a2.308,2.308,0,0,0,0,4.615,13.011,13.011,0,0,0,3.124,8.462H36.443ZM53.656,22.308A13.174,13.174,0,0,0,51.8,23.846H47.981a.77.77,0,0,1-.769-.769.751.751,0,0,1,.235-.548.738.738,0,0,1,.534-.222h5.675ZM48.362,30a12.946,12.946,0,0,0-.282,1.538h-.1a.77.77,0,0,1-.769-.769.751.751,0,0,1,.235-.548A.738.738,0,0,1,47.981,30h.381Zm12.7,14.615A11.538,11.538,0,1,1,72.6,33.077,11.538,11.538,0,0,1,61.058,44.615Z" transform="translate(135.865 774.966)" fill="#472d5e"/>
    <path id="Path_2838" data-name="Path 2838" d="M80.647,59.733H79.109A2.31,2.31,0,0,0,76.8,62.041v1.538a2.31,2.31,0,0,0,2.308,2.308h1.538a2.31,2.31,0,0,0,2.308-2.308V62.041A2.31,2.31,0,0,0,80.647,59.733Zm.769,3.846a.77.77,0,0,1-.769.769H79.109a.77.77,0,0,1-.769-.769V62.041a.77.77,0,0,1,.769-.769h1.538a.77.77,0,0,1,.769.769Z" transform="translate(97.045 720.617)" fill="#472d5e"/>
    <path id="Path_2839" data-name="Path 2839" d="M164.443,64.348H170.6a2.308,2.308,0,1,0,0-4.615h-6.154a2.308,2.308,0,0,0,0,4.615Zm0-3.077H170.6a.769.769,0,0,1,0,1.538h-6.154a.769.769,0,0,1,0-1.538Z" transform="translate(19.404 720.617)" fill="#472d5e"/>
    <path id="Path_2840" data-name="Path 2840" d="M80.647,145.067H79.109a2.31,2.31,0,0,0-2.308,2.308v1.538a2.31,2.31,0,0,0,2.308,2.308h1.538a2.31,2.31,0,0,0,2.308-2.308v-1.538A2.31,2.31,0,0,0,80.647,145.067Zm.769,3.846a.77.77,0,0,1-.769.769H79.109a.77.77,0,0,1-.769-.769v-1.538a.77.77,0,0,1,.769-.769h1.538a.77.77,0,0,1,.769.769Z" transform="translate(97.045 642.975)" fill="#c7417b"/>
    <path id="Path_2841" data-name="Path 2841" d="M164.443,149.682h14.615a2.308,2.308,0,0,0,0-4.615H164.443a2.308,2.308,0,1,0,0,4.615Zm0-3.077h14.615a.769.769,0,1,1,0,1.538H164.443a.769.769,0,0,1,0-1.538Z" transform="translate(19.404 642.975)" fill="#c7417b"/>
    <path id="Path_2842" data-name="Path 2842" d="M80.647,230.4H79.109a2.31,2.31,0,0,0-2.308,2.308v1.538a2.31,2.31,0,0,0,2.308,2.308h1.538a2.31,2.31,0,0,0,2.308-2.308v-1.538A2.31,2.31,0,0,0,80.647,230.4Zm.769,3.846a.77.77,0,0,1-.769.769H79.109a.77.77,0,0,1-.769-.769v-1.538a.77.77,0,0,1,.769-.769h1.538a.77.77,0,0,1,.769.769Z" transform="translate(97.045 565.335)" fill="#472d5e"/>
    <path id="Path_2843" data-name="Path 2843" d="M80.647,315.733H79.109a2.31,2.31,0,0,0-2.308,2.308v1.538a2.31,2.31,0,0,0,2.308,2.308h1.538a2.31,2.31,0,0,0,2.308-2.308v-1.538A2.31,2.31,0,0,0,80.647,315.733Zm.769,3.846a.77.77,0,0,1-.769.769H79.109a.77.77,0,0,1-.769-.769v-1.538a.77.77,0,0,1,.769-.769h1.538a.77.77,0,0,1,.769.769Z" transform="translate(97.045 487.694)" fill="#472d5e"/>
    <g id="Page-1" transform="translate(189.002 800.685)">
      <g id="_001---Thinking" data-name="001---Thinking" transform="translate(-0.002 -0.001)">
        <path id="Shape" d="M13.315,11.176a4.5,4.5,0,0,0-.347,2.325,8.736,8.736,0,0,0,.3,1.522,4.981,4.981,0,0,0,.3.75,6.5,6.5,0,0,1,.4.707L7.695,16.5v0c-.02-.075-.4-1.545-1.232-1.922-.155.055-.32.11-.487.167a16.922,16.922,0,0,1-1.692.49.643.643,0,0,1-.465-.065.786.786,0,0,1-.337-.432,1.246,1.246,0,0,1-.07-.557,1.55,1.55,0,0,0,.057-.595c-.065-.252-.3-.315-.5-.45-.152-.11.125-.462.125-.462s-.295-.217-.4-.312.045-.245.182-.537a.682.682,0,0,0,.047-.4c-.052-.267-.46-.37-.657-.517-.095-.07-.247-.175-.265-.3-.027-.177.182-.427.285-.552A9.833,9.833,0,0,0,3.4,8.229a.515.515,0,0,0,.07-.222c0-.357-.522-.5-.57-.852a.616.616,0,0,1,.052-.3,7.63,7.63,0,0,0,.37-.945,7.535,7.535,0,0,1,.237-.875,4.569,4.569,0,0,1,.95-1.55A4.41,4.41,0,0,1,6.885,2.349a16.666,16.666,0,0,1,2.307-.337l.075,0a5.885,5.885,0,0,1,4.1,1.432A3.9,3.9,0,0,1,14.78,5.462a7.27,7.27,0,0,1,.252,2.05,3.594,3.594,0,0,1-.575,1.925A13.454,13.454,0,0,0,13.315,11.176Z" transform="translate(-1.75 -1.749)" fill="#c7417b"/>
        <path id="Shape-2" data-name="Shape" d="M12.565,11.215a4.5,4.5,0,0,0-.347,2.325,8.736,8.736,0,0,0,.3,1.522,4.981,4.981,0,0,0,.3.75,6.5,6.5,0,0,1,.4.707l-4.807.013-.717,0a3.793,3.793,0,0,0-.977-1.765,1.232,1.232,0,0,0-.255-.157l-.02.008c-.15.052-.307.1-.467.16l-.01-.008a1.047,1.047,0,0,0-.252-.16c-.422.147-.91.31-1.355.442-.19.057-.372.107-.54.15a.786.786,0,0,1-.337-.432,1.246,1.246,0,0,1-.07-.557,1.55,1.55,0,0,0,.057-.595c-.065-.252-.3-.315-.5-.45-.152-.11.125-.462.125-.462s-.295-.217-.4-.312.045-.245.182-.537a.682.682,0,0,0,.047-.4c-.052-.267-.46-.37-.657-.517-.095-.07-.247-.175-.265-.3-.027-.177.182-.427.285-.552A9.833,9.833,0,0,0,3.4,8.267a.515.515,0,0,0,.07-.222c0-.357-.522-.5-.57-.852a.616.616,0,0,1,.052-.3,7.63,7.63,0,0,0,.37-.945,7.535,7.535,0,0,1,.237-.875,4.569,4.569,0,0,1,.95-1.55A4.41,4.41,0,0,1,6.885,2.387,16.666,16.666,0,0,1,9.192,2.05c.112.007.222.017.33.032a6.164,6.164,0,0,1,3.1,1.395A3.9,3.9,0,0,1,14.03,5.5a7.27,7.27,0,0,1,.252,2.05,3.594,3.594,0,0,1-.575,1.925A13.454,13.454,0,0,0,12.565,11.215Z" transform="translate(-1.75 -1.787)" fill="#c7417b"/>
        <path id="Shape-3" data-name="Shape" d="M14.717,11.312a4.5,4.5,0,0,0-.347,2.325,8.736,8.736,0,0,0,.3,1.522,4.981,4.981,0,0,0,.3.75,6.5,6.5,0,0,1,.4.707l-4.807.013c-.025-.095-.4-1.545-1.232-1.92-.147.052-.3.1-.462.157a.1.1,0,0,1-.025.01,1.033,1.033,0,0,0-.25-.16l-.012-.008c-.147.052-.3.1-.465.16-.487.162-1.01.327-1.43.432a.631.631,0,0,1-.177-.15.841.841,0,0,1-.16-.282,1.246,1.246,0,0,1-.07-.557,1.55,1.55,0,0,0,.057-.595c-.065-.252-.3-.315-.5-.45-.152-.11.125-.462.125-.462s-.295-.217-.4-.312.045-.245.182-.537a.682.682,0,0,0,.047-.4c-.052-.267-.46-.37-.657-.517-.095-.07-.247-.175-.265-.3-.027-.177.182-.427.285-.552A9.833,9.833,0,0,0,6.273,8.365a.515.515,0,0,0,.07-.222c-.005-.357-.522-.5-.57-.852a.616.616,0,0,1,.052-.3,7.63,7.63,0,0,0,.37-.945,7.535,7.535,0,0,1,.237-.875,4.569,4.569,0,0,1,.95-1.55A4.41,4.41,0,0,1,9.755,2.485a17.636,17.636,0,0,1,1.92-.3,6.164,6.164,0,0,1,3.1,1.395A3.9,3.9,0,0,1,16.182,5.6a7.27,7.27,0,0,1,.252,2.05,3.594,3.594,0,0,1-.575,1.925A13.454,13.454,0,0,0,14.717,11.312Z" transform="translate(-3.902 -1.885)" fill="#c7417b"/>
        <path id="Shape-4" data-name="Shape" d="M42,4.765v.47a.2.2,0,0,1-.16.2l-.715.142a2.079,2.079,0,0,1-.217.52l.407.607a.2.2,0,0,1-.027.252l-.332.332a.2.2,0,0,1-.252.027l-.607-.407L40,6.96a2.025,2.025,0,0,1-.425.165l-.042.22L38.9,7.47a2.664,2.664,0,0,1-.2.52.192.192,0,0,1-.137-.15l-.142-.715a2.079,2.079,0,0,1-.52-.217l-.607.407a.2.2,0,0,1-.252-.027l-.332-.332a.2.2,0,0,1-.028-.252l.407-.607a2.079,2.079,0,0,1-.217-.52l-.715-.142a.2.2,0,0,1-.16-.2v-.47a.2.2,0,0,1,.16-.2l.715-.142a1.772,1.772,0,0,1,.117-.322,1.463,1.463,0,0,1,.1-.2l-.23-.342L36.685,3.3a.207.207,0,0,1,.018-.242l.01-.01.332-.332a.2.2,0,0,1,.252-.027l.607.407a2.079,2.079,0,0,1,.52-.217l.142-.715a.2.2,0,0,1,.2-.16h.47a.2.2,0,0,1,.2.16l.142.715a2.079,2.079,0,0,1,.52.217l.607-.407a.2.2,0,0,1,.252.027l.332.332a.2.2,0,0,1,.027.252l-.407.607a2.079,2.079,0,0,1,.217.52l.715.142A.2.2,0,0,1,42,4.765Z" transform="translate(-27.25 -1.75)" fill="#472d5e"/>
        <path id="Shape-5" data-name="Shape" d="M54.472,6.725V7.2a.2.2,0,0,1-.16.2l-.715.142a2.08,2.08,0,0,1-.217.52l.407.607a.2.2,0,0,1-.027.252l-.332.332a.2.2,0,0,1-.252.027l-.315-.21.15-.15a.2.2,0,0,0,.027-.252l-.407-.607a2.08,2.08,0,0,0,.217-.52l.715-.142a.2.2,0,0,0,.16-.2v-.47a.2.2,0,0,0-.16-.2l-.715-.142a2.08,2.08,0,0,0-.217-.52l.407-.607a.2.2,0,0,0-.027-.252l-.15-.15.315-.21a.2.2,0,0,1,.252.027l.332.332a.2.2,0,0,1,.027.252l-.407.607a2.08,2.08,0,0,1,.217.52l.715.142A.2.2,0,0,1,54.472,6.725Z" transform="translate(-39.722 -3.71)" fill="#472d5e"/>
        <path id="Shape-6" data-name="Shape" d="M45.5,10.25a1.25,1.25,0,0,1-1.25,1.25,1.334,1.334,0,0,1-.375-.055,1.253,1.253,0,0,1,0-2.39A1.334,1.334,0,0,1,44.25,9,1.25,1.25,0,0,1,45.5,10.25Z" transform="translate(-32.5 -7)" fill="#fff"/>
        <ellipse id="Oval" cx="0.875" cy="1.195" rx="0.875" ry="1.195" transform="translate(10.5 2.055)" fill="#fff"/>
        <path id="Shape-7" data-name="Shape" d="M29.5,9.455v.59a.25.25,0,0,1-.2.245l-.267.055-.627.125a2.664,2.664,0,0,1-.2.52c-.022.045-.045.087-.07.13l.507.757a.25.25,0,0,1-.033.315l-.417.417a.25.25,0,0,1-.315.033l-.757-.507a2.7,2.7,0,0,1-.65.27l-.18.895a.25.25,0,0,1-.245.2h-.59a.25.25,0,0,1-.245-.2l-.18-.895a2.7,2.7,0,0,1-.65-.27l-.757.507a.25.25,0,0,1-.315-.033l-.417-.417a.25.25,0,0,1-.032-.315l.507-.757a2.7,2.7,0,0,1-.27-.65l-.895-.18a.25.25,0,0,1-.2-.245v-.59a.25.25,0,0,1,.2-.245l.895-.18a2.7,2.7,0,0,1,.27-.65l-.507-.757a.25.25,0,0,1,.032-.315l.417-.417a.25.25,0,0,1,.315-.032l.757.507a2.7,2.7,0,0,1,.65-.27l.18-.895a.25.25,0,0,1,.245-.2h.59a.248.248,0,0,1,.245.2l.072.362.107.532.022.008a2.623,2.623,0,0,1,.627.262l.757-.507a.25.25,0,0,1,.315.032l.417.417a.25.25,0,0,1,.033.315l-.507.757a2.7,2.7,0,0,1,.27.65l.895.18A.25.25,0,0,1,29.5,9.455Z" transform="translate(-16.75 -4.75)" fill="#472d5e"/>
        <path id="Shape-8" data-name="Shape" d="M45.655,11.9v.59a.25.25,0,0,1-.2.245l-.267.055-.452.09-.175.035a2.664,2.664,0,0,1-.2.52c-.022.045-.045.087-.07.13l.507.757a.25.25,0,0,1-.032.315l-.417.417a.25.25,0,0,1-.315.033l-.28-.187.262-.262a.25.25,0,0,0,.032-.315l-.507-.757c.025-.042.047-.085.07-.13a2.663,2.663,0,0,0,.2-.52l.627-.125.267-.055a.25.25,0,0,0,.2-.245V11.9a.25.25,0,0,0-.2-.245l-.895-.18a2.7,2.7,0,0,0-.27-.65l.507-.757a.25.25,0,0,0-.032-.315l-.262-.262.28-.187a.25.25,0,0,1,.315.032l.417.417a.25.25,0,0,1,.032.315l-.507.757a2.7,2.7,0,0,1,.27.65l.895.18A.25.25,0,0,1,45.655,11.9Z" transform="translate(-32.905 -7.198)" fill="#472d5e"/>
        <ellipse id="Oval-2" data-name="Oval" cx="1.377" cy="1.514" rx="1.377" ry="1.514" transform="translate(7.71 3.391)" fill="#fff"/>
        <path id="Shape-9" data-name="Shape" d="M4.885,10.718c.1-.273.231-.51.31-.742.019-.057.036-.115.05-.17l.045-.2c.031-.134.064-.269.1-.406a4.857,4.857,0,0,1,.758-1.527,4.507,4.507,0,0,1,.342-.408l.363.343a4.073,4.073,0,0,0-.3.364A4.366,4.366,0,0,0,5.874,9.34c-.036.125-.067.251-.1.381l-.045.2q-.028.115-.064.22c-.1.282-.227.525-.316.757Z" transform="translate(-3.913 -5.699)" fill="#fff"/>
        <path id="Shape-10" data-name="Shape" d="M5.539,16.719a.251.251,0,0,0-.3.185,8.225,8.225,0,0,1-.357.9l.467.178a7.921,7.921,0,0,0,.375-.96.25.25,0,0,0-.185-.3Z" transform="translate(-3.911 -12.784)" fill="#472d5e"/>
        <path id="Shape-11" data-name="Shape" d="M10.077,7.607l-.363-.343a4.507,4.507,0,0,0-.342.409q-.079.106-.151.216a.245.245,0,0,0,.077.35.257.257,0,0,0,.34-.075q.065-.1.135-.193A4.073,4.073,0,0,1,10.077,7.607Z" transform="translate(-7.132 -5.698)" fill="#472d5e"/>
        <path id="Shape-12" data-name="Shape" d="M7.375,13.015a.266.266,0,0,0,0,.2l.025.041a.187.187,0,0,0,.035.036.153.153,0,0,0,.038.028.354.354,0,0,0,.046.02.277.277,0,0,0,.191-.012.263.263,0,0,0,.075-.056.246.246,0,0,0,.048-.261.28.28,0,0,0-.055-.08.261.261,0,0,0-.079-.057.253.253,0,0,0-.192,0A.267.267,0,0,0,7.375,13.015Z" transform="translate(-5.767 -9.889)" fill="#472d5e"/>
        <path id="Shape-13" data-name="Shape" d="M3.377,29.307a.937.937,0,0,1-.884-.681,1.469,1.469,0,0,1-.084-.673c.009-.066.023-.131.038-.2a.69.69,0,0,0,.027-.3c-.02-.078-.077-.117-.225-.2a1.93,1.93,0,0,1-.175-.109.361.361,0,0,1-.147-.245.63.63,0,0,1,.081-.361c-.085-.065-.178-.139-.232-.187-.231-.189-.078-.46.014-.621.033-.059.073-.128.11-.208a.432.432,0,0,0,.028-.252c-.013-.065-.194-.157-.3-.213a1.835,1.835,0,0,1-.259-.15A.766.766,0,0,1,1,24.437a1.039,1.039,0,0,1,.331-.735,9.65,9.65,0,0,0,1.094-1.778.423.423,0,0,0,.042-.108c0-.069-.082-.148-.2-.26A.961.961,0,0,1,1.9,21a.873.873,0,0,1,.068-.42.25.25,0,1,1,.469.173.5.5,0,0,0-.041.18c.011.075.106.161.208.254a.875.875,0,0,1,.367.625.743.743,0,0,1-.1.338,10.086,10.086,0,0,1-1.144,1.858c-.19.232-.231.325-.231.362a1.065,1.065,0,0,0,.15.121,1.445,1.445,0,0,0,.206.12c.213.109.505.258.565.563a.933.933,0,0,1-.066.559c-.043.093-.088.173-.128.242l-.038.067c.1.083.245.189.3.233a.25.25,0,0,1,.047.356.92.92,0,0,0-.1.155l.055.03a.828.828,0,0,1,.461.51,1.091,1.091,0,0,1-.025.538c-.011.05-.023.1-.03.153a1,1,0,0,0,.062.443.445.445,0,0,0,.515.333,19.468,19.468,0,0,0,2.148-.65.25.25,0,1,1,.164.472,19.664,19.664,0,0,1-2.212.666A1.017,1.017,0,0,1,3.377,29.307ZM2.1,25.973l.008.007Z" transform="translate(-0.998 -15.558)" fill="#472d5e"/>
        <path id="Shape-14" data-name="Shape" d="M11.3,2.986a.25.25,0,0,1-.182-.422,4.54,4.54,0,0,1,2.505-1.211,16.687,16.687,0,0,1,2.418-.347,6.081,6.081,0,0,1,.869.017.251.251,0,0,1-.046.5,5.472,5.472,0,0,0-.8-.017,16.245,16.245,0,0,0-2.345.337,4.124,4.124,0,0,0-2.241,1.064A.25.25,0,0,1,11.3,2.986Z" transform="translate(-8.537 -0.999)" fill="#472d5e"/>
        <path id="Shape-15" data-name="Shape" d="M10.638,9.356a.25.25,0,0,1-.189-.3,4.644,4.644,0,0,1,.147-.513,3.79,3.79,0,0,1,.792-1.3,3.674,3.674,0,0,1,1.979-.918.25.25,0,0,1,.1.49,3.2,3.2,0,0,0-1.713.771,3.3,3.3,0,0,0-.686,1.125,4.24,4.24,0,0,0-.131.459A.25.25,0,0,1,10.638,9.356Z" transform="translate(-8.081 -4.989)" fill="#472d5e"/>
        <path id="Shape-16" data-name="Shape" d="M20.332,34.907a.25.25,0,0,1-.243-.19c-.1-.4-.482-1.481-1.093-1.757a.25.25,0,0,1,.023-.464c.26-.088.5-.171.681-.235s.3-.106.373-.128c1.039-.331,1.25-.705,1.244-.961a.25.25,0,0,1,.245-.256.245.245,0,0,1,.256.244c.015.62-.521,1.108-1.591,1.45-.065.021-.192.065-.36.125l-.225.078a3.987,3.987,0,0,1,.88,1.6l5.67-.016-.017-.025a2.733,2.733,0,0,1-.194-.325,5.214,5.214,0,0,1-.31-.784,8.872,8.872,0,0,1-.314-1.566,4.729,4.729,0,0,1,.366-2.455,6.041,6.041,0,0,1,.736-1.171c.145-.2.295-.4.425-.6a3.375,3.375,0,0,0,.45-1.062.25.25,0,0,1,.487.113,3.866,3.866,0,0,1-.515,1.217c-.14.22-.3.43-.445.632a5.588,5.588,0,0,0-.679,1.073,4.232,4.232,0,0,0-.328,2.2,8.425,8.425,0,0,0,.3,1.479,4.759,4.759,0,0,0,.282.712,2.32,2.32,0,0,0,.162.27,1.931,1.931,0,0,1,.253.475.25.25,0,0,1-.238.325l-6.275.017Z" transform="translate(-14.387 -19.907)" fill="#472d5e"/>
        <path id="Shape-17" data-name="Shape" d="M25.295,13H24.7a.5.5,0,0,1-.49-.4l-.15-.747a2.976,2.976,0,0,1-.421-.175l-.632.424a.5.5,0,0,1-.633-.066l-.415-.415a.5.5,0,0,1-.065-.628l.425-.635a2.976,2.976,0,0,1-.175-.421l-.748-.15a.5.5,0,0,1-.4-.49V8.7a.5.5,0,0,1,.4-.49l.747-.15a2.976,2.976,0,0,1,.175-.421L21.9,7.012a.5.5,0,0,1,.066-.634l.415-.415a.5.5,0,0,1,.628-.065l.635.425a2.976,2.976,0,0,1,.421-.175l.15-.748A.5.5,0,0,1,24.7,5h.59a.5.5,0,0,1,.49.4l.15.747a2.976,2.976,0,0,1,.421.175l.632-.424a.5.5,0,0,1,.634.066l.415.415a.5.5,0,0,1,.065.628l-.425.635a2.976,2.976,0,0,1,.175.421l.748.15a.5.5,0,0,1,.4.49v.59a.5.5,0,0,1-.4.49l-.747.15a2.976,2.976,0,0,1-.175.421l.424.632a.5.5,0,0,1-.066.634l-.415.415a.5.5,0,0,1-.628.065l-.635-.425a2.976,2.976,0,0,1-.421.175l-.15.748A.5.5,0,0,1,25.295,13ZM23.63,11.135a.25.25,0,0,1,.125.034,2.463,2.463,0,0,0,.59.245.25.25,0,0,1,.18.192l.18.894h.59l.18-.894a.25.25,0,0,1,.18-.192,2.463,2.463,0,0,0,.59-.245.25.25,0,0,1,.264.008l.757.507.417-.419-.506-.756a.25.25,0,0,1-.009-.264,2.463,2.463,0,0,0,.245-.59.25.25,0,0,1,.192-.18l.894-.18V8.7l-.894-.18a.25.25,0,0,1-.192-.18,2.463,2.463,0,0,0-.245-.59.25.25,0,0,1,.009-.264l.507-.757-.419-.416-.756.506a.25.25,0,0,1-.264.008,2.463,2.463,0,0,0-.59-.245.25.25,0,0,1-.18-.192l-.18-.894H24.7l-.18.894a.25.25,0,0,1-.18.192,2.463,2.463,0,0,0-.59.245.25.25,0,0,1-.264-.008l-.757-.507-.417.419.506.756a.25.25,0,0,1,.008.264,2.463,2.463,0,0,0-.245.59.25.25,0,0,1-.192.18L21.5,8.7v.59l.894.18a.25.25,0,0,1,.192.18,2.462,2.462,0,0,0,.245.59.25.25,0,0,1-.009.264l-.507.757.419.417.756-.506A.251.251,0,0,1,23.63,11.135Z" transform="translate(-16 -4)" fill="#8f3b76"/>
        <path id="Shape-18" data-name="Shape" d="M42.178,6.847a.456.456,0,0,1-.243-.07l-.489-.327A.25.25,0,0,1,41.241,6l.105-.06a.25.25,0,0,1,.253.015l.571.383.277-.277-.383-.572a.25.25,0,0,1-.007-.267,1.829,1.829,0,0,0,.191-.457.25.25,0,0,1,.192-.18l.675-.134V4.054l-.674-.134a.25.25,0,0,1-.192-.18,1.829,1.829,0,0,0-.191-.457.25.25,0,0,1,.006-.267l.383-.571-.277-.277L41.6,2.55a.25.25,0,0,1-.267.007,1.829,1.829,0,0,0-.457-.191.25.25,0,0,1-.18-.192L40.561,1.5H40.17l-.134.675a.25.25,0,0,1-.18.192,1.829,1.829,0,0,0-.457.191.25.25,0,0,1-.267-.009l-.571-.383-.3.3a.257.257,0,0,1-.36.006.242.242,0,0,1-.007-.347l.342-.342a.452.452,0,0,1,.562-.062l.489.327a2.314,2.314,0,0,1,.29-.121l.113-.568A.45.45,0,0,1,40.13,1h.47a.45.45,0,0,1,.443.364l.113.566a2.35,2.35,0,0,1,.29.121l.482-.323a.454.454,0,0,1,.568.058l.332.332a.452.452,0,0,1,.063.562l-.327.488a2.313,2.313,0,0,1,.121.29l.568.113a.45.45,0,0,1,.36.443v.47a.45.45,0,0,1-.364.443l-.566.113a2.349,2.349,0,0,1-.121.29l.323.482a.454.454,0,0,1-.058.568l-.332.332A.45.45,0,0,1,42.178,6.847Z" transform="translate(-28.615 -1)" fill="#8f3b76"/>
        <path id="Shape-19" data-name="Shape" d="M31.75,17.5a1.75,1.75,0,1,1,1.75-1.75A1.75,1.75,0,0,1,31.75,17.5Zm0-3A1.25,1.25,0,1,0,33,15.75,1.25,1.25,0,0,0,31.75,14.5Z" transform="translate(-22.75 -10.75)" fill="#8f3b76"/>
        <ellipse id="Oval-3" data-name="Oval" cx="0.275" cy="0.138" rx="0.275" ry="0.138" transform="translate(8.536 5.043)" fill="#fff"/>
        <path id="Shape-20" data-name="Shape" d="M46.643,10.9a.25.25,0,0,1-.1-.48,1,1,0,0,0-.4-1.918.947.947,0,0,0-.334.059.25.25,0,0,1-.175-.468A1.446,1.446,0,0,1,46.148,8a1.5,1.5,0,0,1,.592,2.877A.25.25,0,0,1,46.643,10.9Z" transform="translate(-34.365 -6.25)" fill="#8f3b76"/>
        <ellipse id="Oval-4" data-name="Oval" cx="0.275" cy="0.138" rx="0.275" ry="0.138" transform="translate(1.927 5.043)" fill="#472d5e"/>
      </g>
    </g>
  </g>
</svg>
