<svg xmlns="http://www.w3.org/2000/svg" width="30" height="30.491" viewBox="0 0 30 30.491">
  <g id="bin_1_" data-name="bin (1)" transform="translate(-5.13 -2)">
    <path id="Path_17500" data-name="Path 17500" d="M17.922,4.284a.525.525,0,0,0-.743,0L5.284,16.179a.525.525,0,0,0,0,.743L6.4,18.038,19.038,5.4Z" transform="translate(0 -1.01)" fill="#fff"/>
    <path id="Path_17501" data-name="Path 17501" d="M12.3,7.579a.527.527,0,0,1,.744,0l1.115,1.115.743-.743L13.783,6.836a1.578,1.578,0,0,0-2.231,0L7.835,10.553a1.579,1.579,0,0,0,0,2.231L8.95,13.9l.743-.743L8.578,12.04a.527.527,0,0,1,0-.744Z" transform="translate(-1.064 -2.075)" fill="#fff"/>
    <path id="Path_17502" data-name="Path 17502" d="M31.526,42.617a.527.527,0,0,0,.526-.526V30.526a.526.526,0,1,0-1.051,0V42.091A.527.527,0,0,0,31.526,42.617Z" transform="translate(-12.27 -13.28)" fill="#fff"/>
    <path id="Path_17503" data-name="Path 17503" d="M39.526,42.617a.527.527,0,0,0,.526-.526V30.526a.526.526,0,1,0-1.051,0V42.091A.527.527,0,0,0,39.526,42.617Z" transform="translate(-16.065 -13.28)" fill="#fff"/>
    <path id="Path_17504" data-name="Path 17504" d="M15.351,24.845,17.67,42.468a.527.527,0,0,0,.521.457H30.015a.528.528,0,0,0,.521-.457L32.967,24H16.2ZM26.732,27.68a1.577,1.577,0,0,1,3.154,0V39.245a1.577,1.577,0,1,1-3.154,0Zm-4.206,0a1.577,1.577,0,0,1,3.154,0V39.245a1.577,1.577,0,1,1-3.154,0Zm-4.206,0a1.577,1.577,0,0,1,3.154,0V39.245a1.577,1.577,0,1,1-3.154,0Z" transform="translate(-4.848 -10.435)" fill="#fff"/>
    <path id="Path_17505" data-name="Path 17505" d="M23.526,42.617a.527.527,0,0,0,.526-.526V30.526a.526.526,0,1,0-1.051,0V42.091A.527.527,0,0,0,23.526,42.617Z" transform="translate(-8.476 -13.28)" fill="#fff"/>
    <path id="Path_17506" data-name="Path 17506" d="M30,15.1l2.1,1.051h2.628L33.68,13.526,31.577,13Z" transform="translate(-11.796 -5.217)" fill="#fff"/>
    <path id="Path_17507" data-name="Path 17507" d="M45.628,10,43,10.526v1.051l.526,2.1,4.206-.526-1.577-2.1Z" transform="translate(-17.962 -3.794)" fill="#fff"/>
    <path id="Path_17508" data-name="Path 17508" d="M44,2h1.051V3.051H44Z" transform="translate(-18.436)" fill="#fff"/>
    <path id="Path_17509" data-name="Path 17509" d="M52.8,7.062l.641.834a5.084,5.084,0,0,1,4.09-.953l.207-1.031A6.129,6.129,0,0,0,52.8,7.062Z" transform="translate(-22.612 -1.799)" fill="#fff"/>
    <path id="Path_17510" data-name="Path 17510" d="M57,12h1.051v1.051H57Z" transform="translate(-24.602 -4.743)" fill="#fff"/>
    <path id="Path_17511" data-name="Path 17511" d="M50.628,3.051V2A2.631,2.631,0,0,0,48,4.628h1.051A1.579,1.579,0,0,1,50.628,3.051Z" transform="translate(-20.333)" fill="#fff"/>
  </g>
</svg>
