<svg id="coach" xmlns="http://www.w3.org/2000/svg" width="40" height="38.507" viewBox="0 0 40 38.507">
  <g id="Group_3918" data-name="Group 3918" transform="translate(5.548 0.564)">
    <g id="Group_3914" data-name="Group 3914" transform="translate(2.492 23.673)">
      <path id="Path_17599" data-name="Path 17599" d="M111.883,322.266a4.984,4.984,0,0,0-4.984,4.984v7.476a1.246,1.246,0,0,0,1.246,1.246h9.968l1.246-.508,1.246.508h9.968a1.246,1.246,0,0,0,1.246-1.246V327.25a4.984,4.984,0,0,0-4.984-4.984h-1.246l-6.23,1.869-6.23-1.869Z" transform="translate(-106.899 -322.266)" fill="#c7417b"/>
      <g id="Group_3913" data-name="Group 3913" transform="translate(18.207)">
        <g id="Group_3912" data-name="Group 3912">
          <path id="Path_17600" data-name="Path 17600" d="M350.717,322.266h-1.729a4.984,4.984,0,0,1,4.983,4.984v7.476a1.246,1.246,0,0,1-1.246,1.246h1.73a1.246,1.246,0,0,0,1.246-1.246V327.25A4.984,4.984,0,0,0,350.717,322.266Z" transform="translate(-348.988 -322.266)" fill="#c7417b"/>
        </g>
      </g>
    </g>
    <g id="Group_3915" data-name="Group 3915" transform="translate(8.722 23.673)">
      <path id="Path_17601" data-name="Path 17601" d="M256,362h2.492v10.717H256Z" transform="translate(-251.017 -359.012)" fill="#cfd7e6"/>
      <path id="Path_17602" data-name="Path 17602" d="M202.194,322.266a6.229,6.229,0,0,1-3.365,5.534.626.626,0,0,1-.677-.063L195.964,326l-2.187,1.732a.626.626,0,0,1-.677.063,6.229,6.229,0,0,1-3.365-5.534Z" transform="translate(-189.734 -322.266)" fill="#f3f5f9"/>
    </g>
    <g id="Group_3916" data-name="Group 3916" transform="translate(6.037)">
      <path id="Path_17604" data-name="Path 17604" d="M181.456,15.3V11.239A3.738,3.738,0,0,1,185.194,7.5h6.23a3.738,3.738,0,0,1,3.738,3.738V15.3Z" transform="translate(-179.393 -7.501)" fill="#c7417b"/>
      <path id="Path_17605" data-name="Path 17605" d="M222.872,15.3V11.239a3.738,3.738,0,0,1,7.476,0V15.3Z" transform="translate(-217.695 -7.501)" fill="#e9efff"/>
      <path id="Path_17606" data-name="Path 17606" d="M292.674,7.5H290.94a3.738,3.738,0,0,1,3.738,3.738V15.3h1.734V11.238A3.738,3.738,0,0,0,292.674,7.5Z" transform="translate(-280.643 -7.5)" fill="#c7417b"/>
      <path id="Path_17608" data-name="Path 17608" d="M230.347,272.566V276.3a3.738,3.738,0,1,1-7.476,0v-3.738Z" transform="translate(-217.694 -252.631)" fill="#fff"/>
      <path id="Path_17609" data-name="Path 17609" d="M157.851,145.015a1.246,1.246,0,0,1-1.246-1.246v-2.492a1.246,1.246,0,0,1,1.246-1.246H172.8a1.246,1.246,0,0,1,1.246,1.246v2.492a1.246,1.246,0,0,1-1.246,1.246Z" transform="translate(-156.411 -130.063)" fill="#fff"/>
      <path id="Path_17610" data-name="Path 17610" d="M350.7,140.033h-1.73a1.246,1.246,0,0,1,1.246,1.246v2.492a1.246,1.246,0,0,1-1.246,1.246h1.73a1.246,1.246,0,0,0,1.246-1.246v-2.492A1.246,1.246,0,0,0,350.7,140.033Z" transform="translate(-334.311 -130.065)" fill="#fff"/>
      <path id="Path_17611" data-name="Path 17611" d="M189.738,114.006v6.365a6.23,6.23,0,1,0,12.46,0v-6.365l-6.23-.623Z" transform="translate(-187.053 -105.42)" fill="#fff"/>
      <path id="Path_17612" data-name="Path 17612" d="M171.563,94.2a1.229,1.229,0,0,1-1.544.286,15.917,15.917,0,0,0-14.145,0,1.229,1.229,0,0,1-1.544-.286l-.006-.008a1.247,1.247,0,0,1,.351-1.894,18.416,18.416,0,0,1,16.543,0,1.247,1.247,0,0,1,.351,1.894Z" transform="translate(-154.031 -84.103)" fill="#c7417b"/>
      <path id="Path_17613" data-name="Path 17613" d="M270.208,92.3a16.97,16.97,0,0,0-8.272-1.962c-.3,0-.583.007-.865.019a16.651,16.651,0,0,1,7.407,1.943,1.247,1.247,0,0,1,.351,1.894l-.006.008a1.233,1.233,0,0,1-.12.123c.109.056.212.11.306.163a1.229,1.229,0,0,0,1.544-.286l.006-.008a1.247,1.247,0,0,0-.351-1.894Z" transform="translate(-253.022 -84.104)" fill="#c7417b"/>
    </g>
    <g id="Group_3917" data-name="Group 3917" transform="translate(20.358 17.444)">
      <path id="Path_17614" data-name="Path 17614" d="M421.667,263.666h2.492V267.6h-2.492Z" transform="translate(-415.859 -261.843)" fill="#fff"/>
      <path id="Path_17615" data-name="Path 17615" d="M409.482,241.925H405.7a.6.6,0,0,1-.6-.6v-1.289a.6.6,0,0,1,.6-.6h3.781a.6.6,0,0,1,.6.6v1.289A.6.6,0,0,1,409.482,241.925Z" transform="translate(-400.538 -239.433)" fill="#c7417b"/>
      <path id="Path_17616" data-name="Path 17616" d="M442.1,239.433h-1.73a.6.6,0,0,1,.6.6v1.289a.6.6,0,0,1-.6.6h1.73a.6.6,0,0,0,.6-.6v-1.289A.6.6,0,0,0,442.1,239.433Z" transform="translate(-433.153 -239.433)" fill="#c7417b"/>
      <circle id="Ellipse_166" data-name="Ellipse 166" cx="4.984" cy="4.984" r="4.984" transform="translate(0 9.968) rotate(-45)" fill="#f3f5f9"/>
    </g>
    <path id="Path_17618" data-name="Path 17618" d="M78.788,280.609l1.506-1.84a.623.623,0,0,0-.042-.835l-.923-.923a.623.623,0,0,0-.881,0l-3.928,3.928a2.526,2.526,0,0,0-.086,3.511,2.492,2.492,0,0,0,4.139-2.6A1.257,1.257,0,0,1,78.788,280.609Z" transform="translate(-73.766 -256.573)" fill="#c7417b"/>
    <path id="Path_17619" data-name="Path 17619" d="M100.091,277.935l-.923-.923a.623.623,0,0,0-.881,0l-.424.424.5.5a.623.623,0,0,1,.042.835L96.9,280.61a1.256,1.256,0,0,0-.215,1.238,2.492,2.492,0,0,1-1.464,3.228,2.493,2.493,0,0,0,3.194-3.228,1.256,1.256,0,0,1,.215-1.238l1.506-1.84A.623.623,0,0,0,100.091,277.935Z" transform="translate(-93.606 -256.574)" fill="#c7417b"/>
  </g>
  <g id="Group_3919" data-name="Group 3919" transform="translate(0 0)">
    <path id="Path_17620" data-name="Path 17620" d="M232.5,167.418a.564.564,0,0,0,.564-.564v-.623a.564.564,0,0,0-1.128,0v.623A.564.564,0,0,0,232.5,167.418Z" transform="translate(-214.494 -153.207)" fill="#472d5e"/>
    <path id="Path_17621" data-name="Path 17621" d="M298.769,167.418a.564.564,0,0,0,.564-.564v-.623a.564.564,0,1,0-1.128,0v.623A.564.564,0,0,0,298.769,167.418Z" transform="translate(-275.777 -153.207)" fill="#472d5e"/>
    <path id="Path_17622" data-name="Path 17622" d="M262.68,50.264a.564.564,0,0,0-.564-.564h-.623a.564.564,0,0,0,0,1.128h.623A.564.564,0,0,0,262.68,50.264Z" transform="translate(-241.305 -45.962)" fill="#472d5e"/>
    <path id="Path_17623" data-name="Path 17623" d="M252.371,208.835a1.817,1.817,0,0,0,1.567-.9.564.564,0,0,0-.976-.566.681.681,0,0,1-1.181,0,.564.564,0,0,0-.976.566A1.817,1.817,0,0,0,252.371,208.835Z" transform="translate(-231.871 -191.51)" fill="#472d5e"/>
    <path id="Path_17624" data-name="Path 17624" d="M99.856,27.975a5.557,5.557,0,0,0-3.738-5.243V21.064h.08A1.167,1.167,0,0,0,97.364,19.9V18.609A1.167,1.167,0,0,0,96.2,17.443H92.418a1.167,1.167,0,0,0-1.166,1.166V19.9a1.167,1.167,0,0,0,1.166,1.166h.08v1.669a5.549,5.549,0,0,0-1.87,1.1,5.561,5.561,0,0,0-1.3-.155H86.151v-2.9a6.788,6.788,0,0,0,2.468-4.69h.706a1.812,1.812,0,0,0,1.81-1.81V11.778a1.8,1.8,0,0,0-.193-.814,1.81,1.81,0,0,0-.548-2.7c-.33-.183-.707-.374-1.129-.561V4.3a4.3,4.3,0,0,0-4.3-4.3h-6.23a4.307,4.307,0,0,0-4.3,4.3V7.7c-.422.187-.8.378-1.129.561a1.81,1.81,0,0,0-.548,2.7,1.8,1.8,0,0,0-.193.814V14.27a1.812,1.812,0,0,0,1.81,1.81h.706a6.788,6.788,0,0,0,2.468,4.69v2.9H74.372a5.568,5.568,0,0,0-1.048.1l.536-.656a1.183,1.183,0,0,0-.079-1.591l-.923-.923a1.188,1.188,0,0,0-1.679,0l-3.928,3.928a3.1,3.1,0,0,0-.1,4.3,3.032,3.032,0,0,0,1.669.906V36.7a1.812,1.812,0,0,0,1.81,1.81h2.981a.564.564,0,0,0,0-1.128H70.635a.683.683,0,0,1-.682-.682V29.731a3.03,3.03,0,0,0,1.584-.841,3.061,3.061,0,0,0,.694-3.253.641.641,0,0,1-.041-.26,4.405,4.405,0,0,1,2.182-.576h.706a6.773,6.773,0,0,0,3.646,5.47,1.192,1.192,0,0,0,1.287-.122l.027-.021v7.251H75.872a.564.564,0,1,0,0,1.128H93.062a1.812,1.812,0,0,0,1.81-1.81v-3.2a5.556,5.556,0,0,0,4.984-5.519Zm-29.117.117a1.928,1.928,0,0,1-2.764-.039,1.968,1.968,0,0,1,.075-2.724L71.978,21.4a.059.059,0,0,1,.083,0l.923.923a.059.059,0,0,1,0,.079l-1.506,1.84a1.862,1.862,0,0,0-.326.593l-.006.016a1.79,1.79,0,0,0,.026,1.187A1.932,1.932,0,0,1,70.739,28.093ZM92.38,19.9V18.609a.038.038,0,0,1,.038-.038H96.2a.038.038,0,0,1,.038.038V19.9a.038.038,0,0,1-.038.038h-3.78A.038.038,0,0,1,92.38,19.9Zm1.246,1.166H94.99v1.407a5.379,5.379,0,0,0-1.364,0V21.064ZM83.2,28.322A4.313,4.313,0,0,0,86.113,24.8h1.374a5.649,5.649,0,0,1-3.033,4.469.062.062,0,0,1-.067,0ZM90.007,14.27a.683.683,0,0,1-.682.682h-.682V11.434l0,0a1.8,1.8,0,0,0,1.335.165.684.684,0,0,1,.024.176V14.27ZM84.964,1.128A3.174,3.174,0,0,1,88.138,4.3V7.253a17,17,0,0,0-1.987-.568V4.3a4.292,4.292,0,0,0-1.4-3.174ZM78.675,6.472V4.3a3.174,3.174,0,0,1,6.348,0v2.17a20.925,20.925,0,0,0-6.348,0ZM75.56,4.3a3.177,3.177,0,0,1,3.174-3.174h.214a4.291,4.291,0,0,0-1.4,3.174V6.685a17.008,17.008,0,0,0-1.987.568ZM73.509,9.725a.684.684,0,0,1,.342-.476,17.857,17.857,0,0,1,16,0,.683.683,0,0,1,.19,1.041l-.006.007a.666.666,0,0,1-.836.153,16.476,16.476,0,0,0-14.692,0,.666.666,0,0,1-.836-.153l-.009-.011A.677.677,0,0,1,73.509,9.725Zm.182,4.545V11.778a.682.682,0,0,1,.023-.175,1.8,1.8,0,0,0,1.335-.166l0,0v3.518h-.682a.683.683,0,0,1-.682-.682Zm2.492,1.246V10.9a15.857,15.857,0,0,1,11.331,0v4.619a5.666,5.666,0,1,1-11.331,0Zm5.666,6.794a6.751,6.751,0,0,0,3.174-.788v2.7c0,.007,0,.013,0,.02s0,.009,0,.014a3.174,3.174,0,0,1-6.347-.008s0,0,0-.005,0-.006,0-.009V21.521A6.752,6.752,0,0,0,81.849,22.31Zm-2.538,6.956a.062.062,0,0,1-.067,0A5.649,5.649,0,0,1,76.211,24.8h1.374A4.313,4.313,0,0,0,80.5,28.322Zm1.856-.031.682-.54.682.54v8.144H81.167ZM94.308,32.4a4.379,4.379,0,0,1-2.673-.9.564.564,0,1,0-.683.9,5.489,5.489,0,0,0,2.792,1.1v3.2a.683.683,0,0,1-.682.682h-9.4V30.128l.027.021a1.192,1.192,0,0,0,1.287.122,6.773,6.773,0,0,0,3.646-5.47h.706c.142,0,.282.007.422.021a5.543,5.543,0,0,0-.4,5.64.564.564,0,0,0,1.008-.506,4.373,4.373,0,0,1-.467-1.98,4.42,4.42,0,1,1,4.42,4.42Z" transform="translate(-61.349 0)" fill="#472d5e"/>
    <path id="Path_17625" data-name="Path 17625" d="M433.167,333.826h-1.3V331.9a.564.564,0,0,0-1.128,0v2.492a.564.564,0,0,0,.564.564h1.869a.564.564,0,1,0,0-1.128Z" transform="translate(-398.339 -306.415)" fill="#472d5e"/>
    <path id="Path_17626" data-name="Path 17626" d="M3.62,348.464a.564.564,0,0,0-.564-.564H.564a.564.564,0,0,0,0,1.128H3.056A.564.564,0,0,0,3.62,348.464Z" transform="translate(0 -321.735)" fill="#472d5e"/>
    <path id="Path_17627" data-name="Path 17627" d="M37.792,414.241l-2.158,1.246a.564.564,0,1,0,.564.977l2.158-1.246a.564.564,0,1,0-.564-.977Z" transform="translate(-32.693 -383.016)" fill="#472d5e"/>
    <path id="Path_17628" data-name="Path 17628" d="M35.634,266.118l2.158,1.246a.564.564,0,0,0,.564-.977L36.2,265.141a.564.564,0,1,0-.564.977Z" transform="translate(-32.693 -245.13)" fill="#472d5e"/>
  </g>
</svg>
