<svg xmlns="http://www.w3.org/2000/svg" xmlns:xlink="http://www.w3.org/1999/xlink" width="423.5" height="252.474" viewBox="0 0 423.5 252.474">
  <defs>
    <clipPath id="clip-path">
      <rect id="Rectangle_2202" data-name="Rectangle 2202" width="423.5" height="252.474" fill="none"/>
    </clipPath>
    <clipPath id="clip-path-2">
      <rect id="Rectangle_2201" data-name="Rectangle 2201" width="423.501" height="252.473" fill="none"/>
    </clipPath>
    <clipPath id="clip-path-3">
      <rect id="Rectangle_2200" data-name="Rectangle 2200" width="423.5" height="230.968" fill="none"/>
    </clipPath>
  </defs>
  <g id="Group_3660" data-name="Group 3660" opacity="0.732">
    <g id="Group_3659" data-name="Group 3659" clip-path="url(#clip-path)">
      <g id="Group_3658" data-name="Group 3658" transform="translate(0 0.001)">
        <g id="Group_3657" data-name="Group 3657" clip-path="url(#clip-path-2)">
          <path id="Path_16838" data-name="Path 16838" d="M1129.552,222.046a10.267,10.267,0,0,1-1.19-.737c-.513-.462-2.856-2.893-1.587-3.74.516-.344,1.724.037,2.324-.114a9.82,9.82,0,0,0,6.348-4.25c2-3.2,2.539-6.942,3.117-10.6a32.917,32.917,0,0,0-2.494-18.928c-1.667-3.52-4.539-8.4-8.954-8.218-2.218.093-4.774,1.463-6.687,2.494-4.42,2.38-7.976,6.1-11.108,9.861-2.083,2.5-4.015,4.32-4.307,7.821-.552,6.621,2.646,12.876,1.983,19.495a11.984,11.984,0,0,1-2.1,5.951c-.539.718-1.857,1.295-2.04,2.21a19.84,19.84,0,0,0,5.894,17.908c4.253,3.828,11.685,5.167,16.662,2.324,1.549-.886,3.224-1.94,4.023-3.627a20.212,20.212,0,0,0,1.3-12.015c-.264-1.276-.59-2.588-.907-3.854-.114-.452-.138-.913-.227-1.36-.024-.122-.195-.762-.057-.624" transform="translate(-913.155 -145.32)" fill="#fff4ee" fill-rule="evenodd"/>
          <path id="Path_16839" data-name="Path 16839" d="M1249.906,712.092s-.529,6.577-.765,9.415a57.223,57.223,0,0,0,.248,10.511c.535,6.418-1.051,13.821-2.3,20.086-1.068,5.341-2.49,10.56-3.815,15.862-.318,1.271-.76,2.538-.972,3.815-.015.092-.337.973-.224,1.048.2.132,3.353-4.766,4.261-5.776,2.135-2.371,3.934-5.052,6.087-7.444,1.417-1.574,3.83-4.193,3.83-4.193a33.855,33.855,0,0,1,5.2,2.451c3.015,2.412,4.85,5.83,7.182,8.828,1.631,2.1,5.2,4.9,5.727,7.515.195.974-4.213,4.029-4.213,4.029s-3.218,2.425-4.843,3.646c-5.153,3.87-12.8,7.51-20.1,12.376-1.693,1.129-3.636,1.973-5.255,3.187-.484.363-1.951,1.333-1.951,1.333a20.84,20.84,0,0,1,.273,3.8c-.089,1.066-1.554,3.208-2.053,4.373-.582,1.356-.793,2.561-1.713,3.41a1.938,1.938,0,0,1-1.566.266s-1.546.542-2.341.752c-.656.173-.652-.361-1.573,0-1.3.508-3.287,1.278-4.179,1.629a28.5,28.5,0,0,1-2.922.753s-1.637,2.311-2.369,2.311c-1.12,0-1.045-2.9-.945-3.3.565-2.261,2.569-4.886,3.489-6.956.627-1.412.586-5.2.586-5.2a10.809,10.809,0,0,1-2.214-3.671,17.956,17.956,0,0,0-.542-2.342c-.207-.621-2.095-.889-2.618-1.122-2.115-.94-4.083-2.156-6.21-3.068-.573-.245-1.9-.805-2.02-1.5-.334-2,3.322-4.242,4.713-4.939,5.021-2.51,9.591-4.455,11.522-10.25,2.373-7.118,1.342-15.195,1.871-22.594.466-6.53,1.863-12.91,3.142-19.3.8-4.006,1.091-8.135,1.945-12.12.363-1.694.29-7.056,2.5-7.5,1.462-.292,3.616.212,5.128.167,1-.03,2,.016,2.992-.075.421-.038.849-.13,1.272-.15.373-.018.748-.013,1.122,0,.8.027,4.618-.059,4.618-.059" transform="translate(-1001.386 -589.783)" fill="#fff4ee" fill-rule="evenodd"/>
          <path id="Path_16840" data-name="Path 16840" d="M869.878,724.46c1.387,5.27,4.325,12.274,5.441,17.594,1.659,7.913,2.762,12.95,4.068,20.938.807,4.93,2.161,15.1,3.7,19.868,1.481,4.593,2.67,4.822,4.493,9.2.737,1.769,1.524,3.454,1.194,5.439a18.584,18.584,0,0,1-2.257,5.287c-.87,1.161-1.65,2.573-2.669,3.873a30.371,30.371,0,0,1-2.507,2.767s.964,4.524,1.187,6.3a3.693,3.693,0,0,1-1.029,3.085c-.228.171-.993-.331-1.612-1.152a9.868,9.868,0,0,1-1.028-1.862s-1.3-.488-2.8-1.239a14.768,14.768,0,0,1-2.127-1.472s-3.249-.117-3.974-1.076a3.083,3.083,0,0,1-.514-2.173,4.985,4.985,0,0,1-2.173-2.583c-.671-1.878-.724-7.771-.724-7.771a43.709,43.709,0,0,1-4.488-2.618c-3.087-2.646-5.8-3.534-9.326-5.539-3.038-1.729-6.528-4.42-10.636-6.921-1.795-1.093-5.156-3.518-5.156-3.518l-2.19-1.678s4.373-5.866,6.18-8.508c1.91-2.792,3.3-5.8,5.836-8.155.915-.849,3.308-3.509,4.788-2.768,1.673.836,3.393,3.445,4.49,4.788,2.864,3.508,5.677,7.1,8.229,10.849,1.3,1.9,2.478,3.869,3.891,5.686.012.013,2.008,2.357,2.02,2.319.514-1.543-.169-4.14-.524-5.537a85.443,85.443,0,0,0-4.04-11.671,148.945,148.945,0,0,1-5.73-16.324c-1.778-6.092-2.641-14.439-3.26-20.731a70.907,70.907,0,0,0-1.186-9.033c-.272-1.272-.691-4.781-.691-4.781a13.916,13.916,0,0,1,3.085-1.279c3.061-.267,7.033-1.252,10.089-1.47.735-.052,1.011,8.273,1.957,11.87" transform="translate(-691.366 -590.195)" fill="#fff4ee" fill-rule="evenodd"/>
          <path id="Path_16841" data-name="Path 16841" d="M1397.653,859.735s2.652-10.626,3.546-13.231c1.459-4.243,3.854-14.4,3.854-14.4s4.877-2.746,7.1-4.178c2.018-1.3,4.115-2.29,6.144-3.558,5.094-3.183,9.891-6.21,15.97-7.315a24.4,24.4,0,0,1,11.963.353,9.881,9.881,0,0,1,5.537,3.971,14.3,14.3,0,0,1,1.566,8.236,22.333,22.333,0,0,1-1.747,5.985c-1.637,4.365-3.821,6.674-6.43,10.469A90.174,90.174,0,0,1,1435,857.639c-1.017,1.016-5.153,4.383-5.153,4.383s-1.063-2.342-1.168-2.579a28.412,28.412,0,0,0-2.14-4.358c-2.862-4.135-4.9-7.183-8.125-9.7-.753-.587-6.084-3.241-6.084-3.241a40.26,40.26,0,0,1-3.137,3.543c-3.269,2.906-4.871,5.577-7.579,9.025-.718.914-3.957,5.018-3.957,5.018" transform="translate(-1157.59 -676.246)" fill="rgba(199,65,123,0.37)" fill-rule="evenodd"/>
          <path id="Path_16842" data-name="Path 16842" d="M1132.388,984.524s.087,8.671-1.75,15.2a13.89,13.89,0,0,1-2.406,5.339,11.291,11.291,0,0,1-4.71,3.557c-2.684,1.115-5.961,1.558-8.257,2.441a6.91,6.91,0,0,0-3.454,2.136c-.408.584-.289,1.447-.69,2.009-.369.516-1.717.7-2.262,1.194a24.258,24.258,0,0,0-1.085,2.915,22.96,22.96,0,0,0-1.494-3.649c-.71-.76-2.142-.756-3.1-1.121-1.208-.458-3.994.173-3.994.173s-3.266-4.566-3.908-6.782c-1.6-5.534-2.115-12.193-3.247-17.851-.362-1.811-1.216-5.979-1.216-5.979s-.139-.628.964-.552a16.417,16.417,0,0,1,5.983,2.959c3.739,2.991,6.861,6.388,11.791,6.148,5.581-.272,10.543-2.6,15.261-5.339a33.761,33.761,0,0,1,5.339-2.763,13.566,13.566,0,0,1,2.238-.03" transform="translate(-903.448 -814.609)" fill="rgba(199,65,123,0.37)" fill-rule="evenodd"/>
          <path id="Path_16843" data-name="Path 16843" d="M727.551,872.7s-2.4-2.281-2.873-2.8c-1.452-1.584-3.415-3.756-4.882-5.328a71.31,71.31,0,0,1-8.093-10.419c-.9-1.4-3-3.644-4.064-4.922,0,0-3.171,1.408-4.048,1.807-1.273.578-3.445,3.711-4.467,4.734-2.675,2.674-3.22,4.365-4.881,7.687a48.956,48.956,0,0,0-1.717,5.319s-3.531-2.1-3.763-2.329c-.753-.752-3.993-2.96-5.024-3.779-2.68-2.128-2.636-2.419-5.312-4.56a54.107,54.107,0,0,1-4.646-4.17,61.879,61.879,0,0,1-4.533-5.163c-4.273-5.221-9.356-14.549-7.416-21.823.506-1.893,2.116-3.171,3.6-4.765,1.955-2.1,6.813-2.486,9.42-2.486,6.957,0,11.418,3.409,17.34,6.667,5.656,3.111,11.291,6.215,16.819,9.571,1.813,1.1,7.9,4.461,7.9,4.461s4.231,8.932,5.541,13.569c1.008,3.566,2.875,7.237,3.723,10.839.619,2.631,1.379,7.887,1.379,7.887" transform="translate(-547.803 -678.912)" fill="rgba(199,65,123,0.37)" fill-rule="evenodd"/>
          <path id="Path_16844" data-name="Path 16844" d="M1087.776,153.484c.177.253.4.87.908.977a4.509,4.509,0,0,1,3.374,2.974,11.716,11.716,0,0,1-.622,8.924,5.375,5.375,0,0,1-1.2,1.82c-1.024.732-4.778,1.229-5.785.809-2.555-1.065-1.674-4.5-2.384-7.069a10.06,10.06,0,0,1-.311-3.863c.192-1.215,1.012-2.262,1.244-3.418.376-1.883-.267-4.269-.267-6.215,0-4.945,1.033-11.118,4.4-14.96,2.73-3.12,6.19-4.115,10.06-4.278a6.9,6.9,0,0,1,4.361.937,12.839,12.839,0,0,1-2.835,1.343c-3.06,0-6.985.9-9.234,3.152-3.711,3.71-2.739,9.749-2.584,14.562.044,1.342.073,3.154.876,4.305" transform="translate(-895.893 -106.989)" fill="rgba(85,55,114,0.31)" fill-rule="evenodd"/>
          <path id="Path_16845" data-name="Path 16845" d="M1139.512,150.9s1.091,4.846,1.192,5.35c.653,3.267.81,4.769,1.267,8.079.14,1.014.135,4.118.135,4.118a4.247,4.247,0,0,1,.745-.472c1.182-.442,1.878-2.536,1.912-3.544a17.716,17.716,0,0,0-.7-5.527c-.329-1.2-1.542-5-1.542-5a7.755,7.755,0,0,0,.187-2.968c-.75-4.377-3.976-8.258-7.106-11.209a17.08,17.08,0,0,0-8.291-4.237c-2.36-.472-4.075.278-6.25.55-1.471.184-3.34-.009-4.911.537-4.975,1.73-7.745,5.379-8.415,10.567-.218,1.684-.007,3.419-.084,5.111a13.552,13.552,0,0,0,.118,3.443,11.213,11.213,0,0,1-.016,2.363,24.963,24.963,0,0,1,3.347,1.693c.5.4.933,1.908,1.662,1.762.44-.087.336-.645.621-.931a8.744,8.744,0,0,0,2.033-3.023c.324-.646,1.463-2.887,1.463-2.887a30.258,30.258,0,0,0,3.551-2,13.71,13.71,0,0,0,1.162-1.241,9.141,9.141,0,0,0,1.6,1.032,4.967,4.967,0,0,0,3.729-.8,11.415,11.415,0,0,0,3.143-3.059,8.75,8.75,0,0,0,.783-1.62s-.276,4.377,1.144,4.092c.317-.063.588-.521.754-.754a8.649,8.649,0,0,0,1.1-4.249c0-.309.208-2.117.208-2.117s1.195.945,1.5,1.254a12.977,12.977,0,0,1,2.64,3.9c.124.274,1.313,1.781,1.313,1.781" transform="translate(-917.357 -112.098)" fill="rgba(219,198,207,0.34)" fill-rule="evenodd"/>
          <path id="Path_16846" data-name="Path 16846" d="M1050.268,150.853c.168.056-1.543,2.779-1.711,3.216a31.369,31.369,0,0,0-1.643,5.029c-.752,4.434-.307,13.549-.307,13.549a3.788,3.788,0,0,0-1.216,2.49c-.187,3.388.9,6.007,1.45,8.6a3.516,3.516,0,0,0,2.564,2.944l3.7-.272a36.938,36.938,0,0,1,.359,5.193,3.89,3.89,0,0,1-2.2.046c-1.04-.654-2.281-.594-3.308-1.265a12.7,12.7,0,0,1-3.689-4.812c-.37-.8-1.09-2.765-1.09-2.765a3.384,3.384,0,0,1-.964-.378,6.2,6.2,0,0,1-1.424-2.221c-.2-.6-.729-.036-.729-.036a6.14,6.14,0,0,1-1.852-2.473,12.456,12.456,0,0,1-.664-3.758c0-3.61.042-6.184,1.294-9.553a50.983,50.983,0,0,1,2.607-6.266,18.27,18.27,0,0,1,3.743-4.691c.774-.645,4.059-2.915,5.086-2.577" transform="translate(-859.328 -124.914)" fill="rgba(219,198,207,0.34)" fill-rule="evenodd"/>
          <path id="Path_16847" data-name="Path 16847" d="M987.5,442.79s.576.855.845,6.239a18.416,18.416,0,0,1-.783,4.743c-1.682,5.047-4.828,8.438-10.32,9.436-9.242,1.68-15.141-5.32-15.986-12.932a26.937,26.937,0,0,1-.482-4.766,7.434,7.434,0,0,1,1.11-3s-6.145,2.6-8.207,3.517c-5.646,2.509-13.472,3.777-17.622,8.365-1.33,1.471-2.258,4.255-2.811,6.468a55.9,55.9,0,0,0-1.2,10.275c-.293,4.1-.708,8.4-.708,12.5,0,1.533-.421,7.615-.421,7.615s5.511,1.078,7.323.8c1.773-.271,2.964-1.133,4.354-1.688a14.981,14.981,0,0,1,4.926-.682s.464,4.105.719,4.869c.927,2.782.9,4.815,1.611,7.661,1.635,6.537,4.975,12.975,6,19.667.42,2.728,1.018,5.433,1.358,8.149.128,1.022,1.3,5.087,1.3,5.087s4.394,1.308,6.218,2.828c3.214,2.678,5.292,5.788,9.755,6.346,2.4.3,4.167.564,6.523-.319,1.14-.428,3.2-.6,4.354-.988,4.1-1.367,7-3.995,10.975-5.7a36.311,36.311,0,0,1,3.591-1.068s.276-3.712.276-4.716c0-3.024.2-5.41.379-8.426.49-8.326,1.533-15.829,2.714-24.088.413-2.892,1.034-9.521,1.034-9.521a2.837,2.837,0,0,1,1.681-.18,17.181,17.181,0,0,0,3.261.885c.8.16,3.085.97,3.793.755a20.682,20.682,0,0,0,5.459-1.876c.659-.4,2.787.206,3.269-.4.688-.861.235-2.455.144-3.453-.256-2.818-.769-5.67-.97-8.5-.434-6.081-.837-15.19-3.568-20.653-.763-1.526-2.285-4.4-3.739-5.44-4.521-3.229-11.389-3.766-16.8-4.924a40.487,40.487,0,0,1-5.586-1.367c-1.219-.488-3.768-1.528-3.768-1.528" transform="translate(-771.016 -366.508)" fill="#fff" fill-rule="evenodd"/>
          <path id="Path_16848" data-name="Path 16848" d="M1215.181,1163.1c.746.264.218,1.657.182,2.338a11.022,11.022,0,0,0,.3,3.363c.608,2.282,2.86,3.71,3.313,5.973.347,1.735-.733,4.57-1.657,6.022-.637,1-1.431,1.294-1.906,2.51-.941,2.4-.5,4.969-1.807,7.327-1.4,2.517-2.482,5.288-5,6.688a6.135,6.135,0,0,1-3.581.34c-.41-.137.06-1.142.2-1.3.313-.365.769-.38,1.154-.6a4.576,4.576,0,0,0,1.706-2.259c1.2-3.2.465-7.308.8-10.69.273-2.732-2.772-4.9-3.664-7.279a22.289,22.289,0,0,1-.8-9.436c.106-1.06-.279-2.871.657-3.573a8.6,8.6,0,0,1,3.03-.6,17.56,17.56,0,0,1,7.073,1.183" transform="translate(-997.418 -962.307)" fill="#fff" fill-rule="evenodd"/>
          <path id="Path_16849" data-name="Path 16849" d="M1117.336,1170.946c-.049,1.935.235,4.443-.651,6.216-.744,1.49-2.073,2.4-2.66,3.965-1.015,2.708-.685,6.048-.8,8.883-.093,2.231,1.192,3.779,2.008,5.772.329.8,1.041,2.311.3,3.112s-2.94-1.334-3.363-1.757c-.294-.294-.537-.634-.8-.953a23.164,23.164,0,0,1-3.463-4.618c-1.051-2.226-1.388-9.213-1.388-9.213s2.044-2.272,3.305-3.62c1.635-1.748,2.835-5.353,3.733-7.556.685-1.68.1-2.869-.607-4.508-.235-.55-.941-3.489-.941-3.489s5.248.7,5.561.389Z" transform="translate(-916.458 -963.392)" fill="#fff" fill-rule="evenodd"/>
          <path id="Path_16850" data-name="Path 16850" d="M1193.869,1164.524s-.984,3.972-1.114,5.393a15.9,15.9,0,0,0,1.409,7.868,45.449,45.449,0,0,1,2.2,4.329,19,19,0,0,1,.687,5.635,20.239,20.239,0,0,1-.515,7.421c-.35,1.05-1.265,1.692-1.855,2.577a5.725,5.725,0,0,0-.57,2.74,7.347,7.347,0,0,1-2.508.312c-.242-.061-.377-.48-.6-.612-.586-.351-.609-1.671-.653-2.2-.149-1.8-.034-3.623-.034-5.429,0-6.968.481-13.937.481-20.89,0-.8-.151-3.748.563-5.238a3.449,3.449,0,0,1,2.508-1.907" transform="translate(-985.831 -964.505)" fill="#c9c0d3" fill-rule="evenodd"/>
          <path id="Path_16851" data-name="Path 16851" d="M1147.306,1165.615l2.489,1.662s-.081,5.114-.112,6.263c-.078,2.9-.585,6.547-.661,9.444-.077,2.912-.206,5.813-.206,8.726,0,2.409.031,4.812-.137,7.216-.073,1.036-.156,2.794-.156,2.794l-2.348-.027a11.7,11.7,0,0,0-.865-2.9c-1.359-1.766-2.755-2.346-2.927-4.58a42.591,42.591,0,0,1,.023-6.182c.081-.775-.276-2.8.156-3.471,1.538-2.392,4.176-3.67,4.6-6.768.409-2.968-.264-5.991-.138-8.968.031-.731.278-3.212.278-3.212" transform="translate(-946.083 -965.408)" fill="#c9c0d3" fill-rule="evenodd"/>
          <path id="Path_16852" data-name="Path 16852" d="M1744.108,1183.818a35.426,35.426,0,0,0-.582,6.258c-.187,2.608-.464,5.205-.664,7.809-.188,2.444.193,4.932-.111,7.366-.408,3.264.467,8-1.772,10.688-.713.856-1.777.86-2.714,1.33a19.082,19.082,0,0,1-7.864,1.606,15.266,15.266,0,0,1-8.64-2.271c-2.672-1.7-2.6-5.363-2.6-8.2,0-6.057-1.416-12.019-1.771-18.055-.114-1.942-1.679-7.208,1.162-7.864,1.828-.422,4.236-.016,6.092.056,3.565.137,7.022.215,10.578.553.518.05,1.032.143,1.551.167a8.176,8.176,0,0,1,1.883.111,19.926,19.926,0,0,0,3.656.222c.164-.017,1.934-.152,1.938-.111.01.119-.108.216-.138.333" transform="translate(-1421.964 -979.227)" fill="#fff" fill-rule="evenodd"/>
          <path id="Path_16853" data-name="Path 16853" d="M1754.844,1228.684c.223,4.315-.386,8.622-.514,12.932-.1,3.182.023,6.318-1.912,9.011-1.894,2.637-6.37,2.783-9.159,2.617-2.22-.131-5.392-.032-6.79-2.207-1.829-2.848-1.794-6.854-1.862-10.176a96.6,96.6,0,0,0-1.018-11.265c-.274-1.924,2.664-1.56,3.821-1.631,2.785-.171,4.9,2.1,7.6,1.846,2.11-.2,3.485-2.249,5.6-2.379.972-.06,4.178.224,4.231,1.252" transform="translate(-1435.81 -1016.601)" fill="#bfacd1" fill-rule="evenodd"/>
          <path id="Path_16854" data-name="Path 16854" d="M1730.638,1091.16c.133-.267.442,1.118.466,1.27a3.868,3.868,0,0,1-.381,2.667c-1.1,1.918-4.37,3.281-6.306,3.851a25.1,25.1,0,0,1-3.6.508c-3.059.437-6.076,1.073-9.184.762a32.811,32.811,0,0,1-6.857-1.862c-1.992-.664-5.658-2.677-5.926-5.079-.175-1.58.715-2.209,1.566-3.344,1.509-2.012,2.891-4.058,4.487-6.053,1.3-1.631-.5-4.441.8-6.179.147-.195.55.093.678.169a3.107,3.107,0,0,0,1.862.3c.941-.188,1.934-.108,2.878-.3.218-.044.969-.175,1.143,0,.65.649-.1,2.172.677,2.751a3.093,3.093,0,0,0,1.693.085,9.409,9.409,0,0,1,3.894.169,18.113,18.113,0,0,1,10.92,9.4Z" transform="translate(-1407.036 -892.539)" fill="rgba(85,55,114,0.31)" fill-rule="evenodd"/>
          <path id="Path_16855" data-name="Path 16855" d="M1779.3,1288.061c.128-.064.08-.016.144-.144Z" transform="translate(-1473.687 -1066.703)" fill="#f7ae9b" fill-rule="evenodd"/>
          <path id="Path_16856" data-name="Path 16856" d="M1264.206,191.932a.617.617,0,0,0,.109-.01.63.63,0,0,0,.513-.729c-.4-2.311-2.675-7.448-6.109-8.854a.631.631,0,0,0-.478,1.168c2.807,1.149,4.971,5.755,5.345,7.9a.631.631,0,0,0,.62.523" transform="translate(-1041.799 -150.982)" fill="#8f3b76"/>
          <path id="Path_16857" data-name="Path 16857" d="M1203.116,314.523c4,0,7.352-2.995,9-8.06a30.87,30.87,0,0,0,1.07-13.4.63.63,0,1,0-1.247.189,29.828,29.828,0,0,1-1.023,12.821c-.707,2.178-2.87,7.188-7.782,7.189q-.1,0-.208,0c-3.3-.094-7.712-1.739-8.716-2.945a.631.631,0,0,0-.97.808c1.321,1.584,6.19,3.3,9.65,3.4.077,0,.154,0,.23,0" transform="translate(-988.163 -242.283)" fill="#8f3b76"/>
          <path id="Path_16858" data-name="Path 16858" d="M1273.454,283.981a.639.639,0,0,0,.186-.028,2.289,2.289,0,0,0,1.587-1.8,2.092,2.092,0,0,0-.939-2.073,2.429,2.429,0,0,1-1.317-2.42.643.643,0,0,0-.654-.607.632.632,0,0,0-.607.654,3.617,3.617,0,0,0,1.848,3.4.855.855,0,0,1,.423.844,1.047,1.047,0,0,1-.713.8.631.631,0,0,0,.186,1.234" transform="translate(-1053.279 -229.466)" fill="#8f3b76"/>
          <path id="Path_16859" data-name="Path 16859" d="M1280.075,245.919a.626.626,0,0,0,.356-.11,2.168,2.168,0,0,1,1.876-.132.631.631,0,1,0,.656-1.078,3.365,3.365,0,0,0-3.243.169.631.631,0,0,0,.356,1.151" transform="translate(-1059.685 -202.307)" fill="#8f3b76"/>
          <path id="Path_16860" data-name="Path 16860" d="M1213.469,247.594a.63.63,0,0,0,.3-.079,4.256,4.256,0,0,1,3.022-.277.631.631,0,0,0,.4-1.2,5.519,5.519,0,0,0-4.032.369.631.631,0,0,0,.306,1.183" transform="translate(-1004.519 -203.595)" fill="#8f3b76"/>
          <path id="Path_16862" data-name="Path 16862" d="M1246.577,179.627a.629.629,0,0,0,.469-.209,8.6,8.6,0,0,0,.859-9.544.631.631,0,1,0-1.128.564c1.182,2.366,1.434,5.8-.669,8.136a.631.631,0,0,0,.469,1.053" transform="translate(-1031.941 -140.408)" fill="#8f3b76"/>
          <path id="Path_16863" data-name="Path 16863" d="M1200.518,189.056a7,7,0,0,0,5.67-3.055,7.826,7.826,0,0,0,1.208-6.9.631.631,0,1,0-1.2.4,6.546,6.546,0,0,1-1.035,5.768,5.755,5.755,0,0,1-4.647,2.531.631.631,0,0,0,0,1.262" transform="translate(-993.793 -147.978)" fill="#8f3b76"/>
          <path id="Path_16864" data-name="Path 16864" d="M1180.2,204.057a.63.63,0,0,0,.378-.126,7.707,7.707,0,0,0,3.269-6,.631.631,0,1,0-1.262,0,6.445,6.445,0,0,1-2.764,4.99.631.631,0,0,0,.379,1.136" transform="translate(-976.961 -163.413)" fill="#8f3b76"/>
          <path id="Path_16865" data-name="Path 16865" d="M1207.349,150.968a.628.628,0,0,0,.262-.057c1.2-.548,1.04-2.562.916-3.4a16.3,16.3,0,0,0-2.472-6.246,27.3,27.3,0,0,0-2.467-3.234c-.526-.6-1.852-1.864-2.3-2.27-3.324-3-10.055-6.1-14.61-3.569a.631.631,0,1,0,.612,1.1c3.966-2.2,10.192.729,13.152,3.4.443.4,1.731,1.63,2.2,2.163a26.1,26.1,0,0,1,2.356,3.087,15.038,15.038,0,0,1,2.285,5.747,2.939,2.939,0,0,1-.192,2.071.631.631,0,0,0,.263,1.2" transform="translate(-982.582 -108.713)" fill="#8f3b76"/>
          <path id="Path_16866" data-name="Path 16866" d="M1135,222.042a.627.627,0,0,0,.377-.126,8.827,8.827,0,0,0,2.275-3.209c.183-.362.361-.715.546-1.039.636-1.113,1.179-2.282,1.7-3.412a27.462,27.462,0,0,1,2.777-5.04.63.63,0,1,0-1.008-.757,28.749,28.749,0,0,0-2.912,5.266c-.514,1.106-1.045,2.251-1.654,3.318-.2.341-.384.714-.577,1.1a7.825,7.825,0,0,1-1.905,2.768.631.631,0,0,0,.379,1.136" transform="translate(-939.53 -172.446)" fill="#8f3b76"/>
          <path id="Path_16867" data-name="Path 16867" d="M1105.552,283.029a4.291,4.291,0,0,0,2.165-.525,5.272,5.272,0,0,0,2.2-3.474l.046-.168a14.688,14.688,0,0,0,.445-3.689c0-3.315-1.546-8.68-5.694-8.963a.631.631,0,1,0-.086,1.258c3.414.233,4.518,5.291,4.518,7.7a13.666,13.666,0,0,1-.4,3.354l-.047.174a4.11,4.11,0,0,1-1.606,2.708,4.371,4.371,0,0,1-3.309.091.631.631,0,0,0-.333,1.217,8.059,8.059,0,0,0,2.1.312" transform="translate(-913.534 -220.485)" fill="#8f3b76"/>
          <path id="Path_16868" data-name="Path 16868" d="M1084.347,164.807a3,3,0,0,0,.68-.078,2.909,2.909,0,0,0,2-1.587c1.345-2.959,1.112-7.969-1.377-10.711a.631.631,0,0,0-.934.848c2.124,2.339,2.318,6.8,1.163,9.341a1.664,1.664,0,0,1-1.14.881,1.736,1.736,0,0,1-1.521-.367c-1.083-.892-2.142-4.116-2.179-6.633a9.734,9.734,0,0,1,1.175-4.489.63.63,0,0,0,.077-.434c-.02-.109-1.978-10.984,2.111-18.416a11.135,11.135,0,0,1,5.852-5.1,13.141,13.141,0,0,1,6.651-.806.631.631,0,1,0,.227-1.241,14.351,14.351,0,0,0-7.38.89,12.446,12.446,0,0,0-6.456,5.645c-4.026,7.316-2.566,17.362-2.285,19.03a10.914,10.914,0,0,0-1.234,4.935c.039,2.647,1.108,6.328,2.638,7.589a3.025,3.025,0,0,0,1.927.7" transform="translate(-894.316 -104.241)" fill="#8f3b76"/>
          <path id="Path_16869" data-name="Path 16869" d="M1103.653,160.234a.654.654,0,0,0,.091-.007.631.631,0,0,0,.535-.714,54.161,54.161,0,0,1,.081-9.274c.723-5.281,1.807-7.752,4.294-9.794.82-.673,2.752-1.816,6.482-1.909a.631.631,0,0,0,.615-.646.617.617,0,0,0-.647-.615c-3.9.1-6.1,1.247-7.251,2.195-2.773,2.277-3.969,4.951-4.743,10.6a55.05,55.05,0,0,0-.081,9.625.632.632,0,0,0,.624.541" transform="translate(-913.426 -113.697)" fill="#8f3b76"/>
          <path id="Path_16870" data-name="Path 16870" d="M1306.712,276.142a.627.627,0,0,0,.282-.067c3.572-1.786,2.421-7.955,2.153-9.174a11.427,11.427,0,0,0-.5-1.56l-.14-.375a.631.631,0,1,0-1.185.432l.144.387a10.451,10.451,0,0,1,.452,1.387c.641,2.924.637,6.714-1.485,7.775a.631.631,0,0,0,.283,1.195" transform="translate(-1081.746 -219.112)" fill="#8f3b76"/>
          <path id="Path_16871" data-name="Path 16871" d="M1107.256,380.363a.626.626,0,0,0,.261-.057c4.627-2.1,4.077-8.213,3.711-12.255-.035-.4-.069-.776-.1-1.125a.64.64,0,0,0-.677-.581.631.631,0,0,0-.582.677c.027.354.062.737.1,1.143.333,3.688.835,9.261-2.979,10.994a.631.631,0,0,0,.261,1.205" transform="translate(-916.55 -303.421)" fill="#8f3b76"/>
          <path id="Path_16872" data-name="Path 16872" d="M1242.279,420.863a.631.631,0,0,0,.2-1.231c-1.834-.6-2.2-1.927-2.2-3.873a.631.631,0,1,0-1.261,0c0,1.32,0,4.067,3.072,5.073a.635.635,0,0,0,.2.031" transform="translate(-1026.197 -343.826)" fill="#8f3b76"/>
          <path id="Path_16873" data-name="Path 16873" d="M1207.929,148.716a.623.623,0,0,0,.281-.067.63.63,0,0,0,.283-.846,6.39,6.39,0,0,0-3.046-2.707.631.631,0,0,0-.565,1.128,5.171,5.171,0,0,1,2.483,2.143.631.631,0,0,0,.565.349" transform="translate(-997.641 -120.12)" fill="#8f3b76"/>
          <path id="Path_16874" data-name="Path 16874" d="M1035.312,172.837a.631.631,0,0,0,.625-.722,29.5,29.5,0,0,1,3.792-18.288c1.4-2.336,5.607-6.694,8.65-6.694a.631.631,0,0,0,0-1.262c-3.734,0-8.251,4.839-9.732,7.306a30.842,30.842,0,0,0-3.957,19.119.631.631,0,0,0,.623.54" transform="translate(-856.763 -120.818)" fill="#8f3b76"/>
          <path id="Path_16875" data-name="Path 16875" d="M1050.316,276.143a.631.631,0,0,0,.232-1.217,3.86,3.86,0,0,1-2.038-2.4,12.765,12.765,0,0,1,.333-8.829.631.631,0,1,0-1.128-.564,13.994,13.994,0,0,0-.383,9.843,5.115,5.115,0,0,0,2.751,3.122.631.631,0,0,0,.232.044" transform="translate(-866.85 -217.649)" fill="#8f3b76"/>
          <path id="Path_16876" data-name="Path 16876" d="M1071.089,298.858a.631.631,0,0,0,.035-1.261,10.015,10.015,0,0,1-5.889-2.71c-3.354-3.355-5.565-10.7-4.549-15.1a.631.631,0,0,0-1.23-.283c-1.116,4.846,1.213,12.606,4.887,16.28a11.4,11.4,0,0,0,6.708,3.077h.037" transform="translate(-877.25 -231.088)" fill="#8f3b76"/>
          <path id="Path_16877" data-name="Path 16877" d="M1115.214,463.381a14.628,14.628,0,0,0,4.969-.867c5.27-1.994,9.244-8.006,9.244-13.984,0-2.03,0-4.548-.974-6.5a.631.631,0,0,0-1.128.564c.841,1.681.841,4.035.841,5.926,0,5.487-3.624,10.992-8.43,12.81a12.3,12.3,0,0,1-11.571-1.575c-5.763-4.426-6.385-12.354-6.385-15.558a.631.631,0,0,0-1.262,0c0,3.39.67,11.79,6.879,16.558a12.611,12.611,0,0,0,7.817,2.621" transform="translate(-911.491 -365.821)" fill="#8f3b76"/>
          <path id="Path_16878" data-name="Path 16878" d="M1292.511,494.7a14.173,14.173,0,0,0-5.4-1.111.631.631,0,0,1,0-1.262,15.3,15.3,0,0,1,5.911,1.221c1.558.692,3.51-.045,5.4-.755.608-.23,1.182-.446,1.742-.614a5.9,5.9,0,0,1,1.7-.131,3.793,3.793,0,0,0,1.722-.2,7.6,7.6,0,0,0-.234-2.663,41.929,41.929,0,0,1-.716-7.18c-.046-.928-.086-1.75-.134-2.329a111.789,111.789,0,0,0-2.224-15.9c-.646-2.728-2.62-7.413-4.5-8.749a19.663,19.663,0,0,0-7.618-3.087,114.723,114.723,0,0,1-16.185-3.817.631.631,0,0,1,.4-1.2,113.528,113.528,0,0,0,16.006,3.771,21,21,0,0,1,8.129,3.3c2.258,1.6,4.318,6.609,5,9.488a113.036,113.036,0,0,1,2.254,16.09c.049.589.09,1.426.137,2.372a42.618,42.618,0,0,0,.669,6.9c.009.032.847,3.22-.168,3.982a4.136,4.136,0,0,1-2.554.488,4.937,4.937,0,0,0-1.315.078c-.517.155-1.072.364-1.659.585a13.148,13.148,0,0,1-4.444,1.113,4.648,4.648,0,0,1-1.912-.385" transform="translate(-1053.139 -370.13)" fill="#8f3b76"/>
          <path id="Path_16879" data-name="Path 16879" d="M934.4,497.578a7.743,7.743,0,0,0,3.486-.7l.295-.148A10.09,10.09,0,0,1,943.5,495.2a.631.631,0,0,0,0-1.262,11.325,11.325,0,0,0-5.882,1.663l-.294.147c-1.718.858-3.973.568-5.961.311l-.5-.063c-.169-.021-.477-.032-.839-.043a13.322,13.322,0,0,1-1.762-.131,11.7,11.7,0,0,1,.16-1.712,7.477,7.477,0,0,0,.1-.9c0-2.02.118-3.535.243-5.137.092-1.17.186-2.38.241-3.864.127-3.445.516-10.362.916-14.389a24.458,24.458,0,0,1,2.629-9.445c1.154-1.926,4.446-3.34,6.849-4.373.391-.168.76-.327,1.094-.476,2.458-1.1,4.638-1.887,6.747-2.648a69.691,69.691,0,0,0,8-3.287.631.631,0,0,0-.565-1.128,68.581,68.581,0,0,1-7.866,3.228c-2.13.769-4.334,1.564-6.834,2.683-.329.147-.691.3-1.076.468-2.561,1.1-6.069,2.608-7.434,4.883a25.736,25.736,0,0,0-2.8,9.97c-.4,4.053-.795,11.006-.921,14.467-.055,1.458-.148,2.655-.239,3.813-.127,1.628-.247,3.166-.247,5.235,0,.134-.042.4-.087.719-.221,1.546-.326,2.513.265,2.906a5.738,5.738,0,0,0,2.548.377c.31.009.575.016.72.034l.493.063a25.051,25.051,0,0,0,3.2.269" transform="translate(-767.779 -371.378)" fill="#8f3b76"/>
          <path id="Path_16880" data-name="Path 16880" d="M1345.351,811.62c2.2,0,2.841-2.083,3.275-3.491a8.455,8.455,0,0,1,.422-1.178c.179-.358.377-.7.573-1.044a6.756,6.756,0,0,0,.8-6.665,15.32,15.32,0,0,1-.381-1.674,25.912,25.912,0,0,1,.156-9.191c.611-2.445,1.159-4.786,1.7-7.081,1.337-5.713,2.6-11.111,4.607-17.129a129.589,129.589,0,0,0,5.332-21.757,70.5,70.5,0,0,0,.107-11.936c-.082-1.827-.16-3.552-.172-5.095-.018-2.14.158-4.172.328-6.137.164-1.887.333-3.838.333-5.894a.631.631,0,0,0-1.262,0c0,2-.167,3.924-.328,5.785-.173,1.995-.352,4.057-.333,6.257.013,1.565.092,3.3.174,5.141a69.72,69.72,0,0,1-.1,11.7,128.27,128.27,0,0,1-5.28,21.535c-2.025,6.074-3.294,11.5-4.639,17.241-.536,2.29-1.082,4.624-1.691,7.062a27.177,27.177,0,0,0-.181,9.676,16.455,16.455,0,0,0,.411,1.819,8.085,8.085,0,0,1,.434,3.126,7.881,7.881,0,0,1-1.1,2.589c-.208.363-.417.729-.606,1.108a9.17,9.17,0,0,0-.5,1.37c-.53,1.718-.957,2.756-2.373,2.583a.631.631,0,0,0-.148,1.253,3.894,3.894,0,0,0,.451.027" transform="translate(-1113.436 -590.3)" fill="#8f3b76"/>
          <path id="Path_16881" data-name="Path 16881" d="M1321.561,1243.4a9.262,9.262,0,0,0,3.329-.571,4.007,4.007,0,0,0,1.57-2.736l.131-.529c.426-1.734,1.139-4.636,2.519-5.555a.631.631,0,0,0-.7-1.05c-1.788,1.191-2.544,4.268-3.045,6.3l-.13.526c-.188.758-.4,1.619-.971,1.945a8.437,8.437,0,0,1-2.7.4.631.631,0,0,0,0,1.262" transform="translate(-1094.045 -1021.096)" fill="#8f3b76"/>
          <path id="Path_16882" data-name="Path 16882" d="M1283.906,1243.771a7.014,7.014,0,0,0,2.672-1.1c.3-.165.546-.3.669-.352a7.843,7.843,0,0,1,.776-.224c1.033-.265,2.317-.595,2.751-1.606a37.857,37.857,0,0,0,1.45-4.328c.235-.81.469-1.616.732-2.4l.1-.3c.245-.762.521-1.626,1.123-1.927a.63.63,0,1,0-.563-1.128,4.131,4.131,0,0,0-1.761,2.671l-.094.29c-.267.8-.507,1.624-.747,2.45a36.778,36.778,0,0,1-1.4,4.183c-.189.441-1.222.706-1.9.882a9.04,9.04,0,0,0-.915.269,8.189,8.189,0,0,0-.824.424,10.913,10.913,0,0,1-2,.94.631.631,0,0,0-.716,1.016.87.87,0,0,0,.647.253" transform="translate(-1062.691 -1019.004)" fill="#8f3b76"/>
          <path id="Path_16883" data-name="Path 16883" d="M1227.517,1186.428a2.065,2.065,0,0,0,.4-.042,3.215,3.215,0,0,0,2.025-1.683c.107-.164.213-.327.327-.48.3-.4.662-.792,1.048-1.211a10.714,10.714,0,0,0,1.8-2.346,47.978,47.978,0,0,0,2.338-5.458c.076-.216.156-.495.245-.806.314-1.105.841-2.954,1.756-2.954a.631.631,0,0,0,0-1.262c-1.867,0-2.531,2.329-2.969,3.87-.081.282-.152.536-.222.732a46.632,46.632,0,0,1-2.277,5.313,9.808,9.808,0,0,1-1.6,2.055c-.391.424-.795.863-1.13,1.309-.13.174-.253.36-.374.547-.415.636-.7,1.031-1.216,1.135a.427.427,0,0,1-.237.008c-.148-.117-.127-.907-.121-1.168l.006-.336c0-1.718,1.214-3.535,2.19-4.993l.156-.234c1.654-2.479,1.941-5.112,2.124-8.049.072-1.154.36-6.982-1.087-8.428a10.735,10.735,0,0,0-5.429-3.035,48.956,48.956,0,0,0-5.664-.2.632.632,0,0,0-.616.646.639.639,0,0,0,.646.616,47.914,47.914,0,0,1,5.49.194,9.668,9.668,0,0,1,4.681,2.674c.7.7.915,4.34.719,7.456-.178,2.85-.432,5.206-1.915,7.429l-.155.232c-1.07,1.6-2.4,3.594-2.4,5.695l-.005.3a2.627,2.627,0,0,0,.57,2.166,1.348,1.348,0,0,0,.894.306" transform="translate(-1009.618 -959.681)" fill="#8f3b76"/>
          <path id="Path_16884" data-name="Path 16884" d="M1210.324,703.137h.034a.63.63,0,0,0,.6-.663c-.147-2.746,4.653-3.526,7.83-4.042.471-.077.915-.149,1.314-.222a13.243,13.243,0,0,0,8.431-6.46c1.523-2.77,1.9-6.206,2.235-9.238l.1-.908c.5-4.341.6-8.792.71-13.1.065-2.678.133-5.446.293-8.149.154-2.605.39-5.249.619-7.8s.463-5.179.617-7.776c.059-1.006.361-2.87.743-5.23.478-2.957,1.133-7,1.648-11.489.534-4.648.831-10.811.985-15.162.054-1.538,2.009-3.818,2.758-4.566a.631.631,0,0,0-.892-.892c-.312.312-3.045,3.109-3.127,5.414-.154,4.329-.448,10.456-.977,15.063-.512,4.455-1.138,8.323-1.641,11.432-.4,2.489-.694,4.288-.757,5.358-.153,2.576-.388,5.2-.614,7.737-.229,2.565-.467,5.217-.622,7.843-.162,2.724-.23,5.5-.3,8.192-.1,4.276-.212,8.7-.7,12.984l-.1.913c-.321,2.914-.684,6.218-2.086,8.768a11.909,11.909,0,0,1-7.553,5.827c-.392.071-.828.142-1.29.217-3.622.589-9.094,1.478-8.887,5.354a.631.631,0,0,0,.629.6" transform="translate(-1001.911 -502.951)" fill="#8f3b76"/>
          <path id="Path_16885" data-name="Path 16885" d="M964.02,823.378a.631.631,0,0,0,.2-1.229,4.774,4.774,0,0,1-1.769-2.861,23.021,23.021,0,0,1-.667-5.95c.019-1.042.826-2.717,1.682-4.491a42.023,42.023,0,0,0,2.088-4.863c1.526-4.58.81-9.266.018-12.835-1.35-6.072-3.74-11.91-6.051-17.554-1.438-3.512-2.925-7.144-4.134-10.773-2.283-6.849-2.834-14.205-3.367-21.32l-.146-1.941a38.014,38.014,0,0,0-.828-4.937,29.165,29.165,0,0,1-.85-5.928.631.631,0,0,0-1.262,0,30.079,30.079,0,0,0,.878,6.191,36.988,36.988,0,0,1,.8,4.771l.147,1.938c.538,7.191,1.1,14.626,3.428,21.625,1.222,3.668,2.717,7.32,4.164,10.851,2.291,5.6,4.66,11.383,5.986,17.35.759,3.411,1.446,7.877.018,12.162a40.838,40.838,0,0,1-2.028,4.715c-.956,1.984-1.783,3.7-1.806,5.015a24.443,24.443,0,0,0,.716,6.322c.535,1.856,1.6,3.38,2.583,3.709a.636.636,0,0,0,.2.032" transform="translate(-785.942 -603.012)" fill="#8f3b76"/>
          <path id="Path_16886" data-name="Path 16886" d="M1037.5,1230.592a.631.631,0,0,0,.283-1.195,8.021,8.021,0,0,0-1.828-.5,5.831,5.831,0,0,1-2.367-.771,4.332,4.332,0,0,1-.149-1.648c0-.143.008-.273.008-.382,0-1.909-.063-3.514-.189-4.908-.025-.271-.064-.591-.106-.939-.141-1.144-.377-3.059.018-3.632a.631.631,0,0,0-1.04-.714c-.616.9-.476,2.5-.23,4.5.041.332.078.639.1.9.124,1.356.184,2.924.184,4.794,0,.1,0,.217-.007.348a3.919,3.919,0,0,0,.425,2.471c.574.716,1.861.972,3.106,1.219a7.943,7.943,0,0,1,1.512.386.619.619,0,0,0,.281.067" transform="translate(-854.483 -1006.836)" fill="#8f3b76"/>
          <path id="Path_16887" data-name="Path 16887" d="M1056.731,1231.6c-.667-.333-4.466-2.491-5.225-4.012a6.671,6.671,0,0,1-.421-2.974c0-.383.007-.753-.018-1.084-.071-.932-.208-1.885-.34-2.808a30.578,30.578,0,0,1-.408-4.329,2.473,2.473,0,0,1,.579-1.429,1.827,1.827,0,0,0,.26-.438.631.631,0,0,1,1.262,0,2.056,2.056,0,0,1-.489,1.161,1.49,1.49,0,0,0-.35.7,29.589,29.589,0,0,0,.4,4.151c.135.943.274,1.917.349,2.89.027.364.026.771.022,1.191a5.775,5.775,0,0,0,.287,2.4c.454.91,3.317,2.776,4.662,3.448a.631.631,0,0,1-.283,1.2.622.622,0,0,1-.281-.067m-5.581-17.073h0Z" transform="translate(-869.915 -1005.399)" fill="#8f3b76"/>
          <path id="Path_16888" data-name="Path 16888" d="M1075.62,1239.006a1.593,1.593,0,0,0,.718-.175c1-.5.974-2,.961-2.891l0-.2a9.821,9.821,0,0,0-.592-3.314c-.132-.419-.273-.87-.407-1.406a8.484,8.484,0,0,1-.108-1.677v-.1a.631.631,0,0,0-1.262,0v.1a9.11,9.11,0,0,0,.146,1.984c.142.565.289,1.037.428,1.478a8.685,8.685,0,0,1,.534,2.937l0,.22c.02,1.446-.178,1.7-.265,1.746a.291.291,0,0,1-.257.022c-.65-.241-1.353-1.916-1.691-2.722-.144-.344-.265-.626-.357-.793a14.828,14.828,0,0,0-.811-1.256,9.577,9.577,0,0,1-.993-1.652,7.631,7.631,0,0,1-.4-2.564c-.018-.372-.036-.737-.071-1.088-.053-.526-.148-1.121-.249-1.74a13.534,13.534,0,0,1-.28-3.851,3.857,3.857,0,0,1,.426-1.057,6.838,6.838,0,0,0,.422-.941.631.631,0,0,0-1.2-.4,5.671,5.671,0,0,1-.349.764,4.875,4.875,0,0,0-.547,1.426,14.289,14.289,0,0,0,.279,4.261c.1.592.188,1.161.239,1.664.033.328.049.672.066,1.022a8.554,8.554,0,0,0,.505,3,10.643,10.643,0,0,0,1.117,1.875,13.681,13.681,0,0,1,.744,1.149c.078.14.176.38.3.67.661,1.573,1.342,3.018,2.416,3.416a1.554,1.554,0,0,0,.542.1" transform="translate(-885.666 -1009.813)" fill="#8f3b76"/>
          <path id="Path_16889" data-name="Path 16889" d="M1015.687,724.52c.9,0,1.5-.8,1.983-1.443a3.975,3.975,0,0,1,.549-.649,7.87,7.87,0,0,0,2.587-3.431c.118-.247.245-.509.388-.8.35-.7.712-1.323,1.061-1.925,1.265-2.179,2.358-4.06,1.406-7.392a25.834,25.834,0,0,0-2.879-5.957,21.331,21.331,0,0,1-2.985-6.585c-1.075-5.372-1.932-10.911-2.762-16.267-.436-2.812-.871-5.625-1.339-8.431a174.359,174.359,0,0,0-5.094-20.276c-1.366-4.644-2.779-9.447-3.867-14.182-1.875-8.148-3.263-22.4-3.278-22.541a.623.623,0,0,0-.121-.315,37.214,37.214,0,0,1-2.862-4.232.643.643,0,0,0-.777-.434.618.618,0,0,0-.445.746,29.437,29.437,0,0,0,2.967,4.532c.166,1.668,1.506,14.793,3.286,22.528,1.1,4.771,2.516,9.592,3.887,14.254a173.615,173.615,0,0,1,5.06,20.127c.467,2.8.9,5.61,1.337,8.416.832,5.37,1.692,10.923,2.772,16.323a22.6,22.6,0,0,0,3.137,6.981,24.5,24.5,0,0,1,2.752,5.66c.8,2.816-.071,4.325-1.285,6.412-.359.619-.73,1.259-1.1,1.994-.147.294-.276.564-.4.815a6.706,6.706,0,0,1-2.223,2.98,4.6,4.6,0,0,0-.785.89c-.3.4-.7.936-.973.936a.209.209,0,0,1-.178-.085,3.641,3.641,0,0,1-.317-2.191,13.205,13.205,0,0,1,1.327-3.932,12.227,12.227,0,0,0,1.478-5.287.631.631,0,0,0-1.262,0,11.069,11.069,0,0,1-1.362,4.76,14.391,14.391,0,0,0-1.432,4.3c-.011.09-.259,2.185.623,3.182a1.462,1.462,0,0,0,1.123.512" transform="translate(-825.948 -504.929)" fill="#8f3b76"/>
          <path id="Path_16890" data-name="Path 16890" d="M1286.316,815.012a.63.63,0,0,0,.564-.348c1.732-3.465,3.275-7.078,4.767-10.571.841-1.97,1.711-4.008,2.6-5.99.146-.324.339-.717.552-1.152.859-1.75,1.928-3.928,1.928-5.428a.631.631,0,0,0-1.262,0c0,1.207-1.082,3.413-1.8,4.873-.22.449-.419.855-.57,1.19-.9,1.993-1.769,4.035-2.613,6.012-1.485,3.477-3.021,7.072-4.735,10.5a.631.631,0,0,0,.282.846.623.623,0,0,0,.282.067" transform="translate(-1064.855 -655.048)" fill="#8f3b76"/>
          <path id="Path_16891" data-name="Path 16891" d="M1059.053,750.658a.631.631,0,0,0,.474-1.046c-4.537-5.185-10.24-12.13-14.109-19.868a.631.631,0,0,0-1.128.565c3.932,7.865,9.7,14.891,14.289,20.133a.628.628,0,0,0,.474.216" transform="translate(-864.866 -604.115)" fill="#8f3b76"/>
          <path id="Path_16892" data-name="Path 16892" d="M1107.794,986.3c5.767,0,11.5-2.649,15.506-5.652a11.409,11.409,0,0,1,3.329-1.435c.584-.184,1.188-.375,1.736-.595.041-.014.139-.041.265-.077,1.18-.34,1.576-.5,1.754-.859a.631.631,0,0,0-1.026-.712,9.07,9.07,0,0,1-1.077.358c-.187.054-.33.1-.385.12-.5.2-1.059.376-1.647.562a12.3,12.3,0,0,0-3.705,1.629c-4.765,3.574-12.781,6.927-19.695,4.624-1.846-.616-3.67-2.3-5.28-3.789-.589-.544-1.155-1.067-1.7-1.518a20.987,20.987,0,0,0-4.822-2.634c-.676-.3-1.326-.583-1.9-.87a.631.631,0,1,0-.565,1.128c.59.3,1.26.59,1.956.9a20.08,20.08,0,0,1,4.523,2.45c.525.437,1.075.946,1.647,1.474,1.7,1.574,3.634,3.358,5.737,4.06a16.829,16.829,0,0,0,5.344.84" transform="translate(-901.321 -807.849)" fill="#8f3b76"/>
          <path id="Path_16893" data-name="Path 16893" d="M1108.506,963.868a12.031,12.031,0,0,0,3.021-.327,21.835,21.835,0,0,0,3.877-1.617,9.238,9.238,0,0,1,2.291-.945.631.631,0,0,0,0-1.262,7.939,7.939,0,0,0-2.851,1.077,20.9,20.9,0,0,1-3.645,1.529c-2.289.613-7.274.222-10.524-1.222a22.069,22.069,0,0,1-3.842-2.635c-2.781-2.171-6.242-4.871-10.02-5.123a.619.619,0,0,0-.671.587.63.63,0,0,0,.587.672c3.392.226,6.546,2.687,9.329,4.859a16.713,16.713,0,0,0,12.448,4.407" transform="translate(-899.583 -789.595)" fill="#8f3b76"/>
          <path id="Path_16894" data-name="Path 16894" d="M718.676,837.58a.631.631,0,0,0,.283-1.195c-4.479-2.238-8.985-4.973-13.343-7.617-4.381-2.658-8.912-5.406-13.44-7.671-1.042-.521-1.959-1.019-2.845-1.5a47.989,47.989,0,0,0-5.387-2.621c-5.927-2.37-16.454-2.267-20.223,5.488a.631.631,0,1,0,1.135.551c3.418-7.035,13.131-7.064,18.62-4.867a47.182,47.182,0,0,1,5.254,2.558c.9.487,1.826.99,2.881,1.518,4.483,2.242,8.991,4.977,13.35,7.621,4.38,2.657,8.909,5.405,13.433,7.667a.622.622,0,0,0,.282.067" transform="translate(-549.667 -675.529)" fill="#8f3b76"/>
          <path id="Path_16895" data-name="Path 16895" d="M720.236,928.506a.631.631,0,0,0,.379-1.135c-1.79-1.343-6.466-4.069-10.988-6.7-4.081-2.379-7.936-4.627-9.526-5.762-2.227-1.591-4.241-3.006-6.149-4.346-5.346-3.756-9.962-7-16.082-11.9a72.421,72.421,0,0,1-13.711-15.081c-3.341-5.013-4.414-8.734-4.414-15.312a.631.631,0,0,0-1.262,0c0,6.867,1.125,10.758,4.627,16.013a73.832,73.832,0,0,0,13.971,15.366c6.151,4.922,10.782,8.175,16.145,11.943,1.906,1.338,3.917,2.751,6.141,4.34,1.638,1.17,5.517,3.432,9.625,5.826,4.491,2.618,9.134,5.324,10.866,6.623a.627.627,0,0,0,.378.127" transform="translate(-545.382 -718.612)" fill="#8f3b76"/>
          <path id="Path_16896" data-name="Path 16896" d="M844.809,915.466a.631.631,0,0,0,.388-1.128c-3.8-2.969-12.788-14.564-14.988-17.507-5.046-6.752-7.368-8.964-14.35-14.782a42.718,42.718,0,0,0-4.163-2.961c-3.274-2.132-6.1-3.973-7.507-8.185a.631.631,0,0,0-1.2.4c1.543,4.629,4.686,6.676,8.014,8.842a41.558,41.558,0,0,1,4.044,2.874c6.891,5.742,9.181,7.923,14.147,14.567,2.728,3.649,11.378,14.742,15.222,17.746a.629.629,0,0,0,.388.134" transform="translate(-665.044 -720.959)" fill="#8f3b76"/>
          <path id="Path_16897" data-name="Path 16897" d="M844.145,1007.194a.631.631,0,0,0,.571-.362c4.546-9.656,9.306-15.108,13.767-15.766a.631.631,0,0,0-.185-1.248c-6.188.913-11.423,9.465-14.724,16.477a.632.632,0,0,0,.3.839.625.625,0,0,0,.268.06" transform="translate(-698.631 -819.801)" fill="#8f3b76"/>
          <path id="Path_16898" data-name="Path 16898" d="M1373.409,883.994a.625.625,0,0,0,.391-.137c2.06-1.634,7.021-4.556,12.273-7.65,6.671-3.93,14.233-8.384,18.567-11.746,9.49-7.361,20.131-16.8,27.1-30.945,3.114-6.324,1.981-13.636-2.695-17.388-2.24-1.8-7.2-2.5-13.622-1.922-8.118.732-27.143,12.771-30.874,15.178a.63.63,0,0,0,.684,1.059c10.187-6.569,24.236-14.433,30.3-14.981,6-.542,10.76.076,12.719,1.649,4.218,3.385,5.208,10.049,2.353,15.846-6.856,13.921-17.365,23.233-26.742,30.508-4.27,3.312-11.795,7.744-18.434,11.655a146.313,146.313,0,0,0-12.417,7.749.631.631,0,0,0,.392,1.125" transform="translate(-1136.988 -674.192)" fill="#8f3b76"/>
          <path id="Path_16899" data-name="Path 16899" d="M1390.874,891.558a.63.63,0,0,0,.492-.236c1.039-1.294,2.2-2.82,3.43-4.436a136.964,136.964,0,0,1,12.936-15.3c4.188-4.066,8.09-7.291,10.94-9.646,1.681-1.389,3.008-2.486,3.774-3.249,1.383-1.379,2.044-4.654,2.115-5.023a.631.631,0,1,0-1.239-.238c-.173.9-.827,3.43-1.766,4.366-.724.722-2.031,1.8-3.687,3.17-2.866,2.369-6.791,5.612-11.015,9.714a138.171,138.171,0,0,0-13.061,15.444c-1.224,1.609-2.381,3.129-3.409,4.41a.631.631,0,0,0,.491,1.026" transform="translate(-1151.453 -706.418)" fill="#8f3b76"/>
          <path id="Path_16900" data-name="Path 16900" d="M1497.906,983.709a.637.637,0,0,0,.236-.046.63.63,0,0,0,.348-.821c-.1-.26-2.6-6.386-5.94-10.209-5.926-6.776-10.844-7.653-11.051-7.686a.63.63,0,1,0-.2,1.244c.045.008,4.71.874,10.306,7.273,3.2,3.664,5.7,9.789,5.721,9.851a.631.631,0,0,0,.584.4" transform="translate(-1226.428 -799.199)" fill="#8f3b76"/>
          <path id="Path_16901" data-name="Path 16901" d="M1205.025,1323.38a.613.613,0,0,0,.09-.006,15.364,15.364,0,0,0,3.995-1.094c2.212-1.409,3.277-3.675,4.306-5.865.2-.435.408-.869.62-1.293.094-.187.184-.388.275-.592a4.579,4.579,0,0,1,.769-1.332.631.631,0,1,0-.891-.892,5.542,5.542,0,0,0-1.03,1.711c-.083.186-.164.37-.25.541-.216.434-.425.876-.633,1.321-1,2.121-1.939,4.125-3.842,5.337a13.684,13.684,0,0,1-3.5.909.631.631,0,0,0,.088,1.256" transform="translate(-997.526 -1086.75)" fill="#8f3b76"/>
          <path id="Path_16902" data-name="Path 16902" d="M1118.144,1332.6a.631.631,0,0,0,.04-1.26,7.641,7.641,0,0,1-2.779-.787,11.3,11.3,0,0,1-5.932-6.681.631.631,0,0,0-1.2.4,12.526,12.526,0,0,0,6.564,7.41,8.965,8.965,0,0,0,3.263.918l.041,0" transform="translate(-917.89 -1096.125)" fill="#8f3b76"/>
          <path id="Path_16903" data-name="Path 16903" d="M1189.216,1196.536a.631.631,0,0,0,.283-1.195c-.571-.286-.6-.643-.582-1.634l0-.355v-5.8c0-3.081.059-6.216.115-9.247s.116-6.177.116-9.267c0-.541-.018-1.091-.036-1.645a12.509,12.509,0,0,1,.605-5.491,4.131,4.131,0,0,1,3.742-1.718c.029,0,.06,0,.086,0a.631.631,0,0,0,.007-1.262h-.093c-3.091,0-4.577,1.768-4.891,2.457a13.415,13.415,0,0,0-.718,6.054c.017.539.035,1.076.035,1.6,0,3.078-.059,6.212-.115,9.244s-.116,6.179-.116,9.271l0,6.142c-.013,1-.028,2.125,1.278,2.779a.623.623,0,0,0,.282.067" transform="translate(-983.66 -959.863)" fill="#8f3b76"/>
          <path id="Path_16904" data-name="Path 16904" d="M1142.172,1197.216c.374,0,1.036-.189,1.268-1.456a8.4,8.4,0,0,0,.1-1.465c0-.977.029-1.934.057-2.892s.059-1.943.059-2.916c0-5.927.045-12.813.584-19.542a42.074,42.074,0,0,0,.118-5.224v-.129a3.115,3.115,0,0,0-.984-2.467c-1.323-1.207-3.87-1.615-7.794-1.25a.631.631,0,1,0,.118,1.256c4.361-.408,6.117.277,6.825.924a1.861,1.861,0,0,1,.573,1.534l0,.188a40.893,40.893,0,0,1-.115,5.067c-.542,6.775-.588,13.691-.588,19.642,0,.96-.029,1.919-.058,2.878s-.058,1.94-.058,2.911a3.85,3.85,0,0,1-.209,1.686.631.631,0,0,0,.1,1.254" transform="translate(-940.059 -960.547)" fill="#8f3b76"/>
          <path id="Path_16905" data-name="Path 16905" d="M1203.41,1208.8a.631.631,0,0,0,.631-.631c0-.671.91-1.524,1.712-2.276a6.534,6.534,0,0,0,1.679-2,10.809,10.809,0,0,0,.481-4.243c-.005-.295-.011-.586-.011-.873,0-.449.017-.909.033-1.371a20.022,20.022,0,0,0-.037-2.922c-.054-.487-.083-.971-.112-1.452a12.025,12.025,0,0,0-.664-3.827,13.1,13.1,0,0,0-1.533-2.638,9.257,9.257,0,0,1-1.692-3.347,19.006,19.006,0,0,1-.082-5.651c.085-1.015.174-2.063.174-3.087a.631.631,0,0,0-1.262,0c0,.97-.082,1.946-.169,2.98a19.957,19.957,0,0,0,.107,6.03,10.391,10.391,0,0,0,1.887,3.794,11.94,11.94,0,0,1,1.4,2.386,10.887,10.887,0,0,1,.576,3.436c.031.5.062,1.006.119,1.513a19.252,19.252,0,0,1,.03,2.737c-.018.479-.034.953-.034,1.417,0,.294.005.594.012.9a9.917,9.917,0,0,1-.392,3.752,6.154,6.154,0,0,1-1.37,1.55c-1.038.972-2.112,1.978-2.112,3.2a.631.631,0,0,0,.631.631" transform="translate(-995.859 -972.224)" fill="#8f3b76"/>
          <path id="Path_16906" data-name="Path 16906" d="M1144.067,1199.748a.631.631,0,0,0,.565-.348c.936-1.872-.726-3.379-1.94-4.479a5.813,5.813,0,0,1-1.349-1.486,9.353,9.353,0,0,1-.25-3.813c.033-.536.066-1.053.066-1.523,0-.5-.029-1.046-.06-1.61a10.732,10.732,0,0,1,.321-4.347,7.592,7.592,0,0,1,1.615-2.121,6.787,6.787,0,0,0,2.063-3.189,27.367,27.367,0,0,0,.365-5.312c0-.755,0-1.51.034-2.266.026-.64.062-1.278.1-1.916.067-1.2.136-2.445.136-3.688a.631.631,0,0,0-1.262,0c0,1.208-.068,2.433-.134,3.618-.036.643-.072,1.288-.1,1.935-.031.772-.034,1.543-.036,2.313a26.041,26.041,0,0,1-.341,5.069,5.817,5.817,0,0,1-1.74,2.567,8.623,8.623,0,0,0-1.866,2.5,11.592,11.592,0,0,0-.416,4.9c.03.541.058,1.063.058,1.543,0,.445-.031.935-.063,1.445a10.177,10.177,0,0,0,.344,4.377,6.272,6.272,0,0,0,1.667,1.936c1.308,1.186,2.131,2.034,1.658,2.979a.631.631,0,0,0,.563.913" transform="translate(-943.993 -963.257)" fill="#8f3b76"/>
          <path id="Path_16907" data-name="Path 16907" d="M1270.4,1189.635a.631.631,0,0,0,.576-.887,26.376,26.376,0,0,0-1.41-2.656,9.9,9.9,0,0,1-1.831-5.353.631.631,0,1,0-1.262,0,11.047,11.047,0,0,0,2,5.989,25.537,25.537,0,0,1,1.347,2.532.631.631,0,0,0,.577.375" transform="translate(-1048.938 -977.412)" fill="#8f3b76"/>
          <path id="Path_16908" data-name="Path 16908" d="M1392.68,515.749a.63.63,0,0,0,.564-.349c.326-.652.692-1.337,1.072-2.048,1.686-3.156,3.6-6.733,3.6-10.166a.631.631,0,1,0-1.262,0c0,3.117-1.831,6.546-3.447,9.571-.385.722-.757,1.417-1.087,2.078a.631.631,0,0,0,.564.913" transform="translate(-1152.949 -416.236)" fill="#8f3b76"/>
          <path id="Path_16909" data-name="Path 16909" d="M959.008,524.587a.631.631,0,0,0,.446-1.077,11.017,11.017,0,0,1-1.383-1.883c-.187-.3-.372-.587-.561-.863-2.18-3.17-4.139-8.043-2.489-11.343a.631.631,0,1,0-1.128-.564c-1.894,3.788.09,9,2.577,12.622.181.264.357.542.536.824a11.938,11.938,0,0,0,1.557,2.1.63.63,0,0,0,.446.185" transform="translate(-789.427 -421.167)" fill="#8f3b76"/>
          <path id="Path_16910" data-name="Path 16910" d="M733.3,1206.219c3.218,0,6.4-.211,9.518-.418,2.448-.163,4.981-.331,7.5-.395,2.656-.069,5.425-.212,8.1-.35,6.542-.339,13.306-.688,19.675-.051,2.033.2,4.093.288,6.085.372,2.15.089,4.373.182,6.542.422a39.707,39.707,0,0,0,8.189.3c1.718-.171,3.419-.373,5.116-.575a109.764,109.764,0,0,1,12.928-1.013c3.564,0,7.181.333,10.678.657,1.7.156,3.4.313,5.094.435a90.77,90.77,0,0,0,15-.58q1.153-.109,2.31-.216c8.666-.789,17.045-.793,25.909-.793.714,0,1.375.024,2.033.05a17.44,17.44,0,0,0,4.982-.269c.116-.029.249-.049.389-.073a2.348,2.348,0,0,0,1.912-1.053c.719-1.437-.524-3.27-1.266-4.364l-.166-.245c-.939-1.408-1.994-2.753-3.014-4.054a53.481,53.481,0,0,1-3.54-4.881c-1.821-2.958-3.569-6.032-5.261-9.007-1.386-2.438-2.82-4.958-4.285-7.4a53.477,53.477,0,0,0-3.74-5.229c-.825-1.061-1.678-2.158-2.452-3.264l-.511-.729a78.339,78.339,0,0,1-7.161-11.61.631.631,0,0,0-1.128.565A80.344,80.344,0,0,0,860,1164.217l.511.729c.792,1.131,1.655,2.242,2.49,3.315a52.488,52.488,0,0,1,3.654,5.1c1.457,2.43,2.888,4.944,4.271,7.376,1.7,2.983,3.451,6.068,5.283,9.045a54.607,54.607,0,0,0,3.621,5c1.006,1.282,2.046,2.607,2.957,3.974l.171.255c.51.751,1.571,2.315,1.182,3.092-.115.23-.579.305-.988.373-.177.029-.344.057-.49.094a16.39,16.39,0,0,1-4.624.232c-.679-.028-1.362-.047-2.028-.052-8.951,0-17.358,0-26.081.8q-1.16.105-2.314.216a88.053,88.053,0,0,1-14.794.578c-1.689-.121-3.378-.277-5.067-.433-3.526-.325-7.172-.662-10.794-.662a110.836,110.836,0,0,0-13.076,1.021c-1.69.2-3.384.4-5.093.573a38.769,38.769,0,0,1-7.925-.3c-2.212-.247-4.458-.34-6.629-.43-1.975-.082-4.016-.167-6.012-.366-6.463-.647-13.276-.295-19.865.046-2.669.138-5.429.281-8.068.348-2.544.066-5.089.235-7.55.4a86.413,86.413,0,0,1-15.543.1,14.415,14.415,0,0,0-2.555.12c-1.9.179-5.081.483-5.474-.571-.434-1.165,2.853-6.07,4.817-9,1.15-1.717,2.237-3.338,2.9-4.541,2.386-4.339,5.07-8.979,8.445-14.6,1.4-2.327,2.628-4.8,3.82-7.187,1.086-2.177,2.209-4.428,3.446-6.548,1.011-1.733,1.81-2.905,2.584-4.039a42.02,42.02,0,0,0,3.28-5.482.631.631,0,0,0-1.128-.565,40.4,40.4,0,0,1-3.195,5.336c-.785,1.152-1.6,2.343-2.63,4.115-1.258,2.157-2.39,4.426-3.485,6.62-1.182,2.368-2.4,4.816-3.774,7.1-3.382,5.638-6.073,10.291-8.468,14.645-.634,1.154-1.706,2.753-2.841,4.446-3.389,5.057-5.565,8.495-4.952,10.142.73,1.962,4.085,1.641,6.776,1.387a15.049,15.049,0,0,1,2.3-.122,56.539,56.539,0,0,0,6.248.32" transform="translate(-594.574 -953.746)" fill="#8f3b76"/>
          <path id="Path_16911" data-name="Path 16911" d="M1735.809,1103.774a.63.63,0,0,0,.6-.831,16.551,16.551,0,0,0-15.293-10.291c-11.263-.381-14.977,9.587-15.014,9.687a.631.631,0,0,0,1.186.428,14.1,14.1,0,0,1,13.786-8.856c10.923.355,14.013,9.065,14.139,9.436a.632.632,0,0,0,.6.427" transform="translate(-1413.027 -904.967)" fill="#8f3b76"/>
          <path id="Path_16912" data-name="Path 16912" d="M1726.175,1158.063c5.79,0,12.427-1.491,15.532-5.755a.631.631,0,0,0-1.02-.743c-3.156,4.335-10.774,5.5-16.341,5.184-3.487-.2-8.665-1.695-10.95-3.765a.631.631,0,0,0-.847.934c2.523,2.286,7.943,3.875,11.725,4.091.619.035,1.255.054,1.9.054" transform="translate(-1418.227 -953.557)" fill="#8f3b76"/>
          <path id="Path_16913" data-name="Path 16913" d="M1710.438,1160.14a32.87,32.87,0,0,0,12.948-2.461c2.5-1.161,3.97-2.605,4.366-4.293a3.728,3.728,0,0,0-.625-3.242,1.408,1.408,0,0,0-1.314-.643.63.63,0,0,0-.5.742.618.618,0,0,0,.632.508,1.164,1.164,0,0,1,.211.2,2.543,2.543,0,0,1,.362,2.142c-.377,1.609-2.2,2.758-3.669,3.438-5.151,2.392-15.173,3.346-21.319.893-1.132-.452-4.575-1.826-5.86-3.823l-.081-.124c-.528-.807-.954-1.6-.371-2.47a.63.63,0,1,0-1.046-.7,3.3,3.3,0,0,0,.362,3.865l.076.116c1.347,2.093,4.328,3.463,6.453,4.312a25.924,25.924,0,0,0,9.369,1.54" transform="translate(-1402.769 -952.047)" fill="#8f3b76"/>
          <path id="Path_16914" data-name="Path 16914" d="M1733.78,1081.2c0-1.281-.006-2.433-.082-3.567l-.019-.231a3.548,3.548,0,0,1,.252-2.1c.323-.521,1.057-.372,1.331-.315.3.06.6.144.9.23a7.209,7.209,0,0,0,1.166.264,5.586,5.586,0,0,0,1.181-.162c1.109-.213,2.365-.458,3.149.129a1.537,1.537,0,0,1,.6,1.136c.036.4.034.808.032,1.213v.3a.631.631,0,1,1-1.262,0v-.307c0-.364.006-.73-.026-1.09-.016-.179-.074-.222-.1-.24-.334-.253-1.472-.031-2.151.1a5.844,5.844,0,0,1-1.553.178,8.216,8.216,0,0,1-1.378-.306c-.27-.076-.539-.154-.808-.208l-.088-.016a5.156,5.156,0,0,0,.012,1.089l.019.253c.079,1.172.085,2.347.085,3.651a.631.631,0,1,1-1.262,0m1.222-5.231h0" transform="translate(-1435.865 -890.296)" fill="#8f3b76"/>
          <path id="Path_16915" data-name="Path 16915" d="M1852.655,1223.514a.629.629,0,0,0,.446-.185,5.491,5.491,0,0,0,1.684-3.832c.066-.656.217-3,.409-5.965.215-3.335.483-7.485.7-10.226.4-5.083.973-12.154.973-12.154l-1.257-.1s-.575,7.073-.973,12.157c-.215,2.75-.483,6.9-.7,10.244-.183,2.836-.341,5.286-.4,5.92a4.245,4.245,0,0,1-1.322,3.066.631.631,0,0,0,.446,1.077" transform="translate(-1533.918 -986.475)" fill="#8f3b76"/>
          <path id="Path_16916" data-name="Path 16916" d="M1728.359,1225.532a23.086,23.086,0,0,0,8.569-1.569.631.631,0,0,0-.452-1.177,23.888,23.888,0,0,1-10.96,1.374c-4.563-.3-5.862-1.8-6.638-2.7-.956-1.105-1.275-7.115-1.508-11.5-.077-1.443-.151-2.832-.24-4.045-.393-5.329-1.01-15.233-1.017-15.332a.631.631,0,0,0-1.259.079c.006.1.624,10.011,1.018,15.346.089,1.2.162,2.584.239,4.019.347,6.54.661,10.928,1.814,12.261.846.977,2.419,2.795,7.508,3.133.946.063,1.917.114,2.927.114" transform="translate(-1420.307 -985.595)" fill="#8f3b76"/>
          <path id="Path_16917" data-name="Path 16917" d="M812.443,1434.789a86.667,86.667,0,0,0,11.69-1.071c2.946-.4,5.992-.823,8.959-.985a70.927,70.927,0,0,1,12.235.742c2.466.292,5.014.595,7.555.733a62.22,62.22,0,0,0,12.518-1.029c2.782-.422,5.658-.857,8.47-1,1.256-.066,2.532-.153,3.819-.241a81.537,81.537,0,0,1,11.464-.249c.753.057,1.514.168,2.321.285a16.923,16.923,0,0,0,5.287.215.631.631,0,0,0-.213-1.244,15.961,15.961,0,0,1-4.892-.218c-.792-.115-1.611-.235-2.407-.3a82.393,82.393,0,0,0-11.644.249c-1.281.087-2.55.174-3.8.239-2.874.15-5.781.59-8.593,1.016a60.847,60.847,0,0,1-12.261,1.017c-2.5-.135-5.028-.435-7.474-.726a72.3,72.3,0,0,0-12.453-.749c-3.018.165-6.091.587-9.062,1a81.96,81.96,0,0,1-11.933,1.057c-4.036-.042-8.161-.494-12.151-.93-3.823-.419-7.777-.851-11.689-.932-6.1-.124-12.266.253-18.232.618a191.518,191.518,0,0,1-21.005.513l-1.269-.066c-1.838-.1-3.74-.2-5.6-.151-1.068.03-4.927.318-5.09.331a.631.631,0,0,0,.095,1.258c.04,0,3.991-.3,5.031-.327,1.812-.054,3.689.051,5.5.148l1.275.067a191.933,191.933,0,0,0,21.144-.514c5.94-.363,12.081-.741,18.128-.615,3.856.079,7.782.509,11.578.924,4.019.44,8.176.9,12.275.938l.429,0" transform="translate(-609.918 -1184.634)" fill="#8f3b76"/>
          <path id="Path_16918" data-name="Path 16918" d="M1741.627,1250.662c-4.207-.13-4.956-.543-6.6-1.449l-.414-.227c-1.53-.831-1.982-4.921-2.215-11.251-.029-.778-.051-1.392-.081-1.667-.33-3.093-.858-10.37-.863-10.443a.629.629,0,0,1,.256-.553c.07-.052,1.742-1.249,5.023-.773a13.512,13.512,0,0,1,3.4,1.034,5.381,5.381,0,0,0,3.283.637,6.888,6.888,0,0,0,2.311-1.091,6.342,6.342,0,0,1,3.513-1.3c.033,0,3.339.046,4.291,1.062a1.07,1.07,0,0,1,.309.816c-.095,1.468-.2,3-.3,4.553-.282,4.191-.574,8.524-.723,12.051l0,.092c-.074,1.733-.211,4.96-1.895,6.222-1.424,1.068-4.039,2.3-8.519,2.3-.253,0-.512,0-.776-.012m7.619-25.824a5.2,5.2,0,0,0-2.839,1.106,7.964,7.964,0,0,1-2.737,1.262,6.513,6.513,0,0,1-4.012-.708,12.3,12.3,0,0,0-3.1-.952,6.768,6.768,0,0,0-3.811.386c.115,1.569.546,7.347.83,10,.034.319.057.921.087,1.756.234,6.327.757,9.755,1.557,10.189l.422.232c1.5.829,2.123,1.172,6.025,1.293,4.836.134,7.4-1.215,8.5-2.039,1.206-.9,1.331-3.851,1.392-5.267l0-.091c.149-3.543.441-7.884.724-12.082.1-1.519.2-3.019.3-4.458a8.155,8.155,0,0,0-3.335-.627m3.341.537h0Z" transform="translate(-1434.059 -1013.414)" fill="#8f3b76"/>
          <path id="Path_16919" data-name="Path 16919" d="M1290.25,275.415a3.8,3.8,0,0,0,1.066-.183c.15-.042.3-.085.475-.119a.631.631,0,1,0-.243-1.238c-.2.04-.391.092-.571.142a1.871,1.871,0,0,1-1.137.078.631.631,0,0,0-.335,1.216,2.792,2.792,0,0,0,.746.1" transform="translate(-1067.634 -226.825)" fill="#8f3b76"/>
          <path id="Path_16920" data-name="Path 16920" d="M1218.22,279.706a5.138,5.138,0,0,0,1.116-.14,5.137,5.137,0,0,1,.828-.123.631.631,0,1,0-.067-1.26,6.349,6.349,0,0,0-1.017.148,3.771,3.771,0,0,1-2.231-.124.631.631,0,1,0-.356,1.211,6.117,6.117,0,0,0,1.727.288" transform="translate(-1007.171 -230.401)" fill="#8f3b76"/>
          <path id="Path_16921" data-name="Path 16921" d="M1239.928,346.209a9.865,9.865,0,0,0,4.285-.883.631.631,0,1,0-.577-1.122c-2.065,1.062-6.165.943-7.312-.212a.631.631,0,0,0-.9.889c.9.91,2.678,1.328,4.5,1.328" transform="translate(-1023.078 -284.754)" fill="#8f3b76"/>
        </g>
      </g>
    </g>
  </g>
</svg>
