<svg xmlns="http://www.w3.org/2000/svg" width="13" height="14.655" viewBox="0 0 13 14.655">
  <g id="Accept" transform="translate(-40 -8)">
    <path id="Path_16268" data-name="Path 16268" d="M65.418,464H64.236a.236.236,0,0,0,0,.473h1.182a.236.236,0,1,0,0-.473Z" transform="translate(-23.291 -442.527)" fill="#8f3b76"/>
    <path id="Path_16269" data-name="Path 16269" d="M128.473,464h-.236a.236.236,0,0,0,0,.473h.236a.236.236,0,1,0,0-.473Z" transform="translate(-85.4 -442.527)" fill="#8f3b76"/>
    <path id="Path_16270" data-name="Path 16270" d="M80.236,105.418H87.8a.236.236,0,0,0,.236-.236v-.945A.236.236,0,0,0,87.8,104H80.236a.236.236,0,0,0-.236.236v.945A.236.236,0,0,0,80.236,105.418Zm.236-.945h7.091v.473H80.473Z" transform="translate(-38.818 -93.164)" fill="#8f3b76"/>
    <path id="Path_16271" data-name="Path 16271" d="M80.236,169.418H87.8a.236.236,0,0,0,.236-.236v-.945A.236.236,0,0,0,87.8,168H80.236a.236.236,0,0,0-.236.236v.945A.236.236,0,0,0,80.236,169.418Zm.236-.945h7.091v.473H80.473Z" transform="translate(-38.818 -155.273)" fill="#8f3b76"/>
    <path id="Path_16272" data-name="Path 16272" d="M80.236,233.418H87.8a.236.236,0,0,0,.236-.236v-.945A.236.236,0,0,0,87.8,232H80.236a.236.236,0,0,0-.236.236v.945A.236.236,0,0,0,80.236,233.418Zm.236-.945h7.091v.473H80.473Z" transform="translate(-38.818 -217.382)" fill="#8f3b76"/>
    <path id="Path_16273" data-name="Path 16273" d="M84.727,296H80.236a.236.236,0,1,0,0,.473h4.491a.236.236,0,1,0,0-.473Z" transform="translate(-38.818 -279.491)" fill="#8f3b76"/>
    <path id="Path_16274" data-name="Path 16274" d="M83.309,320H80.236a.236.236,0,0,0,0,.473h3.073a.236.236,0,0,0,0-.473Z" transform="translate(-38.818 -302.782)" fill="#8f3b76"/>
    <path id="Path_16275" data-name="Path 16275" d="M80.709,344.473a.236.236,0,1,0,0-.473h-.473a.236.236,0,1,0,0,.473Z" transform="translate(-38.818 -326.073)" fill="#8f3b76"/>
    <path id="Path_16276" data-name="Path 16276" d="M120.473,344.473a.236.236,0,1,0,0-.473h-.236a.236.236,0,1,0,0,.473Z" transform="translate(-77.636 -326.073)" fill="#8f3b76"/>
    <path id="Path_16277" data-name="Path 16277" d="M53,19.109a2.84,2.84,0,0,0-2.6-2.826V10.127a.236.236,0,0,0-.069-.167L48.44,8.069A.236.236,0,0,0,48.273,8H40.236A.236.236,0,0,0,40,8.236V22.418a.236.236,0,0,0,.236.236h9.927a.236.236,0,0,0,.236-.236v-.483A2.84,2.84,0,0,0,53,19.109Zm-4.491-10.3,1.084,1.084H48.509ZM40.473,22.182V8.473h7.564v1.655a.236.236,0,0,0,.236.236h1.655v5.919a2.836,2.836,0,0,0,0,5.653v.246Zm9.691-.709a2.364,2.364,0,1,1,2.364-2.364A2.364,2.364,0,0,1,50.164,21.473Z" fill="#8f3b76"/>
    <path id="Path_16278" data-name="Path 16278" d="M339.239,352.069a.236.236,0,0,0-.334,0l-1.524,1.524-1.024-.614a.236.236,0,0,0-.243.405l1.182.709a.236.236,0,0,0,.289-.035l1.655-1.655A.236.236,0,0,0,339.239,352.069Z" transform="translate(-287.253 -333.836)" fill="#8f3b76"/>
  </g>
</svg>
