<svg xmlns="http://www.w3.org/2000/svg" width="30" height="20.629" viewBox="0 0 30 20.629">
  <g id="runer-silhouette-running-fast" transform="translate(0 -76.191)">
    <g id="_x33_6_24_" transform="translate(0 76.191)">
      <g id="Group_3732" data-name="Group 3732">
        <path id="Path_17029" data-name="Path 17029" d="M143.742,96.08H153a.44.44,0,0,0,0-.881h-9.256a.44.44,0,0,0,0,.881Z" transform="translate(-134.489 -94.03)" fill="#553772"/>
        <path id="Path_17030" data-name="Path 17030" d="M9.132,166.1h9.256a.44.44,0,1,0,0-.881H9.132a.44.44,0,1,0,0,.881Z" transform="translate(-8.157 -159.741)" fill="#553772"/>
        <path id="Path_17031" data-name="Path 17031" d="M56.258,246.494a.44.44,0,0,0,.44.44h9.256a.44.44,0,0,0,0-.881H56.7A.44.44,0,0,0,56.258,246.494Z" transform="translate(-52.798 -235.608)" fill="#553772"/>
        <path id="Path_17032" data-name="Path 17032" d="M8.757,336.44H.44a.44.44,0,1,0,0,.881H8.757a.44.44,0,1,0,0-.881Z" transform="translate(0 -320.435)" fill="#553772"/>
        <path id="Path_17033" data-name="Path 17033" d="M349.016,81A2.405,2.405,0,1,0,346.61,78.6,2.405,2.405,0,0,0,349.016,81Z" transform="translate(-325.294 -76.191)" fill="#553772"/>
        <path id="Path_17034" data-name="Path 17034" d="M173.623,134.669c-1.381,1.935-3.231,2.159-5.221.977-.135-.08-.737-.412-.87-.491-3.2-1.9-6.4-1.155-8.544,1.848-.911,1.277,1.2,2.488,2.1,1.226a3.405,3.405,0,0,1,4.058-1.509c-.789,1.37-1.479,2.731-2.452,4.665s-3.123,3.479-5.189,2.271a1.264,1.264,0,1,0-1.349,2.138,6.1,6.1,0,0,0,7.814-1.506,1.323,1.323,0,0,0,.188.083,15.606,15.606,0,0,1,3.737,2.213c.551.453,1.5,2.763,2.058,3.923a1.215,1.215,0,0,0,2.2-1.031c-.637-1.316-1.706-3.944-2.54-4.609a20.916,20.916,0,0,0-3.068-2.088q1.118-2.165,2.337-4.274c2.6.8,5.077-.142,6.84-2.61C176.633,134.618,174.525,133.407,173.623,134.669Z" transform="translate(-145.945 -130.551)" fill="#553772"/>
      </g>
    </g>
  </g>
</svg>
