<svg xmlns="http://www.w3.org/2000/svg" width="39.137" height="39.137" viewBox="0 0 39.137 39.137">
  <g id="calendar_7_" data-name="calendar (7)" transform="translate(-1 -1)">
    <path id="Path_17588" data-name="Path 17588" d="M36.462,34.887H15V21H36.462Z" transform="translate(-5.163 -7.375)" fill="#c7417b"/>
    <path id="Path_17589" data-name="Path 17589" d="M40.137,7.944a3.16,3.16,0,0,0-3.156-3.156H33.194C33.194,2.7,31.778,1,30.037,1s-3.156,1.7-3.156,3.787H24.356C24.356,2.7,22.94,1,21.2,1s-3.156,1.7-3.156,3.787H15.519C15.519,2.7,14.1,1,12.362,1S9.206,2.7,9.206,4.787A3.16,3.16,0,0,0,6.05,7.944V30.037H1v3.156A3.16,3.16,0,0,0,4.156,36.35H6.05v3.787H37.612V37.612h2.525Zm-10.1-5.681c1.044,0,1.894,1.132,1.894,2.525H28.144C28.144,3.395,28.993,2.262,30.037,2.262Zm-8.837,0c1.044,0,1.894,1.132,1.894,2.525H19.306C19.306,3.395,20.156,2.262,21.2,2.262Zm-8.837,0c1.044,0,1.894,1.132,1.894,2.525H10.469C10.469,3.395,11.318,2.262,12.362,2.262ZM9.206,6.05h.184a3.256,3.256,0,0,0,2.972,2.525V7.312A1.878,1.878,0,0,1,10.732,6.05h7.5A3.256,3.256,0,0,0,21.2,8.575V7.312A1.878,1.878,0,0,1,19.569,6.05h7.5a3.256,3.256,0,0,0,2.972,2.525V7.312A1.878,1.878,0,0,1,28.406,6.05h6.065a3.134,3.134,0,0,0-.646,1.894V9.837H7.312V7.944A1.9,1.9,0,0,1,9.206,6.05ZM7.312,11.1H33.825V33.194a1.894,1.894,0,0,1-3.787,0V30.037H7.312ZM2.262,33.194V31.3H28.775v1.894a3.139,3.139,0,0,0,.633,1.894H4.156A1.9,1.9,0,0,1,2.262,33.194ZM38.875,36.35H37.612V9.837H36.35V38.875H7.312V36.35H31.931a3.16,3.16,0,0,0,3.156-3.156V7.944a1.894,1.894,0,1,1,3.787,0Z" fill="#37224b"/>
    <path id="Path_17590" data-name="Path 17590" d="M57,11h1.262v1.262H57Z" transform="translate(-20.65 -3.688)" fill="#37224b"/>
    <path id="Path_17591" data-name="Path 17591" d="M36.462,31.1H33.937V28.575h2.525V27.312H33.937V24.787h2.525V23.525H33.937V21H32.675v2.525H30.15V21H28.887v2.525H26.362V21H25.1v2.525H22.575V21H21.312v2.525H18.787V21H17.525v2.525H15v1.262h2.525v2.525H15v1.262h2.525V31.1H15v1.262h2.525v2.525h1.262V32.362h2.525v2.525h1.262V32.362H25.1v2.525h1.262V32.362h2.525v2.525H30.15V32.362h2.525v2.525h1.263V32.362h2.525Zm-3.787-6.312v2.525H30.15V24.787Zm-3.787,0v2.525H26.362V24.787Zm-3.787,0v2.525H22.575V24.787Zm-6.312,0h2.525v2.525H18.787Zm0,6.312V28.575h2.525V31.1Zm3.787,0V28.575H25.1V31.1Zm3.787,0V28.575h2.525V31.1Zm3.787,0V28.575h2.525V31.1Z" transform="translate(-5.163 -7.375)" fill="#37224b"/>
    <path id="Path_17592" data-name="Path 17592" d="M5,51H6.262v1.262H5Z" transform="translate(-1.475 -18.438)" fill="#37224b"/>
    <path id="Path_17593" data-name="Path 17593" d="M9,51h1.262v1.262H9Z" transform="translate(-2.95 -18.438)" fill="#37224b"/>
    <path id="Path_17594" data-name="Path 17594" d="M13,51h1.262v1.262H13Z" transform="translate(-4.425 -18.438)" fill="#37224b"/>
  </g>
</svg>
