<svg xmlns="http://www.w3.org/2000/svg" width="17.551" height="16.08" viewBox="0 0 17.551 16.08">
  <g id="filter" transform="translate(-17.196 -21.496)">
    <path id="Path_17472" data-name="Path 17472" d="M81.131,81.8H70.675a2.157,2.157,0,0,0-4.089,0H64.954a.687.687,0,0,0,0,1.373h1.632a2.157,2.157,0,0,0,4.089,0H81.131a.687.687,0,1,0,0-1.373Zm-12.5,1.471a.784.784,0,1,1,.784-.784A.785.785,0,0,1,68.63,83.275Z" transform="translate(-47.071 -58.838)" fill="#3e215a"/>
    <path id="Path_17473" data-name="Path 17473" d="M81.131,210.338H79.5a2.157,2.157,0,0,0-4.089,0H64.954a.687.687,0,1,0,0,1.373H75.41a2.157,2.157,0,0,0,4.089,0h1.632a.687.687,0,1,0,0-1.373Zm-3.677,1.471a.784.784,0,1,1,.784-.784A.785.785,0,0,1,77.455,211.808Z" transform="translate(-47.071 -181.489)" fill="#3e215a"/>
    <path id="Path_17474" data-name="Path 17474" d="M81.131,338.871H73.616a2.157,2.157,0,0,0-4.089,0H64.954a.687.687,0,0,0,0,1.373h4.574a2.157,2.157,0,0,0,4.089,0h7.515a.687.687,0,1,0,0-1.373Zm-9.56,1.471a.784.784,0,1,1,.784-.784A.785.785,0,0,1,71.572,340.341Z" transform="translate(-47.071 -304.139)" fill="#3e215a"/>
  </g>
</svg>
