<svg xmlns="http://www.w3.org/2000/svg" width="22" height="22" viewBox="0 0 22 22">
  <g id="settings_1_" data-name="settings (1)" transform="translate(-144.732 -148.23)">
    <path id="Path_17469" data-name="Path 17469" d="M179.137,171.556h-1.272a8.3,8.3,0,0,0-1.256-3.032l.9-.9a.64.64,0,0,0,0-.905l-1.381-1.381a.64.64,0,0,0-.905,0l-.9.9a8.3,8.3,0,0,0-3.032-1.256V163.71a.64.64,0,0,0-.64-.64H168.7a.64.64,0,0,0-.64.64v1.272a8.3,8.3,0,0,0-3.032,1.256l-.9-.9a.64.64,0,0,0-.905,0l-1.381,1.381a.64.64,0,0,0,0,.905l.9.9a8.3,8.3,0,0,0-1.256,3.032h-1.272a.64.64,0,0,0-.64.64v1.953a.64.64,0,0,0,.64.64h1.272a8.3,8.3,0,0,0,1.256,3.032l-.9.9a.64.64,0,0,0,0,.905l1.381,1.381a.64.64,0,0,0,.905,0l.9-.9a8.3,8.3,0,0,0,3.032,1.256v1.272a.64.64,0,0,0,.64.64h1.953a.64.64,0,0,0,.64-.64v-1.272a8.3,8.3,0,0,0,3.032-1.256l.9.9a.64.64,0,0,0,.905,0l1.381-1.381a.64.64,0,0,0,0-.905l-.9-.9a8.3,8.3,0,0,0,1.256-3.032h1.272a.64.64,0,0,0,.64-.64V172.2A.64.64,0,0,0,179.137,171.556Zm-9.462,6.315a4.7,4.7,0,1,1,4.7-4.7A4.7,4.7,0,0,1,169.674,177.871Z" transform="translate(-13.942 -13.943)" fill="#cea8c3"/>
    <g id="Group_3894" data-name="Group 3894" transform="translate(144.732 148.23)">
      <path id="Path_17470" data-name="Path 17470" d="M156.708,170.23h-1.953a1.539,1.539,0,0,1-1.538-1.538v-.564a9.123,9.123,0,0,1-2-.829l-.4.4a1.538,1.538,0,0,1-2.175,0l-1.381-1.381a1.538,1.538,0,0,1,0-2.175l.4-.4a9.126,9.126,0,0,1-.829-2h-.564a1.539,1.539,0,0,1-1.538-1.538v-1.953a1.539,1.539,0,0,1,1.538-1.538h.564a9.125,9.125,0,0,1,.829-2l-.4-.4a1.538,1.538,0,0,1,0-2.175l1.381-1.381a1.538,1.538,0,0,1,2.175,0l.4.4a9.123,9.123,0,0,1,2-.829v-.564a1.539,1.539,0,0,1,1.538-1.538h1.953a1.539,1.539,0,0,1,1.538,1.538v.564a9.125,9.125,0,0,1,2,.829l.4-.4a1.538,1.538,0,0,1,2.175,0l1.381,1.381a1.538,1.538,0,0,1,0,2.175l-.4.4a9.119,9.119,0,0,1,.829,2h.564a1.539,1.539,0,0,1,1.538,1.538v1.953a1.539,1.539,0,0,1-1.538,1.538h-.564a9.122,9.122,0,0,1-.829,2l.4.4a1.538,1.538,0,0,1,0,2.175L162.82,167.7a1.538,1.538,0,0,1-2.175,0l-.4-.4a9.12,9.12,0,0,1-2,.829v.564A1.54,1.54,0,0,1,156.708,170.23Zm-1.7-1.8h1.437V167.42a.9.9,0,0,1,.725-.881,7.372,7.372,0,0,0,2.7-1.12.9.9,0,0,1,1.135.11l.718.718,1.017-1.017-.718-.718a.9.9,0,0,1-.11-1.135,7.37,7.37,0,0,0,1.12-2.7.9.9,0,0,1,.881-.725h1.015v-1.437h-1.015a.9.9,0,0,1-.881-.725,7.371,7.371,0,0,0-1.12-2.7.9.9,0,0,1,.11-1.135l.718-.718-1.016-1.017-.718.718a.9.9,0,0,1-1.135.11,7.37,7.37,0,0,0-2.7-1.12.9.9,0,0,1-.725-.881v-1.014h-1.437v1.014a.9.9,0,0,1-.725.881,7.372,7.372,0,0,0-2.7,1.12.9.9,0,0,1-1.135-.11l-.718-.718-1.016,1.016.718.718a.9.9,0,0,1,.11,1.135,7.37,7.37,0,0,0-1.12,2.7.9.9,0,0,1-.881.725h-1.014v1.437h1.014a.9.9,0,0,1,.881.725,7.37,7.37,0,0,0,1.12,2.7.9.9,0,0,1-.11,1.135l-.718.718,1.017,1.016.718-.718a.9.9,0,0,1,1.135-.11,7.37,7.37,0,0,0,2.7,1.12.9.9,0,0,1,.725.881v1.015h0Zm.719-3.608a5.6,5.6,0,1,1,5.6-5.6A5.6,5.6,0,0,1,155.732,164.827Zm0-9.4a3.8,3.8,0,1,0,3.8,3.8A3.806,3.806,0,0,0,155.732,155.429Z" transform="translate(-144.732 -148.23)" fill="#8f3b76"/>
    </g>
  </g>
</svg>
