<svg xmlns="http://www.w3.org/2000/svg" width="28" height="22.26" viewBox="0 0 28 22.26">
  <g id="soldier" transform="translate(0 -52.476)">
    <g id="Group_3724" data-name="Group 3724" transform="translate(8.105 60.687)">
      <g id="Group_3723" data-name="Group 3723">
        <path id="Path_17021" data-name="Path 17021" d="M148.2,202.609l.075,1.29a.71.71,0,0,0,.932.632l.69-.229Z" transform="translate(-148.204 -202.609)" fill="#553772"/>
      </g>
    </g>
    <g id="Group_3726" data-name="Group 3726" transform="translate(14.41 55.652)">
      <g id="Group_3725" data-name="Group 3725">
        <path id="Path_17022" data-name="Path 17022" d="M277.083,112.881a.536.536,0,0,0-.535-.505h-.032l-.8.047-.027-.469a.537.537,0,0,0-.535-.505h-.032a.537.537,0,0,0-.5.567l.027.469-4.349.254-1.082-1.915a.569.569,0,0,0-.512-.285l-4.359.139a.57.57,0,0,0-.538.443l-.307,1.343,1.2-.06.122-.6,3.578-.114.628,1.125-.8.047a2.213,2.213,0,0,1-.927,3.236l-.334.152.564,1.656a1.215,1.215,0,1,0,2.3-.783l-.747-2.2,2.044-.12a.536.536,0,0,0,.124-1.048l5.338-.312A.537.537,0,0,0,277.083,112.881Z" transform="translate(-263.494 -110.54)" fill="#553772"/>
      </g>
    </g>
    <g id="Group_3728" data-name="Group 3728" transform="translate(8.22 52.476)">
      <g id="Group_3727" data-name="Group 3727">
        <path id="Path_17023" data-name="Path 17023" d="M153.4,52.507a2.682,2.682,0,1,0,2.246,3.056A2.682,2.682,0,0,0,153.4,52.507Z" transform="translate(-150.313 -52.476)" fill="#553772"/>
      </g>
    </g>
    <g id="Group_3730" data-name="Group 3730" transform="translate(0 56.746)">
      <g id="Group_3729" data-name="Group 3729">
        <path id="Path_17024" data-name="Path 17024" d="M18.392,132.5a1.215,1.215,0,0,0-1.61-.6l-4.432,2.02c-.447-.251-3.612-2.027-4.08-2.287a2.166,2.166,0,0,1-.89-1.077,2.035,2.035,0,0,0-2.05,2.04c.029,3.368.024,6.118.019,7.276a3.762,3.762,0,0,0,.166,1.121c.241.779.712,2.389,1.234,4.637H1.458a1.458,1.458,0,0,0,0,2.917H8.591a1.458,1.458,0,0,0,1.42-1.791L8.785,141.53l4.013-.4-.91,5.729a1.458,1.458,0,1,0,2.88.458l1.207-7.6a1.458,1.458,0,0,0-1.584-1.68l-3.167.314.008-.762a11.325,11.325,0,0,1-.844-.82l-1.043.346a1.447,1.447,0,0,1-1.9-1.289,11,11,0,0,1-.08-1.918l4.336,2.43a1.215,1.215,0,0,0,1.1.046l4.993-2.276A1.215,1.215,0,0,0,18.392,132.5Z" transform="translate(0 -130.558)" fill="#553772"/>
      </g>
    </g>
  </g>
</svg>
