<svg xmlns="http://www.w3.org/2000/svg" width="35" height="40.945" viewBox="0 0 35 40.945">
  <g id="stopwatch_19_" data-name="stopwatch (19)" transform="translate(-36.009)">
    <circle id="Ellipse_117" data-name="Ellipse 117" cx="12.548" cy="12.548" r="12.548" transform="translate(40.629 11.227)" fill="#c7417b"/>
    <g id="Group_3321" data-name="Group 3321" transform="translate(36.009)">
      <path id="Path_16074" data-name="Path 16074" d="M117.989,256a1.984,1.984,0,0,0-1.981,1.981v1.981a1.981,1.981,0,1,0,3.962,0v-1.981A1.984,1.984,0,0,0,117.989,256Zm.66,3.962a.66.66,0,0,1-1.321,0v-1.981a.66.66,0,1,1,1.321,0Z" transform="translate(-109.404 -234.867)" fill="#472a64"/>
      <path id="Path_16075" data-name="Path 16075" d="M173.989,256a1.984,1.984,0,0,0-1.981,1.981v1.981a1.981,1.981,0,1,0,3.962,0v-1.981A1.984,1.984,0,0,0,173.989,256Zm.66,3.962a.66.66,0,0,1-1.321,0v-1.981a.66.66,0,1,1,1.321,0Z" transform="translate(-160.781 -234.867)" fill="#472a64"/>
      <path id="Path_16076" data-name="Path 16076" d="M276.008,257.321h.66v4.623h1.321V256h-1.981Z" transform="translate(-256.196 -234.867)" fill="#472a64"/>
      <path id="Path_16077" data-name="Path 16077" d="M310.65,257.981h-.66v-.66h1.981V256h-3.3v3.3h1.981a.66.66,0,0,1,0,1.321h-.66a.661.661,0,0,1-.66-.66h-1.321a1.984,1.984,0,0,0,1.981,1.981h.66a1.981,1.981,0,0,0,0-3.962Z" transform="translate(-285.554 -234.867)" fill="#472a64"/>
      <rect id="Rectangle_1917" data-name="Rectangle 1917" width="1.321" height="1.321" transform="translate(16.507 21.793)" fill="#472a64"/>
      <rect id="Rectangle_1918" data-name="Rectangle 1918" width="1.321" height="1.321" transform="translate(16.507 25.095)" fill="#472a64"/>
      <path id="Path_16078" data-name="Path 16078" d="M67.082,12.785a2.528,2.528,0,0,0,3.186-3.894L66.739,5.363A2.529,2.529,0,0,0,62.845,8.55l-.631.631A16.948,16.948,0,0,0,56.48,6.924v-.98h.2a3.041,3.041,0,0,0,3.1-2.813,2.946,2.946,0,0,0-.812-2.2A2.984,2.984,0,0,0,56.811,0H49.677a3.04,3.04,0,0,0-3.1,2.813,2.95,2.95,0,0,0,.812,2.2,2.984,2.984,0,0,0,2.156.927h.33v.981a17.171,17.171,0,0,0,3,34.018c.1,0,.2,0,.305,0a17.158,17.158,0,0,0,13.5-27.759Zm1.947,10.989A15.849,15.849,0,0,1,52.9,39.622,15.85,15.85,0,0,1,50.643,8.129L51.2,8.04v-2.1H53.84V4.623H49.547A1.652,1.652,0,0,1,47.9,2.882a1.743,1.743,0,0,1,1.779-1.561h7.135a1.651,1.651,0,0,1,1.648,1.74,1.744,1.744,0,0,1-1.78,1.561H55.16V8.04l.555.089a15.66,15.66,0,0,1,6.224,2.445l.45.3L63.746,9.52l.853.853.934-.934L64.212,8.118h0L64.1,8.005A1.208,1.208,0,0,1,65.807,6.3l3.529,3.529a1.208,1.208,0,1,1-1.708,1.708l-.58-.58L64.9,13.1l.392.464A15.848,15.848,0,0,1,69.029,23.775Z" transform="translate(-36.009)" fill="#472a64"/>
      <rect id="Rectangle_1919" data-name="Rectangle 1919" width="1.321" height="1.321" transform="translate(16.507 13.868)" fill="#472a64"/>
      <rect id="Rectangle_1920" data-name="Rectangle 1920" width="1.321" height="1.321" transform="translate(19.149 13.868)" fill="#472a64"/>
      <rect id="Rectangle_1921" data-name="Rectangle 1921" width="1.321" height="1.321" transform="translate(13.866 13.868)" fill="#472a64"/>
      <rect id="Rectangle_1922" data-name="Rectangle 1922" width="1.321" height="1.321" transform="translate(16.507 32.36)" fill="#472a64"/>
      <rect id="Rectangle_1923" data-name="Rectangle 1923" width="1.321" height="1.321" transform="translate(19.149 32.36)" fill="#472a64"/>
      <rect id="Rectangle_1924" data-name="Rectangle 1924" width="1.321" height="1.321" transform="translate(13.866 32.36)" fill="#472a64"/>
    </g>
  </g>
</svg>
