<svg id="support_1_" data-name="support (1)" xmlns="http://www.w3.org/2000/svg" width="15" height="15" viewBox="0 0 15 15">
  <g id="Group_3401" data-name="Group 3401" transform="translate(5.657 6.444)">
    <path id="Path_16244" data-name="Path 16244" d="M194.75,222.241a.192.192,0,0,1-.2.2H193.3a.2.2,0,0,1-.142-.341l1.05-.951a.459.459,0,0,0-.582-.709c-.078.057-.143.159-.244.176a.2.2,0,0,1-.217-.13c-.049-.142.072-.226.163-.309a.838.838,0,0,1,.571-.22.854.854,0,0,1,.632.28.838.838,0,0,1,.22.571.854.854,0,0,1-.28.632l-.671.607h.756A.2.2,0,0,1,194.75,222.241Z" transform="translate(-193.094 -219.952)" fill="#8f3b76"/>
    <path id="Path_16245" data-name="Path 16245" d="M253.637,221.832a.2.2,0,0,1-.2.2H253.4v.27a.2.2,0,1,1-.39,0v-.27H251.9a.2.2,0,0,1-.16-.316c.045-.056,1.3-1.618,1.313-1.632a.308.308,0,0,1,.043-.037.2.2,0,0,1,.305.161v1.433h.035A.2.2,0,0,1,253.637,221.832Zm-.624-1.072-.706.876h.706Z" transform="translate(-249.984 -220.009)" fill="#8f3b76"/>
  </g>
  <path id="Path_16246" data-name="Path 16246" d="M13.829,5.149a6.464,6.464,0,0,0-12.658,0A1.382,1.382,0,0,0,0,6.509v.728a.22.22,0,0,0,.439,0V6.509a.944.944,0,0,1,.948-.938h.459v4.559H1.387a.944.944,0,0,1-.948-.937V8.35A.22.22,0,0,0,0,8.35v.844A1.384,1.384,0,0,0,1.387,10.57h.482a.7.7,0,0,0,1.37-.178V5.31a.7.7,0,0,0-1.37-.178H1.621a6.029,6.029,0,0,1,11.757,0h-.248a.7.7,0,0,0-1.37.178v5.082a.7.7,0,0,0,1.37.178h.245A4.489,4.489,0,0,1,9,14.085a.7.7,0,0,0-.66-.47H6.661a.693.693,0,1,0,0,1.385H8.339A.7.7,0,0,0,9,14.525a4.925,4.925,0,0,0,4.825-3.971A1.382,1.382,0,0,0,15,9.193V6.509A1.382,1.382,0,0,0,13.829,5.149ZM2.285,5.31a.258.258,0,0,1,.515,0v5.082a.258.258,0,0,1-.515,0Zm6.054,9.251H6.661a.253.253,0,0,1,0-.506H8.339A.253.253,0,0,1,8.339,14.561Zm4.376-4.168a.258.258,0,0,1-.515,0V5.31a.258.258,0,0,1,.515,0Zm1.846-1.2a.944.944,0,0,1-.948.938h-.458V5.571h.458a.944.944,0,0,1,.948.938Z" fill="#8f3b76"/>
  <path id="Path_16247" data-name="Path 16247" d="M136.916,146.3l1.321.582a.222.222,0,0,0,.308-.2v-1.47a3.575,3.575,0,0,0,.191-4.416.22.22,0,0,0-.357.256,3.136,3.136,0,0,1-.217,3.93.22.22,0,0,0-.056.147v1.216l-1.091-.481a.22.22,0,0,0-.162-.006,3.158,3.158,0,1,1,.748-5.57.22.22,0,0,0,.25-.362,3.6,3.6,0,1,0-.935,6.374Z" transform="translate(-128.28 -135.206)" fill="#8f3b76"/>
</svg>
