<svg xmlns="http://www.w3.org/2000/svg" xmlns:xlink="http://www.w3.org/1999/xlink" width="13.354" height="22.396" viewBox="0 0 13.354 22.396">
  <defs>
    <clipPath id="clip-path">
      <path id="Path_16804" data-name="Path 16804" d="M87.4,32.287a2.687,2.687,0,0,1,2.333-2.7.907.907,0,0,0,.88.675.911.911,0,0,0,.555-.188l.06-.046L90.3,33.071a.912.912,0,0,0,.606,1.138.869.869,0,0,0,.268.042.915.915,0,0,0,.872-.647l.878-2.867,1.93.974,0,0,.666.337.038.019a1.54,1.54,0,0,1,.87,1.4A1.5,1.5,0,0,1,94.961,35H90.018A2.669,2.669,0,0,1,87.4,32.287m1.771-4.4h.306a.52.52,0,0,0,.343-.912,7.856,7.856,0,0,1,1.294.841l-.934.715c-.055,0-.11,0-.165,0a3.521,3.521,0,0,0-.58.048ZM90.7,18.1h-.045l-.038,0h-.008l-.035,0-.012,0-.028.005a.073.073,0,0,0-.019,0l-.022,0-.023.006-.015.005-.031.009-.009,0-.034.012-.008,0-.035.013,0,0L90.3,18.2l-.006,0-.033.017-.006,0-.03.017-.011.006a.2.2,0,0,1-.024.015l-.015.011-.019.014-.019.016a.03.03,0,0,0-.012.01.266.266,0,0,0-.027.022l-.006.005-.031.028h0c-.014.016-.029.031-.045.048a8.139,8.139,0,0,0-1.727,3.259,10.559,10.559,0,0,0-.527,3.856h0q0,.034.006.067v0a1.016,1.016,0,0,0,.026.13v0a.86.86,0,0,0,.045.121l0,.006a.943.943,0,0,0,.059.11l.007.01.034.048h0c.012.016.024.033.037.047l.01.011c.013.014.025.028.04.043h0c.013.014.029.027.044.041l.009.008a1.074,1.074,0,0,0,.1.074l.005,0a.73.73,0,0,0,.118.063l.066.026a10.882,10.882,0,0,1,1.227.512.478.478,0,0,0-.114-.013H87.148a.521.521,0,1,0,0,1.042h.907l.389,1.006a3.772,3.772,0,0,0-2.084,3.392,3.713,3.713,0,0,0,3.658,3.758h4.943a2.548,2.548,0,0,0,2.512-2.576,2.59,2.59,0,0,0-1.446-2.333l-.01-.005-.311-.158,2.109-7.754a2.143,2.143,0,0,0,1.414-1.654c.2-1.183.456-2.621.479-2.76a.521.521,0,0,0-1.028-.173c-.024.141-.309,1.786-.478,2.756a1.091,1.091,0,0,1-1.424.845.521.521,0,0,0-.336.987,2.384,2.384,0,0,0,.272.073l-1.958,7.2-1.522-.769.378-1.24a.9.9,0,0,0,.039-.311l1.285-.983a1.165,1.165,0,0,0-.6-2.084l-4.762-.45a8.715,8.715,0,0,1,.44-2.406,9.361,9.361,0,0,1,.808-1.9A7.271,7.271,0,0,0,94.477,22.2a4.836,4.836,0,0,0,.576.034,6.814,6.814,0,0,0,2.376-.49l.031-.011a.912.912,0,1,0-.633-1.711l-.033.011a4.643,4.643,0,0,1-2.1.356A6.405,6.405,0,0,1,91.56,18.56a1.959,1.959,0,0,0-.434-.35l-.011-.005L91.1,18.2l-.068-.029h0c-.013-.005-.024-.01-.039-.014l-.009,0a.127.127,0,0,0-.032-.01l-.017-.006-.022-.005a.171.171,0,0,1-.024-.006l-.017,0-.029-.005-.011,0-.036,0h-.006l-.039,0H90.7Z" transform="translate(-86.36 -18.103)" fill="none"/>
    </clipPath>
    <linearGradient id="linear-gradient" x1="-6.558" y1="2.903" x2="-6.482" y2="2.903" gradientUnits="objectBoundingBox">
      <stop offset="0" stop-color="#8f3b76"/>
      <stop offset="1" stop-color="#8f3b76"/>
    </linearGradient>
    <clipPath id="clip-path-2">
      <path id="Path_16805" data-name="Path 16805" d="M90.91,14.657a2.122,2.122,0,1,0,1.76-.932,2.124,2.124,0,0,0-1.76.932" transform="translate(-90.544 -13.725)" fill="rgb(143,59,118)"/>
    </clipPath>
    <linearGradient id="linear-gradient-2" x1="-19.001" y1="12.451" x2="-18.791" y2="12.451" xlink:href="#linear-gradient"/>
  </defs>
  <g id="Group_3905" data-name="Group 3905" transform="translate(-87.843 -13.96)">
    <g id="Group_3621" data-name="Group 3621" transform="translate(87.843 18.414)">
      <g id="Group_3620" data-name="Group 3620" clip-path="url(#clip-path)">
        <rect id="Rectangle_2174" data-name="Rectangle 2174" width="13.394" height="17.943" transform="translate(0 0)" fill="url(#linear-gradient)"/>
      </g>
    </g>
    <g id="Group_3622" data-name="Group 3622" transform="translate(92.099 13.96)" clip-path="url(#clip-path-2)">
      <rect id="Rectangle_2175" data-name="Rectangle 2175" width="4.832" height="4.539" transform="translate(-0.292 0)" fill="rgb(143,59,118)"/>
    </g>
  </g>
</svg>
