<svg xmlns="http://www.w3.org/2000/svg" width="16" height="13.537" viewBox="0 0 16 13.537">
  <path id="telegram" d="M15.752.371A1.039,1.039,0,0,0,14.928,0a1.617,1.617,0,0,0-.575.115L.809,5.285C.09,5.559-.007,5.97,0,6.191s.126.626.859.86l.013,0,2.809.8L5.2,12.2a1.312,1.312,0,0,0,1.214.96,1.436,1.436,0,0,0,.971-.414l1.738-1.6,2.52,2.029h0l.024.019.007.005a1.455,1.455,0,0,0,.885.332h0a1.242,1.242,0,0,0,1.184-1.1L15.963,1.479A1.309,1.309,0,0,0,15.752.371ZM4.621,7.706l5.42-2.769L6.666,8.523a.468.468,0,0,0-.114.209L5.9,11.368ZM6.75,12.06c-.022.021-.045.039-.068.056l.6-2.445,1.1.884ZM15.044,1.293,12.825,12.25c-.021.1-.09.349-.265.349a.546.546,0,0,1-.307-.133L9.4,10.167h0L7.7,8.8l4.88-5.186a.469.469,0,0,0-.555-.739l-8.027,4.1L1.147,6.159,14.687.99a.687.687,0,0,1,.241-.053c.029,0,.08,0,.1.027A.447.447,0,0,1,15.044,1.293Zm0,0" transform="translate(0.001)" fill="#fff"/>
</svg>
