<svg xmlns="http://www.w3.org/2000/svg" width="22" height="20.857" viewBox="0 0 22 20.857">
  <g id="stopwatch_2_" data-name="stopwatch (2)" transform="translate(0 -13.208)">
    <path id="Path_2668" data-name="Path 2668" d="M19.539,19.357l.45-.523.438.377a.324.324,0,0,0,.212.078h.024a.324.324,0,0,0,.222-.112l.7-.81a.324.324,0,0,0-.035-.457l-2.4-2.059a.324.324,0,0,0-.457.034l-.7.81a.324.324,0,0,0,.035.457l.438.377-.484.563a8.61,8.61,0,0,0-3.332-1.257v-.98h1.117a.947.947,0,0,0,.946-.946v-.755a.947.947,0,0,0-.946-.946H10.9a.947.947,0,0,0-.946.946v.755a.947.947,0,0,0,.946.946h1.117v.98a8.612,8.612,0,0,0-3.39,1.295l-.517-.6.438-.377a.324.324,0,0,0,.034-.457l-.7-.81a.324.324,0,0,0-.457-.034l-2.4,2.059A.324.324,0,0,0,5,18.366l.7.81a.324.324,0,0,0,.457.034l.438-.377.493.573a8.722,8.722,0,0,0-1.13,1.461l-.033,0H3.869a.324.324,0,0,0,0,.649H5.59a8.616,8.616,0,0,0-.446,1.053H1.866a.324.324,0,0,0,0,.649H4.947a8.615,8.615,0,0,0-.242,1.388H.324a.324.324,0,1,0,0,.649H4.67c0,.048,0,.1,0,.146a8.7,8.7,0,0,0,.089,1.243H1.564a.324.324,0,0,0,0,.649H4.877a8.58,8.58,0,0,0,.307,1.053H3.566a.324.324,0,1,0,0,.649H5.45a8.666,8.666,0,0,0,12.936,3.448.324.324,0,1,0-.379-.527A8.019,8.019,0,1,1,18.86,19.6l.009.009A8.011,8.011,0,0,1,19,31.074a.324.324,0,0,0,.458.459,8.658,8.658,0,0,0,.082-12.176Zm-.565-2.8,1.9,1.636-.274.318-1.9-1.636Zm-.012,1.4.535.46-.428.5q-.264-.234-.546-.446ZM11.9,15.205V13.857h.524v1.349Zm1.173-1.349H13.6v1.349h-.524Zm1.173,1.349V13.857h.524v1.349Zm1.823-1.052v.755a.3.3,0,0,1-.3.3h-.354V13.857h.354A.3.3,0,0,1,16.068,14.154Zm-5.468.755v-.755a.3.3,0,0,1,.3-.3h.354v1.349H10.9A.3.3,0,0,1,10.6,14.908Zm-4.627,3.6L5.7,18.189l1.9-1.636.274.318-.438.377h0l-1.027.883h0Zm1.117-.1.525-.451.476.554q-.281.214-.543.45l-.468-.544Zm5.573-1.642v-.906h1.342v.906q-.332-.026-.671-.026t-.671.026Z" fill="#fff"/>
    <path id="Path_2669" data-name="Path 2669" d="M154.694,138.282a.324.324,0,0,0-.438-.137,6.79,6.79,0,1,0,1.423-.551.324.324,0,1,0,.165.628,6.114,6.114,0,0,1,1.242-.193v.852a.324.324,0,0,0,.649,0v-.852q.236.013.473.043a6.127,6.127,0,0,1,3.342,1.541l-.587.587a.324.324,0,1,0,.459.459l.586-.586q.153.171.294.355a6.126,6.126,0,0,1,1.273,3.447h-.8a.324.324,0,1,0,0,.649h.8q-.013.232-.043.465a6.137,6.137,0,0,1-1.524,3.318l-.556-.556a.324.324,0,1,0-.459.459l.556.556a6.174,6.174,0,0,1-3.772,1.586v-.793a.324.324,0,1,0-.649,0v.8c-.17-.008-.342-.023-.514-.045a6.136,6.136,0,0,1-3.289-1.5l.575-.575a.324.324,0,0,0-.459-.459l-.578.578a6.174,6.174,0,0,1-1.612-3.794h.841a.324.324,0,0,0,0-.649h-.846c.008-.173.023-.347.045-.521a6.175,6.175,0,0,1,1.516-3.311l.6.6a.324.324,0,0,0,.459-.459l-.606-.606a6.175,6.175,0,0,1,1.292-.9A.324.324,0,0,0,154.694,138.282Z" transform="translate(-144.077 -118.792)" fill="#fff"/>
    <path id="Path_2670" data-name="Path 2670" d="M290.711,226.278a.324.324,0,0,0-.324.324v1.927a.794.794,0,1,0,.66,1.443l2.164,2.164a.324.324,0,1,0,.459-.459l-2.2-2.2a.792.792,0,0,0-.437-.951V226.6A.324.324,0,0,0,290.711,226.278Zm-.146,2.976a.146.146,0,1,1,.146.146A.146.146,0,0,1,290.566,229.254Z" transform="translate(-277.377 -203.854)" fill="#fff"/>
  </g>
</svg>
