<svg xmlns="http://www.w3.org/2000/svg" width="15" height="17.286" viewBox="0 0 15 17.286">
  <g id="Group_3903" data-name="Group 3903" transform="translate(-33.85)">
    <g id="Group_3891" data-name="Group 3891" transform="translate(34.763)">
      <path id="Path_17441" data-name="Path 17441" d="M148.438,2.033a.5.5,0,0,1-.5-.5V.992h-3.77v.545a.5.5,0,1,1-.992,0V.5a.5.5,0,0,1,.5-.5h4.762a.5.5,0,0,1,.5.5V1.537A.5.5,0,0,1,148.438,2.033Z" transform="translate(-140.402)" fill="#8f3b76"/>
      <path id="Path_17442" data-name="Path 17442" d="M258.607,296.225a3.77,3.77,0,1,1,3.77-3.77A3.774,3.774,0,0,1,258.607,296.225Zm0-6.547a2.778,2.778,0,1,0,2.778,2.778A2.781,2.781,0,0,0,258.607,289.678Z" transform="translate(-248.289 -278.94)" fill="#8f3b76"/>
      <path id="Path_17443" data-name="Path 17443" d="M68.88,156.851H62.373a.5.5,0,0,1-.494-.449l-.992-10.416a.5.5,0,0,1,.494-.543H71.7a.5.5,0,1,1,0,.992H61.926l.9,9.424h6.055a.5.5,0,1,1,0,.992Z" transform="translate(-60.885 -140.533)" fill="#8f3b76"/>
      <path id="Path_17444" data-name="Path 17444" d="M130.194,249.123a.5.5,0,0,1-.493-.449l-.489-5.138a.5.5,0,1,1,.988-.094l.489,5.138a.5.5,0,0,1-.447.541Z" transform="translate(-126.902 -234.788)" fill="#8f3b76"/>
      <path id="Path_17445" data-name="Path 17445" d="M292.777,246.219l-.049,0a.5.5,0,0,1-.445-.542l.221-2.232a.5.5,0,1,1,.987.1l-.221,2.232A.5.5,0,0,1,292.777,246.219Z" transform="translate(-284.469 -234.791)" fill="#8f3b76"/>
      <path id="Path_17446" data-name="Path 17446" d="M352.283,245.53h-.04a.5.5,0,0,1-.436-.728l.129-1.358a.5.5,0,0,1,.988.094l-.147,1.544A.5.5,0,0,1,352.283,245.53Z" transform="translate(-341.929 -234.791)" fill="#8f3b76"/>
      <path id="Path_17447" data-name="Path 17447" d="M314.672,351.557a.5.5,0,0,1-.351-.847l2.541-2.541a.5.5,0,0,1,.7.7l-2.541,2.541A.494.494,0,0,1,314.672,351.557Z" transform="translate(-305.625 -336.275)" fill="#8f3b76"/>
      <path id="Path_17448" data-name="Path 17448" d="M317.212,351.557a.494.494,0,0,1-.351-.145l-2.541-2.541a.5.5,0,0,1,.7-.7l2.541,2.541a.5.5,0,0,1-.351.847Z" transform="translate(-305.624 -336.275)" fill="#8f3b76"/>
    </g>
    <g id="Group_3892" data-name="Group 3892" transform="translate(33.85 2.926)">
      <path id="Path_17449" data-name="Path 17449" d="M46.49,90.365H34.346a.5.5,0,0,1-.5-.5v-2.7a.5.5,0,0,1,.5-.5H46.49a.5.5,0,0,1,.5.5v2.7A.5.5,0,0,1,46.49,90.365Zm-11.648-.992H45.994V87.668H34.842Z" transform="translate(-33.85 -86.676)" fill="#8f3b76"/>
      <path id="Path_17450" data-name="Path 17450" d="M214.2,247.5a.5.5,0,0,1-.5-.5v-5.2a.5.5,0,0,1,.992,0V247A.5.5,0,0,1,214.2,247.5Z" transform="translate(-207.628 -236.088)" fill="#8f3b76"/>
    </g>
  </g>
</svg>
