<svg id="user" xmlns="http://www.w3.org/2000/svg" width="14" height="14" viewBox="0 0 14 14">
  <g id="Group_3998" data-name="Group 3998">
    <path id="Path_17840" data-name="Path 17840" d="M7,0A7,7,0,0,0,1.6,11.454s0,.008.006.011a7,7,0,0,0,2.643,1.972l.035.015c.082.035.165.067.248.1l.1.037q.107.039.216.073l.14.044.193.055c.057.015.114.03.172.043s.116.028.175.04.131.026.2.039.106.02.16.029c.074.012.147.021.222.031l.144.018c.084.009.169.015.254.021l.118.009Q6.81,14,7,14c.126,0,.252,0,.376-.01l.118-.009c.085-.006.17-.012.254-.021l.144-.018c.074-.01.148-.019.222-.031l.16-.029c.066-.012.132-.024.2-.039l.175-.04.172-.043c.065-.017.129-.036.193-.055l.14-.044q.109-.035.216-.073l.1-.037c.083-.031.166-.063.248-.1l.035-.015a7,7,0,0,0,2.643-1.972s0-.008.006-.011A7,7,0,0,0,7,0ZM9.837,12.885l-.01.005c-.083.04-.168.078-.253.115l-.058.025q-.112.047-.226.089l-.1.035c-.067.024-.135.047-.2.069l-.128.039c-.061.018-.122.036-.183.052l-.156.039c-.055.013-.109.026-.165.038s-.121.024-.182.035-.1.019-.148.027c-.068.011-.137.019-.206.028L7.69,13.5c-.079.008-.158.014-.237.019l-.106.008q-.173.009-.347.009t-.347-.009l-.106-.008c-.079-.005-.158-.011-.237-.019l-.131-.017c-.069-.009-.138-.017-.206-.028-.05-.008-.1-.017-.148-.027S5.7,13.4,5.642,13.39s-.11-.025-.165-.038l-.156-.039c-.061-.016-.122-.034-.183-.052l-.128-.039q-.1-.033-.2-.069l-.1-.035q-.114-.043-.226-.089L4.427,13c-.085-.037-.17-.075-.254-.115l-.01-.005a6.565,6.565,0,0,1-2.117-1.632A5.15,5.15,0,0,1,5.417,7.721c.032.02.066.038.1.056l.059.033c.07.037.14.071.212.1.055.024.112.045.169.066l.034.012a2.978,2.978,0,0,0,2.018,0l.034-.012c.057-.021.114-.042.169-.066.072-.031.143-.066.212-.1l.059-.033c.033-.019.067-.036.1-.056a5.151,5.151,0,0,1,3.371,3.532A6.572,6.572,0,0,1,9.837,12.885Zm-5.4-7.751A2.567,2.567,0,1,1,8.4,7.284a2.472,2.472,0,0,1-.286.16l-.035.017a2.625,2.625,0,0,1-2.151,0L5.89,7.444a2.452,2.452,0,0,1-.286-.16A2.565,2.565,0,0,1,4.433,5.133Zm7.87,5.675A5.622,5.622,0,0,0,9.026,7.385a3.033,3.033,0,1,0-4.051,0A5.623,5.623,0,0,0,1.7,10.809,6.532,6.532,0,1,1,13.533,7,6.5,6.5,0,0,1,12.3,10.809Z" fill="#8f3b76"/>
  </g>
</svg>
