<svg xmlns="http://www.w3.org/2000/svg" width="30" height="30.004" viewBox="0 0 30 30.004">
  <g id="target_1_" data-name="target (1)" transform="translate(-0.036 0.001)">
    <g id="Group_515" data-name="Group 515" transform="translate(9.06 22.949)">
      <g id="Group_514" data-name="Group 514" transform="translate(0)">
        <path id="Path_2391" data-name="Path 2391" d="M337.826,391.794a.587.587,0,0,1,.837-.008l.006.006a.587.587,0,0,1,.018.837.587.587,0,0,1-.837,0A.587.587,0,0,1,337.826,391.794Z" transform="translate(-337.662 -391.615)" fill="#fff"/>
      </g>
    </g>
    <g id="Group_517" data-name="Group 517" transform="translate(3.083 11.464)">
      <g id="Group_516" data-name="Group 516">
        <path id="Path_2392" data-name="Path 2392" d="M95.711,196.015a.586.586,0,1,1,1.1.407,12.308,12.308,0,0,0,18.542,14.4.586.586,0,0,1,.667.963,13.482,13.482,0,0,1-20.308-15.765Z" transform="translate(-94.875 -195.633)" fill="#fff"/>
      </g>
    </g>
    <g id="Group_519" data-name="Group 519" transform="translate(11.633 3.051)">
      <g id="Group_518" data-name="Group 518">
        <path id="Path_2393" data-name="Path 2393" d="M.425,52.847a13.44,13.44,0,0,1,4.538-.783,13.389,13.389,0,0,1,9.529,3.947,13.479,13.479,0,0,1,1.5,17.275.586.586,0,0,1-.958-.674,12.226,12.226,0,0,0,2.233-7.071A12.314,12.314,0,0,0,.819,53.951a.586.586,0,0,1-.395-1.1Z" transform="translate(-0.036 -52.064)" fill="#fff"/>
      </g>
    </g>
    <g id="Group_521" data-name="Group 521" transform="translate(0.036 -0.001)">
      <g id="Group_520" data-name="Group 520" transform="translate(0 0)">
        <path id="Path_2394" data-name="Path 2394" d="M52.072,4.859a.586.586,0,0,1,.541-.362h3.079l-.331-.331a.586.586,0,1,1,.829-.829l.335.335V.585a.586.586,0,0,1,1-.414L62.69,5.336a.586.586,0,0,1,.172.414V7.783A10.314,10.314,0,0,1,68.551,6.1a10.43,10.43,0,1,1-5.4,19.354.586.586,0,0,1,.608-1,9.259,9.259,0,1,0-.9-15.226v.787l1.068,1.068a7.157,7.157,0,1,1-.829.829l-1.072-1.072h-.78A9.263,9.263,0,0,0,60.677,21.4a.586.586,0,1,1-1,.618,10.434,10.434,0,0,1,.13-11.183H57.779a.586.586,0,0,1-.414-.172L52.2,5.5A.585.585,0,0,1,52.072,4.859Zm10.5,11.668a5.983,5.983,0,1,0,2.187-4.618L66.1,13.243a4.105,4.105,0,1,1-.829.829l-1.334-1.334A5.949,5.949,0,0,0,62.574,16.527Zm6.391.414a.586.586,0,0,1-.829,0l-2.029-2.029a2.933,2.933,0,1,0,.829-.829l2.029,2.029A.586.586,0,0,1,68.965,16.941Zm-7.275-8.1V5.994L57.7,2V4.844Zm-3.669.824h2.836L56.864,5.669H54.028Z" transform="translate(-52.027 0.001)" fill="#fff"/>
      </g>
    </g>
    <g id="Group_523" data-name="Group 523" transform="translate(25.1 25.044)">
      <g id="Group_522" data-name="Group 522">
        <path id="Path_2395" data-name="Path 2395" d="M64.439,427.541a.585.585,0,1,1-.172.414A.59.59,0,0,1,64.439,427.541Z" transform="translate(-64.267 -427.369)" fill="#fff"/>
      </g>
    </g>
  </g>
</svg>
