<svg xmlns="http://www.w3.org/2000/svg" width="30" height="19.279" viewBox="0 0 30 19.279">
  <g id="XMLID_70_" transform="translate(-0.002 -88.777)">
    <path id="XMLID_71_" d="M283.654,92.759a2.31,2.31,0,1,0-3.268-.076A2.311,2.311,0,0,0,283.654,92.759Z" transform="translate(-262.854 0)" fill="#553772"/>
    <path id="XMLID_72_" d="M424.314,99.7a2.31,2.31,0,1,0-.076,3.267A2.311,2.311,0,0,0,424.314,99.7Z" transform="translate(-394.95 -9.592)" fill="#553772"/>
    <path id="XMLID_73_" d="M25.019,157.321H19.995l-3.2-1.579,1.445.364,1.569.4h5.215a1.944,1.944,0,0,1,.371.037,1.079,1.079,0,0,0,.049-.487,1.091,1.091,0,0,0-1.239-.921l-4.274.629-1.939-.3a1.982,1.982,0,0,0-.257-.338l-.586-.614a1.989,1.989,0,0,0-2.812-.066L9.16,159.383,6.338,163.4.681,166.7a1.365,1.365,0,0,0,1.374,2.359l5.91-3.442a1.35,1.35,0,0,0,.424-.386l1.855-2.593,3.592.768L11.9,167.267a1.365,1.365,0,1,0,2.44,1.223l2.726-5.439a1.365,1.365,0,0,0-.934-1.946l-1.457-.311,2.292-2.189-1.141-.9,3.432,1.691a1.092,1.092,0,0,0,.483.113h5.279a1.092,1.092,0,1,0,0-2.184Z" transform="translate(0 -61.187)" fill="#553772"/>
  </g>
</svg>
