<svg xmlns="http://www.w3.org/2000/svg" width="14" height="12.686" viewBox="0 0 14 12.686">
  <g id="domain" transform="translate(0 -0.5)">
    <path id="Path_16279" data-name="Path 16279" d="M13.492,5.707h-.25A6.344,6.344,0,0,0,2.515,2.358,6.3,6.3,0,0,0,.753,5.735H.508A.509.509,0,0,0,0,6.243V8.091A.509.509,0,0,0,.508,8.6h.4a6.342,6.342,0,0,0,1.964,3.057.205.205,0,0,0,.268-.311,5.945,5.945,0,0,1-.677-.684,7.874,7.874,0,0,1,.957-.331,6.806,6.806,0,0,0,.516.781,8,8,0,0,0,1.394,1.424,5.883,5.883,0,0,1-1.2-.5.205.205,0,0,0-.2.359,6.349,6.349,0,0,0,9.171-3.783h.4A.509.509,0,0,0,14,8.1V6.216A.509.509,0,0,0,13.492,5.707Zm-.668,0H11.4c-.017-.106-.036-.213-.058-.319a7.234,7.234,0,0,0-.569-1.682l.113-.031a7.827,7.827,0,0,0,.921-.316A5.868,5.868,0,0,1,12.824,5.707Zm-1.84.027H8.863c-.007-.1-.015-.206-.024-.309-.041-.459-.1-.9-.178-1.329a13.29,13.29,0,0,0,1.7-.286,6.818,6.818,0,0,1,.573,1.661C10.954,5.559,10.969,5.647,10.984,5.735Zm.211-3.087q.181.181.345.375a7.924,7.924,0,0,1-.77.257l-.194.053a7.213,7.213,0,0,0-.429-.678A7.052,7.052,0,0,0,8.7,1.156,5.9,5.9,0,0,1,11.195,2.648ZM7.633.944a6.673,6.673,0,0,1,2.18,1.951q.188.263.348.541a12.98,12.98,0,0,1-1.58.257A8.445,8.445,0,0,0,7.532.934ZM7,.911h.015A7.369,7.369,0,0,1,8.169,3.728q-.658.047-1.347.038c-.312,0-.645-.014-.992-.035A7.373,7.373,0,0,1,6.985.911ZM6.468.934A8.452,8.452,0,0,0,5.418,3.7a11.778,11.778,0,0,1-1.592-.242q.166-.29.362-.564A6.675,6.675,0,0,1,6.367.944ZM5.337,4.105c-.077.423-.136.864-.176,1.321-.009.1-.017.206-.024.309H3.016c.015-.088.031-.176.049-.263a6.823,6.823,0,0,1,.561-1.638A11.942,11.942,0,0,0,5.337,4.105ZM2.805,2.648A5.9,5.9,0,0,1,5.3,1.156a7.047,7.047,0,0,0-1.448,1.5,7.179,7.179,0,0,0-.44.7,7.856,7.856,0,0,1-.954-.33Q2.623,2.831,2.805,2.648ZM2.2,3.359a8.14,8.14,0,0,0,1.025.368,7.236,7.236,0,0,0-.559,1.661q-.036.173-.062.346H1.171A5.868,5.868,0,0,1,2.2,3.359ZM.508,8.189a.1.1,0,0,1-.1-.1V6.243a.1.1,0,0,1,.1-.1H6.434a.205.205,0,0,0,0-.411H5.549c.006-.091.013-.182.021-.272.041-.459.1-.9.179-1.325.374.024.733.035,1.068.04l.242,0q.608,0,1.192-.045c.078.423.138.868.179,1.329q.012.136.021.272H7.716a.205.205,0,1,0,0,.411H10.9V8.188H.508Zm10.343.41a6.533,6.533,0,0,1-.489,1.276,13.3,13.3,0,0,0-1.7-.286c.059-.321.107-.652.145-.99h2.043ZM8.4,8.6c-.037.326-.085.645-.142.954q-.7-.053-1.436-.043c-.335,0-.695.015-1.07.04-.057-.308-.1-.625-.142-.95ZM2.2,10.326A5.927,5.927,0,0,1,1.333,8.6H2.725a6.959,6.959,0,0,0,.5,1.36A8.129,8.129,0,0,0,2.2,10.326ZM3.149,8.6H5.192c.037.335.085.664.143.982a11.942,11.942,0,0,0-1.709.271A6.534,6.534,0,0,1,3.149,8.6Zm3.216,4.142a7.1,7.1,0,0,1-2.106-1.879,6.375,6.375,0,0,1-.428-.636,11.793,11.793,0,0,1,1.585-.24A10.569,10.569,0,0,0,5.7,11.051a8.028,8.028,0,0,0,.766,1.7ZM7,12.776H6.985a6.613,6.613,0,0,1-.89-1.853c-.1-.305-.189-.629-.264-.967.347-.021.681-.031.992-.035q.689-.01,1.347.038c-.075.337-.163.66-.264.964a6.61,6.61,0,0,1-.89,1.853Zm.529-.023a8.016,8.016,0,0,0,.766-1.7,10.5,10.5,0,0,0,.287-1.057,12.98,12.98,0,0,1,1.573.255,6.368,6.368,0,0,1-.415.613,7.1,7.1,0,0,1-2.108,1.88Zm3.666-1.714a5.9,5.9,0,0,1-2.526,1.5,8,8,0,0,0,1.4-1.427,6.782,6.782,0,0,0,.5-.76l.2.054a7.953,7.953,0,0,1,.77.257C11.43,10.792,11.316,10.917,11.195,11.038Zm.608-.711a7.833,7.833,0,0,0-.92-.316l-.113-.031a6.956,6.956,0,0,0,.5-1.371h1.393A5.867,5.867,0,0,1,11.8,10.327Zm1.787-2.236a.1.1,0,0,1-.1.1H11.311V6.145h2.181a.1.1,0,0,1,.1.1Zm0,0" fill="#8f3b76"/>
    <path id="Path_16280" data-name="Path 16280" d="M49.852,220.469c0,.03-.046.062-.1.062s-.1-.032-.1-.062v-1.018c0-.036.04-.061.1-.061s.1.024.1.061v.466a.208.208,0,0,1,.191-.115.292.292,0,0,1,.261.308v.359c0,.041-.05.062-.1.062s-.1-.021-.1-.062v-.359a.14.14,0,0,0-.132-.137.129.129,0,0,0-.124.137v.359Zm0,0" transform="translate(-48.298 -212.905)" fill="#8f3b76"/>
    <path id="Path_16281" data-name="Path 16281" d="M82.145,223.8c0,.059.021.08.085.08h.059a.083.083,0,1,1,0,.165H82.23c-.182,0-.281-.074-.281-.246v-.736c0-.036.051-.061.1-.061s.1.024.1.061v.261h.179c.032,0,.05.036.05.071s-.018.071-.05.071h-.179v.332Zm0,0" transform="translate(-79.708 -216.416)" fill="#8f3b76"/>
    <path id="Path_16282" data-name="Path 16282" d="M104.723,223.8c0,.059.021.08.085.08h.059a.083.083,0,1,1,0,.165h-.059c-.182,0-.281-.074-.281-.246v-.736c0-.036.052-.061.1-.061s.1.024.1.061v.261h.179c.032,0,.05.036.05.071s-.018.071-.05.071h-.179Zm0,0" transform="translate(-101.669 -216.416)" fill="#8f3b76"/>
    <path id="Path_16283" data-name="Path 16283" d="M127.4,234.5v.046a.238.238,0,0,1,.2-.115.291.291,0,0,1,.272.308v.124a.3.3,0,0,1-.265.311.225.225,0,0,1-.2-.12v.379c0,.032-.046.062-.1.062s-.1-.03-.1-.062V234.5c0-.036.041-.061.092-.061S127.4,234.459,127.4,234.5Zm.281.238a.142.142,0,0,0-.138-.137.133.133,0,0,0-.13.137v.152a.147.147,0,0,0,.133.112.145.145,0,0,0,.135-.14Zm0,0" transform="translate(-123.74 -227.529)" fill="#8f3b76"/>
    <path id="Path_16284" data-name="Path 16284" d="M158.17,234.955c0-.133-.36-.05-.36-.3,0-.108.068-.226.272-.226.123,0,.241.043.241.1,0,.027-.026.094-.071.094s-.083-.044-.167-.044-.106.038-.106.068c0,.111.364.035.364.3,0,.135-.1.222-.279.222-.155,0-.275-.064-.275-.131,0-.032.027-.086.065-.086s.077.068.2.068C158.148,235.02,158.17,234.985,158.17,234.955Zm0,0" transform="translate(-153.475 -227.529)" fill="#8f3b76"/>
    <path id="Path_16285" data-name="Path 16285" d="M185.455,237.8a.1.1,0,0,1-.1.1.1.1,0,1,1,.1-.1Zm0,.443a.1.1,0,0,1-.1.1.1.1,0,1,1,.1-.1Zm0,0" transform="translate(-180.185 -230.713)" fill="#8f3b76"/>
    <path id="Path_16286" data-name="Path 16286" d="M200.132,218.408a.059.059,0,0,1-.006.027l-.545,1.1a.066.066,0,0,1-.059.033.071.071,0,0,1-.073-.067.052.052,0,0,1,.008-.026l.545-1.106a.059.059,0,0,1,.055-.032A.074.074,0,0,1,200.132,218.408Zm0,0" transform="translate(-193.996 -211.883)" fill="#8f3b76"/>
    <path id="Path_16287" data-name="Path 16287" d="M216.89,218.408a.06.06,0,0,1-.006.027l-.545,1.1a.066.066,0,0,1-.059.033.071.071,0,0,1-.073-.067.05.05,0,0,1,.008-.026l.545-1.106a.059.059,0,0,1,.055-.032A.074.074,0,0,1,216.89,218.408Zm0,0" transform="translate(-210.295 -211.883)" fill="#8f3b76"/>
    <path id="Path_16288" data-name="Path 16288" d="M245.126,235.19c-.011.026-.044.035-.077.035s-.071-.012-.08-.035l-.117-.331-.115.329c-.009.024-.046.036-.083.036a.076.076,0,0,1-.076-.036l-.234-.6a.062.062,0,0,1-.008-.029c0-.047.076-.08.127-.08a.055.055,0,0,1,.056.032l.152.431.114-.375c.011-.035.036-.039.067-.039s.056,0,.067.039l.112.376.153-.432a.056.056,0,0,1,.056-.032c.048,0,.126.033.126.082a.055.055,0,0,1-.006.027Zm0,0" transform="translate(-237.655 -227.583)" fill="#8f3b76"/>
    <path id="Path_16289" data-name="Path 16289" d="M286.9,235.19c-.011.026-.044.035-.077.035s-.071-.012-.08-.035l-.117-.331-.115.329c-.009.024-.045.036-.083.036a.076.076,0,0,1-.076-.036l-.234-.6a.062.062,0,0,1-.008-.029c0-.047.076-.08.127-.08a.056.056,0,0,1,.056.032l.152.431.114-.375c.011-.035.036-.039.067-.039s.056,0,.067.039l.112.376.153-.432a.056.056,0,0,1,.056-.032c.049,0,.126.033.126.082a.056.056,0,0,1-.006.027Zm0,0" transform="translate(-278.286 -227.583)" fill="#8f3b76"/>
    <path id="Path_16290" data-name="Path 16290" d="M328.677,235.19c-.011.026-.044.035-.077.035s-.071-.012-.08-.035l-.117-.331-.115.329c-.009.024-.046.036-.083.036a.076.076,0,0,1-.076-.036l-.234-.6a.062.062,0,0,1-.008-.029c0-.047.076-.08.127-.08a.056.056,0,0,1,.056.032l.152.431.114-.375c.011-.035.036-.039.067-.039s.056,0,.067.039l.112.376.153-.432a.056.056,0,0,1,.056-.032c.048,0,.126.033.126.082a.055.055,0,0,1-.006.027Zm0,0" transform="translate(-318.921 -227.583)" fill="#8f3b76"/>
    <path id="Path_16291" data-name="Path 16291" d="M425.3,213.912l-.221-.032-.1-.2a.308.308,0,0,0-.552,0l-.1.2-.221.032a.308.308,0,0,0-.171.525l.16.156-.038.221a.308.308,0,0,0,.447.325l.2-.1.2.1a.308.308,0,0,0,.447-.325l-.038-.221.16-.156a.308.308,0,0,0-.171-.525Zm-.315.425a.308.308,0,0,0-.089.273l.012.069-.062-.032a.308.308,0,0,0-.287,0l-.062.032.012-.069a.308.308,0,0,0-.089-.273l-.05-.049.069-.01a.308.308,0,0,0,.232-.168l.031-.063.031.063a.308.308,0,0,0,.232.168l.069.01Zm0,0" transform="translate(-412.257 -207.183)" fill="#8f3b76"/>
  </g>
</svg>
