<svg id="whatsapp" xmlns="http://www.w3.org/2000/svg" width="17" height="17" viewBox="0 0 17 17">
  <path id="Path_2440" data-name="Path 2440" d="M4.112,15.787A8.438,8.438,0,0,0,8.47,16.994,8.544,8.544,0,0,0,17,8.5,8.5,8.5,0,1,0,1.213,12.888L0,17ZM1,8.5a7.465,7.465,0,1,1,3.451,6.33L4.261,14.7l-2.789.823L2.3,12.739l-.122-.191A7.5,7.5,0,0,1,1,8.5Zm0,0" fill="#fff"/>
  <path id="Path_2441" data-name="Path 2441" d="M121.244,96.52a7.507,7.507,0,0,0,6.02,6.02c.989.188,2.441.217,3.15-.493l.4-.4a1.057,1.057,0,0,0,0-1.495l-1.581-1.581a1.057,1.057,0,0,0-1.495,0l-.4.4a.7.7,0,0,1-.941,0L124.82,97.33l-.007-.007a.621.621,0,0,1,0-.877l.4-.4a1.056,1.056,0,0,0,0-1.495l-1.581-1.581a1.058,1.058,0,0,0-1.495,0l-.4.4h0A3.687,3.687,0,0,0,121.244,96.52Zm1.2-2.446c.415-.406.393-.413.439-.413a.061.061,0,0,1,.043.018c1.666,1.675,1.6,1.577,1.6,1.625a.06.06,0,0,1-.018.043l-.4.4a1.615,1.615,0,0,0,0,2.282l1.578,1.645.007.007a1.7,1.7,0,0,0,2.352,0l.4-.4a.061.061,0,0,1,.087,0c1.666,1.675,1.6,1.577,1.6,1.625a.06.06,0,0,1-.018.043l-.4.4a2.945,2.945,0,0,1-2.26.219,6.511,6.511,0,0,1-5.228-5.229A2.945,2.945,0,0,1,122.44,94.074Zm0,0" transform="translate(-117.106 -89.588)" fill="#fff"/>
</svg>
