<svg id="whatsapp_1_" data-name="whatsapp (1)" xmlns="http://www.w3.org/2000/svg" width="20" height="20" viewBox="0 0 20 20">
  <path id="Path_16982" data-name="Path 16982" d="M10,0A10,10,0,1,0,20,10,10,10,0,0,0,10,0Zm.212,15.822h0a5.983,5.983,0,0,1-2.86-.728l-3.173.832.849-3.1a5.985,5.985,0,1,1,5.186,3Zm0,0" fill="#fff"/>
  <path id="Path_16983" data-name="Path 16983" d="M139.047,124.469a4.975,4.975,0,0,0-4.216,7.619l.118.188-.5,1.835,1.883-.494.182.108a4.967,4.967,0,0,0,2.532.693h0a4.975,4.975,0,0,0,0-9.95Zm2.926,7.111a1.541,1.541,0,0,1-1.009.711,2.052,2.052,0,0,1-.942-.059,8.637,8.637,0,0,1-.853-.315,6.666,6.666,0,0,1-2.555-2.257,2.908,2.908,0,0,1-.611-1.547,1.676,1.676,0,0,1,.523-1.247.55.55,0,0,1,.4-.187c.1,0,.2,0,.287.005s.215-.035.336.257.424,1.035.461,1.11a.276.276,0,0,1,.013.262,4.262,4.262,0,0,1-.374.511c-.066.082-.153.155-.066.305a4.508,4.508,0,0,0,.832,1.036,4.088,4.088,0,0,0,1.2.742c.149.075.237.062.324-.037s.374-.437.473-.586.2-.125.336-.075.872.412,1.022.486.249.112.287.175A1.247,1.247,0,0,1,141.973,131.579Zm0,0" transform="translate(-128.833 -119.607)" fill="#fff"/>
</svg>
