<svg xmlns="http://www.w3.org/2000/svg" width="12.817" height="12.691" viewBox="0 0 12.817 12.691">
  <g id="paper-plane" transform="translate(0 0)">
    <path id="Path_17619" data-name="Path 17619" d="M8.75,17.612v2.559a.414.414,0,0,0,.747.245l1.5-2.037Z" transform="translate(-4.109 -7.894)" fill="#fff"/>
    <path id="Path_17620" data-name="Path 17620" d="M12.649.077a.39.39,0,0,0-.418-.03L.215,6.53a.418.418,0,0,0-.214.4.412.412,0,0,0,.27.36l3.34,1.18,7.114-6.285L5.22,9.036l5.6,1.977a.4.4,0,0,0,.129.022.393.393,0,0,0,.208-.06.417.417,0,0,0,.188-.292L12.813.475a.421.421,0,0,0-.164-.4Z" transform="translate(0 0)" fill="#fff"/>
  </g>
</svg>
